<svg width="218" height="59" viewBox="0 0 218 59" fill="none" xmlns="http://www.w3.org/2000/svg">
<path d="M28.8845 16.8181H50.0584C50.5033 16.789 50.9204 16.5918 51.2253 16.2664C51.5301 15.941 51.6997 15.5119 51.6997 15.066C51.6997 14.6202 51.5301 14.191 51.2253 13.8657C50.9204 13.5403 50.5033 13.3431 50.0584 13.314H45.5008V11.6628C45.4591 11.1963 45.2442 10.7622 44.8985 10.4461C44.5529 10.13 44.1014 9.95474 43.633 9.95474C43.1646 9.95474 42.7131 10.13 42.3674 10.4461C42.0218 10.7622 41.8069 11.1963 41.7651 11.6628V13.314H37.1852V11.6554C37.1434 11.1888 36.9285 10.7548 36.5829 10.4387C36.2372 10.1226 35.7857 9.94727 35.3173 9.94727C34.8489 9.94727 34.3975 10.1226 34.0518 10.4387C33.7061 10.7548 33.4913 11.1888 33.4495 11.6554V13.3065H28.8845C28.4396 13.3356 28.0224 13.5328 27.7176 13.8582C27.4128 14.1836 27.2432 14.6127 27.2432 15.0586C27.2432 15.5044 27.4128 15.9336 27.7176 16.2589C28.0224 16.5843 28.4396 16.7815 28.8845 16.8106V16.8181Z" fill="#54524C"/>
<path d="M52.8452 40.0467H39.0605V38.4254C39.0605 37.8949 39.195 37.7829 39.6956 37.7829H42.3404C42.52 37.8088 42.7031 37.7944 42.8763 37.7406C43.0495 37.6867 43.2086 37.5949 43.3417 37.4717C43.4749 37.3485 43.5789 37.1972 43.6461 37.0287C43.7133 36.8602 43.742 36.6788 43.7301 36.4978V35.4219C43.7251 35.2609 43.6866 35.1027 43.617 34.9575C43.5474 34.8122 43.4482 34.6831 43.3259 34.5783C43.2035 34.4735 43.0607 34.3954 42.9064 34.349C42.7522 34.3026 42.59 34.2888 42.4301 34.3087H36.9611C36.7526 34.2794 36.5402 34.297 36.3393 34.36C36.1384 34.4229 35.9541 34.5298 35.7996 34.6729C35.6451 34.8159 35.5244 34.9915 35.4461 35.187C35.3679 35.3824 35.3341 35.5928 35.3472 35.8029V40.0392H26.2247C25.7372 40.0392 25.2697 40.2329 24.925 40.5775C24.5804 40.9222 24.3867 41.3897 24.3867 41.8772C24.3867 42.3646 24.5804 42.8321 24.925 43.1768C25.2697 43.5215 25.7372 43.7151 26.2247 43.7151H52.8452C53.3327 43.7151 53.8002 43.5215 54.1448 43.1768C54.4895 42.8321 54.6832 42.3646 54.6832 41.8772C54.6832 41.3897 54.4895 40.9222 54.1448 40.5775C53.8002 40.2329 53.3327 40.0392 52.8452 40.0392V40.0467Z" fill="#54524C"/>
<path d="M46.3227 45.3887H32.4483C31.9818 45.4304 31.5477 45.6453 31.2316 45.991C30.9155 46.3366 30.7402 46.7881 30.7402 47.2565C30.7402 47.7249 30.9155 48.1764 31.2316 48.5221C31.5477 48.8677 31.9818 49.0826 32.4483 49.1244H46.3227C46.7892 49.0826 47.2232 48.8677 47.5394 48.5221C47.8555 48.1764 48.0308 47.7249 48.0308 47.2565C48.0308 46.7881 47.8555 46.3366 47.5394 45.991C47.2232 45.6453 46.7892 45.4304 46.3227 45.3887Z" fill="#54524C"/>
<path d="M57.7617 29.1383H56.4841V23.3854C56.4841 20.4491 54.7582 18.5215 51.9265 18.5215H40.5551V20.479C40.5551 22.7204 39.2775 24.1101 36.0274 24.1101C34.7423 24.1101 34.4734 24.5808 34.4734 25.044V26.0526C34.4734 26.8521 34.8245 27.1061 36.2889 27.1061H41.235C43.4764 27.1061 43.7528 26.7549 43.7528 24.6704V22.033H46.8908V24.9469C46.8908 27.9354 46.0092 29.7286 42.9982 29.7286L34.0326 29.6912C33.694 29.7193 33.3533 29.6747 33.0333 29.5604C32.7134 29.4461 32.4216 29.2647 32.1775 29.0284C31.9334 28.7921 31.7426 28.5063 31.618 28.1902C31.4934 27.8741 31.4378 27.5351 31.4549 27.1958V24.4089C31.4549 22.2497 32.5457 21.4951 34.3239 21.4951C36.274 21.4951 37.2677 20.9796 37.2677 19.6123V18.529H24.656C24.1923 18.529 23.7476 18.7132 23.4197 19.041C23.0919 19.3689 22.9077 19.8136 22.9077 20.2773C22.9077 20.7409 23.0919 21.1856 23.4197 21.5135C23.7476 21.8414 24.1923 22.0256 24.656 22.0256H28.2123V23.744H21.9214C21.4765 23.7731 21.0594 23.9703 20.7546 24.2957C20.4498 24.621 20.2801 25.0502 20.2801 25.496C20.2801 25.9419 20.4498 26.371 20.7546 26.6964C21.0594 27.0218 21.4765 27.219 21.9214 27.2481H28.1825V29.1383H21.2341C20.7892 29.1674 20.372 29.3646 20.0672 29.69C19.7624 30.0154 19.5928 30.4445 19.5928 30.8904C19.5928 31.3362 19.7624 31.7654 20.0672 32.0907C20.372 32.4161 20.7892 32.6133 21.2341 32.6424H45.5758C49.2368 32.6424 50.5443 29.4073 50.5443 26.0228V22.0256H52.8604V31.1257C52.8687 31.4969 53.0109 31.8526 53.2608 32.1272C53.5107 32.4018 53.8515 32.5768 54.2202 32.62H57.814C58.2776 32.62 58.7223 32.4358 59.0502 32.1079C59.3781 31.78 59.5623 31.3354 59.5623 30.8717C59.5623 30.408 59.3781 29.9633 59.0502 29.6354C58.7223 29.3076 58.2776 29.1234 57.814 29.1234L57.7617 29.1383Z" fill="#54524C"/>
<path d="M31.836 36.0791V35.8624C31.836 35.2797 31.9705 34.4578 32.2021 34.3682H22.8928C22.3776 34.3682 21.8835 34.5728 21.5192 34.9371C21.1549 35.3014 20.9502 35.7955 20.9502 36.3107C20.9502 36.8259 21.1549 37.32 21.5192 37.6843C21.8835 38.0486 22.3776 38.2533 22.8928 38.2533H32.3291C31.7613 38.1562 31.836 36.6918 31.836 36.0791Z" fill="#54524C"/>
<path d="M56.0362 34.3682H46.7119C47.0183 34.4877 47.0631 35.2423 47.0631 35.8624V36.0866C47.0631 36.6992 47.1303 38.1636 46.5625 38.2832H56.0362C56.5554 38.2832 57.0533 38.0769 57.4204 37.7098C57.7875 37.3427 57.9937 36.8448 57.9937 36.3257C57.9937 35.8065 57.7875 35.3086 57.4204 34.9415C57.0533 34.5744 56.5554 34.3682 56.0362 34.3682Z" fill="#54524C"/>
<path d="M81.535 52.8232H80.2873L78.8976 49.3714V52.8232H77.7021V47.3467H78.9947L80.362 50.7462V47.3467H81.4827L81.535 52.8232Z" fill="#5F5D56"/>
<path d="M86.2564 48.4145H85.1731V52.8226H83.9926V48.4219H82.9316V47.3535H86.2639L86.2564 48.4145Z" fill="#5F5D56"/>
<path d="M91.0912 51.2841C91.1046 51.5072 91.0703 51.7306 90.9904 51.9393C90.9105 52.148 90.7869 52.3373 90.6279 52.4944C90.2599 52.7853 89.8045 52.9435 89.3354 52.9435C88.8663 52.9435 88.4109 52.7853 88.0428 52.4944C87.8828 52.3229 87.7598 52.1203 87.6814 51.8992C87.603 51.6782 87.5709 51.4433 87.5871 51.2093V47.3541H88.775V51.0001C88.7614 51.2111 88.8165 51.4208 88.9319 51.5979C88.9789 51.6646 89.0417 51.7187 89.1147 51.7552C89.1878 51.7917 89.2687 51.8095 89.3503 51.8071C89.4291 51.8099 89.5073 51.7929 89.5778 51.7577C89.6483 51.7224 89.7088 51.67 89.7538 51.6053C89.8566 51.4427 89.9062 51.252 89.8957 51.0599V47.3242H91.0912V51.2841Z" fill="#5F5D56"/>
<path d="M96.4549 52.8226H95.2969L95.1175 51.9708H93.6756L93.4738 52.8226H92.3232L93.8848 47.3535H95.0802L96.4549 52.8226ZM94.9606 51.0817L94.4825 48.6909L93.9296 51.0817H94.9606Z" fill="#5F5D56"/>
<path d="M100.408 47.3539H101.723C102.046 47.3392 102.367 47.3944 102.667 47.5156C102.966 47.6368 103.235 47.8212 103.457 48.0562C103.923 48.6206 104.156 49.3426 104.107 50.0735C104.155 50.8074 103.932 51.5337 103.479 52.1131C103.252 52.3619 102.973 52.5577 102.662 52.6868C102.351 52.8159 102.015 52.8751 101.678 52.8603H100.408V47.3539ZM101.611 48.3401V51.8292H101.753C102.028 51.8187 102.291 51.716 102.5 51.5379C102.754 51.3511 102.881 50.8878 102.881 50.1631C102.903 49.7742 102.855 49.3844 102.739 49.0125C102.658 48.8028 102.511 48.6248 102.321 48.5045C102.149 48.4012 101.953 48.3445 101.753 48.3401H101.611Z" fill="#5F5D56"/>
<path d="M105.421 50.9848C105.386 50.4558 105.528 49.9303 105.824 49.4905C105.958 49.3173 106.132 49.1792 106.331 49.0881C106.53 48.997 106.749 48.9556 106.967 48.9675C107.186 48.9539 107.404 48.9929 107.605 49.0814C107.805 49.1698 107.981 49.3049 108.118 49.4755C108.38 49.9299 108.518 50.4452 108.518 50.9698C108.518 51.4944 108.38 52.0098 108.118 52.4641C107.986 52.6352 107.814 52.7716 107.618 52.8614C107.421 52.9513 107.206 52.9918 106.99 52.9796C106.769 52.9917 106.548 52.9529 106.345 52.8661C106.142 52.7793 105.961 52.6468 105.817 52.479C105.512 52.0437 105.371 51.514 105.421 50.9848ZM107.423 50.9848C107.434 50.691 107.407 50.3971 107.341 50.1106C107.318 50.0352 107.27 49.9698 107.204 49.9251C107.139 49.8803 107.061 49.8588 106.982 49.864C106.906 49.8591 106.829 49.879 106.765 49.9207C106.7 49.9624 106.651 50.0237 106.624 50.0957C106.538 50.3349 106.5 50.5888 106.512 50.8428C106.498 51.1568 106.528 51.4711 106.601 51.7767C106.621 51.8577 106.668 51.9291 106.735 51.9784C106.802 52.0276 106.884 52.0515 106.967 52.0457C107.046 52.0509 107.124 52.0294 107.19 51.9847C107.255 51.9399 107.303 51.8746 107.326 51.7991C107.406 51.5304 107.439 51.2498 107.423 50.9698V50.9848Z" fill="#5F5D56"/>
<path d="M111.936 50.0592C111.804 49.9513 111.642 49.8884 111.472 49.8799C111.099 49.8799 110.919 50.2385 110.919 50.9707C110.919 51.7029 111.099 52.0839 111.465 52.0839C111.632 52.0758 111.793 52.0187 111.928 51.9196V52.8161C111.691 52.9157 111.438 52.9714 111.181 52.9805C110.987 52.9865 110.794 52.9439 110.621 52.8564C110.447 52.769 110.298 52.6396 110.187 52.4799C109.919 52.0736 109.791 51.591 109.821 51.1052C109.762 50.5292 109.899 49.95 110.21 49.4615C110.331 49.3145 110.484 49.197 110.658 49.1181C110.831 49.0391 111.02 49.0007 111.211 49.0057C111.471 48.997 111.728 49.0563 111.958 49.1776L111.936 50.0592Z" fill="#5F5D56"/>
<path d="M116.322 51.4637C116.33 51.6605 116.298 51.8569 116.227 52.0407C116.157 52.2245 116.049 52.3918 115.911 52.5321C115.767 52.6671 115.598 52.7722 115.413 52.8414C115.228 52.9107 115.032 52.9427 114.835 52.9356C114.628 52.9482 114.421 52.919 114.226 52.8497C114.031 52.7803 113.852 52.6723 113.699 52.5321C113.558 52.3799 113.449 52.2009 113.379 52.0059C113.308 51.8108 113.277 51.6036 113.288 51.3965V49.0654H114.372V51.4563C114.372 51.8523 114.521 52.054 114.835 52.054C115.149 52.054 115.253 51.8672 115.253 51.4862V49.0654H116.322V51.4637Z" fill="#5F5D56"/>
<path d="M122.866 52.8228H121.783V50.8055C121.783 50.3199 121.633 50.0584 121.335 50.0584C121.268 50.0566 121.202 50.0731 121.144 50.106C121.086 50.1389 121.038 50.187 121.006 50.2451C120.917 50.402 120.876 50.5809 120.886 50.7607V52.8228H119.818V50.7084C119.829 50.5357 119.787 50.3638 119.698 50.2153C119.661 50.1609 119.611 50.1167 119.552 50.0867C119.493 50.0567 119.428 50.0418 119.362 50.0434C119.298 50.0456 119.236 50.0648 119.183 50.099C119.129 50.1331 119.085 50.181 119.056 50.2377C118.967 50.3838 118.923 50.5525 118.929 50.7233V52.8228H117.86V49.0871H118.929V49.8342C119.213 49.2888 119.556 49.0198 119.967 49.0198C120.077 49.0167 120.186 49.0379 120.287 49.0818C120.388 49.1257 120.478 49.1913 120.55 49.2739C120.722 49.4646 120.818 49.7119 120.819 49.9687C120.917 49.6986 121.085 49.459 121.305 49.2739C121.493 49.1141 121.73 49.0243 121.977 49.0198C122.099 49.0196 122.219 49.0512 122.325 49.1114C122.431 49.1717 122.52 49.2586 122.582 49.3635C122.752 49.6252 122.836 49.9335 122.821 50.2451L122.866 52.8228Z" fill="#5F5D56"/>
<path d="M127.275 51.1716H125.385C125.374 51.4444 125.42 51.7166 125.519 51.971C125.556 52.0351 125.612 52.087 125.678 52.1201C125.744 52.1533 125.819 52.1664 125.893 52.1578C126.127 52.1578 126.254 52.0084 126.274 51.7095H127.215C127.198 52.0559 127.048 52.3825 126.797 52.621C126.525 52.84 126.182 52.9517 125.833 52.9348C125.611 52.9481 125.39 52.9082 125.187 52.8185C124.985 52.7289 124.806 52.592 124.667 52.4193C124.378 51.977 124.239 51.4528 124.271 50.925C124.248 50.4148 124.404 49.9124 124.712 49.5054C124.85 49.3324 125.027 49.1938 125.228 49.1005C125.429 49.0072 125.649 48.9617 125.87 48.9675C126.178 48.9571 126.479 49.0609 126.714 49.2589C126.935 49.4579 127.091 49.718 127.163 50.006C127.246 50.3888 127.284 50.78 127.275 51.1716ZM126.266 50.5589C126.276 50.3062 126.243 50.0536 126.169 49.8118C126.148 49.7455 126.106 49.6878 126.049 49.6474C125.993 49.607 125.925 49.586 125.855 49.5876C125.779 49.5828 125.702 49.6018 125.637 49.6419C125.571 49.682 125.52 49.7413 125.489 49.8118C125.396 50.0491 125.357 50.3046 125.377 50.5589H126.266Z" fill="#5F5D56"/>
<path d="M129.77 49.0646V49.7594C129.898 49.5306 130.062 49.3238 130.256 49.1467C130.418 49.0214 130.619 48.9554 130.824 48.96C130.957 48.9531 131.09 48.9821 131.208 49.0439C131.326 49.1056 131.426 49.1979 131.496 49.3111C131.667 49.5833 131.751 49.9015 131.735 50.2226V52.8227H130.674V50.6485C130.685 50.4947 130.643 50.3419 130.555 50.2152C130.519 50.1617 130.47 50.1185 130.412 50.0897C130.354 50.0609 130.29 50.0475 130.226 50.0508C129.927 50.0508 129.785 50.2824 129.785 50.7456V52.8227H128.717V49.087L129.77 49.0646Z" fill="#5F5D56"/>
<path d="M135.396 49.9162H134.731V52.8226H133.655V49.9237H132.99V49.0645H133.663V47.9961H134.739V49.0645H135.404L135.396 49.9162Z" fill="#5F5D56"/>
<path d="M142.218 52.8231H141.15V52.188C140.97 52.6886 140.679 52.9351 140.268 52.9351C140.119 52.9286 139.973 52.8865 139.843 52.8125C139.713 52.7384 139.603 52.6345 139.521 52.5093C139.265 52.0551 139.15 51.5347 139.192 51.015C139.192 49.6627 139.566 48.9902 140.313 48.9902C140.716 48.9902 141 49.2443 141.157 49.7374V49.0649H142.233L142.218 52.8231ZM140.649 49.9017C140.395 49.9017 140.268 50.2155 140.268 50.8581C140.252 51.141 140.287 51.4246 140.373 51.6949C140.394 51.7691 140.439 51.8343 140.501 51.8802C140.563 51.9261 140.639 51.9503 140.716 51.9489C140.79 51.9513 140.862 51.9301 140.922 51.8884C140.983 51.8467 141.028 51.7868 141.052 51.7173C141.191 51.206 141.191 50.6671 141.052 50.1558C141.025 50.0791 140.975 50.0131 140.907 49.9674C140.84 49.9217 140.76 49.8987 140.679 49.9017H140.649Z" fill="#5F5D56"/>
<path d="M144.87 49.0648V49.7596C144.995 49.5292 145.16 49.322 145.355 49.147C145.518 49.0216 145.718 48.9557 145.923 48.9602C146.051 48.9579 146.177 48.9882 146.289 49.0484C146.401 49.1085 146.497 49.1965 146.566 49.3039C146.737 49.576 146.82 49.8942 146.805 50.2154V52.8229H145.766V50.6487C145.777 50.4949 145.734 50.3421 145.647 50.2154C145.611 50.162 145.561 50.1188 145.504 50.09C145.446 50.0612 145.382 50.0477 145.318 50.051C145.019 50.051 144.87 50.2826 144.87 50.7458V52.8229H143.809V49.0872L144.87 49.0648Z" fill="#5F5D56"/>
<path d="M151.251 52.8231H150.175V52.203C150.128 52.4084 150.014 52.5927 149.852 52.7277C149.691 52.8626 149.489 52.9407 149.278 52.9501C149.129 52.943 148.983 52.9007 148.854 52.8267C148.724 52.7527 148.613 52.649 148.531 52.5242C148.269 52.0452 148.157 51.4986 148.21 50.9552C148.176 50.4403 148.277 49.9256 148.501 49.461C148.58 49.3054 148.701 49.1753 148.85 49.0854C149 48.9955 149.171 48.9496 149.345 48.9529C149.734 48.9529 150.01 49.202 150.175 49.7001V46.9805H151.236L151.251 52.8231ZM149.719 49.9093C149.443 49.9093 149.301 50.2604 149.301 50.9552C149.301 51.6501 149.45 51.9714 149.749 51.9714C149.823 51.9721 149.895 51.9493 149.956 51.9064C150.016 51.8634 150.062 51.8025 150.085 51.7323C150.166 51.4917 150.201 51.2385 150.19 50.9851C150.19 50.238 150.033 49.9242 149.727 49.9242L149.719 49.9093Z" fill="#5F5D56"/>
<path d="M158.049 48.4219H156.667V49.5426H157.855V50.5587H156.667V52.8002H155.494V47.3535H158.049V48.4219Z" fill="#5F5D56"/>
<path d="M159.364 47.8167C159.364 47.7337 159.381 47.6516 159.414 47.5756C159.448 47.4996 159.497 47.4316 159.559 47.3759C159.616 47.3142 159.685 47.265 159.762 47.2315C159.839 47.1981 159.923 47.1811 160.007 47.1817C160.175 47.1829 160.336 47.2499 160.455 47.3684C160.543 47.4582 160.602 47.5716 160.626 47.6947C160.65 47.8178 160.637 47.9451 160.589 48.0611C160.542 48.177 160.461 48.2765 160.358 48.3472C160.254 48.418 160.132 48.4569 160.007 48.4593C159.923 48.4612 159.84 48.4456 159.763 48.4134C159.686 48.3813 159.616 48.3332 159.559 48.2725C159.497 48.2139 159.447 48.1433 159.414 48.0648C159.38 47.9864 159.364 47.902 159.364 47.8167ZM159.484 49.0644H160.552V52.8001H159.484V49.0644Z" fill="#5F5D56"/>
<path d="M163.25 52.8231H162.174V46.9805H163.25V52.8231Z" fill="#5F5D56"/>
<path d="M167.724 51.1716H165.864C165.853 51.4444 165.899 51.7166 165.998 51.971C166.036 52.0351 166.091 52.087 166.157 52.1201C166.224 52.1533 166.298 52.1664 166.372 52.1578C166.606 52.1578 166.733 52.0084 166.753 51.7095H167.694C167.678 52.0559 167.528 52.3825 167.276 52.621C167.005 52.8413 166.661 52.9531 166.312 52.9348C166.091 52.9481 165.87 52.9082 165.667 52.8185C165.464 52.7289 165.286 52.592 165.147 52.4193C164.857 51.977 164.718 51.4528 164.751 50.925C164.727 50.4148 164.883 49.9124 165.192 49.5054C165.33 49.3324 165.507 49.1938 165.707 49.1005C165.908 49.0072 166.128 48.9617 166.35 48.9675C166.657 48.9571 166.958 49.0609 167.194 49.2589C167.421 49.4524 167.578 49.7148 167.642 50.006C167.715 50.3899 167.743 50.7812 167.724 51.1716ZM166.723 50.5589C166.733 50.3062 166.7 50.0536 166.626 49.8118C166.605 49.7455 166.563 49.6878 166.507 49.6474C166.45 49.607 166.382 49.586 166.312 49.5876C166.236 49.5828 166.159 49.6018 166.094 49.6419C166.028 49.682 165.977 49.7413 165.946 49.8118C165.853 50.0491 165.814 50.3046 165.834 50.5589H166.723Z" fill="#5F5D56"/>
<path d="M171.842 47.3542H173.149C173.473 47.3385 173.796 47.3931 174.097 47.5143C174.397 47.6356 174.668 47.8206 174.89 48.0565C175.357 48.621 175.59 49.343 175.54 50.0738C175.587 50.8087 175.361 51.535 174.905 52.1135C174.679 52.3634 174.4 52.5601 174.089 52.6893C173.777 52.8185 173.441 52.877 173.104 52.8606H171.842V47.3542ZM173.037 48.3404V51.8296H173.179C173.454 51.819 173.717 51.7164 173.926 51.5382C174.188 51.3514 174.315 50.8882 174.315 50.1634C174.333 49.7746 174.285 49.3856 174.173 49.0129C174.089 48.8047 173.943 48.6274 173.754 48.5048C173.583 48.4015 173.387 48.3448 173.187 48.3404H173.037Z" fill="#5F5D56"/>
<path d="M176.877 47.817C176.875 47.7345 176.891 47.6525 176.923 47.5766C176.955 47.5006 177.003 47.4323 177.064 47.3762C177.122 47.3156 177.191 47.2674 177.268 47.2345C177.345 47.2016 177.428 47.1846 177.512 47.1846C177.596 47.1846 177.679 47.2016 177.756 47.2345C177.833 47.2674 177.903 47.3156 177.96 47.3762C178.08 47.4965 178.146 47.659 178.146 47.8282C178.146 47.9975 178.08 48.1599 177.96 48.2802C177.903 48.3414 177.834 48.3897 177.756 48.4219C177.679 48.4541 177.596 48.4695 177.512 48.467C177.428 48.467 177.345 48.4504 177.267 48.418C177.19 48.3856 177.12 48.3382 177.06 48.2784C177.001 48.2186 176.955 48.1477 176.923 48.0698C176.892 47.9919 176.876 47.9085 176.877 47.8245V47.817ZM176.997 49.0647H178.065V52.8004H176.997V49.0647Z" fill="#5F5D56"/>
<path d="M179.388 49.0654H180.426L180.949 51.5385L181.495 49.0654H182.541L181.405 52.8011H180.404L179.388 49.0654Z" fill="#5F5D56"/>
<path d="M183.796 47.817C183.794 47.7345 183.81 47.6525 183.842 47.5766C183.874 47.5006 183.922 47.4323 183.983 47.3762C184.041 47.3156 184.11 47.2674 184.187 47.2345C184.264 47.2016 184.347 47.1846 184.431 47.1846C184.515 47.1846 184.598 47.2016 184.675 47.2345C184.752 47.2674 184.822 47.3156 184.879 47.3762C184.999 47.4965 185.065 47.659 185.065 47.8282C185.065 47.9975 184.999 48.1599 184.879 48.2802C184.822 48.3414 184.753 48.3897 184.675 48.4219C184.598 48.4541 184.515 48.4695 184.431 48.467C184.346 48.4671 184.263 48.4501 184.185 48.4173C184.107 48.3845 184.036 48.3363 183.977 48.2758C183.918 48.2152 183.871 48.1434 183.84 48.0646C183.809 47.9859 183.794 47.9017 183.796 47.817ZM183.908 49.0647H184.977V52.8004H183.908V49.0647Z" fill="#5F5D56"/>
<path d="M188.435 50.1037C188.231 49.9104 187.968 49.7896 187.688 49.76C187.487 49.76 187.382 49.8422 187.382 49.9991C187.382 50.156 187.546 50.2456 187.883 50.4249C188.174 50.5576 188.43 50.7573 188.63 51.0077C188.782 51.2271 188.863 51.4879 188.861 51.7548C188.865 51.9112 188.835 52.0665 188.775 52.2106C188.714 52.3548 188.624 52.4846 188.51 52.5916C188.266 52.8144 187.944 52.9324 187.614 52.9204C187.388 52.9239 187.163 52.8885 186.949 52.8158C186.731 52.734 186.525 52.6235 186.336 52.487L186.792 51.7399L186.889 51.8146C187.064 51.9814 187.285 52.0908 187.524 52.1284C187.609 52.1312 187.691 52.1019 187.755 52.0462C187.785 52.0215 187.808 51.9905 187.823 51.9556C187.839 51.9207 187.846 51.8827 187.845 51.8445C187.84 51.7986 187.826 51.7543 187.803 51.7144C187.779 51.6745 187.748 51.6399 187.711 51.6129C187.537 51.4713 187.352 51.3439 187.158 51.2318C186.932 51.1057 186.73 50.9414 186.56 50.7462C186.438 50.5742 186.375 50.367 186.381 50.156C186.382 49.9943 186.419 49.8349 186.489 49.6891C186.558 49.5432 186.659 49.4144 186.784 49.3117C186.905 49.1995 187.048 49.1126 187.203 49.0561C187.358 48.9997 187.523 48.9748 187.688 48.983C188.118 48.9904 188.534 49.1344 188.876 49.3939L188.435 50.1037Z" fill="#5F5D56"/>
<path d="M190.199 47.8167C190.199 47.7345 190.216 47.6531 190.248 47.5773C190.28 47.5016 190.327 47.4331 190.386 47.3759C190.445 47.314 190.515 47.2647 190.594 47.2313C190.672 47.1979 190.757 47.181 190.842 47.1817C190.967 47.184 191.089 47.2229 191.192 47.2937C191.296 47.3644 191.376 47.4639 191.424 47.5799C191.472 47.6958 191.484 47.8231 191.461 47.9462C191.437 48.0693 191.378 48.1827 191.29 48.2725C191.17 48.3916 191.007 48.4584 190.838 48.4584C190.669 48.4584 190.506 48.3916 190.386 48.2725C190.326 48.2125 190.279 48.1414 190.247 48.0632C190.215 47.985 190.199 47.9012 190.199 47.8167ZM190.319 49.0644H191.387V52.8001H190.319V49.0644Z" fill="#5F5D56"/>
<path d="M192.836 50.9853C192.802 50.4563 192.944 49.9309 193.24 49.491C193.383 49.3287 193.56 49.1987 193.758 49.1097C193.955 49.0206 194.17 48.9746 194.386 48.9746C194.603 48.9746 194.818 49.0206 195.015 49.1097C195.213 49.1987 195.39 49.3287 195.533 49.491C195.802 49.943 195.944 50.4593 195.944 50.9853C195.944 51.5113 195.802 52.0276 195.533 52.4796C195.402 52.6501 195.232 52.7862 195.037 52.876C194.841 52.9659 194.627 53.0067 194.413 52.9951C194.191 53.0045 193.97 52.9645 193.766 52.8779C193.562 52.7913 193.379 52.6604 193.232 52.4945C192.924 52.0551 192.783 51.5196 192.836 50.9853ZM194.838 50.9853C194.85 50.6916 194.822 50.3977 194.756 50.1112C194.733 50.0357 194.685 49.9704 194.62 49.9256C194.555 49.8809 194.476 49.8594 194.398 49.8646C194.321 49.8597 194.245 49.8795 194.18 49.9212C194.116 49.9629 194.066 50.0243 194.039 50.0962C193.956 50.3362 193.921 50.5899 193.934 50.8434C193.923 51.1569 193.951 51.4706 194.017 51.7773C194.039 51.8581 194.088 51.9289 194.156 51.9778C194.224 52.0268 194.307 52.0509 194.39 52.0463C194.469 52.0515 194.547 52.03 194.612 51.9852C194.677 51.9405 194.725 51.8751 194.749 51.7997C194.822 51.5296 194.852 51.2498 194.838 50.9704V50.9853Z" fill="#5F5D56"/>
<path d="M198.454 49.0648V49.7596C198.583 49.5308 198.747 49.324 198.94 49.147C199.102 49.0216 199.303 48.9557 199.508 48.9602C199.635 48.9579 199.761 48.9882 199.874 49.0484C199.986 49.1085 200.082 49.1965 200.15 49.3039C200.322 49.576 200.405 49.8942 200.39 50.2154V52.8229H199.329V50.6487C199.339 50.4949 199.297 50.3421 199.209 50.2154C199.173 50.162 199.124 50.1188 199.066 50.09C199.009 50.0612 198.945 50.0477 198.88 50.051C198.589 50.051 198.439 50.2826 198.439 50.7458V52.8229H197.371V49.0872L198.454 49.0648Z" fill="#5F5D56"/>
<path d="M100.034 16.968C98.9581 22.8853 96.7018 28.0107 92.7195 32.1349C96.895 34.2809 101.367 35.7918 105.989 36.6177L105.884 37.0511C104.635 37.2307 103.464 37.7656 102.51 38.5922C101.556 39.4188 100.86 40.5022 100.505 41.7132C96.2741 40.3705 92.3581 38.1876 88.9913 35.2953C84.7924 38.2838 79.2337 40.4207 72.0238 41.6385L71.8818 41.2799C78.2699 39.1281 83.0366 36.2217 86.4809 32.7102C83.3205 28.8699 81.0268 23.8192 79.809 16.968H72.5244L72.2405 15.9593H97.4564L100.363 12.0145C100.363 12.0145 103.62 14.6369 105.488 16.3927C105.384 16.7887 104.988 16.968 104.45 16.968H100.034ZM80.4216 16.968C81.7668 22.0642 84.7847 26.5608 88.9913 29.7366C91.6531 25.9618 93.295 21.5636 93.758 16.968H80.4216ZM84.6504 7.71094C97.2024 8.28623 92.9362 18.1111 87.8781 14.6668C87.3616 12.1373 86.1687 9.79528 84.4263 7.89025L84.6504 7.71094Z" fill="#AD9D72"/>
<path d="M150.556 23.9606C150.556 23.9606 153.208 25.8583 154.822 27.2256C154.717 27.6141 154.321 27.7934 153.821 27.7934H121.111L120.827 26.7922H135.023V23.9083H123.943L123.659 22.9071H134.993V20.068H125.198L124.877 19.0668H134.993V16.0334H121.186L120.894 15.0248H134.993V12.0362H125.415L125.093 11.0351H134.993V7.56836L141.411 8.1063C141.336 8.64424 141.09 8.96551 140.081 9.14482V11.05H144.026L146.178 8.74884L150.593 12.0512C150.25 12.4158 149.795 12.6551 149.301 12.7311V15.0248H149.48L151.452 12.3351C151.452 12.3351 153.694 14.2029 154.964 15.4581C154.897 15.8541 154.538 16.0334 154.037 16.0334H149.301V20.1726C149.301 20.2772 149.047 20.4191 148.688 20.5984C149.517 21.2111 151.168 22.3916 152.274 23.3255C152.17 23.7215 151.811 23.9008 151.273 23.9008H140.066V26.7698H148.21L150.556 23.9606ZM146.148 27.9055L150.84 31.417C150.49 31.8542 149.983 32.1381 149.428 32.209V40.3453C149.39 40.5919 146.775 41.4212 145.124 41.4212H144.228V39.3815H131.407V40.024C131.407 40.4947 129.105 41.5706 127.028 41.5706H126.281V28.3313L131.698 30.3785H143.854L146.148 27.9055ZM131.407 31.3797V34.2487H144.242V31.3797H131.407ZM144.242 38.3729V35.2573H131.407V38.3729H144.242ZM140.081 15.0248H144.384V12.0362H140.081V15.0248ZM140.081 19.0818H144.384V16.0334H140.081V19.0818ZM140.081 22.9221H145.894L147.433 21.0916C146.727 21.321 145.993 21.4542 145.251 21.4875H144.384V20.0829H140.081V22.9221Z" fill="#AD9D72"/>
<path d="M173.425 31.0954C175.069 34.9357 175.039 37.8196 173.888 39.3139C173.624 39.5782 173.301 39.7767 172.945 39.8933C172.59 40.01 172.212 40.0417 171.842 39.9857C171.472 39.9297 171.12 39.7878 170.815 39.5712C170.51 39.3546 170.26 39.0694 170.086 38.7386C169.48 37.4162 170.086 36.161 171.273 35.369C172.021 34.5771 173.209 32.642 172.955 31.0655L173.425 31.0954ZM169.981 26.2913C170.479 26.1882 170.961 26.0199 171.415 25.7907C172.91 24.7821 174.68 22.5257 176.22 20.0826C175.36 20.5159 174.389 20.9791 173.351 21.4125C173.127 21.9535 172.72 22.3981 172.2 22.6677L170.048 17.5722C170.474 17.4697 170.886 17.3141 171.273 17.109C172.768 15.6147 174.86 10.4744 175.323 7.70996L181.24 10.5416C181.124 10.7434 180.948 10.9038 180.736 11.0003C180.525 11.0968 180.288 11.1245 180.06 11.0796C178.046 13.6294 175.693 15.8918 173.067 17.8038C174.389 17.8038 175.965 17.8038 177.549 17.8038C178.171 16.7012 178.701 15.5492 179.133 14.3595L184.475 18.0205C184.309 18.209 184.09 18.3437 183.846 18.4076C183.603 18.4714 183.346 18.4615 183.108 18.3791C180.37 21.4718 177.205 24.1586 173.709 26.3585C175.36 26.2913 177.4 26.1493 179.552 25.9999C179.263 25.0243 178.893 24.0747 178.446 23.1608L178.805 22.9815C187.195 25.8505 183.287 32.0592 180.09 29.1528C180.07 28.5157 180 27.8812 179.88 27.2551C178.117 28.1143 175.756 29.2275 173.156 30.3333C172.837 30.9441 172.306 31.4171 171.662 31.6632L169.981 26.2913ZM176.04 30.7741C183.108 35.257 178.409 40.995 175.719 37.5507C176.062 35.3365 176.024 33.0801 175.607 30.8787L176.04 30.7741ZM179.41 30.2735C187.628 33.0006 183.893 39.2766 180.777 36.4075C180.717 34.3012 180.123 32.2445 179.051 30.4304L179.41 30.2735ZM201.577 35.9368C202.555 37.0239 203.475 38.1611 204.334 39.3438C204.267 39.7398 203.908 39.9191 203.445 39.9191H181.554L181.27 38.9179H184.543V8.74848L189.773 10.691H194.651L196.728 7.96399L201.712 11.4382C201.465 11.8342 201.032 12.0508 200.098 12.1853V38.7013L201.577 35.9368ZM189.421 11.6922V19.7239H194.943V11.6922H189.421ZM194.943 20.7326H189.421V28.9511H194.943V20.7326ZM189.421 38.9179H194.943V29.9523H189.421V38.9179Z" fill="#AD9D72"/>
<path d="M67.2354 9.80957V41.7423" stroke="#AD9D72" stroke-miterlimit="10"/>
<path d="M112.616 9.80957V41.7423" stroke="#AD9D72" stroke-miterlimit="10"/>
<path d="M161.464 9.80957V41.7423" stroke="#AD9D72" stroke-miterlimit="10"/>
<path d="M210.902 9.11523V49.4607" stroke="#AD9D72" stroke-miterlimit="10"/>
<path d="M13.2168 9.07031V49.4158" stroke="#AD9D72" stroke-miterlimit="10"/>
</svg>
