<svg width="135" height="86" viewBox="0 0 135 86" fill="none" xmlns="http://www.w3.org/2000/svg">
<ellipse cx="65.8669" cy="27.3309" rx="26.6667" ry="26.6898" fill="#54524C"/>
<g clip-path="url(#clip0)">
<path d="M9.57986 73.7584C9.66348 73.9258 9.78891 74.2187 9.99797 74.3024C10.5415 74.4698 11.0432 74.8046 11.5868 74.972C11.8376 75.0557 12.1721 75.1812 12.423 75.0557C12.8829 74.8883 12.8829 73.8003 12.9247 73.4236C12.9665 73.047 12.9665 72.6704 12.9247 72.2938C12.8829 72.0427 12.8411 72.0009 12.7993 71.7498C12.7993 71.7079 12.7156 71.415 12.7156 71.3732C12.6738 71.0384 12.7993 70.7873 12.7575 70.4525C12.7156 70.0341 12.5902 69.5738 12.5484 69.1134C12.5066 68.6531 12.5484 68.151 12.5484 67.6907C12.5484 67.4814 12.5484 67.2722 12.5484 67.063C12.5484 66.9374 12.5902 66.0168 12.5484 65.8913C12.3393 65.6402 12.2975 65.8076 12.423 65.5565C12.632 65.2217 12.5484 64.9706 12.3393 64.6359C12.2139 64.3848 12.0467 64.1337 11.8794 64.05C11.5868 63.8826 11.5031 63.9663 10.9596 63.8826C10.4579 63.7989 10.1234 63.5897 9.91434 63.506C9.66348 63.3804 8.49279 63.4223 8.24193 63.506C7.40572 63.7571 6.02598 63.9245 4.93891 64.2592C4.14451 64.4685 3.39192 64.1337 3.05744 64.2174C2.93201 64.2592 2.68115 64.6777 2.59753 64.8032C2.4721 64.9706 2.43029 65.1799 2.38848 65.3891C2.34666 65.7657 2.13761 66.1005 2.05399 66.4771C1.92856 66.8537 2.01218 67.2722 1.97037 67.6488C1.88675 68.1928 1.6777 68.7368 1.51046 69.2808C1.42684 69.5738 1.34322 69.8248 1.21778 70.1178C1.13416 70.2851 0.79968 70.7455 0.841491 70.9128C0.841491 71.0802 0.841491 71.3732 0.883301 71.4569C1.21778 72.1264 1.63589 73.4655 1.63589 73.6329C1.6777 73.7584 1.80313 73.7166 1.84494 73.8421C1.84494 74.0932 1.84494 74.4698 1.97037 74.5535C2.59753 74.9301 2.76477 74.3861 3.14106 74.0932C3.60098 74.0513 4.01908 74.0513 4.47899 74.0095C4.77167 73.9677 5.06434 73.8421 5.35701 73.7584C6.31865 73.5073 7.3221 73.6329 8.28374 73.6747C8.40917 73.7584 9.49624 73.591 9.57986 73.7584ZM9.37081 66.2679C9.57986 66.1842 9.83072 66.3516 10.0398 66.226C10.207 66.1423 10.3324 65.9749 10.3743 65.8076C10.4579 65.5146 10.4161 65.3472 10.207 65.138C10.3743 65.1799 10.6251 65.4728 10.7924 65.5565C11.4195 66.0168 11.2523 67.063 11.2523 67.7744C11.2523 68.7368 11.1687 69.6574 11.1687 70.6199C11.085 70.6618 11.0432 70.7036 10.9596 70.6618C10.3743 70.2015 10.3743 69.3227 10.1652 68.9461C10.2488 68.7787 10.3743 68.6113 10.4579 68.4857C10.5833 68.2347 10.6251 68.0254 10.7924 67.7744C10.9596 67.5233 11.085 67.1467 11.0432 67.0211C10.5415 66.1842 9.83072 66.519 9.57986 66.9374C9.49624 67.1467 9.57986 67.6488 9.45443 67.8999C9.45443 67.8999 9.11995 67.5233 9.03633 67.4814C8.95271 67.2303 8.82727 66.5189 8.9109 66.4353C8.99452 66.3097 9.24538 66.3097 9.37081 66.2679ZM8.70184 64.6359C8.78546 64.6777 8.86909 64.6777 8.99452 64.7195C8.99452 65.0962 8.99452 65.1799 8.5346 65.2217C8.45098 65.138 8.49279 64.5522 8.70184 64.6359ZM7.82382 66.3934C7.86564 66.3934 7.90745 66.3934 7.94926 66.3934C8.03288 66.4353 8.03288 67.2722 8.07469 67.6907C7.48934 68.1091 6.98762 69.239 6.27684 69.3227C6.5277 68.9879 6.904 68.151 7.23848 67.8162C7.99107 67.1885 7.99107 67.063 7.82382 66.3934ZM5.81693 67.7744C5.73331 67.8162 5.60787 67.9417 5.48244 67.858C5.3152 67.7325 5.56606 67.6488 5.77512 67.314C5.90055 67.1048 5.85874 66.9374 6.19322 66.8119C6.48589 66.7282 6.94581 66.3097 7.28029 66.3934C7.28029 66.3934 6.94581 66.5608 6.94581 66.6026C6.77857 66.6445 6.56951 67.1466 6.44408 67.2722C6.36046 67.3977 6.06779 67.6488 5.81693 67.7744ZM3.64279 65.8076C4.22813 65.5146 4.81348 65.5565 5.44063 65.0962C5.6915 64.9706 6.69495 64.7614 7.15486 64.7614C7.23848 64.7614 7.36391 65.0125 7.40572 65.2636C7.15486 65.3472 6.65313 65.3054 6.40227 65.3472C5.85874 65.4309 5.27339 65.6402 4.72986 65.8076C4.5208 65.8912 3.64279 66.3097 3.55917 66.1842C3.55917 66.1842 3.60098 65.9749 3.64279 65.8076ZM4.1027 72.9633C3.47555 73.0052 3.22468 73.2144 2.80658 72.5449C2.76477 72.4612 2.76477 72.2519 2.72296 72.1264C2.63934 71.9172 2.55572 71.7079 2.59753 71.415C2.63934 71.0384 2.4721 70.6618 2.4721 70.2852C2.43029 69.9504 2.55572 69.5738 2.63934 69.239C2.72296 68.9461 2.84839 68.6531 2.8902 68.3184C2.93201 67.9836 2.8902 67.4814 2.97382 67.314C3.26649 67.314 3.43373 67.314 3.72641 67.2303C3.89365 67.1885 4.06089 67.1048 4.22813 67.1467C4.68805 67.314 4.43718 67.314 4.01908 67.858C3.93546 67.9836 3.60098 68.151 3.39192 68.3602C3.18287 68.5694 3.01563 68.7787 3.01563 69.0298C3.01563 69.1553 3.35011 69.2808 3.47555 69.3227C3.93546 69.5319 4.35356 69.1553 4.77167 69.0298C4.85529 68.9879 4.43718 69.5738 4.39537 69.6156C4.06089 69.9085 3.55917 69.9922 3.22468 70.3688C3.14106 70.4525 3.09925 70.5362 3.09925 70.6618C3.09925 70.9547 3.26649 70.9965 3.43373 71.0802C3.76822 71.2476 3.93546 71.415 4.35356 71.2895C4.72986 71.1639 4.98072 70.7873 5.35701 70.7036C5.77512 70.5781 6.23503 70.6199 6.65313 70.4944C6.98762 70.4107 7.65658 70.2433 7.90745 69.9504C8.15831 69.6993 8.15831 69.6993 8.45098 69.1971C8.49279 69.1971 8.5346 69.1971 8.61822 69.239C8.78546 69.2808 8.36736 69.9504 8.32555 69.9922C8.1165 70.2015 7.86564 70.4107 7.57296 70.5362C7.15486 70.7036 6.77857 70.7873 6.36046 71.0384C5.98417 71.2476 5.52425 71.3313 5.14796 71.5405C4.93891 71.6661 4.72986 71.7916 4.60443 72.0009C3.97727 72.9215 4.26994 72.7959 5.64969 72.7123C5.48244 72.8796 4.22813 72.9633 4.1027 72.9633ZM6.06779 72.6286C6.06779 72.6286 5.94236 72.6704 5.85874 72.6704C5.90055 72.3775 7.28029 72.0846 7.78202 71.7498C7.82383 71.7498 7.86564 71.7498 7.82382 71.8753C7.82382 71.9172 7.86564 71.9172 7.86564 71.9172C8.1165 71.8335 8.49279 71.6661 8.61822 71.415C8.74365 71.2058 9.07814 70.5362 9.329 70.4525C9.41262 70.4107 9.62167 70.6618 9.66348 71.0384C9.70529 71.4569 9.87253 71.415 9.95615 71.6242C10.0398 71.7916 9.99797 71.9172 10.1652 72.1264C10.3743 72.3775 10.8342 72.2938 11.1268 72.2519C11.1268 72.2938 11.1687 72.3356 11.1687 72.3775C10.6251 73.1307 10.4997 73.047 10.207 72.3775C9.78891 72.1264 9.62167 72.0846 9.24538 72.2519C8.78546 72.2101 8.78546 72.1264 8.45098 72.2938C7.61477 72.4193 6.82038 72.503 6.06779 72.6286Z" fill="white"/>
<path d="M29.356 71.2478C29.2724 71.1641 28.9797 71.1641 28.7707 71.1641C28.1853 71.1641 27.5582 71.4152 27.0146 71.457C26.5965 71.6663 25.5931 71.5826 25.3004 71.457C25.3004 71.3733 25.4258 71.1641 25.5931 70.9549C25.7603 70.7456 25.9694 70.5783 26.0112 70.4946C26.053 70.2435 26.1366 70.2016 26.1784 70.118C26.262 70.0343 26.3875 69.7413 26.4293 69.6995C26.4711 69.6158 26.5129 69.3647 26.5547 69.281C26.6383 68.7789 26.8474 68.737 27.3491 68.3604C27.4327 68.3185 27.3909 68.2349 27.4745 68.1512C28.2271 68.0675 28.6034 67.8582 29.2306 67.8164C29.4814 67.8164 29.5232 67.3979 29.4396 67.1887C29.3142 66.7702 28.5198 66.3518 28.3526 66.3936C27.9345 66.4355 27.5163 66.6028 27.1819 66.6028C27.0564 66.6028 26.931 66.6865 26.7638 66.7284C26.262 66.8121 25.7185 66.6447 25.3422 66.6028C25.2168 66.017 24.7151 65.3893 24.7151 65.1801C24.6732 64.3431 24.0043 63.9247 23.4607 64.1339C23.2935 64.1757 23.0426 64.3431 23.0426 64.4687C23.0008 65.2219 22.8754 65.5148 23.5026 66.1425C23.5444 66.1844 23.6698 66.2681 23.6698 66.3518C23.6698 66.4773 23.7116 66.5191 23.7952 66.6028C23.837 66.6447 23.8788 66.7284 23.9625 66.7702C24.0043 66.8121 23.9625 66.9376 23.9625 66.9376C23.7534 67.0632 23.628 66.9795 23.5026 67.0213C23.0008 67.2305 22.4155 67.3561 21.9974 67.4398C21.4957 67.5235 21.1612 67.5653 21.203 67.3979C21.0775 67.2724 20.4086 67.3561 20.325 67.3979C19.9069 67.5235 19.6978 67.8164 19.6978 68.4441C19.6978 68.5278 19.865 68.6115 19.9905 68.6533C20.5758 68.8626 21.9138 68.6533 22.4991 68.4022C22.5827 68.3604 22.6245 68.3604 22.7082 68.3604C22.6663 68.4859 22.6245 68.5278 22.5409 68.6115C22.4573 68.6533 22.4155 68.6952 22.3319 68.737C22.2064 68.8626 22.081 68.9881 21.9556 69.1136C21.8301 69.2392 21.7047 69.3647 21.6211 69.5321C21.5375 69.6576 21.3284 69.825 21.2448 69.9506C21.0775 70.2853 20.9939 71.3315 21.3284 71.457C21.4957 71.4989 21.9138 71.457 22.1646 71.206C22.6663 70.7457 23.0844 69.9506 23.3353 69.6158C23.3771 69.5321 23.3353 69.3647 23.3771 69.1973C23.4607 68.9044 23.5862 68.6533 23.6698 68.4022C24.1715 68.3604 24.7151 68.1093 25.0495 68.0675C25.3422 68.0675 25.8021 68.193 25.9694 68.2767C25.5095 68.737 25.2586 69.6158 24.9241 70.118C24.5478 70.7038 23.7952 70.9967 23.2517 71.4152C23.1681 71.457 22.959 71.6663 22.6245 71.8337C22.2064 72.001 22.0392 72.001 21.8301 72.1266C21.4538 72.3358 21.3284 72.4195 21.203 72.5451C21.0357 72.6706 19.7396 72.5869 18.9452 72.7961C18.778 72.838 18.4017 72.7543 18.3181 72.9635C17.9 73.6749 17.9836 73.7168 18.6525 74.1771C18.7362 74.2608 18.987 74.1352 19.1125 74.0934C19.7814 74.0097 20.5758 73.7586 21.0357 73.6331C21.4538 73.5075 21.7883 73.7168 22.3319 73.5912C22.75 73.4657 24.0879 73.0472 24.8405 73.2564C26.0112 73.8423 28.1435 73.2564 28.6034 73.2983C29.1051 73.3401 30.025 73.382 30.234 73.1309C30.7776 71.7918 29.9832 71.6663 29.356 71.2478Z" fill="white"/>
<path d="M47.9198 70.0755C48.087 69.6989 48.3379 69.5734 48.2961 69.2805C48.1707 68.4435 47.9198 68.5272 47.2926 68.4435C47.0836 68.3598 47.0418 68.318 46.9163 68.2343C46.4564 68.0251 45.9129 67.9832 45.453 67.8577C45.1603 67.774 45.1185 67.6903 45.0349 67.6903C44.784 67.6484 44.6586 67.6903 44.4077 67.6484C44.1987 67.6484 43.9478 67.8158 43.6133 67.8995C43.3625 67.9832 42.1081 68.2343 41.7737 68.2761C41.6482 68.318 41.3974 68.2761 41.2719 68.2761C40.812 68.318 39.7668 68.4017 39.1814 68.5691C39.0142 68.6109 38.8888 68.6946 38.8051 68.7783C38.6797 68.7364 38.5961 68.7364 38.5543 68.6528C38.4706 68.6109 38.4288 68.5272 38.387 68.4435C38.3452 68.4017 38.0944 68.4017 37.9689 68.4017C37.8017 68.4017 37.6762 68.4017 37.5508 68.4854C37.3418 68.6109 37.1327 68.6528 36.9237 68.7364C36.5892 68.862 36.3801 69.2805 36.0875 69.4478C35.8784 69.5734 35.7112 69.6571 35.5439 69.8245C35.3767 69.95 35.2512 70.0755 35.0422 70.1174C34.875 70.1592 34.6241 70.1174 34.4568 70.1592C34.415 70.1592 34.415 70.3266 34.415 70.3685C34.415 70.494 34.4987 70.7451 34.6659 70.8706C34.7077 70.9125 34.8331 70.9962 34.875 71.038C34.9168 71.0799 34.9586 71.1636 35.0422 71.2054C35.2931 71.3728 35.6275 71.2472 35.9202 70.9962C36.0875 70.8706 36.2547 70.7032 36.3801 70.5777C36.4637 70.494 36.7982 70.4103 36.9237 70.3266C37.0491 70.2848 37.1327 70.2011 37.3 70.1174C37.3836 70.0755 37.6344 69.9918 37.7181 69.9082C38.0944 69.6152 38.387 69.6571 38.5125 69.2386C38.5125 69.1968 38.5125 69.1131 38.5125 69.0712C38.5543 69.0712 38.5961 69.1549 38.6797 69.1968C38.7215 69.2386 38.7633 69.3223 38.8469 69.406C38.9306 69.4897 39.0978 69.6571 39.2232 69.6989C39.1814 69.6989 39.1814 69.6989 39.1396 69.7408C38.9306 69.8245 38.5961 69.8663 38.5961 69.95C38.5125 70.2429 38.7633 70.5777 39.1396 70.7869C39.2232 70.8706 39.3905 70.7451 39.5995 70.7451C39.5995 70.7869 39.5995 70.8288 39.5995 70.8706C39.1814 71.1217 38.4706 71.3309 38.4706 71.8749C38.5125 72.0423 38.7215 72.0423 38.9724 72.2097C39.1814 72.2934 39.4323 72.126 39.5995 72.0842C39.8922 72.0423 39.9758 71.9586 40.3103 71.9168C40.4357 71.9168 40.5194 71.9168 40.6448 71.8749C40.812 71.7912 40.9375 71.7494 41.1883 71.7912C41.1883 71.8331 41.2719 71.9586 41.1883 72.126C40.8538 72.2516 40.6448 72.3353 40.4775 72.3771C40.2267 72.4608 39.5995 72.5445 39.5159 72.5445C39.4323 72.5445 39.3487 72.5445 39.265 72.5445C38.8051 72.5445 38.7633 72.3353 38.5961 72.4189C38.387 72.5445 38.1362 72.7119 37.9271 72.8374C37.7599 72.9211 37.8853 73.0885 37.9689 73.1722C38.2616 73.4233 38.4706 73.6325 38.6379 73.5907C39.265 73.507 40.0594 73.2977 40.812 73.2559C40.7284 73.5907 40.1013 73.7162 39.8086 73.7999C39.3069 73.9254 38.8469 73.8836 38.3034 73.7999C38.0525 73.758 37.6762 73.6743 37.5926 73.758C37.509 73.8417 37.4254 73.8836 37.3418 73.9673C36.8819 74.3439 36.8819 74.4276 37.5926 75.0134C38.0107 75.1808 39.2232 74.846 39.7668 74.8042C40.2685 74.7624 40.7284 74.3439 41.3974 74.3857C42.8189 74.3857 44.6586 74.6368 46.1638 74.3857C46.2892 74.3439 46.3728 74.2184 46.3728 74.0928C46.2892 73.0885 45.2439 72.7537 44.4913 73.0466C44.115 73.1722 43.3625 73.0885 42.7771 73.0885C42.7771 73.0466 42.8189 72.963 42.8189 72.8793C43.5715 72.7956 44.4077 72.9211 45.1185 72.5863C45.2439 72.5026 45.2439 72.3353 45.2439 72.2516C45.3275 71.9168 45.1603 71.7076 44.9094 71.6239C44.6586 71.5402 44.2823 71.5402 44.0732 71.5402C43.5715 71.582 43.1116 71.6239 42.6517 71.6657C42.6517 71.6239 42.6099 71.582 42.6099 71.5402C42.9862 71.4146 43.4043 71.2891 44.0732 71.4146C44.1569 71.4146 44.2405 71.3728 44.3241 71.3728C44.5332 71.3728 44.784 71.4146 44.784 71.2472C44.784 71.038 44.8676 70.8288 44.8676 70.5777C44.8676 70.4103 44.8258 70.2429 44.784 70.2011C44.4495 69.7408 44.7004 69.7408 44.8676 69.6152C44.9094 69.5734 44.9931 69.4897 44.9931 69.4478C44.9094 69.1968 44.9513 69.1131 44.9094 69.0294C44.784 68.9038 44.5332 68.8201 44.2823 68.8201C44.2405 68.8201 44.0732 68.8201 43.9896 68.8201C43.7806 68.8201 43.3206 69.1131 43.1116 69.1549C42.9444 69.1968 42.7771 69.2805 42.6517 69.2805C42.359 69.2805 41.9827 69.2805 41.8155 69.3223C41.1047 69.5315 40.6866 69.4897 39.8922 69.5315C39.8922 69.5315 39.6831 69.5315 39.5577 69.5315C39.6831 69.4897 39.8086 69.4478 39.8504 69.4478C39.8922 69.4478 40.1431 69.3641 40.1849 69.3641C40.3939 69.2805 41.1883 69.2386 41.8155 69.1968C41.9409 69.1968 42.3172 69.1549 42.5681 69.1131C42.5681 69.1131 43.0698 69.0712 43.2788 68.9875C43.4879 68.9038 43.7806 68.7783 44.0732 68.7364C44.6586 68.6109 45.8711 68.862 46.4564 69.1131C46.4982 69.2386 45.7038 69.5734 45.662 69.6989C45.5366 70.1592 45.5366 70.2011 45.9965 70.2429C46.3728 70.2848 46.8327 70.2011 47.2926 70.1174C47.5017 70.1592 47.8362 70.1592 47.9198 70.0755ZM41.8155 70.2848C42.1081 70.1592 42.6099 70.2011 42.9862 70.2011C42.9862 70.3266 42.9444 70.3266 42.8607 70.3685C42.5681 70.494 41.9409 70.4103 41.7319 70.4522C41.5646 70.494 41.3974 70.5777 41.3138 70.5777C41.3138 70.494 41.2719 70.4522 41.2301 70.3685C41.3974 70.2848 41.6482 70.3685 41.8155 70.2848Z" fill="white"/>
<path d="M38.2622 65.7237C38.4294 65.8911 38.6385 66.1422 38.973 66.2677C38.973 66.3096 38.973 66.3514 38.973 66.4769C38.3876 67.1883 38.5967 67.4813 39.3074 68.1927C39.3911 68.2763 39.5583 68.2763 39.7255 68.2763C40.1855 68.3182 40.729 68.2345 40.9798 68.2345C41.0635 68.2345 41.2725 68.1508 41.3561 68.109C41.5652 68.0253 43.5303 67.7742 43.6139 67.7742C43.6975 67.7742 43.9066 67.7323 43.9484 67.6486C44.032 67.4813 44.2829 67.272 44.5337 67.0628C44.6174 67.0209 44.7428 66.9791 44.7428 66.8954C44.91 66.184 44.7846 66.0585 44.4919 65.9748C44.4083 65.9748 43.363 65.8911 43.0286 65.8911C42.7777 65.9329 41.5234 65.8911 41.0635 65.9748C41.0635 65.9748 40.4363 66.1003 40.1436 66.1422C40.1018 66.1003 40.06 66.0585 40.0182 66.0585C40.0182 66.0585 40.0182 66.0585 40.0182 66.0166C40.2273 65.9329 41.0635 65.7237 41.2725 65.6819C41.4816 65.64 43.5721 65.64 43.5721 65.64H43.823C43.9484 65.64 44.032 65.5982 44.1574 65.5982C44.6174 65.5563 44.8264 65.5145 45.0355 64.8031C45.0773 64.7194 44.8682 64.6775 44.7428 64.6357C44.2829 64.5101 43.4049 64.6775 43.0704 64.7194C43.0704 64.7194 43.0704 64.7194 43.0286 64.7194C43.0286 64.6775 43.0286 64.6357 43.0286 64.5938C43.3212 64.5101 44.1992 64.5101 44.7428 64.3846C44.9936 64.3428 45.3281 64.2591 45.2863 64.0917C45.2027 63.8406 45.2445 63.5895 45.0773 63.4221C44.4919 63.0874 43.3212 63.5477 42.7359 63.6314C42.6941 63.4221 42.5686 63.2966 42.5686 63.2547C42.5686 63.2129 42.485 63.1292 42.4014 63.0455C42.2342 62.92 42.1087 62.8363 41.9833 62.8363C41.8997 62.8363 41.7742 62.7944 41.6906 62.7944C41.5652 62.7944 41.3561 63.0455 41.398 63.1292C41.398 63.2129 41.4398 63.2547 41.398 63.2966C41.398 63.3803 41.2725 63.7569 41.1889 63.9661C40.8962 64.0917 40.6036 64.1335 40.3527 64.1335C40.2273 64.1335 40.1436 64.0498 40.0182 64.0498C39.4747 64.0498 38.8057 63.9661 38.513 64.1335C38.0113 64.4683 38.304 64.7194 38.5967 65.0542C38.6803 65.1378 38.6803 65.2215 38.8057 65.3052C38.6385 65.3471 38.4712 65.3889 38.3458 65.4308C38.2622 65.4308 38.1786 65.64 38.2622 65.7237ZM40.7708 67.0628C41.2307 66.8954 42.1505 66.8536 42.7359 66.8117C42.7359 66.9373 42.6105 66.9372 42.485 66.9791C42.0669 67.1046 41.3143 67.1465 41.1053 67.2302C40.9799 67.272 40.8126 67.272 40.7708 67.2302C40.729 67.1883 40.729 67.1465 40.7708 67.0628C40.729 67.0628 40.7708 67.0628 40.7708 67.0628ZM39.4329 65.096C39.851 65.0123 40.2273 65.0123 40.7708 65.0542C40.7708 65.0542 40.7708 65.1378 40.729 65.1378C40.1018 65.3052 39.5583 65.096 39.0566 65.2215C39.1402 65.1378 39.2656 65.1378 39.4329 65.096Z" fill="white"/>
<path d="M55.4041 66.5609C55.4877 66.6864 55.6967 66.7701 55.7386 66.8538C55.9476 67.1049 56.1567 67.1886 56.7838 67.2305C56.9511 67.2305 57.2019 67.1886 57.2019 67.0631C57.2019 66.5609 57.1183 66.3098 56.9929 66.2261C56.5748 65.9751 56.1985 65.724 55.864 65.3892C55.6967 65.2637 55.5713 65.0963 55.4041 64.9289C55.2786 64.8034 55.195 64.5523 55.0278 64.5104C54.4842 64.4686 54.4006 64.5523 54.1498 64.887C54.108 64.9289 54.108 64.9707 54.0661 65.0126C54.0243 65.0963 54.0661 65.2637 54.108 65.3474C54.2334 65.724 54.5261 65.9751 54.9442 66.2261C55.0278 66.268 55.1114 66.3098 55.195 66.3517C55.2786 66.3935 55.3623 66.4354 55.4041 66.4354C55.4041 66.4772 55.3623 66.5191 55.4041 66.5609Z" fill="white"/>
<path d="M60.0034 65.5987C60.2124 65.5568 60.5469 65.5987 60.7978 65.515C61.0905 65.4313 61.2577 65.2639 61.3831 65.0965C61.5086 64.9291 61.3831 64.8454 61.3831 64.8036C61.3831 64.7617 61.2995 64.6781 61.2159 64.7199C61.1323 64.7199 61.0068 64.8036 60.9232 64.8036C60.8396 64.8036 60.5469 64.8036 60.4215 64.8454C60.2542 64.8873 59.7943 64.8454 59.6689 64.8873C59.5435 64.9291 59.3762 65.0547 59.3344 65.1384C59.2926 65.2221 59.2508 65.1802 59.209 65.2639C59.209 65.4313 59.3344 65.5568 59.4598 65.5987C59.5853 65.6405 59.7525 65.6405 60.0034 65.5987Z" fill="white"/>
<path d="M59.0414 66.2674C59.125 66.393 59.2086 66.4767 59.2923 66.4767C59.3759 66.4767 59.3759 66.4348 59.4595 66.4348C59.5431 66.393 59.5849 66.393 59.6686 66.4348C59.8358 66.4348 60.1285 66.4348 60.3375 66.393C60.5466 66.3511 60.7138 66.1837 60.9647 66.1419C61.1737 66.1 61.2992 65.9745 61.3828 65.8908C61.4664 65.8071 61.5082 65.556 61.4664 65.4723C61.3828 65.3886 61.0901 65.4723 61.0483 65.5142C60.9647 65.556 60.4629 65.6816 60.3375 65.6816C60.2121 65.7234 59.794 65.6816 59.6686 65.6816C59.5013 65.6816 59.2504 65.8071 59.1668 65.8908C59.0832 66.0163 58.9996 66.1837 59.0414 66.2674Z" fill="white"/>
<path d="M64.7699 66.9376C64.6863 66.8958 64.6027 66.8958 64.5609 66.8539C64.5191 66.8121 64.5191 66.7702 64.4773 66.7284C64.4773 66.6865 64.4354 66.6447 64.4354 66.6028C64.3936 66.561 64.3936 66.6028 64.3518 66.6447C64.31 66.6865 64.31 66.6865 64.31 66.7284C64.2264 66.7702 64.1428 66.8121 64.0592 66.8539C63.9337 66.9376 63.7247 66.9794 63.6411 66.9794C63.5574 67.0213 63.5156 66.9795 63.5574 66.9376C63.5992 66.8121 63.6411 66.6447 63.7665 66.4354C63.9337 66.1844 64.0592 66.0588 64.1428 65.8077C64.2264 65.5567 64.3518 64.9708 64.4354 64.8871C64.5191 64.7616 64.4773 64.636 64.4354 64.5523C64.3936 64.4686 64.2682 64.3431 64.1846 64.3431C64.101 64.385 64.1428 64.3013 63.8083 64.3431C63.4738 64.385 63.432 64.7197 63.3902 64.8034C63.3484 64.8871 63.3066 65.0127 63.3066 65.0963C63.2648 65.18 63.2648 65.2219 63.2229 65.2637C63.1811 65.3056 63.1393 65.3474 63.0557 65.3474C62.9721 65.3474 62.8885 65.3056 62.8885 65.3056C62.8885 65.3056 62.8885 65.3056 62.9303 65.2219C62.9721 65.1382 63.0557 64.929 63.0975 64.8453C63.1393 64.7616 63.3484 64.5523 63.432 64.5105C63.5156 64.4687 63.7247 64.1339 63.8501 63.9665C63.9755 63.8409 64.0591 63.6317 64.101 63.5062C64.1428 63.3388 63.9755 63.3388 63.9337 63.2969C63.8501 63.2551 63.6411 63.1296 63.6411 63.1296C63.4738 63.0459 63.3484 63.2133 63.3066 63.2551C63.2229 63.2969 63.1811 63.3388 63.0557 63.4225C62.9303 63.5062 62.8885 63.6736 62.8885 63.7573C62.8467 63.8409 62.8048 64.092 62.7212 64.1757C62.6376 64.2594 62.4704 64.385 62.4285 64.4686C62.3449 64.5523 62.1777 64.7616 62.1359 64.8871C62.0523 64.9708 61.9268 65.18 61.885 65.3056C61.885 65.4311 61.9268 65.5985 61.9686 65.6404C62.0523 65.7241 62.1359 65.8496 62.2195 65.8077C62.3031 65.7659 62.554 65.9333 62.554 65.9333C62.5122 65.9751 62.3867 66.1007 62.3449 66.1844C62.3031 66.2681 62.1777 66.3518 62.1777 66.5191C62.1777 66.561 62.1359 66.6447 62.1359 66.6865C62.0523 66.6028 61.9686 66.4354 61.885 66.3099C61.8014 66.1844 61.5923 66.1007 61.4669 66.0588C61.2997 66.017 60.9652 66.2262 60.8816 66.2681C60.7979 66.3099 60.338 66.4773 60.2126 66.4773C60.129 66.4773 59.9617 66.5191 59.8781 66.5191C59.7527 66.4773 59.5854 66.4773 59.5018 66.4354C59.3764 66.3936 59.2091 66.5191 59.1255 66.561C59.0419 66.6028 58.7492 66.8539 58.7492 66.8539C58.6656 66.8958 58.7074 66.9794 58.791 67.105C58.791 67.105 58.791 67.105 58.7492 67.1468C58.7074 67.1887 58.6656 67.2305 58.6238 67.3142C58.5402 67.3561 58.4148 67.4398 58.3311 67.4398C58.2475 67.4398 58.2475 67.4816 58.2057 67.4816C58.1639 67.4816 58.1221 67.4816 58.1221 67.4816C58.1221 67.4816 58.1639 67.4398 58.2057 67.3142C58.2475 67.2305 58.2475 67.2724 58.2893 67.1887C58.3311 67.105 58.4148 66.9795 58.5402 66.8121C58.6656 66.6028 58.791 66.1425 58.8747 66.0588C58.9583 65.9751 58.9165 65.8077 58.8747 65.724C58.8329 65.6404 58.7492 65.6404 58.7074 65.5985C58.6656 65.5985 58.5402 65.5567 58.5402 65.5148C58.5402 65.473 58.4566 65.473 58.5402 65.3893C58.6238 65.3056 58.7074 65.2637 58.8329 65.0963C58.9583 64.9708 58.9165 64.9708 59.0001 64.8034C59.0001 64.7616 59.0419 64.7197 59.0419 64.636C59.1255 64.6779 59.251 64.7616 59.3346 64.7197C59.5018 64.6779 59.5018 64.6779 59.6691 64.636C59.8363 64.636 60.129 64.5942 60.2126 64.5942C60.2962 64.5942 60.338 64.5523 60.3798 64.5523C60.4635 64.5523 60.8398 64.5105 60.9652 64.4686C61.0906 64.4268 61.4251 64.385 61.5923 64.4268C61.7596 64.4268 62.0104 64.4268 62.1359 64.3431C62.2613 64.3013 62.3449 64.2594 62.3867 64.1757C62.4285 64.092 62.5122 64.0083 62.554 63.8409C62.5958 63.6736 62.4704 63.6317 62.3867 63.548C62.2613 63.4643 61.9686 63.3806 61.8432 63.3388C61.7178 63.3388 61.5087 63.3806 61.3415 63.4225H61.2997C61.2997 63.3806 61.2579 63.3806 61.216 63.3388C61.1324 63.2551 60.8816 63.2132 60.7979 63.2132C60.7143 63.2132 60.5053 63.2133 60.3798 63.1714C60.2544 63.1296 60.0035 63.2551 60.0035 63.2551C59.7945 63.2969 59.7945 63.6317 59.7945 63.7991C59.7945 63.841 59.7945 63.8828 59.7945 63.8828C59.5854 63.9665 59.4182 64.0502 59.3346 64.0502C59.251 64.0502 59.0419 64.092 58.9583 64.1339V64.092C58.8747 63.9246 58.791 63.841 58.582 63.6736C58.3729 63.5062 57.9966 63.6317 57.9966 63.6317C57.8294 63.6736 57.7876 63.7991 57.704 63.9665C57.6622 64.1339 57.5785 64.385 57.5367 64.5105C57.4949 64.6779 57.4113 64.7197 57.3695 64.7616C57.3277 64.8034 57.2441 64.8871 57.2441 64.929C57.2023 64.9708 57.0768 65.0964 57.035 65.1382C56.9932 65.18 56.9096 65.3474 56.9096 65.5567C56.9514 65.7659 57.1186 65.8496 57.1604 65.9751C57.2441 66.1007 57.2859 66.3099 57.2859 66.4354C57.3277 66.561 57.4113 66.7284 57.4531 66.7702C57.4949 66.8121 57.5785 66.8539 57.5785 66.8958C57.5785 66.9376 57.5367 67.0213 57.4949 67.105C57.4531 67.1887 57.3277 67.3561 57.2859 67.4398C57.2441 67.4816 57.2441 67.5653 57.2022 67.649C57.1604 67.6908 56.9932 67.9001 56.9096 67.9838C56.826 68.0675 56.7423 68.2348 56.7423 68.3185L56.7005 68.2767C56.6169 68.193 56.5333 68.1093 56.4915 68.0675C56.3242 67.9838 56.1152 68.193 56.0316 68.2767C55.9061 68.1093 55.8643 67.9838 55.8225 67.9001C55.6135 67.5653 55.488 67.5235 55.2372 67.4398C55.1535 67.3979 55.1954 67.4816 55.0699 67.4398C55.0699 67.3979 55.0699 67.3561 55.0699 67.2724C55.0281 67.1887 54.9445 67.105 54.9027 67.0213C54.8609 66.9376 54.8609 66.8121 54.7354 66.7284C54.5264 66.6447 54.3591 66.6028 54.1919 66.6028C53.6484 66.561 53.3139 66.7284 53.3557 67.3979C53.3557 67.4398 53.3557 67.5653 53.3975 67.6071C53.4811 67.6908 53.5647 67.7745 53.6484 67.8582C53.8574 68.0675 54.1083 68.2348 54.3591 68.3604C54.5264 68.4859 54.6936 68.6115 54.9445 68.6533C55.1535 68.6952 55.3208 68.6533 55.5298 68.6952C55.488 68.7789 55.3626 68.737 55.3208 68.8207C55.1954 68.9462 55.1535 69.1136 55.0281 69.2392C54.9027 69.3647 54.7354 69.4903 54.61 69.6158C54.4846 69.7413 54.3591 69.825 54.2755 69.9506C54.2337 70.0343 54.2337 70.0343 54.2337 70.1179C54.1919 70.1179 54.1501 70.118 54.1501 70.1598C53.941 70.4109 53.732 70.662 53.5229 70.913C53.3975 71.0804 53.2721 71.2478 53.1048 71.3733C53.0212 71.457 52.8122 71.6663 52.7285 71.7081C52.3104 71.8755 52.1014 71.8337 51.9341 72.0847C51.8923 72.1266 51.8505 72.2103 51.8087 72.294C51.7669 72.3777 51.7669 72.294 51.5997 72.4614C51.2652 72.8798 51.9341 73.2983 52.3104 73.2983C52.6031 73.2983 52.854 73.0472 53.1048 72.8798C53.4393 72.6288 53.732 72.3358 54.0665 72.0429C54.1501 71.9592 54.3173 71.8755 54.3591 71.7918C54.6936 71.2478 55.0699 70.7457 55.4044 70.2853C55.488 70.2016 55.488 70.1179 55.6135 69.9924C56.0316 69.5739 56.7423 68.9881 56.9514 68.4859V68.4441C56.9932 68.4859 57.035 68.5278 57.035 68.5278C57.1186 68.6115 57.3695 68.737 57.4949 68.6952C57.6204 68.6952 57.8712 68.737 58.1221 68.6952C58.3311 68.6533 58.5402 68.6952 58.6238 68.6533C58.6656 68.6115 58.7492 68.4859 58.791 68.4022C58.8329 68.3185 59.0419 67.9419 59.1255 67.8164C59.1673 67.7327 59.1673 67.6071 59.2091 67.4816C59.2928 67.6071 59.3764 67.7327 59.5018 67.7745C59.6273 67.8582 59.9199 67.9419 60.0454 67.9419C60.1708 67.9001 60.2544 67.9419 60.2962 67.8582C60.4217 67.8164 60.5471 67.7745 60.6307 67.7327C60.7143 67.6908 61.2579 67.5235 61.3833 67.4816H61.4251C61.4669 67.4398 61.7596 67.2305 61.8432 67.105C61.885 67.0631 61.9686 66.9376 62.0523 66.8121C62.0104 66.9795 61.9686 67.1887 61.9268 67.2724C61.885 67.3979 61.8432 67.3979 61.885 67.5235C61.9268 67.649 62.0523 67.7745 62.1359 67.7745C62.2195 67.7745 62.2613 67.7745 62.3867 67.7745C62.5122 67.7745 63.0139 67.9001 63.2229 67.9001C63.3902 67.9001 63.8083 67.9838 63.8919 67.9838C63.9755 67.9838 63.9755 67.9419 64.0173 67.9001C64.0592 67.8582 64.1428 67.8582 64.2264 67.7745C64.31 67.6908 64.4354 67.5653 64.4773 67.4816C64.5191 67.3979 64.6027 67.3561 64.7281 67.2305C64.8117 67.105 64.8954 66.9795 64.9372 66.8121C64.8535 67.0213 64.8535 67.0213 64.7699 66.9376ZM60.7143 67.105C60.7143 67.105 60.7143 67.1468 60.7143 67.1887C60.5889 67.2305 60.4635 67.2724 60.4217 67.3142C60.3798 67.3142 60.2962 67.3561 60.2126 67.3561C60.2126 67.3142 60.2126 67.2724 60.1708 67.2305C60.1708 67.1887 60.129 67.105 60.129 67.0631C60.2126 67.0631 60.3798 67.0631 60.4217 67.0213C60.5053 66.9795 60.7143 66.9794 60.7143 66.9794C60.7143 66.9794 60.7143 67.0631 60.7143 67.105Z" fill="white"/>
<path d="M63.5154 70.4946C63.4318 70.4527 63.3064 70.4527 63.2227 70.369C63.1391 70.3272 62.8465 70.2435 62.721 70.2435C62.5956 70.2435 62.3865 70.2435 62.3029 70.2854C62.2193 70.2854 62.1357 70.369 62.0102 70.369C61.8848 70.4109 61.8848 70.4109 61.843 70.4109C61.8012 70.4109 61.6339 70.4527 61.5085 70.4946C61.3831 70.4946 60.9232 70.7038 60.7559 70.7457C60.5887 70.7875 60.2124 70.8294 60.087 70.8712C59.9615 70.913 59.8361 70.9549 59.8361 70.9549C59.8361 70.9549 59.8361 70.9967 59.8361 70.9131C59.8361 70.8712 59.8361 70.8294 59.8361 70.7875C59.9197 70.7457 60.0033 70.7038 60.0452 70.7038C60.1706 70.7038 60.4633 70.5783 60.5887 70.5783C60.7141 70.5783 60.8814 70.4527 61.0904 70.4109C61.1322 70.4109 61.2158 70.4109 61.2577 70.4109C61.2577 70.4527 61.3413 70.4109 61.4249 70.4109C61.5921 70.369 61.8848 70.369 61.9266 70.369C61.9684 70.369 62.0521 70.2435 62.0939 70.2435C62.1357 70.2017 62.2611 70.1598 62.3029 70.118C62.3447 70.118 62.3447 69.9924 62.4702 69.9087C62.5956 69.825 62.721 69.7413 62.8464 69.6577C62.9719 69.574 63.3064 69.281 63.3064 69.1973C63.3482 69.0718 63.2646 68.9044 63.1809 68.8207C63.0973 68.737 62.9719 68.6952 62.8464 68.6533C62.721 68.5696 62.4283 68.4441 62.2193 68.4023C62.0102 68.3604 61.6758 68.3186 61.5921 68.3186C61.5085 68.3186 61.4249 68.2349 61.2577 68.2349C61.0904 68.2349 60.6305 68.3186 60.4633 68.4023C60.296 68.4859 59.8361 68.6533 59.7107 68.6952C59.5852 68.737 59.3762 68.7789 59.3344 68.7789C59.2926 68.7789 59.0835 68.9044 58.9581 68.9463C58.8327 68.9881 58.6654 69.0718 58.54 69.1136C58.4146 69.1973 58.2473 69.2392 58.1219 69.3229C57.9964 69.4066 57.9546 69.5321 57.9128 69.574C57.871 69.6576 57.9128 69.7413 57.9546 69.7832C58.0383 69.8669 58.1219 69.9924 58.2055 70.118C58.2891 70.2435 58.3309 70.2017 58.4982 70.2017C58.6654 70.2017 58.7908 70.2435 58.8745 70.2017C58.9999 70.1598 59.2089 70.0761 59.2508 70.0343C59.2926 69.9924 59.4598 69.8669 59.5016 69.825C59.5852 69.7832 59.7107 69.6577 59.8361 69.6577C59.9615 69.6577 60.3796 69.574 60.4633 69.5321C60.5887 69.4903 60.965 69.4903 61.0904 69.4484C61.2158 69.4066 61.5085 69.3647 61.5085 69.3647C61.5085 69.3647 61.5503 69.4066 61.5503 69.4903C61.5503 69.4903 61.5503 69.5321 61.5503 69.574C61.4249 69.6158 61.2995 69.6158 61.2577 69.6577C61.174 69.6995 60.7977 69.6995 60.5469 69.7413C60.296 69.7832 60.1288 69.825 60.0452 69.8669C59.9615 69.9087 59.8361 69.9506 59.627 69.9924C59.4598 70.0343 59.2508 70.2017 59.1671 70.2435C59.0417 70.2853 58.7072 70.4109 58.54 70.4527C58.4982 70.4527 58.4564 70.4946 58.4146 70.4946C58.3727 70.4946 58.3727 70.4946 58.3727 70.4946C58.3309 70.4946 58.3309 70.5364 58.2891 70.5783C58.2473 70.6201 58.2473 70.662 58.2473 70.7457C58.2473 70.8712 58.3727 70.9549 58.4146 71.0804C58.4564 71.206 58.4564 71.6244 58.54 71.7918C58.6236 71.9592 58.9163 72.0011 58.9163 72.0011C58.9163 72.0011 58.9163 72.0011 59.1253 72.0011C59.3344 72.0011 59.4598 71.9592 59.627 71.9174C59.7943 71.8755 60.1288 71.7918 60.2124 71.7918C60.296 71.7918 60.4214 71.7918 60.5887 71.7918C60.7559 71.7918 61.0486 71.75 61.2577 71.7081C61.4667 71.6663 61.8012 71.5826 61.9684 71.5826C62.1357 71.5407 62.4283 71.5826 62.4283 71.5826C62.4283 71.5826 62.4702 71.6663 62.4283 71.75C62.3865 71.8337 62.3447 71.8755 62.3029 72.0429C62.2193 72.1684 62.1775 72.4195 62.1357 72.5032C62.0939 72.5869 61.9684 72.9217 61.8848 73.0472C61.843 73.1728 61.8012 73.1728 61.6758 73.2146C61.5503 73.2565 61.2995 73.3402 61.0486 73.382C60.8396 73.4238 60.296 73.5494 59.9615 73.5494C59.6271 73.5494 59.3762 73.4657 59.1671 73.382C58.9999 73.2983 58.8327 73.2983 58.5818 73.2146C58.3309 73.1309 58.2055 73.2146 58.1219 73.2565C58.0383 73.2983 58.1219 73.5494 58.1219 73.5912C58.1219 73.6331 58.1637 73.6749 58.2473 73.7586C58.3727 73.8423 58.4564 74.0097 58.5818 74.0934C58.7072 74.1771 59.1253 74.4282 59.2508 74.5119C59.3762 74.5955 59.5016 74.5955 59.5852 74.5955C59.6689 74.5955 59.6689 74.5955 59.7107 74.5955C59.7525 74.5955 59.6689 74.6374 59.7107 74.6374C59.7525 74.6792 59.8779 74.7211 60.087 74.7629C60.296 74.8048 60.5051 74.8885 60.8396 74.8885C61.174 74.9303 61.5921 74.9303 61.7594 74.9303C61.9266 74.9303 62.0521 74.9722 62.1357 74.9303C62.2193 74.8885 62.3447 74.8048 62.4283 74.6792C62.512 74.5537 62.6792 74.3863 62.721 74.2608C62.8046 74.1352 62.9719 73.926 63.0555 73.8423C63.0973 73.7586 63.0973 73.7168 63.1391 73.5912C63.1809 73.4657 63.2646 73.0891 63.4318 72.7125C63.599 72.3358 63.9753 71.9174 64.0171 71.8755C64.059 71.8337 64.059 71.7081 64.059 71.5826C64.059 71.4571 64.1008 71.1223 63.9753 70.8712C63.9335 70.662 63.599 70.5364 63.5154 70.4946Z" fill="white"/>
<path d="M72.6722 64.1758C72.505 64.2177 72.2541 64.2595 72.1287 64.3432C71.7942 64.7198 71.7106 64.8872 71.9196 65.0965C72.0451 65.222 72.2959 65.3057 72.5468 65.3894C72.6304 65.3894 72.714 65.4312 72.7977 65.4312C73.3412 65.3894 73.8429 65.3057 74.3028 65.0546C74.3865 65.0128 74.3865 64.9709 74.5119 64.8872C74.5955 64.8454 74.5955 64.8872 74.6373 64.8872C74.8464 64.8872 75.1808 64.8454 75.3063 64.6362C75.3481 64.5525 75.3899 64.5106 75.3899 64.3851C75.3481 64.2595 75.2645 64.2177 75.1808 64.1758C74.4701 63.6318 73.5084 63.9248 72.6722 64.1758Z" fill="white"/>
<path d="M82.8316 68.653C82.7479 68.6112 82.4971 68.4438 82.3298 68.4438C82.1626 68.4438 82.079 68.5694 81.9536 68.653C81.8281 68.7367 81.8281 68.9041 81.7027 68.946C81.6191 69.0297 81.3682 69.1552 81.2846 69.2389C81.201 69.3644 80.9083 69.6155 80.7829 69.7411C80.6574 69.8666 80.6574 69.8666 80.532 69.8248C80.4066 69.7411 80.0303 69.6574 79.9467 69.49C79.863 69.3226 79.6958 69.0715 79.5285 68.8204C79.4031 68.5694 79.3613 68.1509 79.3613 67.9835C79.3613 67.8161 79.5704 67.6906 79.5704 67.4813C79.6122 67.314 79.6958 67.021 79.6958 66.8536C79.6958 66.6863 79.4031 66.6026 79.2359 66.5189C79.0686 66.4352 78.8178 66.3096 78.7341 66.2259C78.6505 66.1841 78.3579 66.2259 78.1906 66.3096C78.1488 66.3096 78.107 66.3515 78.0652 66.3515C78.107 66.2678 78.1488 66.1841 78.1488 66.1004C78.1906 66.0167 78.2324 65.933 78.2742 65.8075C78.316 65.8075 78.3997 65.8075 78.4415 65.8075C78.6923 65.8075 79.2359 65.8075 79.4449 65.7656C79.6958 65.7238 80.3229 65.6819 80.4066 65.6401C80.4902 65.6401 80.5738 65.5146 80.5738 65.4309C80.5738 65.3053 80.532 65.2216 80.4902 65.0542C80.4484 64.8869 80.4066 64.7613 80.2393 64.6358C80.1139 64.5102 79.7794 64.3847 79.5704 64.3847C79.3613 64.3847 78.9014 64.3847 78.6087 64.4265C78.5669 64.4265 78.4833 64.4265 78.4415 64.4684C78.5669 64.3428 78.6923 64.1755 78.776 64.1336C78.9014 64.0499 78.985 63.7988 78.985 63.7151C78.985 63.6315 78.985 63.5478 78.8178 63.2967C78.6505 63.0456 78.3997 63.0038 78.1488 62.9619C77.8979 62.9201 77.6471 63.0038 77.6471 63.0038C77.3962 63.0456 77.4798 63.5059 77.438 63.5478C77.3962 63.6733 77.229 63.6733 77.0199 63.9244C76.8527 64.1336 76.5182 64.4684 76.3928 64.5939C76.351 64.6358 76.2255 64.7195 76.0165 64.8032C75.682 64.8869 75.3057 65.0124 75.1385 65.0124C74.9294 65.0542 74.0096 65.3053 73.6751 65.389C73.3824 65.4727 73.2988 65.5146 72.9225 65.4727C72.588 65.4727 72.3372 65.389 72.2117 65.3472C72.0863 65.3053 72.0027 65.3472 71.7936 65.389C71.5846 65.4309 71.3337 65.4727 71.2501 65.5982C71.1247 65.7238 71.2083 65.8912 71.2501 66.0586C71.2919 66.2259 71.6264 66.4352 71.7936 66.477C71.9191 66.5189 72.0445 66.6863 72.1699 66.6863C72.2953 66.6863 72.5044 66.6444 73.0061 66.5607C73.0479 66.5607 73.1316 66.5189 73.1734 66.5189C73.1734 66.5607 73.1734 66.6444 73.2152 66.7281C73.1734 66.7281 73.1734 66.7281 73.1316 66.7281C72.9225 66.77 72.5462 66.8536 72.4208 66.8955C72.2953 66.9373 71.9609 67.021 71.8772 66.9792C71.7936 66.9373 71.6682 66.8955 71.501 66.8955C71.3337 66.8955 71.1247 67.1047 71.1247 67.1047C70.9574 67.2303 70.832 67.4813 70.832 67.6487C70.832 67.8161 70.832 68.0672 70.9156 68.1509C70.9992 68.2346 71.1665 68.3183 71.3337 68.2764C71.5428 68.2346 71.7518 68.2346 71.9191 68.1509C72.0863 68.0672 72.5044 67.9835 72.6298 67.9417C72.7135 67.8998 72.9643 67.858 73.1316 67.858C73.1316 67.9417 73.1316 68.0253 73.0897 68.109C72.8807 68.1927 72.5462 68.1927 72.379 68.2764C72.1699 68.3601 71.8354 68.402 71.71 68.4438C71.5846 68.4857 71.4591 68.4857 71.3755 68.5275C71.2919 68.5694 71.1665 68.6531 70.9156 68.6949C70.7066 68.7367 70.2048 68.7786 69.9958 68.7367C69.7449 68.7367 69.7867 68.7786 69.6613 68.8623C69.5359 68.946 69.4522 69.0715 69.3686 69.2389C69.285 69.4481 69.3686 69.6155 69.4941 69.7411C69.5777 69.9085 69.7031 70.0758 69.7867 70.1177C69.8703 70.1595 70.2466 70.0758 70.4139 70.034C70.6229 69.9503 71.2083 69.6992 71.4173 69.6155C71.6264 69.5318 72.1281 69.4063 72.2953 69.3644C72.4626 69.3226 72.7135 69.2807 72.9225 69.2807C72.8807 69.4481 72.8807 69.6155 72.8389 69.6574C72.7553 69.8248 72.7135 69.8666 72.588 69.9503C72.5462 69.9921 72.4626 70.034 72.4626 70.034C72.4626 70.034 72.4208 70.034 72.379 69.9921C72.3372 69.9503 72.2535 69.8666 72.1699 69.8248C72.0445 69.7411 71.7936 69.8666 71.6264 69.9503C71.4591 70.034 71.2501 70.2014 71.1665 70.2432C71.0828 70.2851 71.1247 70.4106 71.2083 70.4525C71.2919 70.4943 71.2501 70.5361 71.2919 70.6198C71.3337 70.7035 71.3755 70.8291 71.4591 70.9128C71.5428 70.9965 71.6682 71.0383 71.7518 71.122C71.8772 71.2057 72.3372 71.3731 72.4626 71.4149C72.588 71.4568 72.7553 71.5405 72.9225 71.5823C72.8389 71.5823 72.7553 71.6242 72.6716 71.6242C72.4208 71.666 72.0027 71.6242 71.3755 71.5823C70.7484 71.5823 70.7902 71.7497 70.7484 71.9171C70.7066 72.1263 70.6229 72.0426 70.7484 72.3356C70.8738 72.5866 70.9992 72.754 71.2501 72.7959C71.5428 72.8377 71.7518 72.7959 72.0027 72.754C72.2535 72.7122 72.6716 72.6285 73.0061 72.5866C73.2988 72.5448 73.8005 72.5448 74.135 72.5029C74.0096 72.754 73.9678 72.7959 73.926 72.8796C73.8423 73.0051 73.7587 73.0888 73.7169 73.1306C73.6751 73.1725 73.5915 73.2143 73.5915 73.2143C73.5915 73.2143 73.466 73.2143 73.3406 73.2562C73.2152 73.298 72.8389 73.4236 72.7135 73.4654C72.588 73.5491 72.4626 73.591 72.3372 73.591C72.2117 73.6328 72.1281 73.6746 72.0863 73.8002C72.0445 73.9257 72.1699 74.3023 72.4208 74.4697C72.6716 74.6371 72.6298 74.7627 72.9643 74.679C73.2988 74.5953 73.7169 74.5534 74.0096 74.5116C74.3022 74.4697 74.4695 74.386 74.6367 74.3442C74.7622 74.3023 74.804 74.2605 75.0548 74.2187C75.3057 74.1768 75.8074 74.1768 75.9747 74.135C76.1837 74.0931 76.56 74.0513 76.7273 74.0094C76.8945 73.9676 76.9363 73.8839 77.0617 73.8839C77.1454 73.8839 77.229 73.8839 77.3126 73.842C77.3962 73.9257 77.5635 74.135 77.6053 74.2187C77.6889 74.3442 77.9398 74.4697 78.1488 74.5116C78.3579 74.5534 78.6087 74.4279 78.7341 74.386C78.8596 74.3442 79.0686 74.2187 79.1523 74.0513C79.2359 73.8839 79.4031 73.4236 79.2777 73.2562C79.1523 73.0888 79.0686 72.8377 78.8178 72.6285C78.6087 72.3774 78.4833 72.21 78.3997 72.0426C78.3579 71.9171 78.2742 71.8752 78.1488 71.7915C78.1906 71.7915 78.1906 71.7915 78.2324 71.7915C78.6087 71.7915 78.8178 71.8334 78.985 71.666C79.1104 71.5405 79.2777 71.4149 79.3195 71.2475C79.3613 71.1638 79.4449 71.0383 79.4449 70.9128C79.4867 70.9546 79.5285 70.9546 79.5704 70.9546C79.654 70.9965 79.863 71.122 79.9467 71.2057C80.0303 71.2894 80.1139 71.4149 80.1975 71.4568C80.2811 71.4986 80.4902 71.4986 80.6574 71.4568C80.8247 71.4149 81.1173 71.2475 81.201 71.1638C81.2846 71.0802 81.4518 70.9128 81.4936 70.7872C81.5354 70.6617 81.5773 70.6617 81.6609 70.578C81.7445 70.4943 81.7863 70.4525 81.8699 70.3688C81.9535 70.2851 81.9117 70.2432 81.9536 70.1595C82.0372 70.0758 82.1208 70.034 82.1626 69.8666C82.2044 69.7411 82.2044 69.6992 82.288 69.5737C82.3298 69.4481 82.4553 69.2389 82.5389 69.1134C82.5807 68.9878 82.6643 68.6949 82.7479 68.5275C82.957 68.653 82.957 68.6949 82.8316 68.653ZM77.3962 67.7743C77.6053 67.6906 77.7307 67.6906 77.8143 67.6487C77.9397 67.6069 78.0652 67.6487 78.0652 67.6487C78.0652 67.6487 78.0652 67.6069 78.107 67.6906C78.107 67.8161 78.1488 67.9417 78.1488 68.109C78.1488 68.2346 78.1906 68.2764 78.1906 68.402C78.1488 68.402 78.107 68.402 78.0652 68.3601C77.9398 68.2764 77.7725 68.2346 77.5216 68.0254C77.438 67.9835 77.3544 67.9417 77.2708 67.8998C77.3544 67.8998 77.3962 67.858 77.3962 67.7743ZM76.7273 72.8796C76.6018 72.8796 76.3091 73.0051 76.2255 73.0051C76.1419 73.047 76.1001 73.0888 75.9329 73.1306C75.8074 73.1725 75.682 73.1306 75.4729 73.1725C75.3057 73.2143 75.1803 73.2562 75.1803 73.1725C75.1803 73.1306 75.2639 73.0469 75.3057 72.9214C75.3893 72.7959 75.4729 72.754 75.5147 72.6285C75.5147 72.5866 75.5566 72.5448 75.5984 72.5029C75.8492 72.4192 75.9329 72.3774 76.1001 72.2937C76.2255 72.21 76.56 72.1682 76.56 72.1682C76.56 72.1682 76.56 72.1682 76.8527 72.0845C76.8945 72.0845 76.9363 72.0845 77.0199 72.0426C77.0617 72.1263 77.1454 72.21 77.1454 72.2937C77.1872 72.4192 77.229 72.5866 77.229 72.6703V72.7122C77.1035 72.7959 76.8109 72.8796 76.7273 72.8796ZM79.0686 70.7872C78.8596 70.7872 78.776 70.7035 78.5669 70.6617C78.3997 70.6198 78.316 70.6617 78.107 70.7035C77.8979 70.7454 77.8979 70.7035 77.6889 70.7454C77.4798 70.7872 76.8945 70.9128 76.5182 70.9546C76.1837 70.9965 75.0966 71.3312 74.7622 71.4149C74.4277 71.4986 74.0514 71.6242 73.8005 71.666C73.7169 71.666 73.6333 71.666 73.5078 71.7079C73.5497 71.666 73.6333 71.5823 73.6751 71.4986C73.8005 71.3312 73.8841 71.3312 73.926 71.2057C73.9678 71.122 73.926 70.9965 74.0514 70.3688C74.135 70.034 74.1768 69.6574 74.2604 69.3226C74.4277 69.2808 74.6367 69.1971 74.7204 69.1552C74.8458 69.1134 75.013 69.0297 75.1385 68.9878C75.2639 68.946 75.3057 68.8623 75.3057 68.7367C75.3057 68.6112 75.2221 68.4857 75.1385 68.402C75.0548 68.3183 74.8458 68.1509 74.7204 68.109C74.6367 68.0672 74.4695 68.0672 74.3441 68.0672C74.3441 68.0254 74.3441 67.9835 74.3441 67.9417C74.3441 67.858 74.3441 67.858 74.3441 67.7743C74.3859 67.7743 74.3859 67.7743 74.3859 67.7743C74.5113 67.7324 74.8458 67.6906 74.9294 67.6487C75.013 67.6069 74.9712 67.565 75.013 67.4813C75.013 67.3977 75.0548 67.2721 75.0548 67.1884C75.0548 67.1047 74.9294 66.9373 74.8876 66.8536C74.8458 66.77 74.804 66.6444 74.6785 66.6444C74.6367 66.6444 74.5949 66.6444 74.5531 66.6444C74.5113 66.5607 74.4695 66.5189 74.3859 66.477C74.5113 66.4352 74.6367 66.3515 74.7622 66.3096C74.9294 66.2678 75.0966 66.3096 75.2639 66.3096C75.4311 66.3096 76.1837 66.0167 76.4346 66.0167C76.6018 66.0167 76.8527 66.0167 77.1035 65.9749C77.1035 66.1004 77.0199 66.1841 76.9781 66.3096C76.9363 66.4352 76.8527 66.5189 76.6854 66.6863C76.6854 66.7281 76.6436 66.7281 76.6018 66.77C76.4764 66.77 76.3928 66.77 76.351 66.77C76.1837 66.77 75.891 66.8118 75.7656 66.8536C75.6402 66.8955 75.4729 66.9792 75.4311 67.1884C75.4311 67.3558 75.6402 67.4813 75.7238 67.5232C75.7656 67.565 75.891 67.6487 75.9747 67.7743C75.891 68.0254 75.8492 68.1927 75.8074 68.3183C75.7656 68.4438 75.6402 68.6112 75.4729 68.8623C75.3057 69.1134 75.0966 69.1552 75.013 69.4063C74.9712 69.5318 74.8876 69.6574 74.8458 69.7829C74.7622 69.7829 74.6785 69.7829 74.6367 69.7829C74.4277 69.8248 74.3022 69.9085 74.2186 70.2432C74.1768 70.4106 74.1768 70.4525 74.2604 70.7035C74.3441 70.9546 74.3859 71.122 74.5113 71.0802C74.6785 71.0802 74.9294 71.0383 75.1803 70.9965C75.4311 70.9128 75.7238 70.8709 75.9747 70.8291C76.1837 70.7872 76.1419 70.7454 76.3091 70.7454C76.4764 70.7035 76.8945 70.6617 77.1454 70.6198C77.3962 70.578 77.7725 70.4943 77.8979 70.4106C78.0234 70.3269 78.1488 70.2851 78.2742 70.1177C78.3997 69.9084 78.3997 69.9085 78.3579 69.6574C78.316 69.4063 78.2324 69.5737 78.107 69.5737C77.9816 69.5737 77.8143 69.5737 77.6889 69.5737C77.5635 69.5737 77.5216 69.5737 77.3544 69.5737C77.1872 69.5737 77.0199 69.5737 76.7691 69.5737C76.7691 69.5737 76.7691 69.5737 76.7273 69.5737C76.7273 69.5318 76.7272 69.49 76.7691 69.4481C76.8945 69.2808 76.9363 69.1971 77.0199 69.0715C77.1035 69.1134 77.229 69.1134 77.3126 69.1552C77.438 69.1971 77.5216 69.3226 77.7307 69.3226C77.9398 69.3226 78.107 69.2389 78.2742 69.2389C78.3579 69.2389 78.4833 69.1971 78.5669 69.1971C78.6505 69.3644 78.776 69.5737 78.8178 69.6155C78.8596 69.6992 78.9432 69.7411 78.985 69.8666C79.0686 69.9921 79.2359 70.3269 79.2777 70.5361C79.3195 70.6198 79.3195 70.6617 79.3195 70.7454C79.2359 70.7872 79.1523 70.7872 79.0686 70.7872Z" fill="white"/>
<path d="M90.3577 63.5058C90.1487 63.5895 89.9814 63.7151 89.8142 63.8406C89.647 63.9661 89.2289 64.3009 88.9362 64.5102C88.6435 64.7194 88.6435 64.9286 88.6017 65.3052C88.5599 65.64 88.8526 65.6819 89.0198 65.7656C89.187 65.8074 89.2289 65.8074 89.4379 65.7237C89.647 65.64 90.0232 65.5563 90.1905 65.4726C90.3577 65.3889 90.9013 65.2215 91.0685 65.1379C91.2776 65.0542 91.403 64.8868 91.4866 64.7194C91.5702 64.5102 91.5702 64.2591 91.5702 64.008C91.5284 63.7988 91.5284 63.7988 91.3612 63.7151C91.2357 63.6314 91.1521 63.5895 90.9431 63.464C90.8176 63.3384 90.6504 63.3803 90.3577 63.5058Z" fill="white"/>
<path d="M91.8211 70.1593C91.9047 70.0756 92.1556 69.8664 92.1974 69.8245C92.1974 69.7827 92.281 69.7409 92.3228 69.6572C92.3228 69.8664 92.3228 69.9501 92.281 70.1593C92.2392 70.4522 92.0301 70.6615 92.0301 70.8289C91.9883 71.0381 92.1138 71.2892 92.3646 71.4566C92.6155 71.6239 92.6155 71.7076 92.6991 71.7495C92.7827 71.7913 92.7827 71.875 92.9082 71.875C93.0336 71.875 93.2426 71.875 93.3681 71.7495C93.4935 71.6658 93.5353 71.5403 93.6189 71.4566C93.7026 71.4147 93.7444 71.3729 93.7444 71.1636C93.7862 70.9962 93.828 70.7452 93.8698 70.5778C93.9116 70.4104 93.9116 70.3685 93.9534 70.3267C93.9534 70.2849 93.9534 70.2849 93.9534 70.243C93.9534 70.2012 93.9116 70.243 93.9116 70.243L93.8698 70.2012C93.8698 70.2012 93.8698 70.1593 93.8698 70.1175C93.8698 70.0756 93.828 70.0338 93.8698 69.9919C93.8698 69.9919 93.9116 70.0338 93.9116 69.9919C93.9116 69.9501 93.9534 69.9082 93.9534 69.8664C93.9952 69.7827 93.9952 69.7827 93.9952 69.7827C93.9952 69.7827 93.9952 69.7827 93.9952 69.699C93.9952 69.6572 93.9952 69.6153 93.9952 69.5316C93.9952 69.5316 93.9952 69.5316 94.037 69.5316C94.1625 69.6153 94.2879 69.699 94.4552 69.8245C94.6224 69.9501 94.7478 69.9919 94.8733 69.9919C94.9987 69.9919 95.0823 69.8664 95.1659 69.8245C95.2495 69.7409 95.4168 69.5735 95.4586 69.5316C95.5004 69.4479 95.4586 69.3224 95.4168 69.155C95.375 68.9876 95.1241 68.6528 95.0405 68.5691C94.9569 68.4436 94.5806 68.2344 94.497 68.1925C94.4133 68.1507 94.1207 67.8996 93.9952 67.7741V67.7322C94.1207 67.6904 94.2043 67.6904 94.3715 67.7322C94.6224 67.7322 94.9151 67.7741 95.0823 67.6904C95.2495 67.6485 95.2914 67.6485 95.4168 67.4811C95.5422 67.3137 95.6258 67.2301 95.7513 67.0627C95.8767 66.8953 95.9185 66.8534 95.8349 66.7697C95.7513 66.6442 95.6677 66.5605 95.5004 66.435C95.3332 66.3094 94.9987 66.2676 94.6224 66.3094C94.2461 66.3513 94.1207 66.435 93.9116 66.4768H93.8698C93.8698 66.1839 93.8698 65.9747 93.8698 65.8073C93.9534 65.7654 93.9952 65.7654 94.037 65.7236C94.1625 65.6399 94.5806 65.5562 94.8314 65.4306C95.0823 65.3051 95.1659 65.1796 95.2077 65.0959C95.2496 65.0122 95.2077 65.0122 95.2077 64.8448C95.2077 64.6774 95.2077 64.6356 95.1659 64.5937C95.1241 64.5519 94.9569 64.4682 94.7896 64.4682C94.6224 64.4682 94.4552 64.4263 94.3297 64.4682C94.2461 64.4682 94.1207 64.51 93.9952 64.51C93.9952 64.4682 93.9952 64.3845 94.037 64.3845C94.0789 64.2171 94.0789 64.1753 94.037 63.966C93.9952 63.7568 93.7444 63.7568 93.6608 63.7149C93.5353 63.6731 93.3263 63.6731 93.1172 63.6731C92.9918 63.6731 92.8245 63.5476 92.6573 63.7568C92.5319 63.8823 92.4901 63.8405 92.4901 64.1753C92.4901 64.51 92.4901 64.51 92.4901 64.7193C92.4901 64.9285 92.5319 64.9285 92.4901 65.0122C92.4483 65.0959 92.4901 65.054 92.4483 65.3888C92.4483 65.6817 92.4901 65.7236 92.4901 65.9328C92.4901 66.142 92.4901 66.2257 92.4483 66.6442C92.4483 66.8116 92.4483 66.9371 92.4064 67.0627C91.9465 67.2301 91.4448 67.3556 91.3194 67.3974C91.1103 67.4393 90.6922 67.4393 90.6086 67.4393C90.4832 67.4393 90.4414 67.4393 90.3159 67.6067C90.1905 67.7741 90.1905 67.9414 90.3159 68.067C90.4414 68.1925 90.6922 68.4855 90.9431 68.5691C91.1939 68.6528 91.3612 68.5691 91.612 68.5273C91.7375 68.5273 91.8629 68.4855 91.9883 68.4436C91.8629 68.611 91.6539 68.9039 91.403 69.1132C90.9849 69.4061 90.7758 69.6153 90.6086 69.7409C90.4832 69.8664 90.0651 70.1175 89.9396 70.2012C89.8978 70.2012 89.8978 70.243 89.856 70.2849C89.8978 69.9919 89.9396 69.6153 89.9396 69.4061C89.9396 69.1132 89.856 68.7365 89.8978 68.2762C89.9396 68.0251 89.9396 67.8159 89.9814 67.6904C90.0232 67.6485 90.0651 67.6067 90.0651 67.6067C90.1905 67.4393 90.734 67.1882 90.8176 67.0627C90.9013 66.9371 90.8595 66.8534 90.9013 66.6442C90.9013 66.435 90.8176 66.2257 90.734 65.9747C90.6504 65.7236 90.2323 65.8073 89.8142 65.9328C89.6051 66.0165 89.2707 66.2257 89.187 66.3931C89.0616 66.5605 88.978 66.7279 88.8526 66.8116C88.7271 66.8953 88.4763 67.1464 88.2672 67.3137C88.0582 67.523 87.8909 67.6904 87.6401 68.0251C87.3892 68.3599 87.4728 68.3181 87.3892 68.4436C87.2638 68.5691 87.2219 68.4854 86.8875 68.7365C86.6784 68.9039 86.4275 69.0713 86.2603 69.155C86.0931 69.2387 86.0513 69.2387 85.884 69.2805C85.7168 69.3642 85.6332 69.4479 85.5077 69.6153C85.3823 69.7827 85.2987 69.8245 85.3823 69.9919C85.4659 70.1175 85.5913 70.2012 85.7586 70.2012C85.9258 70.243 86.2603 70.3267 86.553 70.3267C86.8457 70.3267 86.9293 70.3685 87.0965 70.243C87.2638 70.1593 87.3474 70.0338 87.7237 69.7409C88.0582 69.4479 88.4344 69.2387 88.7689 69.0295V69.1132C88.7689 69.1132 88.7689 69.1132 88.8107 69.2387C88.8526 69.3642 88.8944 69.4479 88.8526 69.5735C88.8107 69.699 88.8526 69.699 88.8107 69.8664C88.7689 69.9919 88.7689 70.0338 88.7689 70.1593C88.7689 70.2849 88.7271 70.3685 88.7271 70.4522C88.7271 70.5359 88.6435 70.7033 88.6017 70.787C88.5599 70.9126 88.6017 70.8289 88.5599 70.9963C88.4763 71.1636 88.5181 71.2473 88.5181 71.5821C88.5181 71.875 88.4763 72.168 88.4763 72.4609C88.4763 72.7538 88.5599 72.8375 88.6435 72.9212C88.7271 73.0049 88.8526 73.1304 88.978 73.2141C89.1034 73.2978 89.2707 73.507 89.3543 73.5489C89.4379 73.5489 89.4797 73.5907 89.6051 73.507C89.7306 73.4234 89.7306 73.3397 89.7724 73.2141C89.9814 72.7538 89.9396 72.7957 89.9814 72.419C90.0232 72.0424 89.9814 71.7495 89.9396 71.4566C89.9396 71.3729 89.9396 71.2473 89.9396 71.1636C89.9814 71.2055 90.0651 71.2473 90.1069 71.2892C90.1905 71.3729 90.2741 71.4566 90.3159 71.4984C90.3995 71.4984 90.4832 71.4147 90.5668 71.3729C90.6504 71.331 90.6922 71.2055 90.9013 71.1218C91.0685 71.0381 91.2776 70.9544 91.403 70.8707C91.5284 70.787 91.6539 70.787 91.7375 70.7033C91.6539 70.4522 91.7375 70.2849 91.8211 70.1593Z" fill="white"/>
<path d="M95.8761 66.5608C95.8761 66.5608 95.8761 66.5608 96.0015 66.6864C96.127 66.8119 96.2524 66.8119 96.4196 66.8956C96.5451 66.9374 96.5451 66.9793 96.6287 66.9793C96.7123 66.9793 96.7541 66.9793 96.8795 66.9374C97.005 66.8956 97.1304 66.8956 97.2558 66.8119C97.3813 66.77 97.5485 66.7282 97.6739 66.6864C97.8412 66.6445 98.3429 66.4771 98.4265 66.4771C98.552 66.4353 98.7192 66.519 98.761 66.519C98.8028 66.519 98.8446 66.4771 99.0119 66.3516C99.1791 66.226 99.2627 66.0587 99.3464 65.8494C99.3882 65.682 99.3046 65.682 99.2627 65.6402C99.2209 65.6402 99.1373 65.5983 99.0119 65.5147C98.8864 65.4728 98.5938 65.3891 98.4265 65.3473C98.3011 65.3054 98.2175 65.2636 98.1339 65.3054C98.0921 65.3473 97.9666 65.3473 97.7994 65.3891C97.6321 65.431 97.1722 65.4728 97.005 65.5147C96.8795 65.5565 96.2524 65.5983 96.0015 65.5983C95.7507 65.5983 95.7089 65.6402 95.5834 65.8076C95.4998 65.9331 95.458 65.9331 95.4998 66.1423C95.7089 66.3934 95.8761 66.5608 95.8761 66.5608Z" fill="white"/>
<path d="M101.271 67.8582C101.271 67.6908 101.229 67.5653 101.103 67.3979C100.978 67.1887 100.936 67.105 100.727 66.9376C100.476 66.8121 100.1 66.7284 99.6817 66.7284C99.3054 66.7284 99.3473 66.6865 99.18 66.6865C99.0128 66.6865 98.7201 66.7284 98.4692 66.7702C98.2184 66.8121 97.8839 66.8958 97.5912 66.9376C97.3404 67.0213 97.1731 67.0631 97.0895 67.105C97.0477 67.105 96.8804 67.1468 96.7132 67.1887C96.546 67.2305 96.2533 67.2724 96.086 67.2305C95.877 67.2305 95.7934 67.1887 95.6261 67.3561C95.3335 67.649 95.3335 67.9001 95.3335 68.0675C95.3335 68.2348 95.3335 68.3185 95.2916 68.5278C95.2916 68.737 95.3753 68.737 95.5425 68.7789C95.7098 68.8207 95.8352 68.7789 96.1279 68.737C96.3787 68.6952 96.3787 68.6533 96.7132 68.6533C96.7968 68.8207 96.755 68.9881 96.7968 69.3229C96.8386 69.6576 96.8804 69.825 96.8804 69.9924C96.9223 70.1598 96.9223 70.4109 96.8804 70.5783C96.8386 70.7456 96.8804 70.9549 96.8804 71.1223C96.8804 71.2897 96.8804 71.5407 96.8804 71.7918C96.8386 72.0429 96.8386 72.0847 96.6296 72.2103C96.4623 72.294 96.2951 72.3777 96.1697 72.3777C96.0442 72.4195 95.5843 72.4195 95.4171 72.4195C95.2498 72.3777 94.7063 72.3358 94.4554 72.3358C94.2046 72.3358 93.9119 72.3777 93.661 72.4614C93.452 72.5451 93.3266 72.5869 93.3684 72.7124C93.4102 72.838 93.452 72.8798 93.5774 73.0054C93.661 73.0891 93.7447 73.0472 93.8701 73.0891C93.9955 73.1309 94.3718 73.5075 94.4972 73.5494C94.6227 73.5912 94.9154 73.7168 95.1244 73.7168C95.3335 73.7586 95.3753 73.8004 95.5425 73.8004C95.6679 73.8004 95.5843 73.926 95.8352 73.9678C96.086 74.0097 96.2533 74.0934 96.4623 74.0934C96.6714 74.1352 97.3404 74.1352 97.6748 74.1352C98.0093 74.1771 97.9675 74.0934 98.0511 74.0097C98.1348 73.8841 98.2602 73.8423 98.302 73.7586C98.3438 73.6331 98.302 73.2564 98.2602 72.6706C98.2184 72.0847 98.2602 71.206 98.2184 70.7038C98.2184 70.2016 98.3438 69.2392 98.3856 68.9881C98.4274 68.7789 98.511 68.6115 98.5529 68.4441C98.8037 68.4022 99.0964 68.4022 99.2636 68.4022C99.5145 68.4022 99.849 68.3604 99.9744 68.3185C100.142 68.2767 100.183 68.2349 100.351 68.193C100.518 68.1512 100.727 68.1093 100.936 68.0675C101.187 68.0675 101.271 68.0256 101.271 67.8582Z" fill="white"/>
<path d="M116.949 72.3356C116.782 72.2519 116.614 72.2519 116.322 72.1682C116.029 72.0427 115.778 71.959 115.653 71.8334C115.527 71.7498 115.318 71.7079 115.067 71.5824C114.858 71.4568 114.273 71.1639 113.939 70.9547C113.604 70.7454 113.228 70.4525 112.977 70.1596C112.726 69.8667 112.517 69.4482 112.099 68.9042C111.806 68.5276 111.472 68.0254 111.263 67.6906C111.43 67.6906 111.597 67.6906 111.764 67.6488C112.057 67.6488 112.517 67.7325 112.81 67.6906C113.144 67.6488 113.27 67.6488 113.479 67.6069C113.729 67.5651 113.688 67.5232 114.064 67.4395C114.189 67.3977 114.189 67.3559 114.231 67.4395C114.231 67.4814 114.189 67.5232 114.148 67.5232C114.189 67.5651 114.482 67.4395 114.608 67.3977C114.691 67.3559 114.733 67.2303 114.733 66.9792C114.775 66.6445 114.817 66.4771 114.817 66.1842C114.775 65.8912 114.566 65.8912 114.273 65.7657C113.98 65.6401 113.897 65.682 113.646 65.682C113.437 65.682 113.061 65.5983 112.601 65.7657C112.141 65.9331 111.89 65.9749 111.388 66.1005C111.137 66.1842 111.012 66.226 110.845 66.2678C110.886 65.9331 110.928 65.682 110.97 65.5565C111.137 64.7614 111.054 64.6358 111.179 63.9244C111.304 63.213 111.346 63.2967 111.095 62.9201C110.803 62.5435 110.426 62.7527 110.217 62.8364C109.674 63.0457 109.883 63.213 109.925 63.5478C109.967 63.8826 109.967 64.2174 110.008 64.5103C110.008 64.8032 110.008 64.9706 109.883 65.5146C109.758 66.0168 109.758 65.8075 109.548 66.226C109.507 66.3515 109.423 66.5608 109.381 66.77C109.339 66.77 109.339 66.77 109.298 66.77C108.879 66.8955 108.712 66.8955 108.336 66.8955C108.001 66.8955 107.583 66.8955 107.333 66.8955C107.082 66.8955 106.245 66.8119 105.911 66.9374C105.576 67.0629 105.367 67.1048 105.409 67.4814C105.409 67.858 105.535 68.3183 105.827 68.4439C106.12 68.5694 106.204 68.5276 106.538 68.5276C106.873 68.5276 106.956 68.402 107.333 68.2765C107.667 68.1509 108.127 68.1091 108.545 67.9836C108.67 67.9417 108.879 67.8999 109.13 67.858C109.13 67.8999 109.089 67.9417 109.089 67.9417C108.963 68.2346 108.796 68.8623 108.67 69.2808C108.503 69.6993 108.461 69.7411 108.336 69.9085C108.211 70.0759 108.001 70.4107 107.709 70.6617C107.416 70.9128 106.873 71.5405 106.454 71.8334C106.036 72.1264 105.66 72.5448 105.451 72.6704C105.242 72.7959 104.991 72.9633 105.033 73.1725C105.075 73.3818 105.033 73.8002 105.075 74.135C105.117 74.4279 105.451 74.4279 105.786 74.3442C106.204 74.2605 106.371 74.135 106.705 74.0095C107.04 73.8839 107.04 73.9258 107.207 73.8421C107.374 73.7165 107.416 73.7165 107.667 73.5073C107.918 73.2981 108.294 72.9215 108.503 72.6704C108.712 72.3774 108.796 72.2519 108.921 72.0008C109.047 71.7497 109.172 71.6661 109.423 71.2057C109.674 70.7454 109.967 70.327 110.092 69.9503C110.217 69.6156 110.426 68.946 110.552 68.4857C110.677 68.6113 110.803 68.7368 110.97 69.0297C111.179 69.3645 111.179 69.49 111.555 70.1596C111.723 70.4525 111.806 70.3688 111.932 70.4944C112.057 70.6199 112.015 70.8291 112.141 70.9965C112.266 71.1639 112.141 71.2894 112.266 71.4987C112.392 71.7916 112.517 72.0008 112.642 72.2101C112.768 72.4193 112.768 72.4611 112.977 72.7959C113.186 73.1307 113.479 73.2144 113.771 73.2981C114.064 73.3818 114.315 73.5073 114.649 73.5492C114.984 73.591 115.527 73.6747 115.695 73.6747C115.862 73.6747 115.778 73.6328 115.904 73.591C116.029 73.5492 116.113 73.6328 116.447 73.591C116.74 73.5073 117.283 73.4236 117.701 73.3399C117.994 73.2981 118.036 73.2562 118.078 73.1307C118.161 72.9215 118.036 72.8796 117.869 72.7122C117.66 72.6285 117.158 72.3774 116.949 72.3356Z" fill="white"/>
<path d="M122.05 70.4105C122.384 70.2431 122.928 69.8247 123.179 69.5318C123.429 69.2388 123.722 68.9459 123.806 68.7785C123.889 68.6111 123.806 68.5693 123.806 68.4019C123.806 68.3182 123.806 68.1927 123.764 68.109C123.848 68.0671 123.889 68.0253 123.973 67.9834C124.182 67.8579 124.475 67.8997 124.558 67.565C124.642 67.2302 124.684 67.0628 124.642 66.5188C124.642 66.0166 124.349 65.9329 124.224 65.5563C124.098 65.1797 124.015 65.1379 123.806 64.9705C123.597 64.7612 123.304 64.8449 123.095 64.8868C122.886 64.9705 122.719 64.9705 122.761 65.096C122.802 65.8493 122.677 66.2259 122.761 66.6025C122.802 66.9791 122.97 67.021 123.22 67.3976C123.346 67.6068 123.429 67.7742 123.429 67.8997C123.262 67.9416 123.095 67.9834 122.97 68.0253C122.677 68.109 122.635 68.1927 122.468 68.3182C122.342 68.4437 122.008 68.653 121.883 68.7367C121.757 68.8622 121.59 68.9459 121.464 69.1133C121.339 69.2807 121.046 69.3644 121.004 69.6573C120.963 69.9502 121.172 70.3268 121.255 70.4524C121.339 70.6198 121.715 70.5361 122.05 70.4105Z" fill="white"/>
<path d="M133.882 67.4396C133.757 67.3141 133.339 67.1049 133.088 67.0212C132.837 66.9375 131.834 66.8119 131.541 66.8119C131.457 66.8119 131.248 66.8119 131.081 66.7701C131.081 66.7282 131.123 66.7282 131.123 66.6864C131.165 66.4772 131.248 66.1842 131.248 66.0169C131.29 65.8495 131.416 65.7239 131.499 65.431C131.583 65.0962 131.583 64.887 131.625 64.5941C131.708 64.2593 131.75 64.343 131.792 63.9664C131.834 63.5897 131.583 63.5479 131.374 63.3387C131.165 63.1294 130.956 63.0457 130.747 63.0457C130.538 63.0457 130.203 63.0457 129.994 63.0876C129.785 63.1294 129.618 63.0876 129.492 63.1713C129.367 63.255 129.241 63.2131 129.074 63.255C128.907 63.2968 128.865 63.2968 128.698 63.5479C128.572 63.7571 128.823 64.0919 128.907 64.0919C128.991 64.0919 129.325 64.0919 129.534 64.0919C129.743 64.0919 129.869 64.0919 129.994 64.0501C130.119 64.0501 130.161 64.0919 130.161 64.1338C130.161 64.1338 130.161 64.2174 130.161 64.2593C129.994 64.3011 129.576 64.3011 129.409 64.343C129.2 64.343 128.991 64.3848 128.865 64.5941C128.698 64.887 128.865 65.0125 129.158 65.0962C129.409 65.2218 129.618 65.1799 129.785 65.1381C129.869 65.0962 129.952 65.0962 130.036 65.0962C129.994 65.1799 129.994 65.3055 129.994 65.3892C129.743 65.431 129.409 65.431 129.241 65.431C129.032 65.431 128.907 65.431 128.823 65.6402C128.698 65.9332 128.782 66.1005 128.949 66.2679C129.116 66.4353 129.325 66.4772 129.534 66.4772C129.576 66.4772 129.618 66.4772 129.66 66.4772C129.66 66.519 129.618 66.5609 129.618 66.6027C129.576 66.6864 129.492 66.8119 129.325 66.9375C129.116 66.9793 128.907 66.9793 128.74 67.0212C128.782 66.8956 128.823 66.7701 128.74 66.6864C128.656 66.5609 128.489 66.1842 128.405 66.1005C128.363 66.0587 128.322 66.0169 128.238 65.975C128.363 65.8076 128.447 65.5984 128.447 65.5147C128.489 65.3892 128.447 65.2218 128.405 65.1381C128.572 65.0544 128.656 64.887 128.656 64.7615C128.656 64.6359 128.572 64.5522 128.363 64.343C128.28 64.2593 128.196 64.1756 128.113 64.0919C128.238 63.9664 128.322 63.8827 128.363 63.8408C128.489 63.6734 128.572 63.2131 128.489 63.1294C128.405 63.0457 128.196 62.9202 127.987 62.8365C127.778 62.7528 127.694 62.6273 127.485 62.7528C127.276 62.8784 127.235 63.2131 127.109 63.4642C127.067 63.5061 127.067 63.5479 127.025 63.6316C126.984 63.6316 126.942 63.6316 126.9 63.6316C126.691 63.6734 126.315 63.7571 126.106 63.799C126.106 63.7153 126.064 63.6316 125.98 63.4642C125.771 63.1713 125.562 63.0457 125.353 63.0039C125.144 62.962 124.935 63.0039 124.768 63.0876C124.642 63.2131 124.559 63.4224 124.475 63.7571C124.35 64.0919 124.475 64.1338 124.559 64.4685C124.642 64.8033 124.684 65.2636 124.684 65.6821C124.684 66.1005 124.768 66.0587 124.81 66.2679C124.851 66.519 124.851 66.9375 124.893 67.3141C124.893 67.3978 124.893 67.4815 124.893 67.5652C124.684 67.5652 124.433 67.9418 124.35 68.0673C124.224 68.2766 124.726 68.444 125.186 68.4858C125.604 68.5277 126.524 68.3603 126.775 68.3184C127.025 68.2347 127.193 68.2347 127.36 68.1929C127.527 68.151 127.694 67.9836 127.904 67.9418C128.113 67.9 128.28 67.8163 128.614 67.8163C128.949 67.8163 129.45 67.8581 129.994 67.8999C130.538 67.9418 131.123 67.9418 131.29 67.9418C131.416 67.9418 131.708 67.9836 131.708 67.9836C131.708 67.9836 131.625 68.2766 131.499 68.4021C131.374 68.5277 131.207 68.5695 131.081 68.9043C130.997 69.239 131.165 69.2809 131.374 69.4483C131.583 69.5738 131.457 69.5738 131.959 69.4483C132.461 69.3227 132.879 69.0717 133.088 68.9043C133.297 68.7369 133.381 68.6532 133.548 68.5695C133.715 68.4858 133.841 68.3603 134.05 67.9836C134.3 67.5652 134.008 67.5652 133.882 67.4396ZM126.106 64.0501C126.106 64.0082 126.106 64.0082 126.106 63.9664C126.147 64.0082 126.189 64.0501 126.231 64.0919C126.273 64.1338 126.357 64.1756 126.44 64.2175C126.315 64.343 126.147 64.4267 126.022 64.5104C126.106 64.343 126.106 64.2174 126.106 64.0501ZM125.98 65.1799C126.147 65.0962 126.398 65.0544 126.607 64.9288C126.733 64.8451 126.942 64.7615 127.109 64.6778C127.193 64.7615 127.276 64.8451 127.36 64.9288C127.276 65.0125 127.193 65.1381 127.151 65.2218C126.733 65.0962 126.691 65.0962 126.482 65.0962C126.273 65.0962 126.022 65.1799 126.022 65.1799C125.98 65.1799 125.98 65.1799 125.938 65.2218C125.98 65.2636 125.98 65.2218 125.98 65.1799ZM125.98 65.6402C126.064 65.6821 126.147 65.7239 126.273 65.7658C126.357 65.8076 126.44 65.9332 126.566 66.0169C126.44 66.1424 126.147 66.2679 125.98 66.3516C125.98 66.3098 125.98 66.2261 125.98 66.1842C126.022 66.0587 125.98 65.8495 125.98 65.6402ZM127.025 67.2722C126.733 67.3559 126.44 67.3978 126.189 67.4396C126.147 67.4396 126.106 67.4396 126.064 67.4815C126.064 67.4396 126.064 67.3978 126.064 67.3978C126.064 67.3559 126.064 67.3141 126.064 67.2722C126.189 67.3559 126.315 67.3978 126.398 67.3559C126.649 67.2304 126.858 67.1049 127.109 67.0212C127.151 67.0212 127.193 66.9793 127.235 66.9375C127.36 67.063 127.444 67.1886 127.527 67.2722C127.318 67.1886 127.151 67.2304 127.025 67.2722Z" fill="white"/>
<path d="M131.541 71.1224C132.042 71.2479 132.042 71.2061 132.168 71.2061C132.293 71.1642 132.419 71.1224 132.586 70.8713C132.795 70.6621 132.586 70.5365 132.502 70.411C132.419 70.3273 132.419 70.2018 132.251 69.9925C132.084 69.7833 131.833 69.6578 131.541 69.6578C131.248 69.6578 130.704 69.867 130.537 69.867C130.328 69.867 129.826 69.9088 129.534 69.9088C129.492 69.9088 129.408 69.9088 129.325 69.9507C129.575 69.6577 129.952 69.4067 130.244 69.2393C130.579 69.0301 130.621 68.9882 130.621 68.8208C130.621 68.6534 130.453 68.3605 130.203 68.1513C129.91 67.942 129.617 67.9839 129.116 67.9839C128.614 67.9839 128.321 68.0676 128.07 68.1513C127.861 68.235 127.025 68.4442 126.649 68.5279C126.314 68.6116 125.645 68.779 125.269 68.8208C124.851 68.9045 124.475 68.9045 124.307 69.0719C124.182 69.2393 124.182 69.2393 124.307 69.4485C124.391 69.6159 124.516 69.6996 124.893 69.8251C125.311 69.9507 125.478 69.9507 125.771 69.867C126.063 69.7833 126.691 69.4904 126.941 69.4485C127.485 69.323 127.652 69.0719 127.987 68.9464C128.321 68.8208 128.781 68.779 128.781 68.9045C128.781 69.03 128.697 69.1974 128.614 69.323C128.53 69.4904 128.447 69.5741 128.405 69.6159C128.321 69.5322 128.238 69.4904 128.154 69.4067C127.987 69.323 127.736 69.2393 127.569 69.323C127.109 69.5741 127.276 69.6996 127.359 69.867C127.443 69.9507 127.485 70.0762 127.527 70.2018C127.109 70.2854 126.607 70.3691 126.314 70.4528C125.98 70.5365 125.06 70.7039 124.893 70.7458C124.684 70.7876 124.14 70.8295 123.889 70.8295C123.638 70.8295 123.513 70.7039 123.262 70.8713C122.969 71.0805 122.844 71.2061 122.886 71.4572C122.928 71.7082 123.178 71.7501 123.387 71.8756C123.597 72.0012 124.098 71.8338 124.6 71.7501C125.06 71.6664 125.729 71.6245 126.231 71.5408C126.732 71.4572 126.732 71.4572 127.067 71.4572C127.234 71.4572 127.443 71.4153 127.652 71.3735C127.652 71.4572 127.652 71.5408 127.652 71.5827C127.652 71.7919 127.694 72.043 127.694 72.4615C127.694 72.8799 127.652 72.9218 127.485 73.0892C127.318 73.2566 127.025 73.3403 126.691 73.4239C126.356 73.5076 125.478 73.4658 125.185 73.4239C124.893 73.3821 124.391 73.4239 124.182 73.4239C123.973 73.4239 123.931 73.4658 123.931 73.5495C123.931 73.6332 123.931 73.7587 124.015 73.8843C124.14 74.0098 124.266 74.1772 124.433 74.219C124.6 74.2609 125.102 74.512 125.478 74.6375C125.854 74.763 126.063 74.8049 126.231 74.8049C126.398 74.8049 126.607 75.0141 127.025 75.0141C127.443 75.0141 127.819 75.0141 127.945 74.9723C128.07 74.9304 128.363 74.6375 128.572 74.3027C128.823 73.9261 128.781 73.4658 128.823 73.0892C128.865 72.7126 128.823 71.5408 128.823 71.2061C129.074 71.1642 129.325 71.1224 129.659 71.0805C130.286 71.1224 130.955 70.9968 131.541 71.1224Z" fill="white"/>
<path d="M4.68826 80.4957C4.68826 81.2071 4.73007 81.8766 4.77188 82.5043C4.56283 81.9603 4.27016 81.3745 3.97749 80.8723L2.97404 79.1147H1.71973V83.9271H2.72318V82.4625C2.72318 81.6674 2.72318 80.9978 2.68137 80.3701H2.72318C2.97404 80.956 3.26671 81.5419 3.55938 82.0859L4.60464 83.9271H5.73352V79.1147H4.68826V80.4957Z" fill="white"/>
<path d="M10.2491 81.8351C10.2491 80.9982 9.87277 80.3286 8.70208 80.3286C8.07492 80.3286 7.5732 80.496 7.36414 80.6215L7.5732 81.3329C7.78225 81.2074 8.20035 81.0818 8.53483 81.0818C9.07837 81.0818 9.16199 81.3329 9.16199 81.5422V81.584C7.90768 81.584 7.11328 82.0025 7.11328 82.9231C7.11328 83.4671 7.53138 84.0111 8.24216 84.0111C8.66027 84.0111 8.99475 83.8437 9.24561 83.5926H9.28742L9.37104 83.9274H10.3327C10.2909 83.7182 10.2909 83.4253 10.2909 83.0905V81.8351H10.2491ZM9.2038 82.6302C9.2038 82.7139 9.2038 82.7557 9.16199 82.7976C9.07837 83.0068 8.86932 83.216 8.57665 83.216C8.32578 83.216 8.15854 83.0905 8.15854 82.7976C8.15854 82.3791 8.61846 82.2536 9.16199 82.2536V82.6302H9.2038Z" fill="white"/>
<path d="M13.0501 79.4077L12.0048 79.6588V80.412H11.5449V81.2071H12.0048V82.6299C12.0048 83.1321 12.0885 83.4669 12.2975 83.6761C12.4647 83.8435 12.7574 83.969 13.0919 83.969C13.3846 83.969 13.6773 83.9272 13.8027 83.8853V83.0484C13.7191 83.0484 13.6354 83.0902 13.4682 83.0902C13.1337 83.0902 13.0501 82.881 13.0501 82.4625V81.2071H13.8445V80.412H13.0501V79.4077Z" fill="white"/>
<path d="M16.4787 80.4121H15.3916V83.9272H16.4787V80.4121Z" fill="white"/>
<path d="M15.935 78.9053C15.6005 78.9053 15.3496 79.1564 15.3496 79.4493C15.3496 79.7422 15.5587 79.9933 15.935 79.9933C16.3112 79.9933 16.5203 79.7422 16.5203 79.4493C16.4785 79.1145 16.2694 78.9053 15.935 78.9053Z" fill="white"/>
<path d="M19.7819 80.3286C18.653 80.3286 17.9004 81.04 17.9004 82.1699C17.9004 83.2997 18.6948 83.9693 19.6982 83.9693C20.6181 83.9693 21.5379 83.3834 21.5379 82.0862C21.5379 81.0819 20.8271 80.3286 19.7819 80.3286ZM19.74 83.216C19.2801 83.216 19.0293 82.7557 19.0293 82.1699C19.0293 81.6677 19.2383 81.1237 19.74 81.1237C20.2418 81.1237 20.4508 81.6677 20.4508 82.1699C20.409 82.7976 20.1581 83.216 19.74 83.216Z" fill="white"/>
<path d="M24.6315 80.3286C24.0462 80.3286 23.7117 80.6634 23.5445 80.8726H23.5027L23.4608 80.4123H22.541C22.541 80.7052 22.5828 81.0819 22.5828 81.5422V83.9274H23.6699V81.9188C23.6699 81.8351 23.6699 81.7096 23.7117 81.6677C23.7953 81.4585 23.9626 81.2492 24.2552 81.2492C24.6315 81.2492 24.7988 81.5422 24.7988 82.0025V83.9274H25.8858V81.8351C25.8858 80.7889 25.3841 80.3286 24.6315 80.3286Z" fill="white"/>
<path d="M30.2764 81.8351C30.2764 80.9982 29.9001 80.3286 28.7294 80.3286C28.1023 80.3286 27.6005 80.496 27.3915 80.6215L27.6005 81.3329C27.8096 81.2074 28.2277 81.0818 28.5622 81.0818C29.1057 81.0818 29.1893 81.3329 29.1893 81.5422V81.584C27.935 81.584 27.1406 82.0025 27.1406 82.9231C27.1406 83.4671 27.5587 84.0111 28.2695 84.0111C28.6876 84.0111 29.0221 83.8437 29.273 83.5926H29.3148L29.3984 83.9274H30.36C30.3182 83.7182 30.3182 83.4253 30.3182 83.0905V81.8351H30.2764ZM29.2311 82.6302C29.2311 82.7139 29.2311 82.7557 29.1893 82.7976C29.1057 83.0068 28.8967 83.216 28.6458 83.216C28.3949 83.216 28.2277 83.0905 28.2277 82.7976C28.2277 82.3791 28.6876 82.2536 29.2311 82.2536V82.6302Z" fill="white"/>
<path d="M32.9933 78.8218H31.9062V83.8852H32.9933V78.8218Z" fill="white"/>
<path d="M36.2129 79.9934H37.509V83.8851H38.5961V79.9934H39.934V79.0728H36.2129V79.9934Z" fill="white"/>
<path d="M43.6553 81.8351C43.6553 80.9982 43.279 80.3286 42.1083 80.3286C41.4812 80.3286 40.9794 80.496 40.7704 80.6215L40.9794 81.3329C41.1885 81.2074 41.6066 81.0818 41.9411 81.0818C42.4846 81.0818 42.5682 81.3329 42.5682 81.5422V81.584C41.3139 81.584 40.5195 82.0025 40.5195 82.9231C40.5195 83.4671 40.9376 84.0111 41.6484 84.0111C42.0665 84.0111 42.401 83.8437 42.6519 83.5926H42.6937L42.7773 83.9274H43.7389C43.6971 83.7182 43.6971 83.4253 43.6971 83.0905V81.8351H43.6553ZM42.6101 82.6302C42.6101 82.7139 42.6101 82.7557 42.5682 82.7976C42.4846 83.0068 42.2756 83.216 41.9829 83.216C41.732 83.216 41.5648 83.0905 41.5648 82.7976C41.5648 82.3791 42.0247 82.2536 42.5682 82.2536V82.6302H42.6101Z" fill="white"/>
<path d="M46.3732 80.4121H45.2861V83.9272H46.3732V80.4121Z" fill="white"/>
<path d="M45.8295 78.9053C45.495 78.9053 45.2441 79.1564 45.2441 79.4493C45.2441 79.7422 45.4532 79.9933 45.8295 79.9933C46.2058 79.9933 46.4148 79.7422 46.4148 79.4493C46.4148 79.1145 46.164 78.9053 45.8295 78.9053Z" fill="white"/>
<path d="M51.5571 81.793C51.4735 82.2115 51.3899 82.5881 51.3481 83.0066C51.2645 82.5881 51.1808 82.2115 51.0972 81.8349L50.7627 80.454H49.8847L49.5084 81.8767C49.4248 82.2115 49.3412 82.63 49.2576 83.0066C49.2157 82.5881 49.1321 82.2115 49.0485 81.8349L48.7558 80.4121H47.627L48.6304 83.9272H49.6339L49.9683 82.7137C50.052 82.3789 50.1356 82.0441 50.1774 81.6257C50.261 82.0441 50.3028 82.3789 50.3864 82.7137L50.7209 83.9272H51.7244L52.8114 80.4121H51.7662L51.5571 81.793Z" fill="white"/>
<path d="M57.0342 81.8351C57.0342 80.9982 56.6579 80.3286 55.4872 80.3286C54.8601 80.3286 54.3584 80.496 54.1493 80.6215L54.3584 81.3329C54.5674 81.2074 54.9855 81.0818 55.32 81.0818C55.8635 81.0818 55.9471 81.3329 55.9471 81.5422V81.584C54.6928 81.584 53.8984 82.0025 53.8984 82.9231C53.8984 83.4671 54.3165 84.0111 55.0273 84.0111C55.4454 84.0111 55.7799 83.8437 56.0308 83.5926H56.0726L56.1562 83.9274H57.1178C57.076 83.7182 57.076 83.4253 57.076 83.0905V81.8351H57.0342ZM55.989 82.6302C55.989 82.7139 55.989 82.7557 55.9471 82.7976C55.8635 83.0068 55.6545 83.216 55.3618 83.216C55.1109 83.216 54.9437 83.0905 54.9437 82.7976C54.9437 82.3791 55.4036 82.2536 55.9471 82.2536V82.6302H55.989Z" fill="white"/>
<path d="M60.7144 80.3286C60.129 80.3286 59.7945 80.6634 59.6273 80.8726H59.5855L59.5437 80.4123H58.582C58.582 80.7052 58.6238 81.0819 58.6238 81.5422V83.9274H59.7109V81.9188C59.7109 81.8351 59.7109 81.7096 59.7527 81.6677C59.8363 81.4585 60.0036 81.2492 60.2963 81.2492C60.6726 81.2492 60.8398 81.5422 60.8398 82.0025V83.9274H61.9269V81.8351C61.9687 80.7889 61.4251 80.3286 60.7144 80.3286Z" fill="white"/>
<path d="M68.6995 81.8766C68.6995 82.7136 68.3651 83.132 67.8215 83.132C67.278 83.132 66.9435 82.7136 66.9435 81.8766V79.1147H65.8564V81.7929C65.8564 83.3413 66.5672 84.0108 67.7797 84.0108C69.034 84.0108 69.7866 83.2994 69.7866 81.8348V79.1147H68.6995V81.8766Z" fill="white"/>
<path d="M73.5083 80.3286C72.923 80.3286 72.5885 80.6634 72.4212 80.8726H72.3794L72.3376 80.4123H71.376C71.376 80.7052 71.4178 81.0819 71.4178 81.5422V83.9274H72.5049V81.9188C72.5049 81.8351 72.5049 81.7096 72.5467 81.6677C72.6303 81.4585 72.7975 81.2492 73.0902 81.2492C73.4665 81.2492 73.6337 81.5422 73.6337 82.0025V83.9274H74.7208V81.8351C74.7626 80.7889 74.2191 80.3286 73.5083 80.3286Z" fill="white"/>
<path d="M77.4796 80.4121H76.3926V83.9272H77.4796V80.4121Z" fill="white"/>
<path d="M76.9359 78.9053C76.6015 78.9053 76.3506 79.1564 76.3506 79.4493C76.3506 79.7422 76.5596 79.9933 76.9359 79.9933C77.3122 79.9933 77.5213 79.7422 77.5213 79.4493C77.5213 79.1145 77.2704 78.9053 76.9359 78.9053Z" fill="white"/>
<path d="M80.9499 82.0441C80.8663 82.3371 80.8245 82.63 80.7408 82.8811H80.699C80.6572 82.5881 80.5736 82.3371 80.49 82.0441L80.0301 80.4121H78.8594L80.1137 83.9272H81.2008L82.4969 80.4121H81.368L80.9499 82.0441Z" fill="white"/>
<path d="M85.131 80.3286C83.9185 80.3286 83.375 81.2911 83.375 82.2117C83.375 83.2997 84.044 84.0111 85.2565 84.0111C85.7164 84.0111 86.1763 83.9274 86.5108 83.8019L86.3853 83.0486C86.0927 83.1323 85.8 83.1742 85.4237 83.1742C84.922 83.1742 84.4621 82.9649 84.4203 82.5046H86.678C86.678 82.4209 86.7198 82.2536 86.7198 82.0862C86.678 81.2074 86.2599 80.3286 85.131 80.3286ZM84.3784 81.7514C84.4203 81.4585 84.5875 81.04 85.0474 81.04C85.5491 81.04 85.6746 81.5003 85.6746 81.7514H84.3784Z" fill="white"/>
<path d="M89.0611 81.0397L88.9774 80.412H88.0576C88.0576 80.7049 88.0994 81.0397 88.0994 81.5837V83.9271H89.1865V82.1695C89.1865 82.0858 89.1865 82.0021 89.2283 81.9185C89.3119 81.5837 89.5628 81.3745 89.9809 81.3745C90.1063 81.3745 90.1899 81.3744 90.2736 81.4163V80.412C90.1899 80.412 90.1481 80.412 90.0645 80.412C89.6464 80.3283 89.2283 80.5375 89.0611 81.0397Z" fill="white"/>
<path d="M93.0336 81.7513C92.6155 81.5839 92.4482 81.5002 92.4482 81.3328C92.4482 81.1654 92.6155 81.0399 92.8663 81.0399C93.159 81.0399 93.4517 81.1654 93.6189 81.2491L93.828 80.4959C93.6189 80.3703 93.2426 80.2866 92.8245 80.2866C91.9465 80.2866 91.403 80.7888 91.403 81.4165C91.403 81.8349 91.6538 82.2116 92.4064 82.4626C92.8245 82.5882 92.9081 82.6719 92.9081 82.8811C92.9081 83.0485 92.7827 83.174 92.4482 83.174C92.1137 83.174 91.6956 83.0485 91.5284 82.923L91.3193 83.718C91.5702 83.8436 91.9883 83.9691 92.4482 83.9691C93.4517 83.9691 93.9534 83.5088 93.9534 82.8393C93.9952 82.3371 93.7025 82.0023 93.0336 81.7513Z" fill="white"/>
<path d="M96.5041 80.4121H95.417V83.9272H96.5041V80.4121Z" fill="white"/>
<path d="M95.9603 78.9053C95.6259 78.9053 95.375 79.1564 95.375 79.4493C95.375 79.7422 95.5841 79.9933 95.9603 79.9933C96.3366 79.9933 96.5457 79.7422 96.5457 79.4493C96.5457 79.1145 96.2948 78.9053 95.9603 78.9053Z" fill="white"/>
<path d="M99.3468 79.4077L98.3015 79.6588V80.412H97.7998V81.2071H98.2597V82.6299C98.2597 83.1321 98.3433 83.4669 98.5524 83.6761C98.7196 83.8435 99.0123 83.969 99.3468 83.969C99.6395 83.969 99.9321 83.9272 100.058 83.8853V83.0484C99.9739 83.0484 99.8903 83.0902 99.7231 83.0902C99.3886 83.0902 99.305 82.881 99.305 82.4625V81.2071H100.099V80.412H99.305V79.4077H99.3468Z" fill="white"/>
<path d="M103.235 82.1282C103.193 82.3374 103.11 82.5885 103.068 82.7977H103.026C102.984 82.6303 102.901 82.3374 102.859 82.1282L102.357 80.4125H101.145L102.441 83.5928C102.482 83.6765 102.482 83.7183 102.482 83.7602C102.482 83.802 102.441 83.8857 102.441 83.9276C102.315 84.095 102.148 84.2623 101.981 84.346C101.813 84.4297 101.646 84.5134 101.521 84.5134L101.73 85.4341C101.981 85.3922 102.399 85.2667 102.775 84.9737C103.151 84.639 103.486 84.0531 103.988 82.6722L104.782 80.3706H103.653L103.235 82.1282Z" fill="white"/>
<path d="M109.924 80.3286C108.796 80.3286 108.043 81.04 108.043 82.1699C108.043 83.2997 108.837 83.9693 109.841 83.9693C110.761 83.9693 111.68 83.3834 111.68 82.0862C111.68 81.0819 110.97 80.3286 109.924 80.3286ZM109.883 83.216C109.423 83.216 109.172 82.7557 109.172 82.1699C109.172 81.6677 109.381 81.1237 109.883 81.1237C110.384 81.1237 110.593 81.6677 110.593 82.1699C110.593 82.7976 110.301 83.216 109.883 83.216Z" fill="white"/>
<path d="M113.687 79.1149C113.353 79.4078 113.227 79.8681 113.227 80.2866V80.4121H112.768V81.2072H113.227V83.8854H114.315V81.2072H115.025V80.4121H114.315V80.2448C114.315 79.91 114.482 79.6171 114.816 79.6171C114.942 79.6171 115.067 79.6589 115.151 79.6589L115.193 78.822C115.025 78.7801 114.858 78.7383 114.607 78.7383C114.356 78.7383 113.98 78.822 113.687 79.1149Z" fill="white"/>
<path d="M119.666 79.0728L118.203 83.8851H119.332L119.666 82.6297H121.046L121.423 83.8851H122.593L121.088 79.0728H119.666ZM119.834 81.8346L120.126 80.8303C120.21 80.5374 120.294 80.2026 120.335 79.9097C120.419 80.2026 120.503 80.5374 120.586 80.8303L120.879 81.8346H119.834Z" fill="white"/>
<path d="M124.893 81.0397L124.809 80.412H123.89C123.89 80.7049 123.931 81.0397 123.931 81.5837V83.9271H125.019V82.1695C125.019 82.0858 125.019 82.0021 125.06 81.9185C125.144 81.5837 125.395 81.3745 125.813 81.3745C125.938 81.3745 126.022 81.3744 126.106 81.4163V80.412C126.022 80.412 125.98 80.412 125.897 80.412C125.52 80.3283 125.06 80.5375 124.893 81.0397Z" fill="white"/>
<path d="M128.74 79.4077L127.694 79.6588V80.412H127.234V81.2071H127.694V82.6299C127.694 83.1321 127.778 83.4669 127.987 83.6761C128.154 83.8435 128.447 83.969 128.781 83.969C129.074 83.969 129.367 83.9272 129.492 83.8853V83.0484C129.409 83.0484 129.325 83.0902 129.158 83.0902C128.823 83.0902 128.74 82.881 128.74 82.4625V81.2071H129.534V80.412H128.74V79.4077Z" fill="white"/>
<path d="M132.418 81.7513C132 81.5839 131.833 81.5002 131.833 81.3328C131.833 81.1654 132 81.0399 132.251 81.0399C132.544 81.0399 132.836 81.1654 133.004 81.2491L133.213 80.4959C133.004 80.3703 132.627 80.2866 132.209 80.2866C131.331 80.2866 130.788 80.7888 130.788 81.4165C130.788 81.8349 131.039 82.2116 131.791 82.4626C132.209 82.5882 132.293 82.6719 132.293 82.8811C132.293 83.0485 132.167 83.174 131.833 83.174C131.498 83.174 131.08 83.0485 130.913 82.923L130.704 83.718C130.955 83.8436 131.373 83.9691 131.833 83.9691C132.836 83.9691 133.338 83.5088 133.338 82.8393C133.38 82.3371 133.087 82.0023 132.418 81.7513Z" fill="white"/>
<path d="M53.021 11.1977H78.149C79.2779 11.1977 80.1978 10.3189 80.1978 9.18907C80.1978 8.05921 79.2779 7.18043 78.149 7.18043H73.5499V4.4604V4.41855C73.5499 3.205 72.5465 2.20068 71.334 2.20068C70.1215 2.20068 69.118 3.205 69.118 4.41855V4.4604V7.09674H62.721V4.50225C62.721 4.50225 62.721 4.50225 62.721 4.4604C62.721 3.24685 61.7176 2.24253 60.5051 2.24253C59.2926 2.24253 58.2891 3.24685 58.2891 4.4604V7.09674H52.9374C51.8085 7.09674 50.8887 7.97552 50.8887 9.10538C50.9723 10.2771 51.8921 11.1977 53.021 11.1977Z" fill="white"/>
<path d="M82.1624 43.7124C83.3331 43.7124 84.3366 42.6243 84.3366 41.4526C84.3366 40.2809 83.3749 39.3185 82.2042 39.3185H65.4383V36.9332C65.4383 36.3055 65.6055 36.18 66.1909 36.18H68.8249C69.9956 36.18 70.4555 35.5104 70.4555 34.6735V33.6273C70.4555 32.7904 69.7866 32.3301 68.9504 32.3301H63.3896C62.0098 32.3301 61.5081 33.167 61.5081 34.0876V39.4859H50.7628H50.721C49.5503 39.4859 48.5469 40.4483 48.5469 41.6619C48.5469 42.8336 49.5085 43.8379 50.721 43.8379H82.2042C82.1206 43.7124 82.1206 43.7124 82.1624 43.7124Z" fill="white"/>
<path d="M77.3964 48.6086C77.3964 47.3951 76.4347 46.4326 75.2222 46.4326H57.5364C56.3239 46.4326 55.3623 47.4369 55.3623 48.6086C55.3623 49.8222 56.3239 50.7847 57.5364 50.7847C57.5783 50.7847 57.5783 50.7847 57.6201 50.7847H75.1386C75.1804 50.7847 75.1804 50.7847 75.2222 50.7847C76.4347 50.8265 77.3964 49.8222 77.3964 48.6086Z" fill="white"/>
<path d="M43.697 30.0704H73.2987C76.3927 30.0704 78.2323 28.271 78.2323 25.2999V17.642H80.6573V25.0907C80.6573 27.3922 81.619 29.4009 84.8384 29.4009H89.0194C90.1483 29.4009 91.0681 28.4803 91.0681 27.3504C91.0681 26.2205 90.1483 25.2999 89.0194 25.2999H88.9776H85.9255C85.1729 25.2999 84.9638 24.9651 84.9638 24.1701V19.274C84.9638 15.8426 82.9569 13.5829 79.6121 13.5829H66.8181V17.098C66.8181 19.1903 66.0655 19.9435 63.766 19.9435C63.1806 19.9435 62.5535 19.9435 61.7591 19.9435C60.5047 19.9435 60.4211 20.6131 60.4211 21.1989L60.3793 22.2451C60.3793 23.3331 61.2155 23.5424 61.8845 23.5424C61.8845 23.5424 68.3651 23.5424 68.4069 23.5424C70.2466 23.5424 70.4974 23.0402 70.4974 21.5337V17.7257H74.1767V23.8771C74.1767 25.9276 73.675 26.6809 71.5845 26.6809H59.6685C57.369 26.6809 56.6582 25.007 56.6582 23.7516V19.6925C56.6582 17.8512 57.9543 17.0561 60.0448 17.0561C60.2957 17.0561 61.4246 17.0561 61.6336 17.0561C62.6371 17.0561 62.8879 16.8051 62.8879 15.8426V13.541H49.3832C48.2543 13.541 47.3345 14.3361 47.3345 15.466C47.3345 16.5958 48.2543 17.4746 49.3832 17.4746H52.8116V19.818H45.9547C44.8258 19.818 43.906 20.6131 43.906 21.743C43.906 22.8728 44.8258 23.6679 45.9547 23.6679H52.8534V26.0113H43.697C42.5681 26.0113 41.6064 26.8901 41.6064 28.0199C41.6064 29.1498 42.5263 30.0704 43.697 30.0704Z" fill="white"/>
<path d="M57.2853 34.2133C57.2853 33.5437 57.3689 32.6231 57.6198 32.4976H46.331C45.0767 32.4976 44.0732 33.5019 44.0732 34.7573C44.0732 36.0127 45.0767 37.017 46.331 37.017H46.3728H57.8707C57.2017 36.8915 57.2853 35.1339 57.2853 34.4225V34.2133Z" fill="white"/>
<path d="M85.8417 36.724C87.0961 36.724 88.0995 35.7197 88.0995 34.4643C88.0995 33.2089 87.0961 32.2046 85.8417 32.2046H74.093C74.4275 32.3301 74.5111 33.2089 74.5111 33.9203V34.1714C74.5111 34.8828 74.5947 36.5985 73.9258 36.7659H85.7999C85.7999 36.724 85.8417 36.724 85.8417 36.724Z" fill="white"/>
</g>
<defs>
<clipPath id="clip0">
<rect width="133.333" height="83.2329" fill="white" transform="translate(0.799805 2.24268)"/>
</clipPath>
</defs>
</svg>
