<svg width="130" height="83" viewBox="0 0 130 83" fill="none" xmlns="http://www.w3.org/2000/svg">
<g clip-path="url(#clip0)">
<ellipse cx="63.4399" cy="25.6918" rx="26" ry="26" fill="#54524C"/>
<path d="M8.56053 71.2676C8.64206 71.4306 8.76435 71.716 8.96818 71.7975C9.49813 71.9606 9.98731 72.2867 10.5173 72.4498C10.7618 72.5313 11.088 72.6536 11.3326 72.5313C11.781 72.3682 11.781 71.3084 11.8217 70.9415C11.8625 70.5746 11.8625 70.2077 11.8217 69.8408C11.781 69.5962 11.7402 69.5555 11.6994 69.3109C11.6994 69.2701 11.6179 68.9847 11.6179 68.944C11.5771 68.6179 11.6994 68.3733 11.6587 68.0471C11.6179 67.6395 11.4956 67.1911 11.4549 66.7427C11.4141 66.2942 11.4549 65.8051 11.4549 65.3566C11.4549 65.1528 11.4549 64.949 11.4549 64.7452C11.4549 64.6229 11.4956 63.726 11.4549 63.6037C11.251 63.3592 11.2103 63.5222 11.3326 63.2776C11.5364 62.9515 11.4549 62.7069 11.251 62.3808C11.1287 62.1362 10.9657 61.8916 10.8026 61.8101C10.5173 61.647 10.4357 61.7285 9.90578 61.647C9.4166 61.5655 9.09048 61.3617 8.88665 61.2801C8.64206 61.1578 7.50064 61.1986 7.25605 61.2801C6.44074 61.5247 5.09549 61.6878 4.0356 62.0139C3.26106 62.2177 2.52729 61.8916 2.20117 61.9731C2.07888 62.0139 1.83428 62.4216 1.75275 62.5438C1.63046 62.7069 1.58969 62.9107 1.54893 63.1146C1.50816 63.4814 1.30434 63.8076 1.22281 64.1745C1.10051 64.5413 1.18204 64.949 1.14128 65.3159C1.05975 65.8458 0.855922 66.3758 0.692861 66.9057C0.611331 67.1911 0.529801 67.4357 0.407505 67.721C0.325975 67.8841 -0.000145767 68.3325 0.0406194 68.4956C0.0406194 68.6586 0.0406194 68.944 0.0813845 69.0255C0.407505 69.6777 0.815157 70.9822 0.815157 71.1453C0.855922 71.2676 0.978217 71.2268 1.01898 71.3491C1.01898 71.5937 1.01898 71.9606 1.14128 72.0421C1.75275 72.409 1.91581 71.8791 2.2827 71.5937C2.73112 71.5529 3.13877 71.5529 3.58719 71.5122C3.87254 71.4714 4.1579 71.3491 4.44325 71.2676C5.38085 71.023 6.35921 71.1453 7.29681 71.1861C7.41911 71.2676 8.479 71.1045 8.56053 71.2676ZM8.3567 63.9706C8.56053 63.8891 8.80512 64.0522 9.00895 63.9299C9.17201 63.8483 9.2943 63.6853 9.33507 63.5222C9.4166 63.2369 9.37583 63.0738 9.17201 62.87C9.33507 62.9107 9.57966 63.1961 9.74272 63.2776C10.3542 63.726 10.1911 64.7452 10.1911 65.4382C10.1911 66.3758 10.1096 67.2726 10.1096 68.2102C10.0281 68.251 9.98731 68.2917 9.90578 68.251C9.33507 67.8026 9.33507 66.9465 9.13124 66.5796C9.21277 66.4165 9.33507 66.2535 9.4166 66.1312C9.53889 65.8866 9.57966 65.6828 9.74272 65.4382C9.90578 65.1936 10.0281 64.8267 9.98731 64.7044C9.49813 63.8891 8.80512 64.2152 8.56053 64.6229C8.479 64.8267 8.56053 65.3159 8.43823 65.5605C8.43823 65.5605 8.11211 65.1936 8.03058 65.1528C7.94905 64.9082 7.82676 64.2152 7.90829 64.1337C7.98982 64.0114 8.23441 64.0114 8.3567 63.9706ZM7.70446 62.3808C7.78599 62.4216 7.86752 62.4216 7.98982 62.4623C7.98982 62.8292 7.98982 62.9107 7.5414 62.9515C7.45987 62.87 7.50064 62.2993 7.70446 62.3808ZM6.84839 64.0929C6.88916 64.0929 6.92992 64.0929 6.97069 64.0929C7.05222 64.1337 7.05222 64.949 7.09298 65.3566C6.52227 65.7643 6.03309 66.865 5.34009 66.9465C5.58468 66.6204 5.95156 65.8051 6.27768 65.4789C7.01146 64.8675 7.01145 64.7452 6.84839 64.0929ZM4.89167 65.4382C4.81014 65.4789 4.68784 65.6012 4.56555 65.5197C4.40249 65.3974 4.64708 65.3159 4.8509 64.9898C4.9732 64.7859 4.93243 64.6229 5.25855 64.5006C5.54391 64.419 5.99233 64.0114 6.31845 64.0929C6.31845 64.0929 5.99233 64.256 5.99233 64.2968C5.82927 64.3375 5.62544 64.8267 5.50315 64.949C5.42162 65.0713 5.13626 65.3159 4.89167 65.4382ZM2.77188 63.5222C3.34259 63.2369 3.91331 63.2776 4.52478 62.8292C4.76937 62.7069 5.74774 62.5031 6.19615 62.5031C6.27768 62.5031 6.39998 62.7477 6.44074 62.9923C6.19615 63.0738 5.70697 63.033 5.46238 63.0738C4.93243 63.1553 4.36172 63.3591 3.83178 63.5222C3.62795 63.6037 2.77188 64.0114 2.69035 63.8891C2.69035 63.8891 2.73112 63.6853 2.77188 63.5222ZM3.2203 70.493C2.60882 70.5338 2.36423 70.7376 1.95658 70.0854C1.91582 70.0039 1.91581 69.8 1.87505 69.6777C1.79352 69.4739 1.71199 69.2701 1.75275 68.9847C1.79352 68.6179 1.63046 68.251 1.63046 67.8841C1.58969 67.558 1.71199 67.1911 1.79352 66.865C1.87505 66.5796 1.99735 66.2942 2.03811 65.9681C2.07888 65.642 2.03811 65.1528 2.11964 64.9898C2.405 64.9898 2.56806 64.9898 2.85341 64.9082C3.01647 64.8675 3.17953 64.7859 3.34259 64.8267C3.79101 64.9898 3.54642 64.9898 3.13877 65.5197C3.05724 65.642 2.73112 65.8051 2.52729 66.0089C2.32347 66.2127 2.16041 66.4165 2.16041 66.6611C2.16041 66.7834 2.48653 66.9057 2.60882 66.9465C3.05724 67.1503 3.46489 66.7834 3.87254 66.6611C3.95407 66.6204 3.54642 67.1911 3.50565 67.2318C3.17953 67.5172 2.69035 67.5987 2.36423 67.9656C2.2827 68.0471 2.24194 68.1287 2.24194 68.251C2.24194 68.5363 2.405 68.5771 2.56806 68.6586C2.89418 68.8217 3.05724 68.9847 3.46489 68.8624C3.83178 68.7401 4.07637 68.3733 4.44325 68.2917C4.8509 68.1694 5.29932 68.2102 5.70697 68.0879C6.03309 68.0064 6.68533 67.8433 6.92992 67.558C7.17452 67.3134 7.17451 67.3134 7.45987 66.8242C7.50064 66.8242 7.5414 66.8242 7.62293 66.865C7.78599 66.9057 7.37834 67.558 7.33758 67.5987C7.13375 67.8025 6.88916 68.0064 6.6038 68.1287C6.19615 68.2917 5.82927 68.3733 5.42162 68.6179C5.05473 68.8217 4.60631 68.9032 4.23943 69.107C4.0356 69.2293 3.83178 69.3516 3.70948 69.5555C3.098 70.4523 3.38336 70.33 4.72861 70.2485C4.56555 70.4115 3.34259 70.493 3.2203 70.493ZM5.13626 70.1669C5.13626 70.1669 5.01396 70.2077 4.93243 70.2077C4.9732 69.9223 6.31845 69.637 6.80763 69.3109C6.84839 69.3109 6.88916 69.3109 6.84839 69.4332C6.84839 69.4739 6.88916 69.4739 6.88916 69.4739C7.13375 69.3924 7.50064 69.2293 7.62293 68.9847C7.74523 68.7809 8.07135 68.1287 8.31594 68.0471C8.39747 68.0064 8.60129 68.251 8.64206 68.6179C8.68283 69.0255 8.84589 68.9847 8.92741 69.1886C9.00895 69.3516 8.96818 69.4739 9.13124 69.6777C9.33507 69.9223 9.78348 69.8408 10.0688 69.8C10.0688 69.8408 10.1096 69.8816 10.1096 69.9223C9.57966 70.6561 9.45736 70.5746 9.17201 69.9223C8.76435 69.6777 8.60129 69.637 8.23441 69.8C7.78599 69.7593 7.78599 69.6777 7.45987 69.8408C6.64457 69.9631 5.87003 70.0446 5.13626 70.1669Z" fill="white"/>
<path d="M27.8425 68.8217C27.7609 68.7401 27.4756 68.7401 27.2718 68.7401C26.701 68.7401 26.0896 68.9847 25.5596 69.0255C25.152 69.2293 24.1736 69.1478 23.8883 69.0255C23.8883 68.944 24.0105 68.7401 24.1736 68.5363C24.3367 68.3325 24.5405 68.1694 24.5813 68.0879C24.622 67.8433 24.7036 67.8025 24.7443 67.721C24.8259 67.6395 24.9481 67.3541 24.9889 67.3134C25.0297 67.2318 25.0704 66.9872 25.1112 66.9057C25.1927 66.4165 25.3966 66.3758 25.8857 66.0089C25.9673 65.9681 25.9265 65.8866 26.008 65.8051C26.7418 65.7235 27.1087 65.5197 27.7202 65.4789C27.9648 65.4789 28.0055 65.0713 27.924 64.8675C27.8017 64.4598 27.0272 64.0522 26.8641 64.0929C26.4565 64.1337 26.0488 64.2967 25.7227 64.2967C25.6004 64.2967 25.4781 64.3783 25.315 64.419C24.8259 64.5006 24.2959 64.3375 23.929 64.2967C23.8067 63.726 23.3175 63.1146 23.3175 62.9107C23.2768 62.0954 22.6245 61.6878 22.0946 61.8916C21.9315 61.9324 21.6869 62.0954 21.6869 62.2177C21.6462 62.9515 21.5239 63.2369 22.1353 63.8483C22.1761 63.8891 22.2984 63.9706 22.2984 64.0522C22.2984 64.1744 22.3392 64.2152 22.4207 64.2967C22.4615 64.3375 22.5022 64.419 22.5838 64.4598C22.6245 64.5006 22.5838 64.6229 22.5838 64.6229C22.3799 64.7452 22.2576 64.6636 22.1353 64.7044C21.6462 64.9082 21.0755 65.0305 20.6678 65.112C20.1786 65.1936 19.8525 65.2343 19.8933 65.0713C19.771 64.949 19.1187 65.0305 19.0372 65.0713C18.6295 65.1936 18.4257 65.4789 18.4257 66.0904C18.4257 66.1719 18.5888 66.2535 18.7111 66.2942C19.2818 66.4981 20.5863 66.2942 21.157 66.0496C21.2385 66.0089 21.2793 66.0089 21.3608 66.0089C21.32 66.1312 21.2793 66.1719 21.1978 66.2535C21.1162 66.2942 21.0755 66.335 20.9939 66.3758C20.8716 66.4981 20.7493 66.6204 20.627 66.7427C20.5047 66.8649 20.3824 66.9872 20.3009 67.1503C20.2194 67.2726 20.0156 67.4357 19.934 67.558C19.771 67.8841 19.6894 68.9032 20.0156 69.0255C20.1786 69.0663 20.5863 69.0255 20.8309 68.7809C21.32 68.3325 21.7277 67.558 21.9723 67.2318C22.0131 67.1503 21.9723 66.9872 22.0131 66.8242C22.0946 66.5388 22.2169 66.2942 22.2984 66.0496C22.7876 66.0089 23.3175 65.7643 23.6437 65.7235C23.929 65.7235 24.3774 65.8458 24.5405 65.9273C24.0921 66.3758 23.8475 67.2318 23.5214 67.721C23.1545 68.2917 22.4207 68.5771 21.8908 68.9847C21.8092 69.0255 21.6054 69.2293 21.2793 69.3924C20.8716 69.5554 20.7086 69.5554 20.5047 69.6777C20.1379 69.8816 20.0156 69.9631 19.8933 70.0854C19.7302 70.2077 18.4665 70.1262 17.6919 70.33C17.5289 70.3707 17.162 70.2892 17.0805 70.493C16.6728 71.186 16.7543 71.2268 17.4066 71.6752C17.4881 71.7568 17.7327 71.6345 17.855 71.5937C18.5073 71.5122 19.2818 71.2676 19.7302 71.1453C20.1379 71.023 20.464 71.2268 20.9939 71.1045C21.4016 70.9822 22.7061 70.5746 23.4398 70.7784C24.5813 71.3491 26.6603 70.7784 27.1087 70.8192C27.5979 70.8599 28.4947 70.9007 28.6985 70.6561C29.2285 69.3516 28.454 69.2293 27.8425 68.8217Z" fill="white"/>
<path d="M45.942 67.6802C46.1051 67.3134 46.3497 67.1911 46.3089 66.9057C46.1866 66.0904 45.942 66.1719 45.3306 66.0904C45.1267 66.0089 45.086 65.9681 44.9637 65.8866C44.5153 65.6827 43.9853 65.642 43.5369 65.5197C43.2515 65.4382 43.2108 65.3566 43.1293 65.3566C42.8847 65.3159 42.7624 65.3566 42.5178 65.3159C42.3139 65.3159 42.0694 65.4789 41.7432 65.5604C41.4986 65.642 40.2757 65.8866 39.9496 65.9273C39.8273 65.9681 39.5827 65.9273 39.4604 65.9273C39.012 65.9681 37.9928 66.0496 37.4221 66.2127C37.2591 66.2535 37.1368 66.335 37.0552 66.4165C36.9329 66.3757 36.8514 66.3757 36.8107 66.2942C36.7291 66.2535 36.6884 66.1719 36.6476 66.0904C36.6068 66.0496 36.3622 66.0496 36.2399 66.0496C36.0769 66.0496 35.9546 66.0496 35.8323 66.1312C35.6285 66.2535 35.4246 66.2942 35.2208 66.3757C34.8947 66.498 34.6909 66.9057 34.4055 67.0688C34.2017 67.1911 34.0386 67.2726 33.8756 67.4356C33.7125 67.5579 33.5902 67.6802 33.3864 67.721C33.2233 67.7618 32.9787 67.721 32.8157 67.7618C32.7749 67.7618 32.7749 67.9248 32.7749 67.9656C32.7749 68.0879 32.8564 68.3325 33.0195 68.4548C33.0603 68.4955 33.1826 68.5771 33.2233 68.6178C33.2641 68.6586 33.3048 68.7401 33.3864 68.7809C33.631 68.944 33.9571 68.8217 34.2424 68.5771C34.4055 68.4548 34.5686 68.2917 34.6909 68.1694C34.7724 68.0879 35.0985 68.0064 35.2208 67.9248C35.3431 67.8841 35.4246 67.8025 35.5877 67.721C35.6692 67.6802 35.9138 67.5987 35.9953 67.5172C36.3622 67.2318 36.6476 67.2726 36.7699 66.8649C36.7699 66.8242 36.7699 66.7426 36.7699 66.7019C36.8107 66.7019 36.8514 66.7834 36.9329 66.8242C36.9737 66.8649 37.0145 66.9465 37.096 67.028C37.1775 67.1095 37.3406 67.2726 37.4629 67.3133C37.4221 67.3133 37.4221 67.3133 37.3814 67.3541C37.1775 67.4356 36.8514 67.4764 36.8514 67.5579C36.7699 67.8433 37.0145 68.1694 37.3814 68.3732C37.4629 68.4548 37.626 68.3325 37.8298 68.3325C37.8298 68.3732 37.8298 68.414 37.8298 68.4548C37.4221 68.6994 36.7291 68.9032 36.7291 69.4331C36.7699 69.5962 36.9737 69.5962 37.2183 69.7593C37.4221 69.8408 37.6667 69.6777 37.8298 69.637C38.1151 69.5962 38.1967 69.5147 38.5228 69.4739C38.6451 69.4739 38.7266 69.4739 38.8489 69.4331C39.012 69.3516 39.1343 69.3108 39.3789 69.3516C39.3789 69.3924 39.4604 69.5147 39.3789 69.6777C39.0527 69.8 38.8489 69.8816 38.6858 69.9223C38.4413 70.0039 37.8298 70.0854 37.7482 70.0854C37.6667 70.0854 37.5852 70.0854 37.5037 70.0854C37.0552 70.0854 37.0145 69.8816 36.8514 69.9631C36.6476 70.0854 36.403 70.2484 36.1992 70.3707C36.0361 70.4523 36.1584 70.6153 36.2399 70.6969C36.5253 70.9414 36.7291 71.1453 36.8922 71.1045C37.5037 71.023 38.2782 70.8192 39.012 70.7784C38.9304 71.1045 38.319 71.2268 38.0336 71.3083C37.5444 71.4306 37.096 71.3899 36.5661 71.3083C36.3215 71.2676 35.9546 71.186 35.8731 71.2676C35.7915 71.3491 35.71 71.3899 35.6285 71.4714C35.18 71.8383 35.18 71.9198 35.8731 72.4905C36.2807 72.6536 37.4629 72.3275 37.9928 72.2867C38.482 72.2459 38.9304 71.8383 39.5827 71.879C40.9687 71.879 42.7624 72.1236 44.2299 71.879C44.3522 71.8383 44.4337 71.716 44.4337 71.5937C44.3522 70.6153 43.3331 70.2892 42.5993 70.5746C42.2324 70.6969 41.4986 70.6153 40.9279 70.6153C40.9279 70.5746 40.9687 70.493 40.9687 70.4115C41.7025 70.33 42.5178 70.4523 43.2108 70.1261C43.3331 70.0446 43.3331 69.8816 43.3331 69.8C43.4146 69.4739 43.2515 69.2701 43.007 69.1885C42.7624 69.107 42.3955 69.107 42.1917 69.107C41.7025 69.1478 41.2541 69.1885 40.8056 69.2293C40.8056 69.1885 40.7649 69.1478 40.7649 69.107C41.1318 68.9847 41.5394 68.8624 42.1917 68.9847C42.2732 68.9847 42.3547 68.944 42.4362 68.944C42.6401 68.944 42.8847 68.9847 42.8847 68.8217C42.8847 68.6178 42.9662 68.414 42.9662 68.1694C42.9662 68.0064 42.9254 67.8433 42.8847 67.8025C42.5585 67.3541 42.8031 67.3541 42.9662 67.2318C43.007 67.1911 43.0885 67.1095 43.0885 67.0688C43.007 66.8242 43.0477 66.7426 43.007 66.6611C42.8847 66.5388 42.6401 66.4573 42.3955 66.4573C42.3547 66.4573 42.1917 66.4573 42.1101 66.4573C41.9063 66.4573 41.4579 66.7426 41.2541 66.7834C41.091 66.8242 40.9279 66.9057 40.8056 66.9057C40.5203 66.9057 40.1534 66.9057 39.9903 66.9465C39.2973 67.1503 38.8897 67.1095 38.1151 67.1503C38.1151 67.1503 37.9113 67.1503 37.789 67.1503C37.9113 67.1095 38.0336 67.0688 38.0744 67.0688C38.1151 67.0688 38.3597 66.9872 38.4005 66.9872C38.6043 66.9057 39.3789 66.8649 39.9903 66.8242C40.1126 66.8242 40.4795 66.7834 40.7241 66.7426C40.7241 66.7426 41.2133 66.7019 41.4171 66.6203C41.6209 66.5388 41.9063 66.4165 42.1917 66.3757C42.7624 66.2535 43.9446 66.498 44.5153 66.7426C44.556 66.8649 43.7815 67.1911 43.7407 67.3133C43.6184 67.7618 43.6184 67.8025 44.0668 67.8433C44.4337 67.8841 44.8822 67.8025 45.3306 67.721C45.5344 67.7618 45.8605 67.7618 45.942 67.6802ZM39.9903 67.8841C40.2757 67.7618 40.7649 67.8025 41.1318 67.8025C41.1318 67.9248 41.091 67.9248 41.0095 67.9656C40.7241 68.0879 40.1126 68.0064 39.9088 68.0471C39.7457 68.0879 39.5827 68.1694 39.5012 68.1694C39.5012 68.0879 39.4604 68.0471 39.4196 67.9656C39.5827 67.8841 39.8273 67.9656 39.9903 67.8841Z" fill="white"/>
<path d="M36.5255 63.4407C36.6885 63.6037 36.8924 63.8483 37.2185 63.9706C37.2185 64.0114 37.2185 64.0521 37.2185 64.1744C36.6478 64.8674 36.8516 65.1528 37.5446 65.8458C37.6261 65.9273 37.7892 65.9273 37.9522 65.9273C38.4007 65.9681 38.9306 65.8866 39.1752 65.8866C39.2567 65.8866 39.4606 65.805 39.5421 65.7643C39.7459 65.6827 41.6619 65.4382 41.7434 65.4382C41.8249 65.4382 42.0287 65.3974 42.0695 65.3159C42.151 65.1528 42.3956 64.949 42.6402 64.7451C42.7218 64.7044 42.844 64.6636 42.844 64.5821C43.0071 63.8891 42.8848 63.7668 42.5995 63.6853C42.5179 63.6853 41.4988 63.6037 41.1727 63.6037C40.9281 63.6445 39.7051 63.6037 39.2567 63.6853C39.2567 63.6853 38.6453 63.8075 38.3599 63.8483C38.3191 63.8075 38.2784 63.7668 38.2376 63.7668C38.2376 63.7668 38.2376 63.7668 38.2376 63.726C38.4414 63.6445 39.2567 63.4407 39.4606 63.3999C39.6644 63.3591 41.7026 63.3591 41.7026 63.3591H41.9472C42.0695 63.3591 42.151 63.3184 42.2733 63.3184C42.7218 63.2776 42.9256 63.2368 43.1294 62.5438C43.1702 62.4623 42.9663 62.4215 42.844 62.3808C42.3956 62.2585 41.5396 62.4215 41.2134 62.4623C41.2134 62.4623 41.2134 62.4623 41.1727 62.4623C41.1727 62.4215 41.1727 62.3808 41.1727 62.34C41.458 62.2585 42.3141 62.2585 42.844 62.1362C43.0886 62.0954 43.4148 62.0139 43.374 61.8508C43.2925 61.6062 43.3332 61.3616 43.1702 61.1986C42.5995 60.8725 41.458 61.3209 40.8873 61.4024C40.8466 61.1986 40.7243 61.0763 40.7243 61.0355C40.7243 60.9948 40.6427 60.9132 40.5612 60.8317C40.3981 60.7094 40.2759 60.6279 40.1536 60.6279C40.072 60.6279 39.9497 60.5871 39.8682 60.5871C39.7459 60.5871 39.5421 60.8317 39.5828 60.9132C39.5828 60.9948 39.6236 61.0355 39.5828 61.0763C39.5828 61.1578 39.4606 61.5247 39.379 61.7285C39.0937 61.8508 38.8083 61.8916 38.5637 61.8916C38.4414 61.8916 38.3599 61.8101 38.2376 61.8101C37.7077 61.8101 37.0554 61.7285 36.7701 61.8916C36.2809 62.2177 36.5662 62.4623 36.8516 62.7884C36.9331 62.87 36.9331 62.9515 37.0554 63.033C36.8924 63.0738 36.7293 63.1145 36.607 63.1553C36.5255 63.1553 36.4439 63.3591 36.5255 63.4407ZM38.9714 64.7451C39.4198 64.5821 40.3166 64.5413 40.8873 64.5006C40.8873 64.6229 40.765 64.6229 40.6427 64.6636C40.2351 64.7859 39.5013 64.8267 39.2975 64.9082C39.1752 64.949 39.0121 64.949 38.9714 64.9082C38.9306 64.8674 38.9306 64.8267 38.9714 64.7451C38.9306 64.7451 38.9714 64.7451 38.9714 64.7451ZM37.6669 62.8292C38.0745 62.7477 38.4414 62.7477 38.9714 62.7884C38.9714 62.7884 38.9714 62.87 38.9306 62.87C38.3191 63.033 37.7892 62.8292 37.3 62.9515C37.3815 62.8699 37.5038 62.8699 37.6669 62.8292Z" fill="white"/>
<path d="M53.239 64.256C53.3205 64.3783 53.5243 64.4598 53.5651 64.5414C53.7689 64.786 53.9727 64.8675 54.5842 64.9083C54.7473 64.9083 54.9919 64.8675 54.9919 64.7452C54.9919 64.256 54.9103 64.0114 54.788 63.9299C54.3804 63.6853 54.0135 63.4407 53.6874 63.1146C53.5243 62.9923 53.402 62.8292 53.239 62.6662C53.1167 62.5439 53.0351 62.2993 52.8721 62.2585C52.3421 62.2178 52.2606 62.2993 52.016 62.6254C51.9753 62.6662 51.9753 62.7069 51.9345 62.7477C51.8937 62.8292 51.9345 62.9923 51.9753 63.0738C52.0975 63.4407 52.3829 63.6853 52.7906 63.9299C52.8721 63.9707 52.9536 64.0114 53.0351 64.0522C53.1167 64.0929 53.1982 64.1337 53.239 64.1337C53.239 64.1745 53.1982 64.2152 53.239 64.256Z" fill="white"/>
<path d="M57.7233 63.3183C57.9271 63.2776 58.2532 63.3183 58.4978 63.2368C58.7832 63.1553 58.9462 62.9922 59.0685 62.8292C59.1908 62.6661 59.0685 62.5846 59.0685 62.5438C59.0685 62.503 58.987 62.4215 58.9054 62.4623C58.8239 62.4623 58.7016 62.5438 58.6201 62.5438C58.5386 62.5438 58.2532 62.5438 58.1309 62.5846C57.9679 62.6253 57.5194 62.5846 57.3971 62.6253C57.2749 62.6661 57.1118 62.7884 57.071 62.8699C57.0303 62.9515 56.9895 62.9107 56.9487 62.9922C56.9487 63.1553 57.071 63.2776 57.1933 63.3183C57.3156 63.3591 57.4787 63.3591 57.7233 63.3183Z" fill="white"/>
<path d="M56.7857 63.9706C56.8673 64.0929 56.9488 64.1745 57.0303 64.1745C57.1119 64.1745 57.1119 64.1337 57.1934 64.1337C57.2749 64.0929 57.3157 64.0929 57.3972 64.1337C57.5603 64.1337 57.8456 64.1337 58.0495 64.0929C58.2533 64.0522 58.4163 63.8891 58.6609 63.8483C58.8648 63.8076 58.987 63.6853 59.0686 63.6037C59.1501 63.5222 59.1909 63.2776 59.1501 63.1961C59.0686 63.1145 58.7832 63.1961 58.7425 63.2368C58.6609 63.2776 58.1717 63.3999 58.0495 63.3999C57.9272 63.4407 57.5195 63.3999 57.3972 63.3999C57.2342 63.3999 56.9896 63.5222 56.908 63.6037C56.8265 63.726 56.745 63.8891 56.7857 63.9706Z" fill="white"/>
<path d="M62.3705 64.6229C62.289 64.5821 62.2075 64.5821 62.1667 64.5414C62.1259 64.5006 62.1259 64.4598 62.0852 64.4191C62.0852 64.3783 62.0444 64.3375 62.0444 64.2968C62.0036 64.256 62.0036 64.2968 61.9629 64.3375C61.9221 64.3783 61.9221 64.3783 61.9221 64.4191C61.8406 64.4598 61.7591 64.5006 61.6775 64.5414C61.5552 64.6229 61.3514 64.6637 61.2699 64.6637C61.1883 64.7044 61.1476 64.6637 61.1883 64.6229C61.2291 64.5006 61.2699 64.3375 61.3922 64.1337C61.5552 63.8891 61.6775 63.7668 61.7591 63.5222C61.8406 63.2776 61.9629 62.7069 62.0444 62.6254C62.1259 62.5031 62.0852 62.3808 62.0444 62.2993C62.0036 62.2177 61.8814 62.0954 61.7998 62.0954C61.7183 62.1362 61.7591 62.0547 61.4329 62.0954C61.1068 62.1362 61.066 62.4623 61.0253 62.5439C60.9845 62.6254 60.9438 62.7477 60.9438 62.8292C60.903 62.9108 60.903 62.9515 60.8622 62.9923C60.8215 63.0331 60.7807 63.0738 60.6992 63.0738C60.6176 63.0738 60.5361 63.033 60.5361 63.033C60.5361 63.033 60.5361 63.0331 60.5769 62.9515C60.6176 62.87 60.6992 62.6662 60.7399 62.5846C60.7807 62.5031 60.9845 62.2993 61.066 62.2585C61.1476 62.2177 61.3514 61.8916 61.4737 61.7286C61.596 61.6063 61.6775 61.4024 61.7183 61.2801C61.7591 61.1171 61.596 61.1171 61.5552 61.0763C61.4737 61.0356 61.2699 60.9133 61.2699 60.9133C61.1068 60.8317 60.9845 60.9948 60.9438 61.0356C60.8622 61.0763 60.8215 61.1171 60.6992 61.1986C60.5769 61.2801 60.5361 61.4432 60.5361 61.5247C60.4953 61.6063 60.4546 61.8509 60.373 61.9324C60.2915 62.0139 60.1284 62.1362 60.0877 62.2177C60.0062 62.2993 59.8431 62.5031 59.8023 62.6254C59.7208 62.7069 59.5985 62.9108 59.5577 63.033C59.5577 63.1553 59.5985 63.3184 59.6393 63.3592C59.7208 63.4407 59.8023 63.563 59.8839 63.5222C59.9654 63.4815 60.21 63.6445 60.21 63.6445C60.1692 63.6853 60.0469 63.8076 60.0062 63.8891C59.9654 63.9707 59.8431 64.0522 59.8431 64.2152C59.8431 64.256 59.8023 64.3375 59.8023 64.3783C59.7208 64.2968 59.6393 64.1337 59.5577 64.0114C59.4762 63.8891 59.2724 63.8076 59.1501 63.7668C58.987 63.7261 58.6609 63.9299 58.5794 63.9706C58.4978 64.0114 58.0494 64.1745 57.9271 64.1745C57.8456 64.1745 57.6825 64.2152 57.601 64.2152C57.4787 64.1745 57.3157 64.1745 57.2341 64.1337C57.1118 64.0929 56.9488 64.2152 56.8672 64.256C56.7857 64.2968 56.5004 64.5414 56.5004 64.5414C56.4188 64.5821 56.4596 64.6637 56.5411 64.786C56.5411 64.786 56.5411 64.786 56.5004 64.8267C56.4596 64.8675 56.4188 64.9082 56.3781 64.9898C56.2965 65.0305 56.1742 65.1121 56.0927 65.1121C56.0112 65.1121 56.0112 65.1528 55.9704 65.1528C55.9296 65.1528 55.8889 65.1528 55.8889 65.1528C55.8889 65.1528 55.9296 65.1121 55.9704 64.9898C56.0112 64.9082 56.0112 64.949 56.0519 64.8675C56.0927 64.786 56.1742 64.6637 56.2965 64.5006C56.4188 64.2968 56.5411 63.8484 56.6226 63.7668C56.7042 63.6853 56.6634 63.5222 56.6226 63.4407C56.5819 63.3592 56.5004 63.3592 56.4596 63.3184C56.4188 63.3184 56.2965 63.2776 56.2965 63.2369C56.2965 63.1961 56.215 63.1961 56.2965 63.1146C56.3781 63.033 56.4596 62.9923 56.5819 62.8292C56.7042 62.7069 56.6634 62.7069 56.7449 62.5439C56.7449 62.5031 56.7857 62.4623 56.7857 62.3808C56.8672 62.4216 56.9895 62.5031 57.0711 62.4623C57.2341 62.4216 57.2341 62.4216 57.3972 62.3808C57.5602 62.3808 57.8456 62.34 57.9271 62.34C58.0087 62.34 58.0494 62.2993 58.0902 62.2993C58.1717 62.2993 58.5386 62.2585 58.6609 62.2177C58.7832 62.177 59.1093 62.1362 59.2724 62.177C59.4354 62.177 59.68 62.177 59.8023 62.0954C59.9246 62.0547 60.0062 62.0139 60.0469 61.9324C60.0877 61.8509 60.1692 61.7693 60.21 61.6063C60.2507 61.4432 60.1285 61.4024 60.0469 61.3209C59.9246 61.2394 59.6393 61.1579 59.517 61.1171C59.3947 61.1171 59.1909 61.1579 59.0278 61.1986H58.987C58.987 61.1579 58.9463 61.1579 58.9055 61.1171C58.824 61.0356 58.5794 60.9948 58.4978 60.9948C58.4163 60.9948 58.2125 60.9948 58.0902 60.954C57.9679 60.9133 57.7233 61.0356 57.7233 61.0356C57.5195 61.0763 57.5195 61.4024 57.5195 61.5655C57.5195 61.6063 57.5195 61.647 57.5195 61.647C57.3157 61.7286 57.1526 61.8101 57.0711 61.8101C56.9895 61.8101 56.7857 61.8509 56.7042 61.8916V61.8509C56.6227 61.6878 56.5411 61.6063 56.3373 61.4432C56.1335 61.2801 55.7666 61.4024 55.7666 61.4024C55.6035 61.4432 55.5628 61.5655 55.4812 61.7286C55.4405 61.8916 55.3589 62.1362 55.3182 62.2585C55.2774 62.4216 55.1959 62.4623 55.1551 62.5031C55.1143 62.5439 55.0328 62.6254 55.0328 62.6662C54.992 62.7069 54.8697 62.8292 54.829 62.87C54.7882 62.9108 54.7067 63.0738 54.7067 63.2776C54.7475 63.4815 54.9105 63.563 54.9513 63.6853C55.0328 63.8076 55.0736 64.0114 55.0736 64.1337C55.1143 64.256 55.1959 64.4191 55.2366 64.4598C55.2774 64.5006 55.3589 64.5414 55.3589 64.5821C55.3589 64.6229 55.3182 64.7044 55.2774 64.786C55.2366 64.8675 55.1143 65.0305 55.0736 65.1121C55.0328 65.1528 55.0328 65.2344 54.992 65.3159C54.9513 65.3567 54.7882 65.5605 54.7067 65.642C54.6252 65.7236 54.5436 65.8866 54.5436 65.9681L54.5029 65.9274C54.4213 65.8458 54.3398 65.7643 54.299 65.7236C54.136 65.642 53.9322 65.8458 53.8506 65.9274C53.7283 65.7643 53.6876 65.642 53.6468 65.5605C53.443 65.2344 53.3207 65.1936 53.0761 65.1121C52.9946 65.0713 53.0353 65.1528 52.913 65.1121C52.913 65.0713 52.913 65.0305 52.913 64.949C52.8723 64.8675 52.7907 64.786 52.75 64.7044C52.7092 64.6229 52.7092 64.5006 52.5869 64.4191C52.3831 64.3375 52.22 64.2968 52.057 64.2968C51.527 64.256 51.2009 64.4191 51.2417 65.0713C51.2417 65.1121 51.2417 65.2344 51.2824 65.2751C51.3639 65.3567 51.4455 65.4382 51.527 65.5197C51.7308 65.7236 51.9754 65.8866 52.22 66.0089C52.3831 66.1312 52.5461 66.2535 52.7907 66.2943C52.9946 66.335 53.1576 66.2943 53.3614 66.335C53.3207 66.4166 53.1984 66.3758 53.1576 66.4573C53.0353 66.5796 52.9946 66.7427 52.8723 66.865C52.75 66.9873 52.5869 67.1096 52.4646 67.2319C52.3423 67.3542 52.22 67.4357 52.1385 67.558C52.0977 67.6395 52.0977 67.6395 52.0977 67.721C52.057 67.721 52.0162 67.721 52.0162 67.7618C51.8124 68.0064 51.6085 68.251 51.4047 68.4956C51.2824 68.6586 51.1601 68.8217 50.9971 68.944C50.9155 69.0255 50.7117 69.2294 50.6302 69.2701C50.2225 69.4332 50.0187 69.3924 49.8556 69.637C49.8149 69.6778 49.7741 69.7593 49.7333 69.8408C49.6926 69.9224 49.6926 69.8408 49.5295 70.0039C49.2034 70.4116 49.8556 70.8192 50.2225 70.8192C50.5079 70.8192 50.7525 70.5746 50.9971 70.4116C51.3232 70.167 51.6085 69.8816 51.9347 69.5962C52.0162 69.5147 52.1793 69.4332 52.22 69.3517C52.5461 68.8217 52.913 68.3325 53.2391 67.8841C53.3207 67.8026 53.3207 67.721 53.443 67.5987C53.8506 67.1911 54.5436 66.6204 54.7475 66.1312V66.0904C54.7882 66.1312 54.829 66.172 54.829 66.172C54.9105 66.2535 55.1551 66.3758 55.2774 66.335C55.3997 66.335 55.6443 66.3758 55.8889 66.335C56.0927 66.2943 56.2965 66.335 56.3781 66.2943C56.4188 66.2535 56.5004 66.1312 56.5411 66.0497C56.5819 65.9681 56.7857 65.6013 56.8672 65.479C56.908 65.3974 56.908 65.2751 56.9488 65.1528C57.0303 65.2751 57.1118 65.3974 57.2341 65.4382C57.3564 65.5197 57.6418 65.6013 57.7641 65.6013C57.8864 65.5605 57.9679 65.6013 58.0087 65.5197C58.131 65.479 58.2533 65.4382 58.3348 65.3974C58.4163 65.3567 58.9463 65.1936 59.0686 65.1528H59.1093C59.1501 65.1121 59.4354 64.9082 59.517 64.786C59.5577 64.7452 59.6393 64.6229 59.7208 64.5006C59.68 64.6637 59.6393 64.8675 59.5985 64.949C59.5577 65.0713 59.517 65.0713 59.5577 65.1936C59.5985 65.3159 59.7208 65.4382 59.8023 65.4382C59.8839 65.4382 59.9246 65.4382 60.0469 65.4382C60.1692 65.4382 60.6584 65.5605 60.8622 65.5605C61.0253 65.5605 61.4329 65.642 61.5145 65.642C61.596 65.642 61.596 65.6013 61.6368 65.5605C61.6775 65.5197 61.7591 65.5197 61.8406 65.4382C61.9221 65.3567 62.0444 65.2344 62.0852 65.1528C62.1259 65.0713 62.2075 65.0305 62.3298 64.9083C62.4113 64.786 62.4928 64.6637 62.5336 64.5006C62.4521 64.7044 62.4521 64.7044 62.3705 64.6229ZM58.4163 64.786C58.4163 64.786 58.4163 64.8267 58.4163 64.8675C58.294 64.9082 58.1717 64.949 58.131 64.9898C58.0902 64.9898 58.0087 65.0305 57.9271 65.0305C57.9271 64.9898 57.9271 64.949 57.8864 64.9083C57.8864 64.8675 57.8456 64.786 57.8456 64.7452C57.9271 64.7452 58.0902 64.7452 58.131 64.7044C58.2125 64.6637 58.4163 64.6637 58.4163 64.6637C58.4163 64.6637 58.4163 64.7452 58.4163 64.786Z" fill="white"/>
<path d="M61.1476 68.0879C61.0661 68.0471 60.9438 68.0471 60.8623 67.9656C60.7807 67.9248 60.4954 67.8433 60.3731 67.8433C60.2508 67.8433 60.047 67.8433 59.9654 67.884C59.8839 67.884 59.8024 67.9656 59.6801 67.9656C59.5578 68.0063 59.5578 68.0063 59.517 68.0063C59.4763 68.0063 59.3132 68.0471 59.1909 68.0879C59.0686 68.0879 58.6202 68.2917 58.4571 68.3324C58.2941 68.3732 57.9272 68.414 57.8049 68.4547C57.6826 68.4955 57.5603 68.5363 57.5603 68.5363C57.5603 68.5363 57.5603 68.577 57.5603 68.4955C57.5603 68.4547 57.5603 68.414 57.5603 68.3732C57.6418 68.3325 57.7234 68.2917 57.7641 68.2917C57.8864 68.2917 58.1718 68.1694 58.2941 68.1694C58.4164 68.1694 58.5794 68.0471 58.7832 68.0063C58.824 68.0063 58.9055 68.0063 58.9463 68.0063C58.9463 68.0471 59.0278 68.0063 59.1094 68.0063C59.2724 67.9656 59.5578 67.9656 59.5985 67.9656C59.6393 67.9656 59.7208 67.8433 59.7616 67.8433C59.8024 67.8025 59.9247 67.7617 59.9654 67.721C60.0062 67.721 60.0062 67.5987 60.1285 67.5171C60.2508 67.4356 60.3731 67.3541 60.4954 67.2726C60.6177 67.191 60.9438 66.9057 60.9438 66.8241C60.9846 66.7018 60.903 66.5388 60.8215 66.4573C60.74 66.3757 60.6177 66.335 60.4954 66.2942C60.3731 66.2127 60.0877 66.0904 59.8839 66.0496C59.6801 66.0088 59.354 65.9681 59.2724 65.9681C59.1909 65.9681 59.1094 65.8865 58.9463 65.8865C58.7833 65.8865 58.3348 65.9681 58.1718 66.0496C58.0087 66.1311 57.5603 66.2942 57.438 66.335C57.3157 66.3757 57.1119 66.4165 57.0711 66.4165C57.0303 66.4165 56.8265 66.5388 56.7042 66.5795C56.5819 66.6203 56.4189 66.7018 56.2966 66.7426C56.1743 66.8241 56.0112 66.8649 55.8889 66.9464C55.7666 67.028 55.7259 67.1503 55.6851 67.191C55.6443 67.2726 55.6851 67.3541 55.7259 67.3948C55.8074 67.4764 55.8889 67.5987 55.9705 67.721C56.052 67.8433 56.0927 67.8025 56.2558 67.8025C56.4189 67.8025 56.5412 67.8433 56.6227 67.8025C56.745 67.7617 56.9488 67.6802 56.9896 67.6394C57.0303 67.5987 57.1934 67.4764 57.2342 67.4356C57.3157 67.3948 57.438 67.2726 57.5603 67.2726C57.6826 67.2726 58.0902 67.191 58.1718 67.1503C58.2941 67.1095 58.661 67.1095 58.7832 67.0687C58.9055 67.028 59.1909 66.9872 59.1909 66.9872C59.1909 66.9872 59.2317 67.028 59.2317 67.1095C59.2317 67.1095 59.2317 67.1503 59.2317 67.191C59.1094 67.2318 58.9871 67.2318 58.9463 67.2726C58.8648 67.3133 58.4979 67.3133 58.2533 67.3541C58.0087 67.3949 57.8456 67.4356 57.7641 67.4764C57.6826 67.5171 57.5603 67.5579 57.3565 67.5987C57.1934 67.6394 56.9896 67.8025 56.9081 67.8433C56.7858 67.884 56.4596 68.0063 56.2966 68.0471C56.2558 68.0471 56.215 68.0879 56.1743 68.0879C56.1335 68.0879 56.1335 68.0879 56.1335 68.0879C56.0927 68.0879 56.0927 68.1286 56.052 68.1694C56.0112 68.2102 56.0112 68.2509 56.0112 68.3324C56.0112 68.4547 56.1335 68.5363 56.1743 68.6586C56.215 68.7809 56.215 69.1885 56.2966 69.3516C56.3781 69.5146 56.6635 69.5554 56.6635 69.5554C56.6635 69.5554 56.6635 69.5554 56.8673 69.5554C57.0711 69.5554 57.1934 69.5146 57.3565 69.4739C57.5195 69.4331 57.8457 69.3516 57.9272 69.3516C58.0087 69.3516 58.131 69.3516 58.2941 69.3516C58.4571 69.3516 58.7425 69.3108 58.9463 69.27C59.1501 69.2293 59.4763 69.1478 59.6393 69.1478C59.8024 69.107 60.0877 69.1478 60.0877 69.1478C60.0877 69.1478 60.1285 69.2293 60.0877 69.3108C60.047 69.3923 60.0062 69.4331 59.9654 69.5962C59.8839 69.7185 59.8431 69.9631 59.8024 70.0446C59.7616 70.1261 59.6393 70.4522 59.5578 70.5745C59.517 70.6968 59.4763 70.6968 59.354 70.7376C59.2317 70.7784 58.9871 70.8599 58.7425 70.9007C58.5387 70.9414 58.0087 71.0637 57.6826 71.0637C57.3565 71.0637 57.1119 70.9822 56.9081 70.9007C56.745 70.8191 56.5819 70.8191 56.3373 70.7376C56.0927 70.6561 55.9705 70.7376 55.8889 70.7784C55.8074 70.8191 55.8889 71.0637 55.8889 71.1045C55.8889 71.1452 55.9297 71.186 56.0112 71.2675C56.1335 71.3491 56.215 71.5121 56.3373 71.5937C56.4596 71.6752 56.8673 71.9198 56.9896 72.0013C57.1119 72.0828 57.2342 72.0828 57.3157 72.0828C57.3972 72.0828 57.3972 72.0828 57.438 72.0828C57.4788 72.0828 57.3972 72.1236 57.438 72.1236C57.4788 72.1644 57.6011 72.2051 57.8049 72.2459C58.0087 72.2867 58.2125 72.3682 58.5387 72.3682C58.8648 72.409 59.2724 72.409 59.4355 72.409C59.5986 72.409 59.7208 72.4497 59.8024 72.409C59.8839 72.3682 60.0062 72.2867 60.0877 72.1644C60.1693 72.0421 60.3323 71.879 60.3731 71.7567C60.4546 71.6344 60.6177 71.4306 60.6992 71.3491C60.74 71.2675 60.74 71.2268 60.7807 71.1045C60.8215 70.9822 60.903 70.6153 61.0661 70.2484C61.2292 69.8815 61.596 69.4739 61.6368 69.4331C61.6776 69.3923 61.6776 69.27 61.6776 69.1478C61.6776 69.0255 61.7183 68.6993 61.596 68.4547C61.5553 68.2509 61.2292 68.1286 61.1476 68.0879Z" fill="white"/>
<path d="M70.075 61.9324C69.9119 61.9731 69.6673 62.0139 69.5451 62.0954C69.2189 62.4623 69.1374 62.6254 69.3412 62.8292C69.4635 62.9515 69.7081 63.033 69.9527 63.1145C70.0342 63.1145 70.1158 63.1553 70.1973 63.1553C70.7272 63.1145 71.2164 63.033 71.6648 62.7884C71.7464 62.7477 71.7464 62.7069 71.8687 62.6254C71.9502 62.5846 71.9502 62.6254 71.991 62.6254C72.1948 62.6254 72.5209 62.5846 72.6432 62.3808C72.684 62.2992 72.7247 62.2585 72.7247 62.1362C72.684 62.0139 72.6024 61.9731 72.5209 61.9324C71.8279 61.4024 70.8903 61.6878 70.075 61.9324Z" fill="white"/>
<path d="M79.9809 66.2942C79.8993 66.2534 79.6547 66.0904 79.4917 66.0904C79.3286 66.0904 79.2471 66.2126 79.1248 66.2942C79.0025 66.3757 79.0025 66.5388 78.8802 66.5795C78.7987 66.6611 78.5541 66.7834 78.4726 66.8649C78.391 66.9872 78.1057 67.2318 77.9834 67.3541C77.8611 67.4764 77.8611 67.4764 77.7388 67.4356C77.6165 67.3541 77.2496 67.2725 77.1681 67.1095C77.0865 66.9464 76.9235 66.7018 76.7604 66.4572C76.6381 66.2127 76.5974 65.805 76.5974 65.6419C76.5974 65.4789 76.8012 65.3566 76.8012 65.1528C76.8419 64.9897 76.9235 64.7043 76.9235 64.5413C76.9235 64.3782 76.6381 64.2967 76.4751 64.2152C76.312 64.1336 76.0674 64.0113 75.9859 63.9298C75.9043 63.889 75.619 63.9298 75.4559 64.0113C75.4152 64.0113 75.3744 64.0521 75.3336 64.0521C75.3744 63.9706 75.4152 63.889 75.4152 63.8075C75.4559 63.726 75.4967 63.6444 75.5375 63.5221C75.5782 63.5221 75.6598 63.5221 75.7005 63.5221C75.9451 63.5221 76.4751 63.5222 76.6789 63.4814C76.9235 63.4406 77.5349 63.3999 77.6165 63.3591C77.698 63.3591 77.7795 63.2368 77.7795 63.1553C77.7795 63.033 77.7388 62.9514 77.698 62.7884C77.6572 62.6253 77.6165 62.503 77.4534 62.3807C77.3311 62.2584 77.005 62.1361 76.8012 62.1361C76.5974 62.1361 76.1489 62.1361 75.8636 62.1769C75.8228 62.1769 75.7413 62.1769 75.7005 62.2177C75.8228 62.0954 75.9451 61.9323 76.0266 61.8915C76.1489 61.81 76.2305 61.5654 76.2305 61.4839C76.2305 61.4024 76.2305 61.3208 76.0674 61.0762C75.9043 60.8316 75.6598 60.7909 75.4152 60.7501C75.1706 60.7094 74.926 60.7909 74.926 60.7909C74.6814 60.8316 74.7629 61.2801 74.7222 61.3208C74.6814 61.4431 74.5183 61.4431 74.3145 61.6877C74.1514 61.8915 73.8253 62.2177 73.703 62.34C73.6623 62.3807 73.54 62.4623 73.3361 62.5438C73.01 62.6253 72.6431 62.7476 72.4801 62.7476C72.2762 62.7884 71.3794 63.033 71.0533 63.1145C70.7679 63.196 70.6864 63.2368 70.3195 63.196C69.9934 63.196 69.7488 63.1145 69.6265 63.0737C69.5042 63.033 69.4227 63.0737 69.2189 63.1145C69.015 63.1553 68.7704 63.196 68.6889 63.3183C68.5666 63.4406 68.6481 63.6037 68.6889 63.7667C68.7297 63.9298 69.0558 64.1336 69.2189 64.1744C69.3412 64.2152 69.4634 64.3782 69.5857 64.3782C69.708 64.3782 69.9119 64.3375 70.401 64.2559C70.4418 64.2559 70.5233 64.2152 70.5641 64.2152C70.5641 64.2559 70.5641 64.3375 70.6049 64.419C70.5641 64.419 70.5641 64.419 70.5233 64.419C70.3195 64.4598 69.9526 64.5413 69.8303 64.582C69.708 64.6228 69.3819 64.7043 69.3004 64.6636C69.2189 64.6228 69.0966 64.582 68.9335 64.582C68.7704 64.582 68.5666 64.7859 68.5666 64.7859C68.4035 64.9082 68.2813 65.1528 68.2813 65.3158C68.2813 65.4789 68.2813 65.7235 68.3628 65.805C68.4443 65.8865 68.6074 65.9681 68.7704 65.9273C68.9743 65.8865 69.1781 65.8865 69.3412 65.805C69.5042 65.7235 69.9119 65.6419 70.0342 65.6012C70.1157 65.5604 70.3603 65.5196 70.5233 65.5196C70.5233 65.6012 70.5233 65.6827 70.4826 65.7642C70.2787 65.8458 69.9526 65.8458 69.7896 65.9273C69.5857 66.0088 69.2596 66.0496 69.1373 66.0904C69.015 66.1311 68.8927 66.1311 68.8112 66.1719C68.7297 66.2126 68.6074 66.2942 68.3628 66.3349C68.159 66.3757 67.6698 66.4165 67.466 66.3757C67.2214 66.3757 67.2621 66.4165 67.1398 66.498C67.0175 66.5795 66.936 66.7018 66.8545 66.8649C66.7729 67.0687 66.8545 67.2318 66.9768 67.3541C67.0583 67.5171 67.1806 67.6802 67.2621 67.721C67.3437 67.7617 67.7105 67.6802 67.8736 67.6394C68.0774 67.5579 68.6481 67.3133 68.852 67.2318C69.0558 67.1502 69.545 67.028 69.708 66.9872C69.8711 66.9464 70.1157 66.9057 70.3195 66.9057C70.2787 67.0687 70.2788 67.2318 70.238 67.2725C70.1565 67.4356 70.1157 67.4764 69.9934 67.5579C69.9526 67.5987 69.8711 67.6394 69.8711 67.6394C69.8711 67.6394 69.8303 67.6394 69.7896 67.5987C69.7488 67.5579 69.6673 67.4764 69.5857 67.4356C69.4634 67.3541 69.2189 67.4764 69.0558 67.5579C68.8927 67.6394 68.6889 67.8025 68.6074 67.8433C68.5258 67.884 68.5666 68.0063 68.6481 68.0471C68.7297 68.0878 68.6889 68.1286 68.7297 68.2101C68.7704 68.2917 68.8112 68.414 68.8927 68.4955C68.9743 68.577 69.0966 68.6178 69.1781 68.6993C69.3004 68.7809 69.7488 68.9439 69.8711 68.9847C69.9934 69.0254 70.1565 69.107 70.3195 69.1477C70.238 69.1477 70.1565 69.1885 70.0749 69.1885C69.8303 69.2293 69.4227 69.1885 68.8112 69.1477C68.1997 69.1477 68.2405 69.3108 68.1997 69.4739C68.159 69.6777 68.0774 69.5962 68.1997 69.8815C68.322 70.1261 68.4443 70.2892 68.6889 70.3299C68.9743 70.3707 69.1781 70.3299 69.4227 70.2892C69.6673 70.2484 70.0749 70.1669 70.401 70.1261C70.6864 70.0853 71.1756 70.0853 71.5017 70.0446C71.3794 70.2892 71.3386 70.3299 71.2979 70.4115C71.2163 70.5338 71.1348 70.6153 71.094 70.656C71.0533 70.6968 70.9718 70.7376 70.9718 70.7376C70.9718 70.7376 70.8495 70.7376 70.7272 70.7783C70.6049 70.8191 70.238 70.9414 70.1157 70.9822C69.9934 71.0637 69.8711 71.1045 69.7488 71.1045C69.6265 71.1452 69.545 71.186 69.5042 71.3083C69.4634 71.4306 69.5857 71.7975 69.8303 71.9605C70.0749 72.1236 70.0342 72.2459 70.3603 72.1644C70.6864 72.0828 71.0941 72.0421 71.3794 72.0013C71.6648 71.9605 71.8278 71.879 71.9909 71.8382C72.1132 71.7975 72.1539 71.7567 72.3985 71.7159C72.6431 71.6752 73.1323 71.6752 73.2954 71.6344C73.4992 71.5937 73.8661 71.5529 74.0291 71.5121C74.1922 71.4714 74.233 71.3898 74.3553 71.3898C74.4368 71.3898 74.5183 71.3898 74.5999 71.3491C74.6814 71.4306 74.8444 71.6344 74.8852 71.7159C74.9667 71.8382 75.2113 71.9605 75.4152 72.0013C75.619 72.0421 75.8636 71.9198 75.9859 71.879C76.1082 71.8382 76.312 71.7159 76.3935 71.5529C76.4751 71.3898 76.6381 70.9414 76.5158 70.7783C76.3935 70.6153 76.312 70.3707 76.0674 70.1669C75.8636 69.9223 75.7413 69.7592 75.6598 69.5962C75.619 69.4739 75.5375 69.4331 75.4152 69.3516C75.4559 69.3516 75.4559 69.3516 75.4967 69.3516C75.8636 69.3516 76.0674 69.3923 76.2305 69.2293C76.3528 69.107 76.5158 68.9847 76.5566 68.8216C76.5974 68.7401 76.6789 68.6178 76.6789 68.4955C76.7197 68.5363 76.7604 68.5363 76.8012 68.5363C76.8827 68.577 77.0865 68.6993 77.1681 68.7809C77.2496 68.8624 77.3311 68.9847 77.4127 69.0254C77.4942 69.0662 77.698 69.0662 77.8611 69.0254C78.0241 68.9847 78.3095 68.8216 78.391 68.7401C78.4726 68.6586 78.6356 68.4955 78.6764 68.3732C78.7171 68.2509 78.7579 68.2509 78.8394 68.1694C78.921 68.0878 78.9617 68.0471 79.0433 67.9656C79.1248 67.884 79.084 67.8433 79.1248 67.7617C79.2063 67.6802 79.2879 67.6394 79.3286 67.4764C79.3694 67.3541 79.3694 67.3133 79.4509 67.191C79.4917 67.0687 79.614 66.8649 79.6955 66.7426C79.7363 66.6203 79.8178 66.3349 79.8993 66.1719C80.1032 66.2942 80.1032 66.3349 79.9809 66.2942ZM74.6814 65.4381C74.8852 65.3566 75.0075 65.3566 75.089 65.3158C75.2113 65.2751 75.3336 65.3158 75.3336 65.3158C75.3336 65.3158 75.3336 65.275 75.3744 65.3566C75.3744 65.4789 75.4152 65.6012 75.4152 65.7642C75.4152 65.8865 75.4559 65.9273 75.4559 66.0496C75.4152 66.0496 75.3744 66.0496 75.3336 66.0088C75.2113 65.9273 75.0483 65.8865 74.8037 65.6827C74.7222 65.6419 74.6406 65.6012 74.5591 65.5604C74.6406 65.5604 74.6814 65.5196 74.6814 65.4381ZM74.0291 70.4115C73.9069 70.4115 73.6215 70.5338 73.54 70.5338C73.4584 70.5745 73.4177 70.6153 73.2546 70.656C73.1323 70.6968 73.01 70.6561 72.8062 70.6968C72.6431 70.7376 72.5208 70.7783 72.5208 70.6968C72.5208 70.6561 72.6024 70.5745 72.6431 70.4522C72.7247 70.3299 72.8062 70.2892 72.847 70.1669C72.847 70.1261 72.8877 70.0853 72.9285 70.0446C73.1731 69.963 73.2546 69.9223 73.4177 69.8407C73.54 69.7592 73.8661 69.7185 73.8661 69.7185C73.8661 69.7185 73.8661 69.7185 74.1514 69.6369C74.1922 69.6369 74.233 69.6369 74.3145 69.5962C74.3553 69.6777 74.4368 69.7592 74.4368 69.8407C74.4776 69.963 74.5183 70.1261 74.5183 70.2076V70.2484C74.396 70.3299 74.1107 70.4115 74.0291 70.4115ZM76.312 68.3732C76.1082 68.3732 76.0266 68.2917 75.8228 68.2509C75.6598 68.2101 75.5782 68.2509 75.3744 68.2917C75.1706 68.3324 75.1706 68.2917 74.9667 68.3324C74.7629 68.3732 74.1922 68.4955 73.8253 68.5363C73.4992 68.577 72.4393 68.9032 72.1132 68.9847C71.7871 69.0662 71.4202 69.1885 71.1756 69.2293C71.0941 69.2293 71.0125 69.2293 70.8902 69.27C70.931 69.2293 71.0125 69.1477 71.0533 69.0662C71.1756 68.9031 71.2571 68.9032 71.2979 68.7809C71.3386 68.6993 71.2979 68.577 71.4202 67.9656C71.5017 67.6394 71.5425 67.2725 71.624 66.9464C71.7871 66.9057 71.9909 66.8241 72.0724 66.7834C72.1947 66.7426 72.3578 66.6611 72.4801 66.6203C72.6024 66.5795 72.6431 66.498 72.6431 66.3757C72.6431 66.2534 72.5616 66.1311 72.4801 66.0496C72.3985 65.9681 72.1947 65.805 72.0724 65.7642C71.9909 65.7235 71.8278 65.7235 71.7055 65.7235C71.7055 65.6827 71.7055 65.6419 71.7055 65.6012C71.7055 65.5196 71.7055 65.5196 71.7055 65.4381C71.7463 65.4381 71.7463 65.4381 71.7463 65.4381C71.8686 65.3973 72.1947 65.3566 72.2762 65.3158C72.3578 65.2751 72.317 65.2343 72.3578 65.1528C72.3578 65.0712 72.3985 64.9489 72.3985 64.8674C72.3985 64.7859 72.2762 64.6228 72.2355 64.5413C72.1947 64.4597 72.1539 64.3375 72.0317 64.3375C71.9909 64.3375 71.9501 64.3375 71.9094 64.3375C71.8686 64.2559 71.8278 64.2152 71.7463 64.1744C71.8686 64.1336 71.9909 64.0521 72.1132 64.0113C72.2762 63.9706 72.4393 64.0113 72.6024 64.0113C72.7654 64.0113 73.4992 63.726 73.7438 63.726C73.9068 63.726 74.1514 63.726 74.396 63.6852C74.396 63.8075 74.3145 63.889 74.2737 64.0113C74.233 64.1336 74.1514 64.2152 73.9884 64.3782C73.9884 64.419 73.9476 64.419 73.9069 64.4597C73.7846 64.4597 73.703 64.4597 73.6623 64.4597C73.4992 64.4597 73.2138 64.5005 73.0915 64.5413C72.9693 64.582 72.8062 64.6636 72.7654 64.8674C72.7654 65.0305 72.9692 65.1528 73.0508 65.1935C73.0915 65.2343 73.2138 65.3158 73.2954 65.4381C73.2138 65.6827 73.1731 65.8458 73.1323 65.9681C73.0915 66.0904 72.9693 66.2534 72.8062 66.498C72.6431 66.7426 72.4393 66.7834 72.3578 67.028C72.317 67.1502 72.2355 67.2725 72.1947 67.3948C72.1132 67.3948 72.0317 67.3948 71.9909 67.3948C71.7871 67.4356 71.6648 67.5171 71.5832 67.8433C71.5425 68.0063 71.5425 68.0471 71.624 68.2917C71.7055 68.5363 71.7463 68.6993 71.8686 68.6586C72.0317 68.6586 72.2762 68.6178 72.5208 68.577C72.7654 68.4955 73.0508 68.4547 73.2954 68.414C73.4992 68.3732 73.4584 68.3324 73.6215 68.3324C73.7846 68.2917 74.1922 68.2509 74.4368 68.2101C74.6814 68.1694 75.0483 68.0878 75.1706 68.0063C75.2929 67.9248 75.4152 67.884 75.5375 67.721C75.6598 67.5171 75.6598 67.5171 75.619 67.2725C75.5782 67.028 75.4967 67.191 75.3744 67.191C75.2521 67.191 75.089 67.191 74.9667 67.191C74.8444 67.191 74.8037 67.191 74.6406 67.191C74.4776 67.191 74.3145 67.191 74.0699 67.191C74.0699 67.191 74.0699 67.191 74.0291 67.191C74.0291 67.1502 74.0291 67.1095 74.0699 67.0687C74.1922 66.9057 74.233 66.8241 74.3145 66.7018C74.396 66.7426 74.5183 66.7426 74.5999 66.7834C74.7222 66.8241 74.8037 66.9464 75.0075 66.9464C75.2113 66.9464 75.3744 66.8649 75.5375 66.8649C75.619 66.8649 75.7413 66.8241 75.8228 66.8241C75.9043 66.9872 76.0266 67.191 76.0674 67.2318C76.1082 67.3133 76.1897 67.3541 76.2305 67.4764C76.312 67.5987 76.4751 67.9248 76.5158 68.1286C76.5566 68.2101 76.5566 68.2509 76.5566 68.3324C76.4751 68.3732 76.3935 68.3732 76.312 68.3732Z" fill="white"/>
<path d="M87.3187 61.2801C87.1149 61.3616 86.9518 61.4839 86.7888 61.6062C86.6257 61.7285 86.2181 62.0546 85.9327 62.2584C85.6474 62.4623 85.6474 62.6661 85.6066 63.033C85.5658 63.3591 85.8512 63.3999 86.0143 63.4814C86.1773 63.5222 86.2181 63.5222 86.4219 63.4406C86.6257 63.3591 86.9926 63.2776 87.1557 63.196C87.3187 63.1145 87.8487 62.9514 88.0117 62.8699C88.2156 62.7884 88.3379 62.6253 88.4194 62.4623C88.5009 62.2584 88.5009 62.0138 88.5009 61.7693C88.4602 61.5654 88.4602 61.5654 88.2971 61.4839C88.1748 61.4024 88.0933 61.3616 87.8894 61.2393C87.7672 61.117 87.6041 61.1578 87.3187 61.2801Z" fill="white"/>
<path d="M88.7457 67.7617C88.8272 67.6802 89.0718 67.4764 89.1126 67.4356C89.1126 67.3948 89.1941 67.3541 89.2349 67.2725C89.2349 67.4764 89.2349 67.5579 89.1941 67.7617C89.1534 68.0471 88.9495 68.2509 88.9495 68.414C88.9088 68.6178 89.0311 68.8624 89.2757 69.0254C89.5203 69.1885 89.5203 69.27 89.6018 69.3108C89.6833 69.3516 89.6833 69.4331 89.8056 69.4331C89.9279 69.4331 90.1317 69.4331 90.254 69.3108C90.3763 69.2293 90.4171 69.107 90.4986 69.0254C90.5802 68.9847 90.6209 68.9439 90.6209 68.7401C90.6617 68.577 90.7025 68.3324 90.7432 68.1694C90.784 68.0063 90.784 67.9655 90.8247 67.9248C90.8247 67.884 90.8247 67.884 90.8247 67.8433C90.8247 67.8025 90.784 67.8433 90.784 67.8433L90.7432 67.8025C90.7432 67.8025 90.7432 67.7617 90.7432 67.721C90.7432 67.6802 90.7025 67.6394 90.7432 67.5987C90.7432 67.5987 90.784 67.6394 90.784 67.5987C90.784 67.5579 90.8247 67.5171 90.8247 67.4764C90.8655 67.3948 90.8655 67.3948 90.8655 67.3948C90.8655 67.3948 90.8655 67.3948 90.8655 67.3133C90.8655 67.2725 90.8655 67.2318 90.8655 67.1502C90.8655 67.1502 90.8655 67.1502 90.9063 67.1502C91.0286 67.2318 91.1509 67.3133 91.3139 67.4356C91.477 67.5579 91.5993 67.5987 91.7216 67.5987C91.8439 67.5987 91.9254 67.4764 92.0069 67.4356C92.0885 67.3541 92.2515 67.191 92.2923 67.1502C92.3331 67.0687 92.2923 66.9464 92.2515 66.7834C92.2108 66.6203 91.9662 66.2942 91.8846 66.2126C91.8031 66.0903 91.4362 65.8865 91.3547 65.8458C91.2732 65.805 90.9878 65.5604 90.8655 65.4381V65.3973C90.9878 65.3566 91.0693 65.3566 91.2324 65.3973C91.477 65.3973 91.7623 65.4381 91.9254 65.3566C92.0885 65.3158 92.1292 65.3158 92.2515 65.1527C92.3738 64.9897 92.4554 64.9082 92.5777 64.7451C92.6999 64.582 92.7407 64.5413 92.6592 64.4597C92.5777 64.3374 92.4961 64.2559 92.3331 64.1336C92.17 64.0113 91.8439 63.9706 91.477 64.0113C91.1101 64.0521 90.9878 64.1336 90.784 64.1744H90.7432C90.7432 63.889 90.7432 63.6852 90.7432 63.5221C90.8247 63.4814 90.8655 63.4814 90.9063 63.4406C91.0286 63.3591 91.4362 63.2776 91.6808 63.1553C91.9254 63.033 92.0069 62.9107 92.0477 62.8291C92.0885 62.7476 92.0477 62.7476 92.0477 62.5845C92.0477 62.4215 92.0477 62.3807 92.0069 62.34C91.9662 62.2992 91.8031 62.2177 91.6401 62.2177C91.477 62.2177 91.3139 62.1769 91.1916 62.2177C91.1101 62.2177 90.9878 62.2584 90.8655 62.2584C90.8655 62.2177 90.8655 62.1361 90.9063 62.1361C90.947 61.9731 90.947 61.9323 90.9063 61.7285C90.8655 61.5247 90.6209 61.5247 90.5394 61.4839C90.4171 61.4431 90.2133 61.4431 90.0094 61.4431C89.8871 61.4431 89.7241 61.3208 89.561 61.5247C89.4387 61.6469 89.398 61.6062 89.398 61.9323C89.398 62.2584 89.398 62.2584 89.398 62.4623C89.398 62.6661 89.4387 62.6661 89.398 62.7476C89.3572 62.8291 89.398 62.7884 89.3572 63.1145C89.3572 63.3998 89.398 63.4406 89.398 63.6444C89.398 63.8483 89.398 63.9298 89.3572 64.3374C89.3572 64.5005 89.3572 64.6228 89.3164 64.7451C88.868 64.9082 88.3788 65.0305 88.2565 65.0712C88.0527 65.112 87.6451 65.112 87.5635 65.112C87.4412 65.112 87.4005 65.112 87.2782 65.275C87.1559 65.4381 87.1559 65.6012 87.2782 65.7235C87.4005 65.8458 87.6451 66.1311 87.8897 66.2126C88.1342 66.2942 88.2973 66.2126 88.5419 66.1719C88.6642 66.1719 88.7865 66.1311 88.9088 66.0903C88.7865 66.2534 88.5827 66.5388 88.3381 66.7426C87.9304 67.0279 87.7266 67.2318 87.5635 67.3541C87.4412 67.4764 87.0336 67.721 86.9113 67.8025C86.8705 67.8025 86.8705 67.8433 86.8298 67.884C86.8705 67.5987 86.9113 67.2318 86.9113 67.0279C86.9113 66.7426 86.8298 66.3757 86.8705 65.9273C86.9113 65.6827 86.9113 65.4789 86.9521 65.3566C86.9928 65.3158 87.0336 65.275 87.0336 65.275C87.1559 65.112 87.6858 64.8674 87.7674 64.7451C87.8489 64.6228 87.8081 64.5413 87.8489 64.3374C87.8489 64.1336 87.7674 63.9298 87.6858 63.6852C87.6043 63.4406 87.1966 63.5221 86.789 63.6444C86.5852 63.726 86.259 63.9298 86.1775 64.0929C86.0552 64.2559 85.9737 64.419 85.8514 64.5005C85.7291 64.582 85.4845 64.8266 85.2807 64.9897C85.0768 65.1935 84.9138 65.3566 84.6692 65.6827C84.4246 66.0088 84.5061 65.9681 84.4246 66.0903C84.3023 66.2126 84.2615 66.1311 83.9354 66.3757C83.7316 66.5388 83.487 66.7018 83.3239 66.7834C83.1609 66.8649 83.1201 66.8649 82.9571 66.9057C82.794 66.9872 82.7125 67.0687 82.5902 67.2318C82.4679 67.3948 82.3863 67.4356 82.4679 67.5987C82.5494 67.721 82.6717 67.8025 82.8348 67.8025C82.9978 67.8432 83.3239 67.9248 83.6093 67.9248C83.8947 67.9248 83.9762 67.9655 84.1392 67.8433C84.3023 67.7617 84.3838 67.6394 84.7507 67.3541C85.0768 67.0687 85.4437 66.8649 85.7699 66.6611V66.7426C85.7699 66.7426 85.7699 66.7426 85.8106 66.8649C85.8514 66.9872 85.8922 67.0687 85.8514 67.191C85.8106 67.3133 85.8514 67.3133 85.8106 67.4764C85.7699 67.5987 85.7699 67.6394 85.7699 67.7617C85.7699 67.884 85.7291 67.9655 85.7291 68.0471C85.7291 68.1286 85.6476 68.2917 85.6068 68.3732C85.566 68.4955 85.6068 68.414 85.566 68.577C85.4845 68.7401 85.5253 68.8216 85.5253 69.1477C85.5253 69.4331 85.4845 69.7184 85.4845 70.0038C85.4845 70.2892 85.566 70.3707 85.6476 70.4522C85.7291 70.5337 85.8514 70.656 85.9737 70.7376C86.096 70.8191 86.259 71.0229 86.3406 71.0637C86.4221 71.0637 86.4629 71.1045 86.5852 71.0229C86.7075 70.9414 86.7075 70.8599 86.7482 70.7376C86.9521 70.2892 86.9113 70.3299 86.9521 69.963C86.9928 69.5962 86.952 69.3108 86.9113 69.0254C86.9113 68.9439 86.9113 68.8216 86.9113 68.7401C86.952 68.7808 87.0336 68.8216 87.0743 68.8624C87.1559 68.9439 87.2374 69.0254 87.2782 69.0662C87.3597 69.0662 87.4412 68.9847 87.5228 68.9439C87.6043 68.9031 87.6451 68.7809 87.8489 68.6993C88.0119 68.6178 88.2158 68.5363 88.3381 68.4547C88.4604 68.3732 88.5827 68.3732 88.6642 68.2917C88.5827 68.0471 88.6642 67.884 88.7457 67.7617Z" fill="white"/>
<path d="M92.6998 64.256C92.6998 64.256 92.6998 64.256 92.8221 64.3783C92.9444 64.5006 93.0667 64.5006 93.2297 64.5821C93.352 64.6228 93.352 64.6636 93.4335 64.6636C93.5151 64.6636 93.5558 64.6636 93.6781 64.6229C93.8004 64.5821 93.9227 64.5821 94.045 64.5006C94.1673 64.4598 94.3304 64.419 94.4527 64.3783C94.6157 64.3375 95.1049 64.1744 95.1865 64.1744C95.3088 64.1337 95.4718 64.2152 95.5126 64.2152C95.5533 64.2152 95.5941 64.1744 95.7572 64.0521C95.9202 63.9298 96.0018 63.7668 96.0833 63.5629C96.1241 63.3999 96.0425 63.3999 96.0018 63.3591C95.961 63.3591 95.8795 63.3184 95.7572 63.2368C95.6349 63.1961 95.3495 63.1145 95.1865 63.0738C95.0642 63.033 94.9826 62.9922 94.9011 63.033C94.8603 63.0738 94.738 63.0738 94.575 63.1145C94.4119 63.1553 93.9635 63.1961 93.8004 63.2368C93.6781 63.2776 93.0667 63.3184 92.8221 63.3184C92.5775 63.3184 92.5367 63.3591 92.4144 63.5222C92.3329 63.6445 92.2921 63.6445 92.3329 63.8483C92.5367 64.0929 92.6998 64.256 92.6998 64.256Z" fill="white"/>
<path d="M97.9585 65.5197C97.9585 65.3566 97.9178 65.2343 97.7955 65.0712C97.6732 64.8674 97.6324 64.7859 97.4286 64.6228C97.184 64.5005 96.8171 64.419 96.4094 64.419C96.0426 64.419 96.0833 64.3782 95.9203 64.3782C95.7572 64.3782 95.4718 64.419 95.2273 64.4598C94.9827 64.5005 94.6565 64.5821 94.3712 64.6228C94.1266 64.7044 93.9635 64.7451 93.882 64.7859C93.8412 64.7859 93.6782 64.8267 93.5151 64.8674C93.3521 64.9082 93.0667 64.9489 92.9036 64.9082C92.6998 64.9082 92.6183 64.8674 92.4552 65.0305C92.1699 65.3158 92.1699 65.5604 92.1699 65.7235C92.1699 65.8865 92.1699 65.9681 92.1291 66.1719C92.1291 66.3757 92.2106 66.3757 92.3737 66.4165C92.5368 66.4573 92.659 66.4165 92.9444 66.3757C93.189 66.335 93.189 66.2942 93.5151 66.2942C93.5966 66.4573 93.5559 66.6203 93.5967 66.9464C93.6374 67.2726 93.6782 67.4356 93.6782 67.5987C93.7189 67.7617 93.7189 68.0063 93.6782 68.1694C93.6374 68.3325 93.6782 68.5363 93.6782 68.6993C93.6782 68.8624 93.6782 69.107 93.6782 69.3516C93.6374 69.5962 93.6374 69.6369 93.4336 69.7592C93.2705 69.8408 93.1075 69.9223 92.9852 69.9223C92.8629 69.9631 92.4145 69.9631 92.2514 69.9631C92.0883 69.9223 91.5584 69.8815 91.3138 69.8815C91.0692 69.8815 90.7839 69.9223 90.5393 70.0038C90.3354 70.0854 90.2131 70.1261 90.2539 70.2484C90.2947 70.3707 90.3354 70.4115 90.4577 70.5338C90.5393 70.6153 90.6208 70.5745 90.7431 70.6153C90.8654 70.6561 91.2323 71.023 91.3546 71.0637C91.4769 71.1045 91.7622 71.2268 91.966 71.2268C92.1699 71.2676 92.2106 71.3083 92.3737 71.3083C92.496 71.3083 92.4145 71.4306 92.6591 71.4714C92.9036 71.5121 93.0667 71.5937 93.2705 71.5937C93.4744 71.6344 94.1266 71.6344 94.4527 71.6344C94.7788 71.6752 94.7381 71.5937 94.8196 71.5121C94.9011 71.3898 95.0234 71.3491 95.0642 71.2675C95.105 71.1453 95.0642 70.7784 95.0234 70.2077C94.9827 69.6369 95.0234 68.7809 94.9827 68.2917C94.9827 67.8025 95.105 66.8649 95.1457 66.6203C95.1865 66.4165 95.268 66.2534 95.3088 66.0904C95.5534 66.0496 95.8387 66.0496 96.0018 66.0496C96.2464 66.0496 96.5725 66.0088 96.6948 65.9681C96.8579 65.9273 96.8986 65.8865 97.0617 65.8458C97.2247 65.805 97.4286 65.7643 97.6324 65.7235C97.877 65.7235 97.9585 65.6827 97.9585 65.5197Z" fill="white"/>
<path d="M113.245 69.8815C113.082 69.8 112.919 69.8 112.634 69.7185C112.349 69.5962 112.104 69.5146 111.982 69.3923C111.859 69.3108 111.656 69.27 111.411 69.1477C111.207 69.0254 110.637 68.7401 110.31 68.5363C109.984 68.3324 109.617 68.0471 109.373 67.7617C109.128 67.4764 108.924 67.0687 108.517 66.5388C108.231 66.1719 107.905 65.6827 107.701 65.3566C107.864 65.3566 108.028 65.3566 108.191 65.3158C108.476 65.3158 108.924 65.3973 109.21 65.3566C109.536 65.3158 109.658 65.3158 109.862 65.275C110.107 65.2343 110.066 65.1935 110.433 65.112C110.555 65.0712 110.555 65.0305 110.596 65.112C110.596 65.1528 110.555 65.1935 110.514 65.1935C110.555 65.2343 110.84 65.112 110.963 65.0712C111.044 65.0305 111.085 64.9082 111.085 64.6636C111.126 64.3375 111.166 64.1744 111.166 63.889C111.126 63.6037 110.922 63.6037 110.637 63.4814C110.351 63.3591 110.27 63.3999 110.025 63.3999C109.821 63.3999 109.454 63.3183 109.006 63.4814C108.557 63.6444 108.313 63.6852 107.824 63.8075C107.579 63.889 107.457 63.9298 107.294 63.9706C107.335 63.6444 107.375 63.3999 107.416 63.2776C107.579 62.503 107.498 62.3807 107.62 61.6877C107.742 60.9947 107.783 61.0762 107.538 60.7094C107.253 60.3425 106.886 60.5463 106.682 60.6278C106.152 60.8317 106.356 60.9947 106.397 61.3208C106.438 61.647 106.438 61.9731 106.478 62.2584C106.478 62.5438 106.478 62.7068 106.356 63.2368C106.234 63.726 106.234 63.5221 106.03 63.9298C105.989 64.0521 105.908 64.2559 105.867 64.4597C105.826 64.4597 105.826 64.4597 105.785 64.4597C105.378 64.582 105.215 64.582 104.848 64.582C104.522 64.582 104.114 64.582 103.87 64.582C103.625 64.582 102.81 64.5005 102.483 64.6228C102.157 64.7451 101.954 64.7859 101.994 65.1528C101.994 65.5196 102.117 65.9681 102.402 66.0904C102.687 66.2126 102.769 66.1719 103.095 66.1719C103.421 66.1719 103.503 66.0496 103.87 65.9273C104.196 65.805 104.644 65.7642 105.052 65.6419C105.174 65.6012 105.378 65.5604 105.622 65.5196C105.622 65.5604 105.582 65.6012 105.582 65.6012C105.459 65.8865 105.296 66.498 105.174 66.9057C105.011 67.3133 104.97 67.3541 104.848 67.5171C104.726 67.6802 104.522 68.0063 104.236 68.2509C103.951 68.4955 103.421 69.107 103.013 69.3923C102.606 69.6777 102.239 70.0853 102.035 70.2076C101.831 70.3299 101.587 70.493 101.627 70.6968C101.668 70.9006 101.627 71.3083 101.668 71.6344C101.709 71.9198 102.035 71.9198 102.361 71.8382C102.769 71.7567 102.932 71.6344 103.258 71.5121C103.584 71.3898 103.584 71.4306 103.747 71.3491C103.91 71.2268 103.951 71.2268 104.196 71.0229C104.44 70.8191 104.807 70.4522 105.011 70.2076C105.215 69.9223 105.296 69.8 105.419 69.5554C105.541 69.3108 105.663 69.2293 105.908 68.7809C106.152 68.3324 106.438 67.9248 106.56 67.5579C106.682 67.2318 106.886 66.5795 107.008 66.1311C107.131 66.2534 107.253 66.3757 107.416 66.6611C107.62 66.9872 107.62 67.1095 107.987 67.7617C108.15 68.0471 108.231 67.9656 108.354 68.0878C108.476 68.2101 108.435 68.414 108.557 68.577C108.68 68.7401 108.557 68.8624 108.68 69.0662C108.802 69.3516 108.924 69.5554 109.047 69.7592C109.169 69.963 109.169 70.0038 109.373 70.3299C109.577 70.6561 109.862 70.7376 110.147 70.8191C110.433 70.9006 110.677 71.0229 111.003 71.0637C111.33 71.1045 111.859 71.186 112.023 71.186C112.186 71.186 112.104 71.1452 112.226 71.1045C112.349 71.0637 112.43 71.1452 112.756 71.1045C113.042 71.0229 113.572 70.9414 113.979 70.8599C114.265 70.8191 114.305 70.7783 114.346 70.656C114.428 70.4522 114.305 70.4115 114.142 70.2484C113.938 70.1669 113.449 69.9223 113.245 69.8815Z" fill="white"/>
<path d="M118.219 68.0064C118.545 67.8433 119.075 67.4357 119.319 67.1503C119.564 66.865 119.849 66.5796 119.931 66.4166C120.012 66.2535 119.931 66.2127 119.931 66.0497C119.931 65.9682 119.931 65.8459 119.89 65.7643C119.971 65.7236 120.012 65.6828 120.094 65.642C120.298 65.5197 120.583 65.5605 120.664 65.2344C120.746 64.9083 120.787 64.7452 120.746 64.2153C120.746 63.7261 120.461 63.6445 120.338 63.2777C120.216 62.9108 120.135 62.87 119.931 62.7069C119.727 62.5031 119.442 62.5847 119.238 62.6254C119.034 62.7069 118.871 62.7069 118.912 62.8292C118.952 63.563 118.83 63.9299 118.912 64.2968C118.952 64.6637 119.115 64.7044 119.36 65.0713C119.482 65.2751 119.564 65.4382 119.564 65.5605C119.401 65.6013 119.238 65.642 119.115 65.6828C118.83 65.7643 118.789 65.8459 118.626 65.9682C118.504 66.0904 118.178 66.2943 118.055 66.3758C117.933 66.4981 117.77 66.5796 117.648 66.7427C117.526 66.9058 117.24 66.9873 117.199 67.2726C117.159 67.558 117.362 67.9249 117.444 68.0472C117.526 68.2102 117.892 68.1287 118.219 68.0064Z" fill="white"/>
<path d="M129.755 65.1121C129.633 64.9898 129.225 64.7859 128.981 64.7044C128.736 64.6229 127.758 64.5006 127.472 64.5006C127.391 64.5006 127.187 64.5006 127.024 64.4598C127.024 64.419 127.065 64.419 127.065 64.3783C127.105 64.1745 127.187 63.8891 127.187 63.726C127.228 63.563 127.35 63.4407 127.431 63.1553C127.513 62.8292 127.513 62.6254 127.554 62.34C127.635 62.0139 127.676 62.0954 127.717 61.7286C127.758 61.3617 127.513 61.3209 127.309 61.1171C127.105 60.9133 126.902 60.8317 126.698 60.8317C126.494 60.8317 126.168 60.8317 125.964 60.8725C125.76 60.9132 125.597 60.8725 125.475 60.954C125.352 61.0355 125.23 60.9948 125.067 61.0355C124.904 61.0763 124.863 61.0763 124.7 61.3209C124.578 61.5247 124.822 61.8508 124.904 61.8508C124.986 61.8508 125.312 61.8508 125.515 61.8508C125.719 61.8508 125.842 61.8508 125.964 61.8101C126.086 61.8101 126.127 61.8508 126.127 61.8916C126.127 61.8916 126.127 61.9731 126.127 62.0139C125.964 62.0547 125.556 62.0547 125.393 62.0954C125.189 62.0954 124.986 62.1362 124.863 62.34C124.7 62.6254 124.863 62.7477 125.149 62.8292C125.393 62.9515 125.597 62.9107 125.76 62.87C125.842 62.8292 125.923 62.8292 126.005 62.8292C125.964 62.9107 125.964 63.033 125.964 63.1146C125.719 63.1553 125.393 63.1553 125.23 63.1553C125.026 63.1553 124.904 63.1553 124.822 63.3592C124.7 63.6445 124.782 63.8076 124.945 63.9706C125.108 64.1337 125.312 64.1745 125.515 64.1745C125.556 64.1745 125.597 64.1745 125.638 64.1745C125.638 64.2152 125.597 64.256 125.597 64.2968C125.556 64.3783 125.475 64.5006 125.312 64.6229C125.108 64.6636 124.904 64.6636 124.741 64.7044C124.782 64.5821 124.822 64.4598 124.741 64.3783C124.659 64.256 124.496 63.8891 124.415 63.8076C124.374 63.7668 124.333 63.726 124.252 63.6853C124.374 63.5222 124.456 63.3184 124.456 63.2369C124.496 63.1146 124.456 62.9515 124.415 62.87C124.578 62.7884 124.659 62.6254 124.659 62.5031C124.659 62.3808 124.578 62.2993 124.374 62.0954C124.293 62.0139 124.211 61.9324 124.129 61.8508C124.252 61.7286 124.333 61.647 124.374 61.6063C124.496 61.4432 124.578 60.9948 124.496 60.9133C124.415 60.8317 124.211 60.7094 124.007 60.6279C123.803 60.5464 123.722 60.4241 123.518 60.5464C123.314 60.6687 123.273 60.9948 123.151 61.2394C123.11 61.2801 123.11 61.3209 123.07 61.4024C123.029 61.4024 122.988 61.4024 122.947 61.4024C122.743 61.4432 122.377 61.5247 122.173 61.5655C122.173 61.484 122.132 61.4024 122.05 61.2394C121.847 60.954 121.643 60.8317 121.439 60.791C121.235 60.7502 121.031 60.791 120.868 60.8725C120.746 60.9948 120.664 61.1986 120.583 61.5247C120.461 61.8508 120.583 61.8916 120.664 62.2177C120.746 62.5439 120.787 62.9923 120.787 63.3999C120.787 63.8076 120.868 63.7668 120.909 63.9706C120.95 64.2152 120.95 64.6229 120.991 64.9898C120.991 65.0713 120.991 65.1528 120.991 65.2343C120.787 65.2343 120.542 65.6012 120.461 65.7235C120.338 65.9274 120.827 66.0904 121.276 66.1312C121.684 66.1719 122.58 66.0089 122.825 65.9681C123.07 65.8866 123.233 65.8866 123.396 65.8458C123.559 65.8051 123.722 65.642 123.926 65.6012C124.129 65.5605 124.293 65.4789 124.619 65.4789C124.945 65.4789 125.434 65.5197 125.964 65.5605C126.494 65.6012 127.065 65.6012 127.228 65.6012C127.35 65.6012 127.635 65.642 127.635 65.642C127.635 65.642 127.554 65.9274 127.431 66.0496C127.309 66.1719 127.146 66.2127 127.024 66.5388C126.942 66.8649 127.105 66.9057 127.309 67.0688C127.513 67.1911 127.391 67.1911 127.88 67.0688C128.369 66.9465 128.777 66.7019 128.981 66.5388C129.184 66.3758 129.266 66.2942 129.429 66.2127C129.592 66.1312 129.714 66.0089 129.918 65.642C130.163 65.2343 129.877 65.2343 129.755 65.1121ZM122.173 61.8101C122.173 61.7693 122.173 61.7693 122.173 61.7286C122.213 61.7693 122.254 61.8101 122.295 61.8508C122.336 61.8916 122.417 61.9324 122.499 61.9731C122.377 62.0954 122.213 62.177 122.091 62.2585C122.173 62.0954 122.173 61.9731 122.173 61.8101ZM122.05 62.9107C122.213 62.8292 122.458 62.7884 122.662 62.6661C122.784 62.5846 122.988 62.5031 123.151 62.4216C123.233 62.5031 123.314 62.5846 123.396 62.6661C123.314 62.7477 123.233 62.87 123.192 62.9515C122.784 62.8292 122.743 62.8292 122.54 62.8292C122.336 62.8292 122.091 62.9107 122.091 62.9107C122.05 62.9107 122.05 62.9107 122.01 62.9515C122.05 62.9923 122.05 62.9515 122.05 62.9107ZM122.05 63.3592C122.132 63.3999 122.213 63.4407 122.336 63.4814C122.417 63.5222 122.499 63.6445 122.621 63.726C122.499 63.8483 122.213 63.9706 122.05 64.0522C122.05 64.0114 122.05 63.9299 122.05 63.8891C122.091 63.7668 122.05 63.563 122.05 63.3592ZM123.07 64.949C122.784 65.0305 122.499 65.0713 122.254 65.1121C122.213 65.1121 122.173 65.112 122.132 65.1528C122.132 65.112 122.132 65.0713 122.132 65.0713C122.132 65.0305 122.132 64.9898 122.132 64.949C122.254 65.0305 122.377 65.0713 122.458 65.0305C122.703 64.9082 122.907 64.7859 123.151 64.7044C123.192 64.7044 123.233 64.6636 123.273 64.6229C123.396 64.7452 123.477 64.8675 123.559 64.949C123.355 64.8675 123.192 64.9082 123.07 64.949Z" fill="white"/>
<path d="M127.473 68.6994C127.962 68.8217 127.962 68.7809 128.084 68.7809C128.206 68.7402 128.329 68.6994 128.492 68.4548C128.696 68.251 128.492 68.1287 128.41 68.0064C128.329 67.9248 128.329 67.8026 128.166 67.5987C128.003 67.3949 127.758 67.2726 127.473 67.2726C127.187 67.2726 126.657 67.4764 126.494 67.4764C126.29 67.4764 125.801 67.5172 125.516 67.5172C125.475 67.5172 125.394 67.5172 125.312 67.558C125.557 67.2726 125.924 67.028 126.209 66.865C126.535 66.6611 126.576 66.6204 126.576 66.4573C126.576 66.2942 126.413 66.0089 126.168 65.8051C125.883 65.6012 125.597 65.642 125.108 65.642C124.619 65.642 124.334 65.7235 124.089 65.8051C123.885 65.8866 123.07 66.0904 122.703 66.1719C122.377 66.2535 121.725 66.4165 121.358 66.4573C120.95 66.5388 120.583 66.5388 120.42 66.7019C120.298 66.865 120.298 66.865 120.42 67.0688C120.502 67.2318 120.624 67.3134 120.991 67.4357C121.399 67.558 121.562 67.558 121.847 67.4764C122.132 67.3949 122.744 67.1095 122.988 67.0688C123.518 66.9465 123.681 66.7019 124.008 66.5796C124.334 66.4573 124.782 66.4165 124.782 66.5388C124.782 66.6611 124.701 66.8242 124.619 66.9465C124.538 67.1095 124.456 67.1911 124.415 67.2318C124.334 67.1503 124.252 67.1095 124.171 67.028C124.008 66.9465 123.763 66.865 123.6 66.9465C123.152 67.1911 123.315 67.3134 123.396 67.4764C123.478 67.558 123.518 67.6803 123.559 67.8026C123.152 67.8841 122.662 67.9656 122.377 68.0471C122.051 68.1287 121.154 68.2917 120.991 68.3325C120.787 68.3733 120.257 68.414 120.013 68.414C119.768 68.414 119.646 68.2917 119.401 68.4548C119.116 68.6586 118.993 68.7809 119.034 69.0255C119.075 69.2701 119.32 69.3109 119.523 69.4332C119.727 69.5555 120.216 69.3924 120.706 69.3109C121.154 69.2293 121.806 69.1886 122.295 69.107C122.785 69.0255 122.785 69.0255 123.111 69.0255C123.274 69.0255 123.478 68.9847 123.681 68.944C123.681 69.0255 123.681 69.107 123.681 69.1478C123.681 69.3516 123.722 69.5962 123.722 70.0039C123.722 70.4115 123.681 70.4523 123.518 70.6154C123.355 70.7784 123.07 70.8599 122.744 70.9415C122.418 71.023 121.562 70.9822 121.276 70.9415C120.991 70.9007 120.502 70.9415 120.298 70.9415C120.094 70.9415 120.053 70.9822 120.053 71.0638C120.053 71.1453 120.053 71.2676 120.135 71.3899C120.257 71.5122 120.38 71.6752 120.543 71.716C120.706 71.7568 121.195 72.0014 121.562 72.1237C121.929 72.246 122.132 72.2867 122.295 72.2867C122.459 72.2867 122.662 72.4905 123.07 72.4905C123.478 72.4905 123.845 72.4906 123.967 72.4498C124.089 72.409 124.374 72.1237 124.578 71.7975C124.823 71.4307 124.782 70.9822 124.823 70.6154C124.864 70.2485 124.823 69.107 124.823 68.7809C125.067 68.7402 125.312 68.6994 125.638 68.6586C126.25 68.6994 126.902 68.5771 127.473 68.6994Z" fill="white"/>
<path d="M3.79105 77.8307C3.79105 78.5237 3.83182 79.176 3.87258 79.7875C3.66876 79.2575 3.3834 78.6868 3.09804 78.1976L2.11968 76.4855H0.896729V81.1735H1.87509V79.7467C1.87509 78.9722 1.87509 78.3199 1.83433 77.7084H1.87509C2.11968 78.2791 2.40504 78.8499 2.69039 79.3798L3.70952 81.1735H4.81018V76.4855H3.79105V77.8307Z" fill="white"/>
<path d="M9.21278 79.1352C9.21278 78.3199 8.8459 77.6677 7.70447 77.6677C7.09299 77.6677 6.60381 77.8307 6.39999 77.953L6.60381 78.646C6.80764 78.5237 7.21529 78.4014 7.54141 78.4014C8.07136 78.4014 8.15289 78.646 8.15289 78.8499V78.8906C6.92993 78.8906 6.1554 79.2983 6.1554 80.1951C6.1554 80.7251 6.56305 81.255 7.25605 81.255C7.66371 81.255 7.98983 81.0919 8.23442 80.8473H8.27518L8.35671 81.1735H9.29431C9.25355 80.9696 9.25355 80.6843 9.25355 80.3582V79.1352H9.21278ZM8.19365 79.9098C8.19365 79.9913 8.19365 80.032 8.15289 80.0728C8.07136 80.2766 7.86753 80.4805 7.58218 80.4805C7.33759 80.4805 7.17452 80.3582 7.17452 80.0728C7.17452 79.6652 7.62294 79.5429 8.15289 79.5429V79.9098H8.19365Z" fill="white"/>
<path d="M11.9439 76.7709L10.9247 77.0155V77.7492H10.4763V78.5238H10.9247V79.9098C10.9247 80.399 11.0063 80.7251 11.2101 80.9289C11.3731 81.092 11.6585 81.2143 11.9846 81.2143C12.27 81.2143 12.5553 81.1735 12.6776 81.1328V80.3174C12.5961 80.3174 12.5146 80.3582 12.3515 80.3582C12.0254 80.3582 11.9439 80.1544 11.9439 79.7467V78.5238H12.7184V77.7492H11.9439V76.7709Z" fill="white"/>
<path d="M15.2867 77.7492H14.2268V81.1735H15.2867V77.7492Z" fill="white"/>
<path d="M14.7567 76.2817C14.4306 76.2817 14.186 76.5263 14.186 76.8117C14.186 77.097 14.3899 77.3416 14.7567 77.3416C15.1236 77.3416 15.3275 77.097 15.3275 76.8117C15.2867 76.4856 15.0829 76.2817 14.7567 76.2817Z" fill="white"/>
<path d="M18.5072 77.6677C17.4065 77.6677 16.6727 78.3607 16.6727 79.4613C16.6727 80.562 17.4473 81.2142 18.4256 81.2142C19.3225 81.2142 20.2193 80.6435 20.2193 79.3798C20.2193 78.4014 19.5263 77.6677 18.5072 77.6677ZM18.4664 80.4805C18.018 80.4805 17.7734 80.032 17.7734 79.4613C17.7734 78.9721 17.9772 78.4422 18.4664 78.4422C18.9556 78.4422 19.1594 78.9721 19.1594 79.4613C19.1186 80.0728 18.874 80.4805 18.4664 80.4805Z" fill="white"/>
<path d="M23.236 77.6677C22.6653 77.6677 22.3392 77.9938 22.1761 78.1976H22.1354L22.0946 77.7492H21.1978C21.1978 78.0346 21.2385 78.4014 21.2385 78.8499V81.1735H22.2984V79.2167C22.2984 79.1352 22.2984 79.0129 22.3392 78.9722C22.4207 78.7683 22.5838 78.5645 22.8691 78.5645C23.236 78.5645 23.3991 78.8499 23.3991 79.2983V81.1735H24.459V79.1352C24.459 78.1161 23.9698 77.6677 23.236 77.6677Z" fill="white"/>
<path d="M28.7393 79.1352C28.7393 78.3199 28.3724 77.6677 27.231 77.6677C26.6195 77.6677 26.1303 77.8307 25.9265 77.953L26.1303 78.646C26.3341 78.5237 26.7418 78.4014 27.0679 78.4014C27.5978 78.4014 27.6794 78.646 27.6794 78.8499V78.8906C26.4564 78.8906 25.6819 79.2983 25.6819 80.1951C25.6819 80.7251 26.0895 81.255 26.7825 81.255C27.1902 81.255 27.5163 81.0919 27.7609 80.8473H27.8017L27.8832 81.1735H28.8208C28.78 80.9696 28.78 80.6843 28.78 80.3582V79.1352H28.7393ZM27.7201 79.9098C27.7201 79.9913 27.7201 80.032 27.6794 80.0728C27.5978 80.2766 27.394 80.4805 27.1494 80.4805C26.9048 80.4805 26.7418 80.3582 26.7418 80.0728C26.7418 79.6652 27.1902 79.5429 27.7201 79.5429V79.9098Z" fill="white"/>
<path d="M31.3891 76.2002H30.3292V81.1327H31.3891V76.2002Z" fill="white"/>
<path d="M34.5278 77.3416H35.7915V81.1328H36.8514V77.3416H38.1559V76.4448H34.5278V77.3416Z" fill="white"/>
<path d="M41.7842 79.1352C41.7842 78.3199 41.4173 77.6677 40.2759 77.6677C39.6644 77.6677 39.1752 77.8307 38.9714 77.953L39.1752 78.646C39.379 78.5237 39.7867 78.4014 40.1128 78.4014C40.6428 78.4014 40.7243 78.646 40.7243 78.8499V78.8906C39.5013 78.8906 38.7268 79.2983 38.7268 80.1951C38.7268 80.7251 39.1345 81.255 39.8275 81.255C40.2351 81.255 40.5612 81.0919 40.8058 80.8473H40.8466L40.9281 81.1735H41.8657C41.825 80.9696 41.825 80.6843 41.825 80.3582V79.1352H41.7842ZM40.7651 79.9098C40.7651 79.9913 40.7651 80.032 40.7243 80.0728C40.6428 80.2766 40.4389 80.4805 40.1536 80.4805C39.909 80.4805 39.7459 80.3582 39.7459 80.0728C39.7459 79.6652 40.1944 79.5429 40.7243 79.5429V79.9098H40.7651Z" fill="white"/>
<path d="M44.4339 77.7492H43.374V81.1735H44.4339V77.7492Z" fill="white"/>
<path d="M43.9037 76.2817C43.5776 76.2817 43.333 76.5263 43.333 76.8117C43.333 77.097 43.5368 77.3416 43.9037 77.3416C44.2706 77.3416 44.4744 77.097 44.4744 76.8117C44.4744 76.4856 44.2298 76.2817 43.9037 76.2817Z" fill="white"/>
<path d="M49.4887 79.0945C49.4071 79.5021 49.3256 79.869 49.2848 80.2767C49.2033 79.869 49.1218 79.5021 49.0403 79.1352L48.7141 77.79H47.8581L47.4912 79.176C47.4096 79.5021 47.3281 79.9098 47.2466 80.2767C47.2058 79.869 47.1243 79.5021 47.0428 79.1352L46.7574 77.7492H45.6567L46.6351 81.1735H47.6135L47.9396 79.9913C48.0211 79.6652 48.1027 79.3391 48.1434 78.9314C48.2249 79.3391 48.2657 79.6652 48.3472 79.9913L48.6734 81.1735H49.6517L50.7116 77.7492H49.6925L49.4887 79.0945Z" fill="white"/>
<path d="M54.829 79.1352C54.829 78.3199 54.4621 77.6677 53.3207 77.6677C52.7092 77.6677 52.22 77.8307 52.0162 77.953L52.22 78.646C52.4239 78.5237 52.8315 78.4014 53.1576 78.4014C53.6876 78.4014 53.7691 78.646 53.7691 78.8499V78.8906C52.5461 78.8906 51.7716 79.2983 51.7716 80.1951C51.7716 80.7251 52.1793 81.255 52.8723 81.255C53.2799 81.255 53.606 81.0919 53.8506 80.8473H53.8914L53.9729 81.1735H54.9105C54.8698 80.9696 54.8698 80.6843 54.8698 80.3582V79.1352H54.829ZM53.8099 79.9098C53.8099 79.9913 53.8099 80.032 53.7691 80.0728C53.6876 80.2766 53.4837 80.4805 53.1984 80.4805C52.9538 80.4805 52.7907 80.3582 52.7907 80.0728C52.7907 79.6652 53.2391 79.5429 53.7691 79.5429V79.9098H53.8099Z" fill="white"/>
<path d="M58.4163 77.6677C57.8456 77.6677 57.5195 77.9938 57.3564 78.1976H57.3156L57.2749 77.7492H56.3373C56.3373 78.0346 56.378 78.4014 56.378 78.8499V81.1735H57.4379V79.2167C57.4379 79.1352 57.4379 79.0129 57.4787 78.9722C57.5602 78.7683 57.7233 78.5645 58.0087 78.5645C58.3755 78.5645 58.5386 78.8499 58.5386 79.2983V81.1735H59.5985V79.1352C59.6393 78.1161 59.1093 77.6677 58.4163 77.6677Z" fill="white"/>
<path d="M66.2024 79.176C66.2024 79.9913 65.8763 80.3989 65.3464 80.3989C64.8164 80.3989 64.4903 79.9913 64.4903 79.176V76.4855H63.4304V79.0945C63.4304 80.6028 64.1234 81.255 65.3056 81.255C66.5286 81.255 67.2623 80.562 67.2623 79.1352V76.4855H66.2024V79.176Z" fill="white"/>
<path d="M70.8903 77.6677C70.3196 77.6677 69.9935 77.9938 69.8304 78.1976H69.7896L69.7489 77.7492H68.8113C68.8113 78.0346 68.852 78.4014 68.852 78.8499V81.1735H69.9119V79.2167C69.9119 79.1352 69.9119 79.0129 69.9527 78.9722C70.0342 78.7683 70.1973 78.5645 70.4826 78.5645C70.8495 78.5645 71.0126 78.8499 71.0126 79.2983V81.1735H72.0725V79.1352C72.1133 78.1161 71.5833 77.6677 70.8903 77.6677Z" fill="white"/>
<path d="M74.763 77.7492H73.7031V81.1735H74.763V77.7492Z" fill="white"/>
<path d="M74.2332 76.2817C73.9071 76.2817 73.6625 76.5263 73.6625 76.8117C73.6625 77.097 73.8663 77.3416 74.2332 77.3416C74.6001 77.3416 74.8039 77.097 74.8039 76.8117C74.8039 76.4856 74.5593 76.2817 74.2332 76.2817Z" fill="white"/>
<path d="M78.1466 79.3391C78.0651 79.6244 78.0243 79.9098 77.9428 80.1544H77.9021C77.8613 79.869 77.7798 79.6244 77.6982 79.3391L77.2498 77.7492H76.1084L77.3313 81.1735H78.3912L79.6549 77.7492H78.5543L78.1466 79.3391Z" fill="white"/>
<path d="M82.223 77.6677C81.0408 77.6677 80.5109 78.6053 80.5109 79.5021C80.5109 80.562 81.1631 81.255 82.3453 81.255C82.7937 81.255 83.2421 81.1735 83.5682 81.0512L83.4459 80.3174C83.1606 80.3989 82.8752 80.4397 82.5084 80.4397C82.0192 80.4397 81.5708 80.2359 81.53 79.7875H83.7313C83.7313 79.7059 83.7721 79.5429 83.7721 79.3798C83.7313 78.5237 83.3237 77.6677 82.223 77.6677ZM81.4892 79.0537C81.53 78.7683 81.6931 78.3607 82.1415 78.3607C82.6306 78.3607 82.7529 78.8091 82.7529 79.0537H81.4892Z" fill="white"/>
<path d="M86.055 78.3606L85.9735 77.7492H85.0767C85.0767 78.0345 85.1174 78.3606 85.1174 78.8906V81.1734H86.1773V79.4613C86.1773 79.3798 86.1773 79.2982 86.2181 79.2167C86.2996 78.8906 86.5442 78.6868 86.9518 78.6868C87.0741 78.6868 87.1557 78.6868 87.2372 78.7275V77.7492C87.1557 77.7492 87.1149 77.7492 87.0334 77.7492C86.6257 77.6676 86.2181 77.8715 86.055 78.3606Z" fill="white"/>
<path d="M89.9276 79.0537C89.5199 78.8907 89.3569 78.8091 89.3569 78.6461C89.3569 78.483 89.5199 78.3607 89.7645 78.3607C90.0499 78.3607 90.3352 78.483 90.4983 78.5646L90.7021 77.8308C90.4983 77.7085 90.1314 77.627 89.7238 77.627C88.8677 77.627 88.3378 78.1161 88.3378 78.7276C88.3378 79.1353 88.5823 79.5022 89.3161 79.7467C89.7238 79.869 89.8053 79.9506 89.8053 80.1544C89.8053 80.3175 89.683 80.4398 89.3569 80.4398C89.0308 80.4398 88.6231 80.3175 88.4601 80.1952L88.2562 80.9697C88.5008 81.092 88.9085 81.2143 89.3569 81.2143C90.3352 81.2143 90.8244 80.7659 90.8244 80.1136C90.8652 79.6245 90.5798 79.2983 89.9276 79.0537Z" fill="white"/>
<path d="M93.3111 77.7492H92.2512V81.1735H93.3111V77.7492Z" fill="white"/>
<path d="M92.7812 76.2817C92.455 76.2817 92.2104 76.5263 92.2104 76.8117C92.2104 77.097 92.4143 77.3416 92.7812 77.3416C93.148 77.3416 93.3519 77.097 93.3519 76.8117C93.3519 76.4856 93.1073 76.2817 92.7812 76.2817Z" fill="white"/>
<path d="M96.0835 76.7709L95.0644 77.0155V77.7492H94.5752V78.5238H95.0236V79.9098C95.0236 80.399 95.1051 80.7251 95.309 80.9289C95.472 81.092 95.7574 81.2143 96.0835 81.2143C96.3689 81.2143 96.6542 81.1735 96.7765 81.1328V80.3174C96.695 80.3174 96.6135 80.3582 96.4504 80.3582C96.1243 80.3582 96.0428 80.1544 96.0428 79.7467V78.5238H96.8173V77.7492H96.0428V76.7709H96.0835Z" fill="white"/>
<path d="M99.8742 79.4206C99.8334 79.6245 99.7519 79.8691 99.7111 80.0729H99.6704C99.6296 79.9098 99.5481 79.6245 99.5073 79.4206L99.0181 77.7493H97.8359L99.0997 80.8474C99.1404 80.9289 99.1404 80.9697 99.1404 81.0105C99.1404 81.0512 99.0997 81.1328 99.0997 81.1735C98.9774 81.3366 98.8143 81.4997 98.6512 81.5812C98.4882 81.6627 98.3251 81.7443 98.2028 81.7443L98.4066 82.6411C98.6512 82.6003 99.0589 82.478 99.4258 82.1927C99.7927 81.8665 100.119 81.2958 100.608 79.9506L101.382 77.7085H100.282L99.8742 79.4206Z" fill="white"/>
<path d="M106.397 77.6677C105.296 77.6677 104.562 78.3607 104.562 79.4613C104.562 80.562 105.337 81.2142 106.315 81.2142C107.212 81.2142 108.109 80.6435 108.109 79.3798C108.109 78.4014 107.416 77.6677 106.397 77.6677ZM106.356 80.4805C105.908 80.4805 105.663 80.032 105.663 79.4613C105.663 78.9721 105.867 78.4422 106.356 78.4422C106.845 78.4422 107.049 78.9721 107.049 79.4613C107.049 80.0728 106.764 80.4805 106.356 80.4805Z" fill="white"/>
<path d="M110.066 76.4855C109.74 76.7708 109.617 77.2192 109.617 77.6269V77.7492H109.169V78.5237H109.617V81.1327H110.677V78.5237H111.37V77.7492H110.677V77.5861C110.677 77.26 110.84 76.9747 111.166 76.9747C111.289 76.9747 111.411 77.0154 111.493 77.0154L111.533 76.2001C111.37 76.1594 111.207 76.1186 110.963 76.1186C110.718 76.1186 110.351 76.2001 110.066 76.4855Z" fill="white"/>
<path d="M115.895 76.4448L114.468 81.1328H115.569L115.895 79.9098H117.24L117.607 81.1328H118.749L117.281 76.4448H115.895ZM116.058 79.1353L116.344 78.1569C116.425 77.8715 116.507 77.5454 116.547 77.2601C116.629 77.5454 116.71 77.8715 116.792 78.1569L117.077 79.1353H116.058Z" fill="white"/>
<path d="M120.991 78.3606L120.909 77.7492H120.012C120.012 78.0345 120.053 78.3606 120.053 78.8906V81.1734H121.113V79.4613C121.113 79.3798 121.113 79.2982 121.154 79.2167C121.235 78.8906 121.48 78.6868 121.888 78.6868C122.01 78.6868 122.091 78.6868 122.173 78.7275V77.7492C122.091 77.7492 122.051 77.7492 121.969 77.7492C121.602 77.6676 121.154 77.8715 120.991 78.3606Z" fill="white"/>
<path d="M124.741 76.7709L123.722 77.0155V77.7492H123.274V78.5238H123.722V79.9098C123.722 80.399 123.804 80.7251 124.007 80.9289C124.17 81.092 124.456 81.2143 124.782 81.2143C125.067 81.2143 125.353 81.1735 125.475 81.1328V80.3174C125.393 80.3174 125.312 80.3582 125.149 80.3582C124.823 80.3582 124.741 80.1544 124.741 79.7467V78.5238H125.516V77.7492H124.741V76.7709Z" fill="white"/>
<path d="M128.329 79.0537C127.921 78.8907 127.758 78.8091 127.758 78.6461C127.758 78.483 127.921 78.3607 128.166 78.3607C128.451 78.3607 128.736 78.483 128.899 78.5646L129.103 77.8308C128.899 77.7085 128.532 77.627 128.125 77.627C127.269 77.627 126.739 78.1161 126.739 78.7276C126.739 79.1353 126.983 79.5022 127.717 79.7467C128.125 79.869 128.206 79.9506 128.206 80.1544C128.206 80.3175 128.084 80.4398 127.758 80.4398C127.432 80.4398 127.024 80.3175 126.861 80.1952L126.657 80.9697C126.902 81.092 127.309 81.2143 127.758 81.2143C128.736 81.2143 129.225 80.7659 129.225 80.1136C129.266 79.6245 128.981 79.2983 128.329 79.0537Z" fill="white"/>
<path d="M50.9157 10.3237H75.4156C76.5162 10.3237 77.4131 9.46764 77.4131 8.36698C77.4131 7.26632 76.5162 6.41025 75.4156 6.41025H70.9314V3.76052V3.71976C70.9314 2.53757 69.953 1.5592 68.7708 1.5592C67.5887 1.5592 66.6103 2.53757 66.6103 3.71976V3.76052V6.32872H60.3732V3.80129C60.3732 3.80129 60.3732 3.80129 60.3732 3.76052C60.3732 2.57833 59.3949 1.59997 58.2127 1.59997C57.0305 1.59997 56.0521 2.57833 56.0521 3.76052V6.32872H50.8342C49.7335 6.32872 48.8367 7.18479 48.8367 8.28545C48.9182 9.42687 49.815 10.3237 50.9157 10.3237Z" fill="white"/>
<path d="M79.3289 41.9982C80.4703 41.9982 81.4487 40.9383 81.4487 39.7969C81.4487 38.6555 80.5111 37.7179 79.3696 37.7179H63.0228V35.3943C63.0228 34.7828 63.1859 34.6605 63.7566 34.6605H66.3248C67.4662 34.6605 67.9146 34.0082 67.9146 33.1929V32.1738C67.9146 31.3585 67.2624 30.9101 66.4471 30.9101H61.0253C59.6801 30.9101 59.1909 31.7254 59.1909 32.6222V37.8809H48.7143H48.6735C47.5321 37.8809 46.5537 38.8185 46.5537 40.0007C46.5537 41.1421 47.4913 42.1205 48.6735 42.1205H79.3696C79.2881 41.9982 79.2881 41.9982 79.3289 41.9982Z" fill="white"/>
<path d="M74.6817 46.7678C74.6817 45.5856 73.7441 44.648 72.5619 44.648H55.3183C54.1361 44.648 53.1985 45.6264 53.1985 46.7678C53.1985 47.95 54.1361 48.8876 55.3183 48.8876C55.359 48.8876 55.359 48.8876 55.3998 48.8876H72.4804C72.5212 48.8876 72.5212 48.8876 72.5619 48.8876C73.7441 48.9283 74.6817 47.95 74.6817 46.7678Z" fill="white"/>
<path d="M41.8249 28.7088H70.6866C73.7032 28.7088 75.4969 26.9559 75.4969 24.0616V16.6015H77.8613V23.8577C77.8613 26.0998 78.7988 28.0566 81.9378 28.0566H86.0143C87.1149 28.0566 88.0118 27.1597 88.0118 26.0591C88.0118 24.9584 87.1149 24.0616 86.0143 24.0616H85.9735H82.9977C82.2639 24.0616 82.0601 23.7354 82.0601 22.9609V18.1914C82.0601 14.8486 80.1033 12.6473 76.8421 12.6473H64.368V16.0716C64.368 18.1099 63.6342 18.8436 61.3921 18.8436C60.8214 18.8436 60.21 18.8436 59.4354 18.8436C58.2125 18.8436 58.1309 19.4959 58.1309 20.0666L58.0902 21.0857C58.0902 22.1456 58.9055 22.3494 59.5577 22.3494C59.5577 22.3494 65.8763 22.3494 65.9171 22.3494C67.7107 22.3494 67.9553 21.8603 67.9553 20.3927V16.6831H71.5427V22.6756C71.5427 24.673 71.0535 25.4068 69.0152 25.4068H57.3972C55.1551 25.4068 54.4621 23.7762 54.4621 22.5533V18.599C54.4621 16.8054 55.7258 16.0308 57.764 16.0308C58.0086 16.0308 59.1093 16.0308 59.3131 16.0308C60.2915 16.0308 60.5361 15.7862 60.5361 14.8486V12.6066H47.3689C46.2683 12.6066 45.3714 13.3811 45.3714 14.4818C45.3714 15.5824 46.2683 16.4385 47.3689 16.4385H50.7117V18.7213H44.0262C42.9255 18.7213 42.0287 19.4959 42.0287 20.5965C42.0287 21.6972 42.9255 22.4717 44.0262 22.4717H50.7524V24.7546H41.8249C40.7242 24.7546 39.7866 25.6106 39.7866 26.7113C39.7866 27.812 40.6835 28.7088 41.8249 28.7088Z" fill="white"/>
<path d="M55.0737 32.7445C55.0737 32.0923 55.1552 31.1955 55.3998 31.0732H44.3932C43.1703 31.0732 42.1919 32.0515 42.1919 33.2745C42.1919 34.4974 43.1703 35.4758 44.3932 35.4758H44.434H55.6444C54.9921 35.3535 55.0737 33.6414 55.0737 32.9484V32.7445Z" fill="white"/>
<path d="M82.916 35.1905C84.139 35.1905 85.1174 34.2121 85.1174 32.9892C85.1174 31.7662 84.139 30.7878 82.916 30.7878H71.461C71.7872 30.9101 71.8687 31.7662 71.8687 32.4592V32.7038C71.8687 33.3968 71.9502 35.0682 71.298 35.2313H82.8753C82.8753 35.1905 82.916 35.1905 82.916 35.1905Z" fill="white"/>
</g>
<defs>
<clipPath id="clip0">
<rect width="130" height="83" fill="white"/>
</clipPath>
</defs>
</svg>
