<svg width="64" height="174" viewBox="0 0 64 174" fill="none" xmlns="http://www.w3.org/2000/svg">
<path d="M23.2598 11.9251C22.911 10.6207 22.6298 9.29333 22.192 8.01963C21.8063 6.90399 21.7587 5.97096 22.9924 5.25738C22.3379 4.42564 21.9415 3.58929 22.8311 2.60716L23.5671 3.22099C24.2216 3.22099 24.6948 3.12278 25.1035 3.23941C26.2912 3.57855 26.938 3.26703 27.5618 2.22505C27.7723 1.86903 28.4007 1.63577 28.8647 1.58206C29.6876 1.5079 30.516 1.51819 31.3368 1.61275C31.7209 1.64805 32.0835 1.89358 32.4569 2.04397C32.188 2.29257 31.9206 2.54424 31.6502 2.78978C31.3322 3.07674 30.9097 3.30233 30.7099 3.65528C30.2644 4.44712 29.7297 4.76785 28.7786 4.62207C28.0534 4.51158 27.2822 4.70033 26.1805 4.77553L27.5433 6.26407L25.5352 7.30605C26.9564 8.61505 26.918 8.85137 25.1388 10.7404L24.2969 9.74603L23.9343 9.89949C24.4275 10.8893 24.9207 11.8776 25.4507 12.9441L26.5554 12.8336C26.474 13.2587 26.411 13.5917 26.3572 13.8725L27.5864 14.4603L26.6061 16.977L26.8028 17.1749L28.1472 15.7324C30.2121 16.3279 28.5128 18.1878 29.2672 19.3402C29.4823 19.4108 29.8649 19.4308 30.0723 19.6318C30.1772 19.7494 30.2572 19.8869 30.3074 20.0362C30.3575 20.1855 30.3769 20.3434 30.3642 20.5004C30.3381 20.7152 30.0139 21.0636 29.8203 21.0651C28.0734 21.0805 27.7139 22.4953 27.1592 23.6739C26.7782 24.4842 26.5278 25.3619 26.2189 26.1998L25.6674 26.14C25.1573 24.5839 24.6533 23.0263 24.1309 21.4733C24.0618 21.2661 23.9542 20.9669 23.8021 20.9224C23.65 20.8779 23.3981 21.0758 23.2229 21.2032C22.8465 21.4886 22.4916 21.8032 21.8063 22.3741V18.0205C20.7769 18.9965 20.4896 19.7653 20.9275 20.818C21.5421 22.2866 20.3022 23.9869 18.7642 24.1143C18.208 24.1619 17.6887 24.7282 17.1863 25.0351C17.0929 24.9845 17.003 24.9276 16.9174 24.8647C16.6101 24.5885 16.3228 24.3077 16.0247 24.0284C15.8731 24.2535 15.7195 24.478 15.5638 24.7021C15.9156 24.9353 16.2444 25.3082 16.6255 25.3711C17.5596 25.5246 18.3155 25.7394 18.5199 26.852C18.566 27.116 18.9993 27.3569 19.3035 27.5165C19.8627 27.8111 20.4573 28.0367 21.2025 28.3636C21.5743 27.9508 21.4176 27.5149 20.7093 27.1497C19.5892 26.5727 19.5631 26.2612 20.5833 25.1885C21.3085 26.4162 22.341 25.9405 23.2629 25.563C23.9312 25.2883 24.2769 25.2238 24.6118 25.9972C25.0728 27.05 26.411 27.1206 27.1423 26.1952C27.3206 25.9681 27.3897 25.5814 27.6033 25.4755C28.0642 25.2653 28.6035 25.0918 29.0951 25.1271C29.2749 25.141 29.5392 25.7901 29.5407 26.1507C29.5407 29.4547 29.553 32.7617 29.4193 36.061C29.3932 36.6994 28.7525 37.3117 28.3561 38.0053C29.4209 38.0897 29.5269 38.9169 29.5177 39.7655C29.4439 46.5775 29.3318 53.3895 29.2795 60.2031C29.2503 64.0871 29.3364 67.9726 29.3271 71.8659C29.3164 76.5065 29.298 81.1486 29.1858 85.7876C29.1674 86.5549 28.6573 87.3222 28.4329 87.9237C28.6188 88.1156 28.9814 88.3166 29.0383 88.5836C29.1565 89.1993 29.208 89.826 29.1919 90.4527C29.1658 95.2621 29.1228 100.071 29.0875 104.878C29.0475 110.227 29.0183 115.577 28.9676 120.925C28.9538 122.553 28.8862 124.18 28.8416 125.806C28.8495 125.848 28.8495 125.891 28.8416 125.932C28.5005 126.758 27.7108 127.734 27.9198 128.372C28.181 129.14 28.9845 129.767 28.8539 130.774C28.7587 131.501 28.7003 132.233 28.6127 132.962C28.5779 133.081 28.5522 133.203 28.5359 133.326C28.6188 135.063 28.7556 136.799 28.7802 138.543C28.7894 139.311 28.4944 140.066 28.4836 140.83C28.4698 141.795 28.6373 142.76 28.6695 143.727C28.7228 145.603 28.7474 147.478 28.7433 149.355C28.7433 149.648 28.5697 150.103 28.3454 150.209C26.6676 150.997 27.0056 152.408 27.2699 153.808C27.4926 153.087 27.717 152.365 27.992 151.48L29.5976 154.666C30.3381 153.76 30.1399 152.879 29.3102 152.467C29.003 152.313 28.8324 151.899 28.6004 151.604C28.8969 151.377 29.1766 150.98 29.4915 150.951C31.4075 150.766 33.3818 150.337 35.2409 150.614C38.0064 151.033 40.6476 150.294 43.3455 150.41C43.7204 150.426 44.0769 150.871 44.5578 151.196C44.9311 151.03 45.5534 150.676 46.2233 150.469C48.1423 149.873 48.5802 150.286 48.4035 152.533L46.8102 152.158C47.0729 153.875 47.3049 155.398 47.5385 156.915L48.0378 156.883C48.0378 155.944 48.004 155.003 48.0547 154.067C48.0747 153.688 48.2498 153.3 48.4111 152.949C48.5725 152.597 49.0165 152.213 48.9935 151.874C48.8905 150.369 49.9076 150.186 50.957 150.186C52.4811 150.197 54.0022 150.369 55.5248 150.441C55.8459 150.456 56.1717 150.295 56.4989 150.275C58.0353 150.18 59.5841 150.06 61.1282 150.064C61.3955 150.064 61.8964 150.607 61.8964 150.901C61.8964 152.858 61.8165 154.818 61.7105 156.773C61.6936 157.067 61.4631 157.522 61.228 157.603C59.9083 158.063 60.4399 158.958 60.8224 159.598C61.5325 160.791 61.8451 162.178 61.7151 163.56C61.6858 163.713 61.6384 163.862 61.5737 164.004H61.2004V161.261L60.698 161.195C60.1858 162.595 59.6737 163.995 59.1615 165.396C60.0834 165.676 59.9298 167.592 61.7013 167.084L60.0496 169.571L61.586 169.372V170.61L60.5182 170.512L60.2709 170.819C60.4598 170.888 60.6903 170.911 60.8286 171.037C61.0884 171.278 61.317 171.551 61.5092 171.848C61.5323 171.882 61.2019 172.246 61.1435 172.22C60.8253 172.053 60.5251 171.854 60.2478 171.626C60.1341 171.535 60.0742 171.376 59.8191 170.988C59.8268 172.284 59.2153 172.522 58.2919 172.485C57.092 172.444 55.889 172.55 54.6875 172.536C54.5507 172.521 54.4186 172.477 54.3 172.407C54.1814 172.337 54.0789 172.243 53.9991 172.131C53.3723 171.138 52.7055 171.612 52.1232 172.096C51.1905 172.863 49.8185 173.033 48.6017 172.402C48.6293 172.327 48.637 172.208 48.6877 172.186C49.1241 171.994 49.9276 171.858 49.9506 171.635C50.0462 170.476 50.0518 169.312 49.9675 168.152C49.946 167.731 49.7325 167.32 49.5066 166.565L51.822 167.639L50.9294 169.23C51.1629 169.626 51.5301 170.254 51.885 170.859L53.8255 169.751C53.8255 169.039 53.9653 168.479 53.7917 168.041C53.549 167.427 53.1664 166.556 52.6778 166.428C51.6453 166.157 50.5053 166.298 49.4098 166.275L49.4406 166.31C49.3991 165.934 49.4313 165.268 49.2992 165.236C48.8385 165.124 48.3561 165.141 47.9041 165.284C47.1144 165.54 46.3861 166.028 45.5857 166.195C45.2046 166.275 44.5501 165.948 44.3196 165.604C44.0723 165.237 44.1752 164.633 44.126 164.133C44.5301 164.301 44.9219 164.522 45.3429 164.624C45.6812 164.68 46.026 164.687 46.3662 164.642C46.446 163.333 47.6183 163.508 48.2698 163.506C49.6695 163.506 49.6987 162.893 49.3453 161.88C49.2829 161.619 49.2438 161.354 49.2285 161.086C48.8337 161.062 48.4603 161.086 48.1131 161.005C47.2158 160.776 46.9961 161.237 47.288 161.917C47.666 162.79 47.1067 163.186 46.5382 163.298C45.9698 163.41 45.3229 163.144 44.7114 163.049C44.9096 162.564 45.0894 162.07 45.3137 161.596C45.495 161.217 45.7301 160.862 46.0681 160.276L44.1844 160.606V162.857L42.4943 162.217C41.7338 163.081 40.792 163.815 40.328 164.777C39.9009 165.666 39.9884 166.801 39.844 167.868C38.3967 167.986 38.0433 166.448 37.1046 165.793L36.8157 166.02C36.9693 166.352 37.0308 166.774 37.2766 166.998C38.0879 167.73 38.6456 168.485 38.6164 169.689C38.5964 170.559 37.9265 172.204 36.9263 172.709C36.8326 172.049 36.7589 171.426 36.6452 170.81C36.6129 170.63 36.47 170.469 36.3778 170.299C36.1873 170.415 35.9169 170.487 35.8262 170.658C35.6188 171.064 35.6081 171.614 35.3223 171.925C34.9797 172.295 34.4312 172.478 33.9718 172.742C33.8089 172.34 33.6384 171.942 33.4878 171.537C33.4415 171.317 33.31 171.125 33.1221 171.001C32.9915 171.308 32.8379 171.615 32.7334 171.934C32.38 173.022 31.8116 173.162 30.9235 172.502C29.9878 171.81 28.9876 172.204 28.118 172.682C27.0425 173.274 26.3772 173.053 26.262 171.914C27.7124 171.81 28.0273 171.345 27.7538 169.766C27.6647 169.253 27.6278 168.733 27.5679 168.216L28.1103 168.087L29.0444 170.543C29.4132 170.289 29.8803 170.13 30.0093 169.826C30.0907 169.629 29.6467 169.238 29.49 168.905C29.1535 168.205 28.8508 167.489 28.4498 166.588L25.7841 167.648C27.4189 169.613 25.1696 170.475 25.1511 171.899L24.8438 171.96L21.2993 168.169C21.6511 167.105 22.0675 165.989 22.364 164.843C22.4255 164.605 22.0429 164.254 21.8248 163.991C22.3026 165.88 20.7216 167.139 20.4988 168.871L19.2958 168.388C18.9885 168.95 18.715 169.47 18.4784 169.91C18.9685 170.064 19.7767 170.119 19.8366 170.361C20.0148 171.087 20.1024 171.974 19.8182 172.619C19.6645 172.97 18.6812 172.959 17.9099 173.151L18.2633 170.915C17.1248 171.753 16.3336 172.694 15.3579 172.958C14.3377 173.233 13.1424 172.855 12.0239 172.763V172.303L12.7921 171.942C12.7383 171.809 12.683 171.675 12.6277 171.54C12.2774 171.716 11.8272 171.809 11.5983 172.085C11.0452 172.749 9.29363 173.263 8.71593 172.74C7.96769 172.062 8.8035 171.56 9.14306 171.205C10.3507 169.926 10.4552 169.567 9.42883 167.958C9.47069 168.31 9.49274 168.663 9.4949 169.017C9.4592 169.245 9.3968 169.468 9.30899 169.682C9.05855 169.59 8.6007 169.513 8.59455 169.404C8.55614 168.848 8.4194 168.004 8.71439 167.779C9.49644 167.179 9.34279 166.746 8.79736 166.12L7.99073 166.841C7.6604 165.767 7.4453 164.829 6.20694 164.504C5.43872 164.301 4.99623 161.462 5.53398 160.796C5.71221 160.575 6.15777 160.571 6.48042 160.466C6.54427 160.746 6.58944 161.029 6.61563 161.314C6.61563 161.53 6.54342 161.749 6.47889 162.101C7.83094 160.901 7.7741 160.753 5.63385 159.233C5.45562 155.881 5.28201 152.634 5.09763 149.184L6.41436 149.698C6.32832 149.407 6.33292 149.158 6.21308 149.06C5.93062 148.859 5.63205 148.682 5.32042 148.53L4.87332 148.701C4.87332 146.335 4.89943 143.967 4.87332 141.602C4.82722 138.137 4.69048 134.673 4.68126 131.208C4.66897 126.873 4.79188 122.536 4.7673 118.201C4.74579 114.481 4.5522 110.761 4.5184 107.042C4.49074 103.913 4.62595 100.784 4.60905 97.6545C4.59676 95.1884 4.40931 92.7239 4.39395 90.2594C4.35093 83.2739 4.35554 76.2947 4.34171 69.3047C4.33249 64.503 4.34171 59.7013 4.30637 54.8996C4.28025 51.2166 4.16502 47.5412 4.15273 43.8613C4.12507 37.7613 4.11125 31.6614 4.16195 25.5614C4.18192 23.2596 4.42161 20.973 4.50611 18.6788C4.53837 17.8486 4.35247 17.0107 4.38012 16.179C4.39241 15.7815 4.66282 15.3933 4.81647 14.9989C5.19136 15.2782 5.61541 15.513 5.92423 15.8521C6.13012 16.0793 6.1716 16.4552 6.32524 16.865C7.10421 16.1176 7.69113 16.2511 8.33643 17.0445C8.64372 17.4159 9.31206 17.4849 9.81909 17.6906L10.0465 17.3177L8.48085 16.09C8.90184 15.1524 9.24907 14.3774 9.66544 13.452C10.7686 13.917 10.4475 15.3135 11.0621 16.1406C11.9732 17.3606 9.82216 17.9699 10.3922 19.0303C12.2528 18.797 13.8983 18.1908 13.465 15.5636H13.8768L15.0829 16.8481L17.6687 14.6444C18.1972 15.2199 18.4815 15.9074 17.7332 16.5949C16.1968 18.0005 16.1968 18.6251 17.9345 20.2671C18.4154 19.6088 19.4617 19.2742 18.9009 18.1187C18.834 18.1128 18.7666 18.1128 18.6997 18.1187C18.2295 18.2584 17.8577 19.285 17.2907 18.4256C16.7561 17.6123 17.5289 17.198 18.102 16.9018C19.5923 16.1345 19.6077 16.159 20.1439 14.425C20.3267 14.4664 20.5219 14.5677 20.7016 14.5431C22.2381 14.339 22.4762 14.8761 21.6773 16.1222C21.6204 16.2097 21.9845 16.7652 22.1505 16.7606C23.0723 16.7345 23.2767 17.221 23.2874 18.0174C23.2874 18.266 23.6669 18.7356 23.8313 18.7187C25.6305 18.533 25.0251 20.0584 25.3509 20.8671C25.5552 21.372 25.4891 21.9859 25.5475 22.5874C27.5111 21.8201 27.6002 20.9515 26.4248 19.5075C25.2786 18.1018 24.449 16.4383 23.5256 14.8593C23.3873 14.6245 23.3627 14.092 23.5148 13.9585C24.5043 13.0884 23.8021 12.5129 23.2321 11.8929L23.2598 11.9251ZM54.7766 164.931L55.471 166.005L54.3387 170.991L54.6275 171.118L55.4941 170.131L57.0797 171.555C57.2902 170.829 57.4285 170.318 57.5867 169.814C57.745 169.309 57.9201 168.813 58.2013 167.994C56.9721 168.795 56.6126 168.057 56.293 167.358C56.1962 167.143 56.3115 166.833 56.3299 166.566C56.5868 166.63 56.8389 166.711 57.0843 166.81C57.5944 167.059 58.0891 167.341 58.59 167.608C58.5654 166.995 58.3718 166.674 58.315 166.336C58.2133 165.713 58.1538 165.083 58.1367 164.452C58.1199 163.95 58.1844 163.445 58.2136 162.957C57.977 162.63 57.3962 162.19 57.4254 161.792C57.5084 160.643 57.1104 159.922 56.0149 159.474L55.5817 160.038C54.3126 161.7 52.9912 161.659 51.8189 159.916C51.5224 159.474 51.2966 158.967 50.9294 158.596C50.7143 158.378 50.1688 158.177 49.9768 158.289C49.4083 158.642 48.9397 159.157 48.3589 159.67L50.4331 161.205C50.5867 160.717 50.7173 160.334 50.8418 159.952L51.1952 159.823C51.5024 161.769 52.5518 163.005 54.331 163.648C54.6014 163.746 54.6383 164.489 54.7812 164.934L54.7766 164.931ZM34.1623 159.025L33.7705 160.671L33.3941 160.649C33.1974 160.266 33.0018 159.884 32.8072 159.503L32.5122 159.603C32.6074 160.104 32.6305 160.635 32.8194 161.094C32.9347 161.367 33.3188 161.527 33.5877 161.737C33.769 161.495 34.0716 161.268 34.1054 161.005C34.1899 160.354 34.1515 159.688 34.1608 159.029C33.053 156.509 32.3032 156.628 30.8528 157.508C31.0357 158.158 31.2216 158.826 31.5058 159.843L29.6897 158.89L29.4224 159.118C29.7297 159.535 30.0677 159.94 30.3581 160.373C30.5932 160.723 31.0418 161.226 30.9389 161.447C30.6101 162.165 30.0662 162.787 29.8111 163.152L27.611 162.727C27.3713 161.984 27.0394 160.953 26.7075 159.92L26.4187 159.945C26.3767 160.74 26.3347 161.534 26.2927 162.328L25.9854 162.34L23.5532 158.874C23.3827 159.157 23.183 159.487 22.9832 159.83L21.7725 158.318C21.5067 159.655 21.4191 159.711 19.9872 158.874C20.9428 160.038 21.0396 160.921 19.5263 161.413C20.5203 162.191 21.1149 161.829 21.6957 160.612C21.9769 161.686 22.1643 162.402 22.3502 163.115C24.2677 162.623 24.5919 162.808 24.7947 164.65C24.8515 165.161 24.6011 165.699 24.5304 166.232C24.5068 166.468 24.5042 166.705 24.5227 166.941C25.6074 166.542 26.5477 166.158 27.5111 165.853C29.1535 165.333 29.5899 166.487 29.7666 167.848L30.9803 165.01L31.5719 166.045C32.695 165.54 32.9086 166.853 33.6921 167.028L33.3756 164.697L33.8151 164.507C34.3958 165.339 35.0688 166.123 35.5236 167.019C35.8155 167.595 35.6895 168.205 34.7845 168.391C33.8166 168.589 33.6153 169.686 34.5126 170.797C34.445 169.051 35.459 168.58 36.765 168.393C36.9186 168.37 37.0385 168.01 37.1722 167.808C36.9524 167.743 36.7343 167.67 36.5115 167.618C36.3578 167.584 36.2042 167.582 35.8017 167.539C36.2488 165.084 36.6805 162.728 37.1844 160.008L39.9608 163.109C39.887 162.724 39.7948 162.342 39.7411 161.943C39.5075 160.229 37.481 160.089 36.8495 158.697C36.7957 158.579 36.0813 158.671 35.7371 158.823C35.625 158.874 35.6834 159.437 35.754 159.731C35.8339 160.064 36.215 160.46 36.1243 160.678C35.6342 161.805 35.0319 162.883 34.4803 163.958L32.5967 162.834C32.019 164.545 31.2723 164.974 29.1428 164.73L30.9558 163.195C31.0433 161.525 32.0589 158.883 32.9055 158.157C33.3403 158.453 33.7505 158.735 34.1623 159.025ZM10.3553 152.844L10.595 152.976C10.7916 152.797 10.9591 152.546 11.1896 152.448C12.4525 151.913 12.4879 151.733 11.5844 150.69C11.2787 150.355 11.0482 149.959 10.9084 149.528C10.847 149.313 11.145 148.999 11.2802 148.73C11.48 148.905 11.7304 149.048 11.8641 149.264C12.03 149.534 12.0991 149.866 12.2098 150.169C12.4203 149.543 12.4356 148.991 12.4894 148.441C12.535 148.152 12.5981 147.866 12.6784 147.584C12.4141 147.607 12.1498 147.648 11.8856 147.65C11.6213 147.651 11.2203 147.708 11.1358 147.576C11.0773 147.452 11.0496 147.317 11.055 147.18C11.0603 147.044 11.0986 146.91 11.1665 146.792C11.5353 146.307 11.9993 145.894 12.494 145.38C12.4295 145.323 12.2036 145.012 12.1068 145.047C10.9238 145.486 10.8777 144.433 10.489 143.853L9.41347 142.269L8.89262 142.673C9.16189 143.009 9.44911 143.33 9.75302 143.635C10.8654 144.643 10.8085 145.105 9.62089 145.985C9.12462 146.351 8.7989 146.948 8.39174 147.446C8.88647 147.817 9.28441 147.995 9.49951 148.302C10.0021 149.043 10.4638 149.812 10.8823 150.604C11.208 151.201 11.5476 151.831 10.5842 152.244C10.4475 152.301 10.4321 152.635 10.3553 152.844ZM13.3421 142.731C13.6894 144.716 13.9982 146.486 14.3562 148.535C14.4115 148.653 14.6143 149.083 14.8171 149.513L13.399 149.984C13.5034 150.054 13.6678 150.18 13.8461 150.281C15.2919 151.104 15.4624 151.689 14.8048 153.179C14.5851 153.677 14.539 154.253 14.3976 154.867H15.825C15.825 153.572 16.1768 152.201 15.7359 151.168C15.1981 149.915 15.1597 149.02 16.0432 148.222C15.6268 147.996 15.2335 147.878 15.0015 147.617C14.8786 147.479 14.9462 147.037 15.0798 146.829C15.5408 146.117 16.0616 145.448 16.5978 144.711L15.4731 144.326L14.1779 145.415V142.274L13.3421 142.731ZM22.9095 56.8546L23.3704 57.0081C23.9573 56.0704 24.5519 55.1405 25.1143 54.1906C25.1757 54.0878 25.0482 53.8837 25.0159 53.7179C24.8623 52.9875 24.7271 52.2555 24.5826 51.525C24.2024 51.0914 23.9056 50.5914 23.7069 50.0503C23.3996 49.2508 23.1507 48.4313 22.8373 47.5075L20.674 49.4088C23.713 50.1899 20.9336 51.3378 21.1825 52.2739C21.6173 52.1557 22.0583 52.0314 22.5023 51.9163C22.9463 51.8012 23.3704 51.7015 23.8052 51.5941C23.922 52.2371 24.1417 52.8831 24.1125 53.5215C24.0971 53.9312 23.6731 54.3118 23.5225 54.7369C23.2844 55.4259 23.1123 56.1456 22.9095 56.8546ZM16.0923 69.7451C15.0168 70.4034 14.7341 71.4101 15.2688 72.3263C15.8265 73.2823 15.5761 73.9529 15.1152 74.7294C14.8955 75.0946 14.7157 75.4844 14.5528 75.7959L16.6332 76.7167C16.8329 75.0547 17.0526 73.2132 17.2738 71.3702L17.5904 71.4024L16.0923 69.7451ZM17.2185 143.497C17.2185 142.576 17.4905 141.533 17.1709 141.298C15.868 140.345 16.0539 139.035 15.8465 137.739C15.6713 136.624 15.1259 135.562 14.7495 134.472C14.6373 136.007 14.9631 137.435 14.7664 138.789C14.4699 140.784 15.0829 142.477 17.2185 143.503V143.497ZM16.9543 123.055C17.0759 122.75 17.2343 122.462 17.426 122.196C17.5796 122.014 17.9453 121.85 18.1358 121.915C18.3263 121.979 18.5629 122.326 18.5767 122.559C18.6274 123.465 18.5967 124.375 18.5967 125.283C19.0976 124.516 19.7168 124.045 19.4079 122.839C18.9808 121.17 17.2062 120.537 17.1033 118.792C16.7576 119.252 16.3796 119.667 16.415 120.052C16.5102 121.115 16.7807 122.153 16.9543 123.061V123.055ZM9.67927 153.831L8.03222 155.221L7.7111 153.926C7.02125 154.847 6.62177 155.634 7.64811 156.309L9.04933 155.082L9.41193 155.359C9.26749 155.715 9.15339 156.082 9.07084 156.457C9.06459 156.567 9.08268 156.677 9.12383 156.78C9.16498 156.883 9.22819 156.975 9.30899 157.05C9.415 157.139 9.82984 157.08 9.85289 157.006C10.048 156.404 10.3138 155.778 10.2908 155.164C10.2677 154.686 9.86825 154.225 9.67927 153.831ZM16.5932 164.498C15.0937 165.504 15.0983 165.594 16.584 167.673C18.0513 167.041 18.735 165.656 18.2479 164.343C17.5381 166.031 17.5381 166.031 16.7115 166.207C16.6731 165.684 16.6393 165.173 16.5932 164.498ZM23.5671 145.5C25.5952 145.685 25.9885 145.263 25.3463 143.769C24.9683 142.886 24.4244 142.071 23.9435 141.237C23.9082 141.177 23.7238 141.203 23.3796 141.163C23.5548 141.884 23.5809 142.575 23.8836 143.11C24.3737 143.973 24.8899 144.732 23.5686 145.5H23.5671ZM14.8786 32.8185C16.0462 33.1929 16.9005 34.1351 17.4751 33.0916C18.0252 32.088 17.3461 31.1105 16.4918 30.357C15.8542 31.1135 17.2078 32.7402 14.8786 32.8185ZM11.6674 53.0657L11.7873 54.011L9.60706 54.9701C10.4567 55.2203 10.9898 55.5042 11.4999 55.4904C11.9824 55.4766 12.4556 55.1451 12.8366 54.9916L11.6674 53.0657ZM33.9549 153.305C33.3403 153.638 32.7442 153.806 32.4077 154.201C32.1004 154.561 32.082 155.168 31.936 155.666L32.2894 155.758L34.677 154.561L33.9549 153.305ZM22.5945 37.5388C23.9389 37.5388 24.7686 37.2181 24.7655 36.0871C24.7655 35.8876 23.859 35.6912 23.3704 35.4932C23.1246 36.1424 22.8787 36.7915 22.5945 37.5388ZM15.7528 22.4048C15.7758 22.0472 15.8112 21.5071 15.8465 20.9531C15.3487 20.9193 14.8647 20.9347 14.4069 20.8365C14.1318 20.7766 13.8937 20.5403 13.6387 20.3761C13.5861 20.7048 13.563 21.0376 13.5695 21.3705C13.6119 21.6387 13.6829 21.9016 13.7815 22.1547L15.7528 22.4048ZM58.9142 156.028C58.9572 155.855 59.0463 155.671 59.0064 155.637C58.1168 154.881 57.2118 154.139 56.313 153.4C56.1425 153.78 56.1425 153.78 56.8876 155.51L58.9142 156.028ZM16.3919 38.0575C13.9459 39.342 13.9336 39.3542 14.1825 40.3226C15.4117 39.1179 15.4762 39.1195 16.9742 40.3855C16.7837 39.6182 16.5932 38.877 16.3919 38.0575ZM12.9841 67.9051C13.1255 67.368 13.4236 66.8417 13.3406 66.3859C13.253 65.904 12.8013 65.4882 12.5078 65.0447C12.2282 66.1219 11.4538 67.147 12.9841 67.9051ZM9.00939 31.4818C9.21988 30.2695 9.29209 29.2751 8.18432 28.5585C7.5928 29.7109 7.88165 30.8695 9.00939 31.4818ZM22.6836 157.419L23.7207 155.938L20.6878 155.12L22.6836 157.419ZM18.1742 37.5557L17.936 37.8089C18.2433 38.0713 18.5107 38.4381 18.8656 38.5593C19.0807 38.633 19.5693 38.4059 19.6876 38.1772C20.1132 37.3716 20.4343 36.5107 20.7953 35.6712L20.4681 35.4779C20.147 36.0672 19.7106 36.6242 19.5309 37.2534C19.2236 38.323 18.8072 38.2739 18.1742 37.5557ZM12.0008 132.977C11.9409 132.824 11.8042 132.451 11.6136 131.945C11.2019 132.948 10.5735 133.071 9.84367 132.549L8.8496 133.88C9.57172 133.826 10.1233 133.871 10.6196 133.726C11.1158 133.582 11.5122 133.252 12.0008 132.977ZM31.8054 167.506C31.3445 168.173 30.9988 168.488 30.9266 168.856C30.8544 169.224 31.0234 169.652 31.1878 170.01C31.2369 170.117 31.7747 170.163 31.8269 170.079C32.0462 169.76 32.1795 169.39 32.2141 169.005C32.2218 168.634 32.019 168.248 31.8039 167.51L31.8054 167.506ZM13.6571 61.4798L15.5945 61.9786C15.6652 61.9064 15.7359 61.8328 15.8081 61.7607L14.4606 59.7872L13.6571 61.4798ZM25.8118 29.5038C25.4354 29.0158 25.0313 28.4909 24.5642 27.8817L23.5271 29.5038H25.8118ZM12.8074 127.929C12.6735 128.389 12.5642 128.856 12.4802 129.328C12.4402 129.6 12.4679 130.063 12.6169 130.139C12.9042 130.283 13.2991 130.214 13.6494 130.232C13.6586 129.891 13.7785 129.5 13.6494 129.221C13.4189 128.714 13.041 128.276 12.8074 127.929ZM14.1902 28.072C13.1393 28.3559 13.8829 30.4675 12.0715 29.7723L12.1084 30.1391L14.0135 30.4982C14.0858 29.5206 14.1349 28.85 14.1918 28.072H14.1902ZM20.7201 120.914L21.141 120.623C20.7339 119.932 20.3544 119.223 19.9027 118.565C19.7874 118.396 19.4417 118.385 19.2036 118.302C19.2558 118.579 19.2451 118.892 19.3757 119.123C19.5877 119.496 19.895 119.812 20.1577 120.156C20.3498 120.412 20.5342 120.667 20.7216 120.925L20.7201 120.914ZM11.4723 104.068C10.6549 104.47 10.7317 105.149 11.1819 105.571C11.6321 105.993 12.368 106.173 12.8581 106.402C12.4802 105.766 12.01 104.965 11.4723 104.068ZM20.8599 128.555L19.7291 127.677L18.5906 129.021C18.6551 129.15 18.7196 129.278 18.7826 129.407L20.8599 128.555ZM58.2028 157.262L57.7173 157.551L58.7636 159.085C59.1242 158.643 59.4827 158.202 59.8391 157.761L59.541 157.506L58.7959 158.163L58.2028 157.262ZM15.0291 51.3762L16.4319 50.1976L14.794 48.8349C14.8908 49.837 14.9631 50.6181 15.0322 51.3685L15.0291 51.3762ZM19.7583 44.825C20.5265 44.0854 20.571 42.0229 19.9518 41.1313C19.8935 42.296 19.8305 43.5191 19.7613 44.8174L19.7583 44.825ZM19.3665 159.329L17.3691 158.151C17.512 158.886 17.6564 159.635 17.764 160.193L19.3665 159.329ZM20.7016 32.8798C20.336 32.022 20.1547 31.3361 21.3823 31.1366C21.4898 31.1197 21.5359 30.7545 21.6189 30.5504C21.4453 30.4905 21.1579 30.337 21.1149 30.3877C20.654 30.9509 20.2269 31.5448 19.7752 32.154L20.7016 32.8798ZM11.6367 83.5717L11.7427 83.2647C10.2969 83.3 10.4951 82.2442 10.4337 81.3603L10.0895 81.4585C10.1663 82.3041 10.2431 83.1466 10.3338 84.1932L11.6367 83.5717ZM22.3057 103.431L21.6803 102.849L20.5357 104.844L20.7462 104.913L22.3057 103.431ZM20.8015 149.411C20.7139 149.485 20.6248 149.565 20.5357 149.629L21.2271 151.508L22.3195 150.34L20.8015 149.411ZM23.5348 109.345L22.7205 109.3V111.564L22.9832 111.581C23.1553 110.88 23.3274 110.183 23.5348 109.346V109.345ZM20.8645 145.171L21.3254 145.188C21.3033 144.562 21.2468 143.938 21.1564 143.318C21.1287 143.164 20.7493 143.08 20.4066 142.897L20.8645 145.171ZM8.09828 19.8712C6.53266 19.7592 6.97976 21.125 6.39131 21.6943L6.76927 21.9782L8.09828 19.8712ZM23.9235 164.225L23.4795 164.203V166.979H23.647L23.9235 164.225ZM12.9703 165.825L13.6417 165.775L13.2914 163.674L12.706 163.75C12.789 164.443 12.8745 165.135 12.9626 165.825H12.9703ZM27.9628 155.586V158.692C28.3546 157.69 29.1443 156.688 27.9628 155.586ZM9.18761 162.308C9.26136 163.206 9.31821 163.901 9.37506 164.599H10.6887C10.1402 163.769 9.69463 163.084 9.18761 162.308ZM7.78178 129.672L8.99556 130.174C9.07238 129.488 9.13384 128.946 9.19376 128.417L8.88647 128.334L7.78178 129.672ZM17.0925 125.961L17.3184 125.616C17.1135 125.219 16.9087 124.822 16.7038 124.425L16.3151 124.453C16.2429 124.83 16.0278 125.263 16.1461 125.567C16.2352 125.785 16.7622 125.836 17.0925 125.96V125.961ZM12.176 33.4998L12.6891 33.2343L11.5967 31.5325L11.1773 31.7949L12.176 33.4998ZM23.8421 153.008C23.8974 152.918 23.9542 152.829 24.0096 152.74C23.9696 152.241 23.9573 151.738 23.8713 151.248C23.8452 151.144 23.7985 151.047 23.7338 150.961C23.6691 150.876 23.5878 150.804 23.4949 150.751C23.415 150.707 23.0416 150.977 23.0554 151.015C23.2982 151.686 23.5763 152.345 23.8467 153.007L23.8421 153.008ZM10.4751 25.4586V27.3615L11.5814 26.4975L10.4751 25.4586ZM12.0561 140.706H11.7027L12.0531 143.976L12.3496 143.957C12.2523 142.871 12.155 141.786 12.0577 140.703L12.0561 140.706ZM9.16149 44.4874L9.46878 44.5058C9.52563 44.1805 9.74226 43.7032 9.60706 43.5605C9.32282 43.2613 8.85267 43.1385 8.21352 42.8209L9.16149 44.4874ZM12.7752 121.602H13.021L13.5603 119.872H12.6861L12.7752 121.602ZM19.5693 145.312C19.514 146.284 19.4771 146.927 19.4156 147.886L20.5188 147.004L19.5693 145.312ZM19.6215 88.7631C18.5829 89.0578 18.5583 89.3018 19.4679 90.9285C19.5232 90.0798 19.5708 89.4338 19.6215 88.7631ZM54.984 152.83C54.9517 152.12 54.9318 151.684 54.9072 151.142L53.549 151.515C54.1021 152.026 54.4509 152.345 54.984 152.83ZM40.2128 158.307C40.1636 159.042 40.1359 159.447 40.0991 160.011L41.6631 159.386L40.2128 158.307ZM26.0699 151.801C26.2036 151.061 26.3019 150.512 26.4018 149.959L26.0945 149.798L25.2203 150.464L26.0699 151.801ZM13.0456 118.172C14.0811 116.693 14.0811 116.693 13.1255 116.364C13.0978 116.993 13.0717 117.583 13.0456 118.172ZM18.821 93.6922C19.282 92.3894 19.1621 92.2282 17.7716 92.2574L18.821 93.6922ZM15.9494 162.583L16.7315 164.311L17.4106 162.583H15.9494ZM39.3032 156.886C40.4094 156.579 40.4478 156.407 39.9485 154.692L39.3032 156.886ZM23.2629 27.9953L23.3474 27.3431L22.2872 27.1175L22.1336 27.9953H23.2629Z" fill="#E7E7E7"/>
<path d="M63.1622 5.96625C63.0762 5.83121 63.0193 5.64552 62.8949 5.5734C62.4954 5.34014 62.0714 5.14832 61.6581 4.94115C61.5398 5.34321 61.2524 5.7821 61.3323 6.13966C61.6396 7.52078 61.6873 7.49316 60.392 7.28599C60.2138 7.25683 59.8435 7.45019 59.8282 7.57142C59.7944 7.87066 59.8144 8.29728 60.0018 8.46915C60.2138 8.66711 60.7178 8.80676 60.9406 8.68706C61.4384 8.42004 61.801 7.91056 62.2911 7.62513C62.6952 7.39034 63.2037 7.33816 63.6662 7.20466C63.7046 7.66503 63.9074 8.20367 63.7461 8.58578C63.4634 9.25486 63.3174 9.79503 63.8121 10.4273C63.9658 10.6222 63.9842 11.015 63.9151 11.2774C63.3481 13.4258 64.1041 15.5497 63.932 17.6797C63.8444 18.7539 63.763 19.8619 63.4357 20.8778C63.2821 21.3719 62.5615 21.6896 61.8809 22.2712C62.1451 22.4661 62.4954 22.9433 62.878 22.9602C63.5725 22.994 63.7599 23.2809 63.7553 23.8809C63.7445 25.0933 63.7292 26.3056 63.7369 27.5179C63.7369 28.365 63.3697 28.7072 62.5077 28.6719C59.6669 28.5507 56.8229 28.4417 53.9821 28.3972C52.7929 28.3788 52.1737 28.0381 52.5778 26.6509C51.9048 27.6008 51.3563 28.6458 50.0304 28.4832C45.5578 27.9445 41.0714 28.2545 36.5897 28.1947C34.7987 28.1806 33.0105 28.0494 31.2367 27.8018C30.7758 27.7327 30.1474 27.013 30.0629 26.5112C29.92 25.6841 30.1566 24.7925 30.2457 23.8058C30.1042 23.7384 29.9761 23.6459 29.8678 23.5326C29.5267 23.1045 29.2209 22.6487 28.9014 22.2037C29.6035 21.909 30.1582 21.1878 31.1138 21.6942C31.4826 21.8906 32.0649 21.6834 32.9207 21.6435C31.5471 20.6706 31.1092 19.8204 31.9988 18.6127C32.1801 18.3703 31.9374 17.4234 31.6685 17.3068C30.2765 16.7052 31.2874 16.0791 31.587 15.4975C31.7115 15.2566 31.9973 15.0801 32.2416 14.9236C33.0098 14.4325 33.5183 14.7011 33.5552 15.6341C33.5721 16.0362 33.5183 16.4398 33.4891 16.9815L34.4156 16.5579C34.5047 15.7108 34.5877 15.0847 34.6276 14.4571C34.6284 14.1385 34.6089 13.8202 34.5693 13.5041C34.5524 13.2647 34.4371 12.878 34.5385 12.8105C35.5894 12.103 35.021 10.969 35.3221 10.1188C35.9013 8.49063 36.834 6.9714 38.6869 5.69923C38.5886 7.08035 38.5532 8.13461 38.3965 9.16125C38.3765 9.29936 37.7466 9.34386 37.2964 9.68454C37.7574 9.78275 38.2459 10.0114 38.6884 9.94695C39.24 9.86715 39.7547 9.54643 40.6059 9.19808C40.4523 9.79196 40.4523 10.2186 40.2494 10.4411C39.3276 11.4248 38.3489 12.3486 37.3886 13.2954L43.1303 14.2346L43.3868 14.609L41.9902 15.1814L42.2622 15.5205L44.3164 16.426C44.3863 16.3278 44.4499 16.2253 44.5069 16.119C43.4452 15.2367 43.7971 13.8862 43.4222 12.7798C43.3177 12.4729 43.4806 12.0616 43.5482 11.7056C43.7187 10.8155 43.3116 10.4687 42.4404 10.705C41.9479 10.8148 41.4454 10.8739 40.9408 10.8815C40.9239 10.8815 40.7964 10.3843 40.8671 10.3367C41.3495 10.0114 41.8688 9.73978 42.382 9.46049C42.5599 9.39033 42.7069 9.25923 42.7968 9.09066L42.0394 8.85893C41.663 8.74537 41.0115 8.70548 40.9639 8.50598C40.7964 7.85839 40.6228 7.04506 40.8871 6.51102C41.1006 6.0706 41.918 5.85883 42.5095 5.70844C42.6893 5.6624 43.0381 6.13045 43.2547 6.40667C43.519 6.74121 43.7079 7.13253 43.9584 7.48088C44.2349 7.86453 44.702 8.18372 44.8065 8.60266C45.0231 9.46202 45.4134 9.42366 46.0833 9.1413C46.4781 8.97403 47.2049 8.81136 47.3447 8.98784C47.4762 9.18661 47.5632 9.41139 47.5998 9.64684C47.6364 9.88228 47.6217 10.1228 47.5567 10.3521C47.3739 10.8953 46.9068 11.3434 46.5611 11.8314L46.2154 11.6488C46.2 11.3419 46.1847 11.0457 46.1601 10.524C45.8374 10.7618 45.4165 10.9306 45.418 11.0964C45.4154 11.753 45.4986 12.4071 45.6654 13.0422C45.9004 13.8878 46.495 13.7573 47.1665 13.5225C47.3662 13.4519 47.7365 13.7558 47.9792 13.9491C48.1916 14.1366 48.3874 14.342 48.5646 14.563C49.1945 13.2417 49.4742 11.5936 50.4375 10.9199C51.5453 10.128 51.7911 9.05383 52.4041 8.00724C52.5832 8.15435 52.775 8.2853 52.9772 8.39856C53.1872 8.46987 53.4025 8.52477 53.621 8.56276C53.6456 8.29728 53.7915 7.94893 53.6732 7.78166C53.1708 7.08342 52.6607 6.36064 52.017 5.80358C51.3194 5.19896 50.4729 4.77081 49.6217 4.2199C49.846 5.04857 50.0826 5.87264 50.29 6.70285C50.4898 7.50236 50.3315 7.99343 49.3313 7.95353C48.7167 7.92744 48.0945 8.2006 47.4876 8.15763C47.168 8.13615 46.641 7.74022 46.6241 7.48395C46.5964 7.0911 46.9314 6.67369 47.1081 6.26856C47.3892 6.42202 47.6627 6.61384 47.9577 6.74735C48.1666 6.81988 48.3823 6.87129 48.6015 6.90081C48.6384 6.70899 48.772 6.42969 48.6921 6.33915C48.3019 5.89566 47.8133 5.12376 47.4353 5.1652C46.326 5.28643 45.9895 4.83987 46.0525 3.51859C45.3427 4.66492 45.4595 6.01996 43.6788 6.33915L44.7988 3.96515L43.6603 4.3841C43.5774 3.96976 43.4898 3.55696 43.4099 3.14108C43.1164 1.57888 44.0398 1.38092 45.2306 1.57274C46.5242 1.77531 47.8041 2.08683 49.1024 2.23722C49.6063 2.29553 50.1425 2.03312 50.668 1.9303C51.7973 1.71086 52.736 1.88733 53.2799 3.06589C53.6287 3.8163 54.2141 3.92065 54.9024 3.50632C54.8886 3.36206 54.9116 3.25311 54.8686 3.21014C54.5797 2.92778 54.2786 2.66076 53.9821 2.38914C54.4353 2.33543 54.8901 2.23568 55.3433 2.23568C56.5156 2.25256 57.6895 2.30934 58.8618 2.36766C60.4474 2.44592 62.0345 2.54106 63.8383 2.64081C63.3282 3.6567 62.7182 4.35187 63.7722 4.95956C63.8813 5.02248 63.6539 5.66547 63.5832 6.03377L63.1622 5.96625ZM59.7391 10.6636C57.4436 11.7255 57.3054 11.724 56.3005 10.5792C56.2007 11.2621 56.1039 11.9388 56.0301 12.4452C55.4555 12.5742 55.0299 12.588 54.7057 12.7752C54.5521 12.8657 54.4783 13.4857 54.5521 13.5271C55.8427 14.23 55.1667 15.008 54.718 15.5558L56.5617 16.4137L55.2588 17.25L57.0134 17.6751C57.3207 16.3891 57.8554 15.1691 57.8523 13.9522C57.8523 12.4115 58.934 11.6626 59.7391 10.6636ZM45.2966 22.8374L45.6853 22.7945C45.8006 22.4062 45.8482 21.9735 46.0571 21.6435C46.2016 21.4164 46.5734 21.3366 46.8423 21.1832C46.9068 21.4348 46.9683 21.6865 47.0374 21.9351C47.1572 22.3632 47.191 22.8451 47.4246 23.2042C47.7918 23.7827 48.285 24.2784 48.9303 25.061C49.2376 24.0559 49.5541 23.1781 49.7477 22.2742C49.7891 22.0778 49.3927 21.7862 49.2084 21.553L48.0822 22.4875C48.1697 21.3796 48.2358 20.6169 48.2773 20.0322C47.7365 20.2946 47.1618 20.6246 46.5519 20.8563C46.0571 21.0435 45.2505 20.9606 45.0708 21.2752C44.8633 21.6374 45.1906 22.3019 45.2905 22.8374H45.2966ZM51.682 13.1143L51.3932 12.8596C51.0675 13.0468 50.5758 13.1573 50.4452 13.4366C49.8306 14.7441 49.2975 16.0899 48.7966 17.4449C48.7029 17.6966 48.8319 18.0879 48.9841 18.3411C49.0501 18.4531 49.5448 18.4808 49.6386 18.3703C49.8214 18.1539 49.8936 17.8224 49.9459 17.5262C50.0227 17.1303 49.9459 16.6807 50.0995 16.3262C50.585 15.2367 51.1458 14.1824 51.6759 13.1143H51.682ZM34.7936 22.3218L34.3327 22.2067L32.5719 24.2354C32.5719 24.8002 32.2646 25.8161 33.8886 25.9987L34.7936 22.3218ZM46.2953 19.5473C46.6026 18.7999 46.8868 18.1385 47.0635 17.7396C46.7363 16.9723 46.492 16.4045 46.2538 15.8459C44.8633 16.8802 44.8418 18.7631 46.2892 19.5412L46.2953 19.5473ZM36.4837 17.5262C38.5025 17.1487 39.0556 16.5518 38.8359 14.9405C38.4872 15.1538 38.0201 15.2719 37.9325 15.5221C37.4716 16.8342 36.9584 16.6377 36.2332 15.3425C36.3315 16.2541 36.3991 16.8449 36.4775 17.5201L36.4837 17.5262ZM53.8453 21.3934L54.297 21.2399C54.4092 20.7259 54.6043 20.2102 54.6043 19.6977C54.6043 19.4276 54.2893 19.0486 54.022 18.9304C53.7547 18.8122 53.2292 18.7769 53.0126 18.9503C52.8313 19.0946 52.8067 19.6394 52.925 19.9141C53.137 20.4327 53.5165 20.8962 53.833 21.3873L53.8453 21.3934ZM46.2016 25.612C44.0214 25.3833 43.986 23.838 43.5205 22.5643C43.5082 23.4457 43.6231 24.3243 43.8616 25.1731C44.0152 25.6902 44.3517 26.1537 44.6068 26.6401L46.2016 25.612ZM59.1306 6.65681C59.3719 5.42915 61.0281 4.70636 59.8697 3.33598C58.4838 4.10173 58.3225 4.73398 59.1306 6.65681ZM52.2382 15.3686C52.9342 14.3343 53.9052 13.7128 53.4182 12.4529C53.2354 13.4397 51.5161 13.6806 52.2382 15.3686ZM57.0687 8.0763L57.0872 7.72334C56.5221 7.58961 55.9488 7.49324 55.371 7.43484C55.3172 7.43484 55.2174 8.10852 55.1067 8.66251L57.0687 8.0763ZM62.1712 18.0664C60.5687 18.3181 60.5242 18.3733 61.065 19.3263L62.1712 18.0664ZM59.4057 20.0031L59.0477 19.9141L58.4408 21.8047L58.9616 21.9382C59.1132 21.2936 59.2633 20.6486 59.4118 20.0031H59.4057ZM34.0638 19.6608L34.5693 19.7851L34.9795 18.0495L34.4294 17.9268C34.3127 18.5058 34.1928 19.0838 34.0699 19.6608H34.0638Z" fill="#E7E7E7"/>
<path d="M33.9628 57.1202C33.9628 54.1523 33.9797 51.1844 33.9628 48.2196C33.9459 45.9638 33.8599 43.708 33.8415 41.4537C33.8338 40.3672 33.8691 39.2761 33.9598 38.1942C34.2041 35.2862 35.6683 33.724 38.6105 33.6334C42.1213 33.526 45.6397 33.6334 49.152 33.7194C53.4217 33.8299 57.6869 34.0263 61.9551 34.1889C62.33 34.2028 62.7448 34.1414 63.0675 34.2826C63.1995 34.361 63.3122 34.468 63.3973 34.5958C63.4824 34.7235 63.5377 34.8688 63.5591 35.0207C63.5775 35.211 63.2872 35.5164 63.0644 35.6192C62.817 35.7327 62.4898 35.6974 62.1978 35.6882C59.6105 35.6038 57.0231 35.4826 54.4342 35.432C52.6489 35.3967 50.859 35.432 49.0752 35.5072C48.837 35.5164 48.4406 35.9675 48.4222 36.2376C48.3407 37.3136 48.3469 38.3944 48.4406 39.4694C48.4698 39.7764 48.9415 40.2367 49.2534 40.2766C50.6101 40.4424 51.9821 40.4915 53.3511 40.5575C55.4744 40.6603 57.6008 40.7278 59.7226 40.8521C59.9439 40.8659 60.1482 41.1682 60.3603 41.337C60.1267 41.5335 59.9147 41.8619 59.6596 41.8987C58.9147 42.0086 58.1614 42.0512 57.4088 42.0261C55.8063 41.9708 54.2022 41.7575 52.6028 41.7959C51.3514 41.8338 50.1099 42.0298 48.9077 42.379C48.5559 42.4772 48.2225 43.266 48.1933 43.7601C48.0919 45.4267 48.4683 47.193 48.0473 48.7567C47.147 52.099 47.6371 55.3662 47.9013 58.6824C48.0012 59.9285 48.4114 60.5684 49.6897 60.5131C50.5225 60.4779 51.3568 60.4441 52.188 60.3904C52.9792 60.3413 53.772 60.2001 54.5618 60.2185C57.0569 60.2768 59.5506 60.3965 62.0442 60.4779C62.7095 60.4993 63.3486 60.4779 63.2503 61.4508C63.152 62.4237 62.5527 62.1966 61.8829 62.1782C59.2709 62.103 56.659 62.1199 54.0471 62.0984C53.7183 62.0984 53.3864 62.0984 53.0607 62.0615C52.0267 61.9572 50.9942 61.7546 49.9617 61.7546C48.3269 61.7546 47.8691 62.3792 47.9843 64.0181C48.0396 64.8054 47.9398 65.6034 47.909 66.3967C47.8583 67.7702 48.247 68.2797 49.6298 68.2735C52.1772 68.2612 54.7246 68.1201 57.272 68.0771C58.9421 68.0479 60.6153 68.0771 62.2854 68.1201C62.5696 68.1277 63.0536 68.3119 63.0905 68.4868C63.1986 68.968 63.1758 69.4692 63.0244 69.9385C62.9584 70.1227 62.3868 70.2102 62.0503 70.1964C60.3772 70.1258 58.7055 70.0137 57.0339 69.9017C56.3671 69.8572 55.7033 69.7713 55.0365 69.7145C54.3313 69.6546 53.5907 69.4459 52.9224 69.5825C49.407 70.3007 45.9024 69.7007 42.3948 69.624C42.1875 69.6019 41.978 69.6244 41.7802 69.6899C39.6507 70.6813 37.7209 69.6761 35.868 68.9227C34.0627 68.1937 33.8707 66.3369 33.8031 64.655C33.7093 62.149 33.7785 59.6369 33.7785 57.1263L33.9628 57.1202ZM35.2734 57.556C34.9415 60.0113 35.4271 60.4042 37.7809 59.8211C40.1992 59.2427 42.3695 57.9083 43.9758 56.0122C45.6904 54.0173 45.4753 51.8689 43.3996 50.2468C41.6235 48.8657 39.5739 48.2365 37.3276 48.2058C35.7482 48.1843 35.3011 48.5664 35.2811 50.1777C35.2504 52.6361 35.2734 55.0915 35.2734 57.556ZM46.4433 55.6992L46.0207 55.5181C45.632 55.9647 45.188 56.3744 44.8654 56.8639C42.9202 59.8195 40.2699 61.5045 36.6654 61.6472C36.1891 61.6672 35.444 62.0984 35.318 62.4943C34.6788 64.5245 35.212 67.4571 38.2817 67.761C40.5203 67.982 42.7881 67.893 45.042 68.0357C46.2297 68.1124 46.5785 67.6167 46.5785 66.5241C46.5785 63.3521 46.6322 60.1786 46.6445 57.0097C46.6369 56.5708 46.5109 56.135 46.4433 55.7053V55.6992ZM46.6845 46.6022H46.5954C46.6614 45.3975 46.7859 44.1914 46.7628 42.9898C46.7552 42.6184 46.4095 42.0184 46.1053 41.9324C45.2669 41.7268 44.4072 41.6207 43.544 41.6163C42.4424 41.5795 41.3377 41.6378 40.233 41.6624C38.9117 41.69 37.5765 41.6271 36.2782 41.8158C35.8634 41.8772 35.4163 42.5693 35.2227 43.0665C34.9876 43.6711 34.9569 44.3724 34.9154 45.0369C34.8586 46.1372 35.4563 46.8508 36.5487 46.8093C39.9288 46.685 42.7604 47.8084 45.1388 50.1854C45.8441 50.8913 46.2958 50.7256 46.4356 49.725C46.5846 48.6907 46.6092 47.6426 46.6845 46.6022ZM46.7675 37.7891C46.7214 35.2846 46.2143 34.8534 43.4657 34.9777C42.4132 35.0238 41.8862 35.8985 41.9123 37.5359C41.9461 39.672 42.5807 40.4608 44.26 40.4516C46.2374 40.4562 46.8059 39.85 46.7675 37.7891ZM40.8 37.1599C40.8983 35.9905 40.4927 35.4903 39.2067 35.3184C38.0682 35.1649 36.9789 35.4719 36.4995 36.1302C35.8526 37.0203 35.5085 38.3354 35.5454 39.4526C35.5776 40.4899 36.7745 40.1247 37.5135 40.1615C38.2526 40.1984 39.0008 40.272 39.7214 40.1615C40.0179 40.1186 40.3974 39.6874 40.4896 39.3651C40.674 38.6607 40.7047 37.9042 40.8 37.1599Z" fill="#E7E7E7"/>
<path d="M44.78 89.7576C44.78 86.4552 44.7677 83.1589 44.78 79.8519C44.78 78.7178 44.4312 78.4432 43.1744 78.1332C41.2339 77.6544 39.5531 78.5229 37.7416 78.3925C36.597 78.3081 36.0807 79.1368 35.9993 80.1419C35.7873 82.7231 35.6137 85.3089 35.4969 87.8962C35.3832 90.3991 35.3786 92.9081 35.2772 95.4156C35.2634 95.7578 34.9699 96.0878 34.8024 96.4238C34.5797 96.1169 34.2032 95.81 34.1648 95.4816C34.0777 94.5672 34.049 93.6482 34.0788 92.7301C34.1203 88.9673 34.1909 85.2106 34.2324 81.4433C34.2616 78.2636 36.113 76.5433 39.3026 76.6032C42.5676 76.6646 45.834 76.5878 49.0989 76.6032C49.9301 76.6032 50.3634 76.3039 50.3357 75.4354C50.3219 74.975 50.2712 74.4947 50.3849 74.0619C50.517 73.5601 50.812 73.1013 51.0364 72.624C51.253 73.1105 51.5434 73.5801 51.6663 74.088C51.7723 74.5223 51.7155 75.0088 51.6786 75.4691C51.6048 76.3776 52.0535 76.6001 52.8908 76.5955C55.7778 76.5771 58.6663 76.6093 61.5532 76.6416C62.2062 76.6416 63.0113 76.5387 62.9867 77.5623C62.9621 78.6273 62.134 78.5276 61.4303 78.5199C60.8065 78.5122 60.1812 78.4002 59.5574 78.3971C57.9918 78.3848 57.7936 78.5613 57.7475 80.1941C57.6353 84.1656 57.5616 88.1371 57.4632 92.1086C57.4018 94.5747 57.3004 97.0392 57.262 99.5037C57.2359 101.156 57.4725 101.359 59.1564 101.39C60.0352 101.405 60.9187 101.365 61.7914 101.447C62.0864 101.473 62.5381 101.753 62.5842 101.994C62.6395 102.266 62.3998 102.789 62.1586 102.887C61.5747 103.124 60.9294 103.213 60.2872 103.294C59.7187 103.365 59.138 103.334 58.5649 103.369C58.3175 103.385 58.0717 103.495 57.8274 103.489C54.2536 103.398 50.6784 103.182 47.1077 103.248C45.6097 103.274 44.1608 103.578 42.6812 103.003C42.2695 102.849 41.6472 103.337 41.1279 103.319C39.0507 103.245 36.9796 103.105 34.9023 102.932C34.6995 102.915 34.5305 102.493 34.3446 102.26C34.5966 102.085 34.8424 101.772 35.1005 101.758C36.3542 101.698 37.611 101.717 38.8663 101.712C40.2491 101.712 41.6319 101.687 43.0147 101.712C43.9964 101.727 44.5265 101.288 44.5296 100.305C44.5388 96.7937 44.5296 93.2825 44.5296 89.7714L44.78 89.7576ZM55.9253 90.1228H56.1942V85.6096C56.1942 83.564 56.2402 81.5169 56.1665 79.4713C56.1219 78.2222 55.5412 77.9444 54.3504 78.2084C53.679 78.3618 52.9523 78.2682 52.2501 78.2559C51.4604 78.2406 50.6707 78.1807 49.881 78.1623C49.1604 78.1439 48.429 78.2329 47.73 78.1316C46.53 77.9613 46.1736 78.1746 46.1613 79.3593C46.1382 81.4064 46.1705 83.4551 46.1428 85.4976C46.0737 90.2963 45.9754 95.0949 45.9062 99.8935C45.8862 101.311 46.1905 101.629 47.5717 101.62C49.8764 101.603 52.1733 101.506 54.4734 101.516C55.5596 101.516 55.956 101.086 55.9437 100.022C55.9068 96.7277 55.9253 93.4253 55.9253 90.1228Z" fill="#E7E7E7"/>
<path d="M49.3465 139.543C49.1791 138.468 49.8781 137.003 47.9299 136.679C47.7763 136.653 47.6611 136.311 47.5274 136.116C47.7824 135.962 48.0298 135.671 48.2956 135.655C49.7583 135.585 51.2256 135.605 52.6883 135.536C53.0631 135.519 53.4273 135.292 53.796 135.161C53.6132 134.807 53.5179 134.336 53.2306 134.118C52.2126 133.333 51.1418 132.619 50.0256 131.982C49.7752 131.842 49.073 132.106 48.8503 132.393C47.9791 133.525 47.2155 134.741 46.4119 135.922L45.6914 135.335L46.5917 136.371C46.1231 137.023 45.3918 137.521 44.8479 136.984C44.4131 136.562 44.1549 135.411 44.4269 134.922C45.0814 133.751 46.0939 132.773 47.1817 131.46C45.9126 131.46 44.7803 131.46 43.6479 131.46C42.9796 131.46 42.2974 131.573 41.6506 131.472C41.1589 131.397 40.7087 131.061 40.2401 130.841C40.721 130.613 41.2035 130.186 41.6844 130.189C44.3992 130.2 47.1141 130.343 49.8274 130.372C50.6755 130.381 51.5283 130.178 52.3718 130.033C52.8219 129.956 53.2521 129.704 53.6962 129.687C55.5399 129.614 57.3836 129.552 59.2166 129.598C59.6268 129.609 60.0247 130.071 60.4288 130.326C60.0109 130.57 59.6068 130.998 59.1735 131.029C57.296 131.165 55.4108 131.182 53.5287 131.253C53.2214 131.265 52.9064 131.351 52.1981 131.471C53.0309 132.221 53.6685 132.729 54.2247 133.312C54.7009 133.781 55.1062 134.316 55.4277 134.902C55.9178 135.872 55.3386 136.757 54.2493 136.842C53.458 136.903 52.6683 136.995 51.877 136.995C50.7324 137.014 50.6325 137.781 50.6479 138.628C50.6725 139.581 51.3162 139.77 52.1167 139.757C52.9879 139.744 53.8606 139.757 54.7286 139.757L54.7932 140.264C54.4261 140.386 54.0527 140.489 53.6746 140.571C52.8988 140.695 52.1075 140.733 51.3393 140.891C50.4758 141.069 50.2822 141.682 50.3744 142.507C50.4743 143.404 51.0274 143.582 51.771 143.572C53.2347 143.542 54.6984 143.507 56.1621 143.47C56.9565 143.45 57.7554 143.354 58.5405 143.428C58.9077 143.462 59.2457 143.815 59.5961 144.023C59.2381 144.235 58.8831 144.62 58.5205 144.637C54.5258 144.743 50.5311 144.791 46.5256 144.858C45.0199 144.886 43.5158 144.952 42.0101 144.983C41.5939 145.008 41.1763 144.977 40.7686 144.889C40.5397 144.828 40.3676 144.548 40.171 144.367C40.363 144.175 40.5413 143.835 40.7487 143.816C41.6613 143.73 42.5816 143.73 43.5004 143.714C45.0368 143.686 46.584 143.714 48.1235 143.635C49.3358 143.578 49.2513 142.573 49.2851 141.765C49.3219 140.844 48.6244 140.887 47.9622 140.893C46.289 140.91 44.6143 140.919 42.9412 140.893C41.268 140.867 40.3154 140.058 39.9543 138.419C39.5441 136.553 39.707 134.89 40.5382 133.815C40.6918 134.403 40.867 134.837 40.9115 135.286C40.9884 136.074 40.9561 136.872 41.0222 137.663C41.1297 138.959 41.7258 139.521 43.0195 139.532C45.0584 139.555 47.1003 139.543 49.3465 139.543Z" fill="#E7E7E7"/>
<path d="M56.8335 113.83C58.2978 113.83 59.762 113.844 61.2262 113.83C61.9176 113.82 62.5122 113.847 62.4553 114.785C62.4046 115.689 61.8761 115.644 61.154 115.637C59.0122 115.615 56.8704 115.75 54.7286 115.758C53.69 115.758 52.6514 115.557 51.6112 115.545C48.6766 115.512 45.742 115.545 42.809 115.495C42.4741 115.495 42.1483 115.066 41.818 114.837C42.1652 114.625 42.5094 114.239 42.8628 114.231C44.4929 114.194 46.1277 114.231 47.7578 114.303C48.543 114.335 49.1836 114.197 49.4955 113.399C49.8382 112.521 49.3573 111.765 48.4124 111.76C44.2133 111.74 40.0142 111.747 35.8136 111.722C35.5064 111.722 34.9963 111.601 34.9517 111.437C34.6075 110.171 34.3371 108.885 34.1021 107.6C34.0744 107.447 34.4447 107.216 34.629 107.023C34.7827 107.236 35.0362 107.43 35.09 107.668C35.66 110.217 35.8075 110.335 38.3902 110.316C41.6147 110.292 44.8412 110.277 48.0697 110.273C49.6553 110.273 49.746 110.143 49.8628 108.585C49.9119 107.927 50.2515 107.29 50.4604 106.644C50.6141 107.284 50.8522 107.918 50.886 108.564C50.9628 110.054 51.0535 110.213 52.5761 110.212C55.4584 110.212 58.3423 110.151 61.2247 110.18C61.6303 110.18 62.0328 110.559 62.4369 110.761C62.1204 111.084 61.8315 111.65 61.4858 111.682C59.7236 111.868 57.9521 111.963 56.1744 111.998C54.8869 112.023 53.5947 111.845 52.3087 111.877C51.5897 111.897 50.843 112.165 50.9121 113.135C50.9828 114.131 51.7864 113.989 52.4317 113.998C53.8974 114.021 55.3632 113.998 56.8289 113.998L56.8335 113.83Z" fill="#E7E7E7"/>
<path d="M49.3682 121.746H60.0403C60.4597 121.746 60.9022 121.663 61.2909 121.774C61.6796 121.884 61.9777 122.186 62.3188 122.406C62.0115 122.713 61.7257 123.245 61.3816 123.288C60.1344 123.421 58.8807 123.483 57.6265 123.475C55.495 123.497 53.3629 123.497 51.2304 123.475C49.8476 123.459 48.474 123.36 47.0958 123.333C46.1817 123.314 45.2644 123.35 44.3487 123.376C43.9323 123.386 43.5175 123.454 43.1011 123.456C41.1038 123.456 39.1064 123.405 37.1213 123.471C35.611 123.522 34.809 123.01 34.5647 121.525C34.4876 120.945 34.4711 120.358 34.5156 119.774C34.5739 118.474 35.1578 117.865 36.4576 117.796C38.3367 117.696 40.2172 117.62 42.0994 117.581C48.3772 117.452 54.6561 117.34 60.936 117.244C61.3723 117.236 61.884 117.276 62.2174 117.504C62.4079 117.635 62.4371 118.252 62.3004 118.534C62.205 118.685 62.0767 118.812 61.925 118.906C61.7733 119 61.6022 119.059 61.4246 119.077C58.934 119.122 56.4419 119.116 53.9514 119.105C51.8342 119.097 49.7155 119.079 47.5998 119.036C44.802 118.981 42.0056 118.896 39.2078 118.826C38.6224 118.81 38.034 118.767 37.4517 118.807C36.1119 118.898 35.5603 119.473 35.608 120.667C35.6448 121.741 36.2824 122.265 37.57 122.266C41.5053 122.266 45.4401 122.266 49.3744 122.266L49.3682 121.746Z" fill="#E7E7E7"/>
<path d="M10.2691 9.22916L12.2665 7.70685L12.5953 8.01377C12.1728 8.90076 11.38 9.78775 12.5523 10.5888C12.0237 11.772 11.612 13.0441 10.0725 12.906C9.60385 12.8661 9.17826 12.3305 8.65127 11.9653C8.61593 12.1556 8.57291 12.4595 8.49763 12.7572C8.29635 13.6165 8.15807 14.5112 7.83542 15.3368C7.59574 15.9614 7.12713 15.8171 6.80448 15.3168C6.24522 14.4467 6.05777 13.2728 4.70879 13.0625C4.52442 13.0349 4.36617 12.1679 4.37538 11.6922C4.41379 9.74478 4.46911 7.79279 4.63658 5.86075C4.68574 5.28835 5.12516 4.75125 5.38482 4.19727C5.97173 4.53794 6.58938 4.83872 7.13788 5.23157C7.61264 5.57379 8.01211 6.02035 8.44385 6.42087L8.90478 6.37177L8.01058 8.61532L8.17805 8.71814C8.46075 8.19025 8.79262 7.68537 9.00926 7.12985C9.22589 6.57433 9.43331 5.85615 10.1508 6.18608C10.4581 6.3288 10.5564 7.12218 10.5826 7.62705C10.601 8.0951 10.4074 8.57543 10.2691 9.22916Z" fill="#E7E7E7"/>
<path d="M45.7004 126.23C50.576 126.025 55.4516 125.821 60.3272 125.616C60.6606 125.602 60.9955 125.616 61.3305 125.63C62.025 125.647 62.4152 126.075 62.194 126.676C62.0541 127.06 61.4933 127.551 61.1185 127.548C58.7139 127.528 56.3094 127.315 53.8972 127.296C48.7855 127.257 43.6708 127.287 38.5575 127.309C36.8675 127.309 35.0621 129.166 35.0237 130.927C34.9392 135.224 34.8916 139.521 34.7963 143.818C34.7963 144.158 34.5275 144.494 34.383 144.834C34.2294 144.51 33.9221 144.188 33.9221 143.864C33.9052 139.532 33.8852 135.198 33.959 130.866C34.0035 128.292 35.4463 126.804 38.0505 126.544C40.5856 126.291 43.1299 126.133 45.6697 125.931L45.7004 126.23Z" fill="#E7E7E7"/>
<path d="M52.1768 51.912C52.3811 50.7242 52.5148 49.5181 52.8098 48.3533C53.0802 47.2914 53.8484 46.6162 54.9777 46.5671C56.3313 46.5072 57.7525 46.2939 59.0323 46.607C60.9743 47.0796 61.6949 48.3518 61.6319 50.3575C61.5951 51.4828 61.53 52.6082 61.4368 53.7336C61.2632 55.8313 59.8927 56.8887 57.7863 56.6308C56.9996 56.5342 56.2007 56.5449 55.4063 56.4989C53.369 56.3807 52.5639 55.5996 52.3903 53.5632C52.3442 53.0215 52.3273 52.4783 52.2966 51.9366L52.1768 51.912ZM53.7332 51.3166H53.8177C53.79 51.8169 53.7516 52.3171 53.7393 52.8189C53.704 54.1709 54.6043 54.906 56.5863 55.1561C58.5683 55.4062 60.0202 54.863 60.1324 53.6445C60.2543 52.0669 60.2348 50.4815 60.074 48.9073C60.0463 48.6004 59.3058 48.2106 58.831 48.097C58.0951 47.9175 57.2762 48.0571 56.551 47.8515C54.9684 47.4049 53.77 48.1845 53.7362 49.8112C53.7255 50.3145 53.7332 50.8163 53.7332 51.3166Z" fill="#E7E7E7"/>
<path d="M49.4042 166.276C49.3074 167.595 49.2797 168.924 49.0677 170.223C49.0108 170.579 48.4009 170.846 47.9415 171.041C47.5912 171.87 47.6188 173.073 46.0471 172.588C45.1713 172.318 44.2479 172.203 43.2369 171.996C42.9834 172.533 42.6085 173.282 41.6391 172.363C41.553 172.28 41.1474 172.516 40.9 172.622C40.0688 172.981 39.5833 172.694 39.4404 172.232C39.949 171.528 40.2179 171.004 40.6281 170.639C40.9768 170.352 41.4063 170.18 41.8572 170.147C42.1768 170.124 42.5164 170.411 42.8482 170.559L43.0526 170.268C42.7453 170.09 42.438 169.924 42.1307 169.732C41.7251 169.468 41.2089 169.26 40.9661 168.885C40.7433 168.551 40.7787 168.024 40.7618 167.579C40.7449 167.134 40.8032 166.682 40.8355 166.091L42.3719 167.364C42.4733 166.955 42.5256 166.867 42.5056 166.801C42.4011 166.433 42.2782 166.069 42.163 165.704C42.4703 165.626 42.9496 165.397 43.0495 165.501C43.3074 165.816 43.4748 166.195 43.5335 166.597C43.5713 166.962 43.5369 167.331 43.4321 167.682C43.3211 168.07 43.1882 168.452 43.0341 168.825C43.6487 168.672 43.9867 169.909 44.7626 169.174C44.7949 169.143 45.5016 169.656 45.7106 170.019C46.001 170.524 46.1178 171.13 46.3098 171.692H46.6816C46.8122 171.385 47.1103 171.038 47.0458 170.78C46.7385 169.579 47.353 169.385 48.702 169.726L47.8094 168.498L46.2468 169.295C46.1055 168.988 45.7628 168.558 45.8612 168.396C46.1408 167.935 46.6002 167.584 46.9889 167.188L47.3223 167.423C47.3868 166.991 47.4514 166.56 47.5543 165.867L49.4318 166.318L49.4042 166.276Z" fill="#E7E7E7"/>
<path d="M30.9268 9.33008C32.0222 9.40374 32.3741 9.79813 31.927 10.9399C31.6028 11.7655 31.592 13.0606 30.094 12.8658C29.965 12.8504 29.7698 13.1113 29.6546 13.2786C29.0231 14.1886 28.3748 13.874 27.6572 13.3783C26.9397 12.8826 26.8291 12.189 27.2148 11.5276C27.6757 10.7342 28.3148 10.0437 28.6621 9.58942C29.1691 8.58888 29.5071 7.84614 29.9312 7.15865C29.9988 7.04816 30.684 7.13716 30.6994 7.20468C30.8146 7.85995 30.853 8.52903 30.9268 9.33008Z" fill="#E7E7E7"/>
<path d="M37.2783 3.82109L38.1387 3.27017C37.9466 2.8942 37.5886 2.51823 37.6593 2.26042C37.7561 1.909 38.2216 1.36422 38.4582 1.39798C39.7258 1.57906 40.9688 1.8691 42.2671 1.61282C42.4207 1.58367 42.7848 1.87984 42.7833 2.02102C42.7833 2.40927 42.7449 3.02157 42.5114 3.14433C41.6264 3.61392 40.9749 4.47635 39.7704 4.47021C39.1312 4.47021 38.489 5.09172 37.8452 5.42626C37.4473 5.63343 37.0417 5.83139 36.6406 6.04009L36.3887 5.74392L37.3105 3.79193L37.2783 3.82109Z" fill="#E7E7E7"/>
<path d="M60.1831 133.816C60.2353 135.683 60.5949 137.58 59.6899 139.38C59.381 140.007 58.8489 140.496 58.1977 140.752C57.5466 141.007 56.8235 141.01 56.1699 140.761C55.9026 140.661 55.5738 140.347 55.5554 140.103C55.5369 139.903 55.8919 139.606 56.1438 139.457C56.3958 139.308 56.7062 139.325 56.9873 139.245C58.3901 138.843 58.9847 138.126 59.1245 136.675C59.1814 136.061 59.1583 135.419 59.2582 134.807C59.3227 134.417 59.547 134.055 59.6991 133.682L60.1831 133.816Z" fill="#E7E7E7"/>
<path d="M14.2132 13.3969C13.4112 12.7524 12.391 12.2721 13.4297 11.1134C13.48 11.0473 13.5349 10.9847 13.5941 10.9262C14.2409 10.4091 17.1632 10.9477 17.5335 11.7043C17.6979 12.0373 17.81 12.7232 17.6641 12.8168C17.2968 13.0547 16.5717 13.2895 16.3427 13.0992C15.4654 12.3703 14.8324 12.7478 14.2132 13.3969Z" fill="#E7E7E7"/>
<path d="M18.9138 11.8794C18.8001 11.8119 18.3208 11.6876 18.1825 11.4006C18.0442 11.1137 18.2224 10.6579 18.3208 10.2911C18.4191 9.92437 18.6081 9.62206 18.7079 9.27524C19.0628 8.04757 19.9371 7.71304 20.9911 8.42048C21.1334 8.50211 21.2528 8.61822 21.3383 8.75809C21.6287 9.37192 19.911 11.8702 18.9138 11.8794Z" fill="#E7E7E7"/>
<path d="M41.254 114.719C40.7162 114.986 40.1985 115.427 39.6407 115.486C38.2327 115.623 36.8172 115.668 35.4033 115.62C35.0591 115.611 34.7257 115.18 34.3877 114.943C34.612 114.692 34.8286 114.228 35.0591 114.222C37.0734 114.164 39.0892 114.188 41.105 114.188C41.1541 114.365 41.2033 114.543 41.254 114.719Z" fill="#E7E7E7"/>
<path d="M23.2368 11.8855C23.2275 12.2185 23.3336 12.6205 23.1845 12.8707C22.9233 13.305 22.5177 13.9449 22.1505 13.9587C21.5513 13.9817 20.8722 13.6518 20.3652 13.2911C20.2208 13.1868 20.4328 12.3336 20.697 11.9852C21.075 11.4834 21.6005 10.9816 22.1674 10.7882C22.3779 10.7161 22.8865 11.5187 23.2583 11.9238L23.2368 11.8855Z" fill="#E7E7E7"/>
<path d="M37.3156 3.78599C36.9616 3.54575 36.6243 3.2817 36.3062 2.99568C36.068 2.75629 35.8345 2.15473 35.7485 2.18235C35.3344 2.31568 34.9571 2.54374 34.6468 2.84836C34.3503 3.15528 34.1767 3.56808 33.9216 3.98088C32.9199 3.35938 33.1964 2.53224 33.4008 1.88618C33.493 1.59461 34.169 1.46877 34.6069 1.31225C34.7943 1.24472 35.0217 1.28616 35.2307 1.28462C37.2173 1.26007 37.6705 1.82173 37.2787 3.82129L37.3156 3.78599Z" fill="#E7E7E7"/>
<path d="M15.5451 1.84131L14.9827 2.76205C15.345 3.21459 15.681 3.68751 15.9891 4.17847C16.0137 4.21991 15.5082 4.74473 15.3115 4.7079C14.4796 4.55297 13.6836 4.24547 12.9639 3.80097C13.981 3.14723 13.9933 1.57889 15.2931 1.5083L15.5451 1.84131Z" fill="#E7E7E7"/>
<path d="M20.0244 2.47705C19.6634 3.59116 19.3822 4.58556 18.9996 5.54621C18.9121 5.76412 18.4419 6.00659 18.2115 5.9452C17.981 5.88382 17.7336 5.50938 17.6752 5.23316C17.5508 4.62853 19.0519 2.76248 20.0244 2.47705Z" fill="#E7E7E7"/>
<path d="M9.48693 1.50098C9.60984 1.64369 9.85874 1.93833 10.1015 2.23144C9.76502 2.48157 9.46081 2.85908 9.08592 2.95269C8.57122 3.0816 7.99966 3.03095 7.46038 2.98185C7.22069 2.95883 6.99791 2.75319 6.75977 2.63196C6.94414 2.35267 7.07627 1.90918 7.32671 1.82784C7.91516 1.64062 8.55432 1.62681 9.48693 1.50098Z" fill="#E7E7E7"/>
<path d="M32.8438 7.26157L33.7748 6.2334C34.205 6.72907 34.6798 7.19558 35.0178 7.74803C35.0716 7.8355 34.5077 8.30048 34.2281 8.59205L32.8438 7.26157Z" fill="#E7E7E7"/>
<path d="M22.6654 170.091C22.859 170.536 23.0695 171.023 23.3998 171.779L22.1799 171.452C22.0263 171.782 21.8619 172.128 21.5945 172.697C21.2319 171.93 20.9677 171.379 20.6973 170.809L22.6654 170.091Z" fill="#E7E7E7"/>
<path d="M21.0484 3.4561C20.8056 3.03563 20.3339 2.58446 20.3846 2.20388C20.4307 1.86474 21.0545 1.60233 21.4217 1.30615C21.6722 1.61307 22.1346 1.9338 22.1208 2.2269C22.1039 2.64891 21.7352 3.05711 21.5155 3.46991L21.0484 3.4561Z" fill="#E7E7E7"/>
<path d="M62.0717 40.4883L63.4545 41.676C63.1149 41.8786 62.7216 42.3022 62.4466 42.2362C61.9764 42.1241 61.5785 41.7052 61.1514 41.4152L62.0717 40.4883Z" fill="#E7E7E7"/>
<path d="M5.62402 166.816C6.98684 167.439 7.09439 167.99 5.99584 169.189C5.88214 168.461 5.76845 167.729 5.62402 166.816Z" fill="#E7E7E7"/>
<path d="M32.1116 4.74512C32.299 5.34974 32.5187 5.94823 32.6555 6.56513C32.6939 6.73393 32.5234 7.00249 32.3697 7.13446C32.3083 7.18817 31.9088 7.02704 31.8811 6.91655C31.7275 6.22138 31.6461 5.51394 31.54 4.8111L32.1116 4.74512Z" fill="#E7E7E7"/>
<path d="M24.5322 1.07422L25.176 2.041C24.8963 2.22362 24.6013 2.5643 24.3386 2.54281C24.0759 2.52133 23.8592 2.12694 23.6211 1.89675L24.5322 1.07422Z" fill="#E7E7E7"/>
<path d="M14.1026 14.7673C13.5602 14.976 13.2483 15.2031 13.1208 15.1264C12.7413 14.8977 12.4355 14.5494 12.1006 14.2471C12.3311 14.1412 12.6091 13.8987 12.7828 13.9586C13.1623 14.089 13.488 14.3745 14.1026 14.7673Z" fill="#E7E7E7"/>
<path d="M43.7793 167.73L44.718 166.878L45.2051 167.63L44.1603 168.244L43.7793 167.73Z" fill="#E7E7E7"/>
<path d="M28.7697 164.76C27.7895 165.509 26.926 165.187 26.1486 164.724C25.9058 164.57 25.9135 164.018 25.7891 163.585L27.8848 163.781C28.0415 163.956 28.3641 164.314 28.7697 164.76Z" fill="#E7E7E7"/>
<path d="M54.7756 164.954C54.9681 164 55.1597 163.048 55.3502 162.096L55.006 161.975L56.4672 161.085C56.6208 161.656 56.7745 162.178 56.9435 162.773L56.0385 163.08C56.1215 165.155 56.0385 165.268 54.7802 164.911C54.7764 164.925 54.7748 164.939 54.7756 164.954Z" fill="#E7E7E7"/>
<path d="M57.9237 13.2739L57.0864 14.3926C56.9082 14.0734 56.5379 13.7159 56.5947 13.4458C56.6869 13.0008 57.0557 12.6125 57.3061 12.1997L57.9237 13.2739Z" fill="#E7E7E7"/>
</svg>
