<svg width="28" height="28" viewBox="0 0 28 28" fill="none" xmlns="http://www.w3.org/2000/svg">
<path d="M9.64494 17.127C9.43027 17.127 9.2856 17.148 9.21094 17.169V18.5433C9.2996 18.5643 9.41044 18.5701 9.56327 18.5701C10.1221 18.5701 10.4663 18.2878 10.4663 17.8106C10.4663 17.3836 10.1699 17.127 9.64494 17.127ZM13.7131 17.141C13.4798 17.141 13.3281 17.162 13.2383 17.183V20.228C13.3281 20.249 13.4728 20.249 13.6034 20.249C14.5566 20.256 15.1773 19.731 15.1773 18.6203C15.1843 17.652 14.6184 17.141 13.7131 17.141Z" fill="#CB8D8D"/>
<path d="M16.3332 2.33301H6.99984C6.381 2.33301 5.78751 2.57884 5.34992 3.01643C4.91234 3.45401 4.6665 4.0475 4.6665 4.66634V23.333C4.6665 23.9518 4.91234 24.5453 5.34992 24.9829C5.78751 25.4205 6.381 25.6663 6.99984 25.6663H20.9998C21.6187 25.6663 22.2122 25.4205 22.6497 24.9829C23.0873 24.5453 23.3332 23.9518 23.3332 23.333V9.33301L16.3332 2.33301ZM11.0808 18.888C10.7203 19.2263 10.1883 19.378 9.56884 19.378C9.44872 19.3793 9.32865 19.3723 9.2095 19.357V21.0207H8.1665V16.4287C8.6372 16.3585 9.11281 16.3265 9.58867 16.333C10.2385 16.333 10.7005 16.4567 11.012 16.7052C11.3083 16.9408 11.509 17.327 11.509 17.782C11.5078 18.2393 11.3562 18.6255 11.0808 18.888ZM15.5223 20.4688C15.0323 20.876 14.2868 21.0697 13.3757 21.0697C12.8297 21.0697 12.4435 21.0347 12.181 20.9997V16.4298C12.6519 16.3611 13.1273 16.3287 13.6032 16.333C14.4863 16.333 15.0603 16.4917 15.5083 16.83C15.9925 17.1893 16.2958 17.7622 16.2958 18.5847C16.2958 19.4748 15.9703 20.0897 15.5223 20.4688ZM19.8332 17.2313H18.0458V18.2942H19.7165V19.1505H18.0458V21.0218H16.9888V16.368H19.8332V17.2313ZM16.3332 10.4997H15.1665V4.66634L20.9998 10.4997H16.3332Z" fill="#CB8D8D"/>
</svg>
