<svg width="28" height="28" viewBox="0 0 28 28" fill="none" xmlns="http://www.w3.org/2000/svg">
<path d="M16.3332 2.33301H6.99984C6.381 2.33301 5.78751 2.57884 5.34992 3.01643C4.91234 3.45401 4.6665 4.0475 4.6665 4.66634V23.333C4.6665 23.9518 4.91234 24.5453 5.34992 24.9829C5.78751 25.4205 6.381 25.6663 6.99984 25.6663H20.9998C21.6187 25.6663 22.2122 25.4205 22.6497 24.9829C23.0873 24.5453 23.3332 23.9518 23.3332 23.333V9.33301L16.3332 2.33301ZM17.7332 23.333H16.0998L13.9998 15.3997L11.8998 23.333H10.2665L7.69984 12.833H9.44984L11.0832 20.7663L13.1832 12.833H14.6998L16.7998 20.7663L18.4332 12.833H20.1832L17.7332 23.333ZM15.1665 10.4997V4.08301L21.5832 10.4997H15.1665Z" fill="#004189"/>
</svg>
