<svg width="121" height="130" viewBox="0 0 121 130" fill="none" xmlns="http://www.w3.org/2000/svg">
<g clip-path="url(#clip9789789789789njn0)">
<path d="M60.3928 99.4926C85.0266 99.4926 104.996 95.7613 104.996 91.1584C104.996 86.5556 85.0266 82.8242 60.3928 82.8242C35.7591 82.8242 15.7896 86.5556 15.7896 91.1584C15.7896 95.7613 35.7591 99.4926 60.3928 99.4926Z" fill="#F5F5F7" fill-opacity="0.8"/>
<path fill-rule="evenodd" clip-rule="evenodd" d="M96.0752 66.6734L80.335 47.3017C79.5798 46.3899 78.4758 45.8379 77.3133 45.8379H43.4712C42.3094 45.8379 41.2054 46.3899 40.4502 47.3017L24.7107 66.6734V76.7938H96.0758V66.6734H96.0752Z" fill="#AEB8C2"/>
<path fill-rule="evenodd" clip-rule="evenodd" d="M38.0461 20.8359H82.7389C83.4368 20.8359 84.1062 21.1132 84.5997 21.6067C85.0932 22.1002 85.3705 22.7696 85.3705 23.4675V84.878C85.3705 85.576 85.0932 86.2453 84.5997 86.7388C84.1062 87.2324 83.4368 87.5096 82.7389 87.5096H38.0461C37.3482 87.5096 36.6788 87.2324 36.1853 86.7388C35.6918 86.2453 35.4146 85.576 35.4146 84.878V23.4675C35.4146 22.7696 35.6918 22.1002 36.1853 21.6067C36.6788 21.1132 37.3482 20.8359 38.0461 20.8359V20.8359Z" fill="#F5F5F7"/>
<path fill-rule="evenodd" clip-rule="evenodd" d="M43.8672 27.3848H76.9179C77.2668 27.3848 77.6015 27.5234 77.8483 27.7702C78.095 28.0169 78.2337 28.3516 78.2337 28.7006V45.1196C78.2337 45.4686 78.095 45.8033 77.8483 46.05C77.6015 46.2968 77.2668 46.4354 76.9179 46.4354H43.8672C43.5182 46.4354 43.1836 46.2968 42.9368 46.05C42.69 45.8033 42.5514 45.4686 42.5514 45.1196V28.7006C42.5514 28.3516 42.69 28.0169 42.9368 27.7702C43.1836 27.5234 43.5182 27.3848 43.8672 27.3848ZM44.0396 53.5782H76.7455C77.1402 53.5782 77.5187 53.735 77.7978 54.0141C78.0769 54.2931 78.2337 54.6717 78.2337 55.0663C78.2337 55.461 78.0769 55.8395 77.7978 56.1186C77.5187 56.3977 77.1402 56.5545 76.7455 56.5545H44.0396C43.6449 56.5545 43.2664 56.3977 42.9873 56.1186C42.7082 55.8395 42.5514 55.461 42.5514 55.0663C42.5514 54.6717 42.7082 54.2931 42.9873 54.0141C43.2664 53.735 43.6449 53.5782 44.0396 53.5782ZM44.0396 61.317H76.7455C77.1403 61.317 77.5189 61.4738 77.798 61.753C78.0772 62.0321 78.234 62.4107 78.234 62.8055C78.234 63.2003 78.0772 63.5789 77.798 63.858C77.5189 64.1372 77.1403 64.294 76.7455 64.294H44.0396C43.6448 64.294 43.2662 64.1372 42.987 63.858C42.7079 63.5789 42.5511 63.2003 42.5511 62.8055C42.5511 62.4107 42.7079 62.0321 42.987 61.753C43.2662 61.4738 43.6448 61.317 44.0396 61.317ZM95.9297 89.9367C95.4198 91.9571 93.6291 93.4631 91.4988 93.4631H29.2863C27.156 93.4631 25.3652 91.9565 24.856 89.9367C24.7589 89.5517 24.7098 89.1562 24.71 88.7591V66.6756H42.0244C43.9369 66.6756 45.4784 68.2861 45.4784 70.2413V70.2677C45.4784 72.2223 47.0376 73.8006 48.9501 73.8006H71.835C73.7475 73.8006 75.3067 72.2078 75.3067 70.2525V70.2446C75.3067 68.2894 76.8481 66.6749 78.7606 66.6749H96.0751V88.7598C96.0751 89.1657 96.0244 89.5598 95.9297 89.9367Z" fill="#DCE0E6"/>
<path fill-rule="evenodd" clip-rule="evenodd" d="M98.106 21.9026L93.6125 23.6461C93.4971 23.6909 93.3713 23.7023 93.2497 23.6789C93.1281 23.6555 93.0156 23.5982 92.925 23.5137C92.8345 23.4292 92.7697 23.3208 92.7381 23.2011C92.7064 23.0813 92.7092 22.9551 92.7461 22.8368L94.0204 18.7533C92.3171 16.8164 91.3171 14.4546 91.3171 11.9059C91.3171 5.33026 97.9737 0 106.186 0C114.395 0 121.053 5.33026 121.053 11.9059C121.053 18.4816 114.396 23.8118 106.185 23.8118C103.206 23.8118 100.432 23.1105 98.106 21.9026Z" fill="#DCE0E6"/>
<path d="M112.042 14.0555C113.077 14.0555 113.917 13.2264 113.917 12.2035C113.917 11.1807 113.077 10.3516 112.042 10.3516C111.007 10.3516 110.168 11.1807 110.168 12.2035C110.168 13.2264 111.007 14.0555 112.042 14.0555Z" fill="white"/>
<path fill-rule="evenodd" clip-rule="evenodd" d="M102.203 13.8248H98.4541L100.361 10.584L102.203 13.8248ZM104.546 10.584H107.825V13.8248H104.546V10.584Z" fill="white"/>
<path d="M36.209 115.329V118.124H38.315V118.696H35.715V119.372H38.315V120.165H39.186V119.372H41.734V118.696H39.186V118.124H41.305V115.329H39.186V114.77H41.643V114.107H39.186V113.405H38.315V114.107H35.845V114.77H38.315V115.329H36.209ZM40.525 117.591H39.147V116.954H40.525V117.591ZM38.38 117.591H36.989V116.954H38.38V117.591ZM36.989 116.486V115.875H38.38V116.486H36.989ZM39.147 115.875H40.525V116.486H39.147V115.875ZM43.294 116.941H44.958V120.152H45.816V116.941H47.246V116.109H43.294L43.281 114.913C44.607 114.848 45.803 114.627 46.869 114.25L46.466 113.522C45.374 113.925 44.035 114.159 42.462 114.211V116.863C42.436 118.111 42.15 119.073 41.63 119.775L42.41 120.152C42.956 119.424 43.242 118.358 43.294 116.941ZM45.829 120.516H37.327V125.3H38.237V124.741H44.919V125.3H45.829V120.516ZM38.237 123.974V122.999H44.919V123.974H38.237ZM38.237 122.245V121.27H44.919V122.245H38.237ZM50.561 115.537V117.786H49.014V118.644H50.561V120.815H48.806V121.686H60.194V120.815H58.686V118.644H59.999V117.786H58.686V115.498H59.726V114.614H51.146C51.328 114.25 51.484 113.873 51.614 113.47L50.704 113.353C50.34 114.445 49.664 115.368 48.676 116.135L49.248 116.876C49.755 116.473 50.197 116.031 50.561 115.537ZM51.458 120.815V118.644H52.953V120.815H51.458ZM53.863 120.815V118.644H55.384V120.815H53.863ZM56.281 120.815V118.644H57.776V120.815H56.281ZM57.776 117.786H56.281V115.498H57.776V117.786ZM55.384 117.786H53.863V115.498H55.384V117.786ZM52.953 117.786H51.458V115.498H52.953V117.786ZM50.47 122.245C50.054 123.233 49.56 124.078 48.988 124.793L49.755 125.352C50.327 124.585 50.834 123.675 51.263 122.622L50.47 122.245ZM53.304 122.518L52.446 122.713C52.68 123.454 52.888 124.312 53.057 125.274L54.006 125.066C53.798 124.156 53.564 123.298 53.304 122.518ZM56.099 122.44L55.228 122.635C55.566 123.389 55.852 124.247 56.086 125.222L57.022 125.014C56.762 124.091 56.45 123.233 56.099 122.44ZM58.556 122.18L57.828 122.635C58.53 123.61 59.089 124.507 59.505 125.313L60.285 124.767C59.882 124.039 59.31 123.168 58.556 122.18ZM69.632 116.265H71.517C71.465 118.215 71.127 119.879 70.516 121.27C69.905 120.126 69.515 118.8 69.333 117.318C69.437 116.98 69.528 116.629 69.632 116.265ZM70.022 122.219C69.463 123.142 68.748 123.909 67.877 124.52L68.384 125.339C69.242 124.702 69.957 123.935 70.555 123.038C71.179 123.922 71.959 124.689 72.895 125.352L73.454 124.611C72.492 123.922 71.686 123.103 71.049 122.167C71.881 120.568 72.323 118.605 72.388 116.265H73.285V115.368H69.827C69.957 114.744 70.061 114.094 70.152 113.405L69.229 113.249C68.956 115.654 68.436 117.565 67.669 118.969L68.254 119.697C68.423 119.424 68.592 119.125 68.748 118.8C69.008 120.061 69.424 121.205 70.022 122.219ZM62.274 114.055V115.537H61.741V116.317H62.274V117.799H64.367V118.449H62.092V120.568H64.159C64.029 120.802 63.886 121.036 63.743 121.283H61.637V122.011H63.301C63.054 122.401 62.794 122.804 62.521 123.194C63.067 123.35 63.613 123.545 64.172 123.753C63.47 124.091 62.651 124.39 61.715 124.65L62.222 125.326C63.34 124.988 64.302 124.598 65.108 124.13C65.849 124.442 66.59 124.793 67.344 125.209L67.851 124.546C67.175 124.208 66.525 123.896 65.888 123.636C66.59 123.116 67.123 122.531 67.513 121.881V121.283H64.653C64.783 121.062 64.913 120.828 65.056 120.568H67.513V118.449H65.225V117.799H67.331V116.317H67.864V115.537H67.331V114.055H65.225V113.392H64.367V114.055H62.274ZM65.017 123.285C64.562 123.116 64.12 122.973 63.678 122.856C63.834 122.609 64.016 122.323 64.224 122.011H66.512C66.122 122.479 65.628 122.895 65.017 123.285ZM66.525 117.136H65.225V116.239H66.525V117.136ZM65.225 115.615V114.731H66.525V115.615H65.225ZM64.367 117.136H63.08V116.239H64.367V117.136ZM63.08 115.615V114.731H64.367V115.615H63.08ZM66.707 119.918H65.225V119.086H66.707V119.918ZM64.367 119.918H62.898V119.086H64.367V119.918ZM84.413 118.891C84.803 118.891 85.089 118.839 85.271 118.748C85.479 118.631 85.622 118.306 85.7 117.786L84.92 117.539C84.881 117.89 84.816 118.098 84.712 118.176C84.621 118.228 84.465 118.254 84.257 118.254H82.944C82.736 118.254 82.632 118.163 82.632 118.007V117.565L84.517 117.37L84.426 116.798L82.632 116.98V116.187H85.349C85.271 116.564 85.167 116.915 85.037 117.227L85.817 117.448C85.999 116.902 86.129 116.356 86.22 115.81V115.42H82.671V114.692H85.583V113.964H82.671V113.392H81.787V115.42H78.953V120.334C78.914 122.102 78.563 123.558 77.9 124.702L78.563 125.287C79.369 123.909 79.785 122.258 79.785 120.308V116.187H81.8V117.084L80.253 117.266L80.344 117.916L81.8 117.747V118.176C81.8 118.644 82.112 118.891 82.749 118.891H84.413ZM85.453 120.399C84.933 120.971 84.387 121.4 83.815 121.699C83.633 121.231 83.36 120.815 82.996 120.425C83.1 120.321 83.191 120.217 83.295 120.1H85.856V119.398H80.448V120.1H82.515C82.047 120.516 81.254 120.893 80.149 121.231L80.526 121.842C81.28 121.556 81.93 121.244 82.45 120.88C82.554 121.01 82.658 121.166 82.762 121.335C81.982 121.907 81.059 122.362 79.993 122.7L80.383 123.285C81.371 122.947 82.242 122.479 83.022 121.855C83.1 122.024 83.152 122.219 83.204 122.427C82.268 123.194 81.124 123.792 79.798 124.221L80.227 124.858C81.371 124.442 82.398 123.87 83.308 123.142C83.308 123.207 83.321 123.285 83.321 123.376C83.321 123.87 83.269 124.195 83.178 124.364C83.1 124.494 82.918 124.559 82.606 124.572H81.8L82.06 125.287H82.723C83.347 125.287 83.75 125.131 83.919 124.832C84.075 124.559 84.153 124.078 84.153 123.376C84.14 123.025 84.101 122.687 84.023 122.349C84.166 122.284 84.322 122.206 84.478 122.128C84.829 123.259 85.336 124.13 85.986 124.741L86.545 124.104C85.895 123.61 85.401 122.83 85.037 121.764C85.362 121.53 85.674 121.244 85.986 120.932L85.453 120.399ZM74.715 115.875V116.72H76.288V119.593C75.716 119.788 75.144 119.957 74.559 120.087L74.78 120.971C75.3 120.815 75.794 120.659 76.288 120.477V123.922C76.288 124.234 76.132 124.39 75.82 124.39C75.482 124.39 75.118 124.364 74.754 124.325L74.936 125.17H76.119C76.834 125.17 77.198 124.819 77.198 124.143V120.113C77.575 119.957 77.952 119.775 78.329 119.593V118.696C77.965 118.878 77.588 119.06 77.198 119.229V116.72H78.355V115.875H77.198V113.431H76.288V115.875H74.715Z" fill="black" fill-opacity="0.85"/>
</g>
<defs>
<clipPath id="clip9789789789789njn0">
<rect width="121" height="130" fill="white"/>
</clipPath>
</defs>
</svg>
