<svg width="263" height="52" viewBox="0 0 263 52" fill="none" xmlns="http://www.w3.org/2000/svg">
<path d="M6.996 7.59L7.952 7.29663L7.73516 6.59H6.996V7.59ZM11.418 22V23H12.7709L12.374 21.7066L11.418 22ZM9.394 22L8.43176 22.2722L8.63765 23H9.394V22ZM8.448 18.656L9.41024 18.3838L9.20435 17.656H8.448V18.656ZM3.146 18.656V17.656H2.38965L2.18376 18.3838L3.146 18.656ZM2.2 22V23H2.95635L3.16224 22.2722L2.2 22ZM0.286 22L-0.670408 21.708L-1.06492 23H0.286V22ZM4.686 7.59V6.59H3.94577L3.72959 7.29797L4.686 7.59ZM5.808 9.306L6.77004 9.0331L5.81283 5.65869L4.84668 9.03055L5.808 9.306ZM3.608 16.984L2.64668 16.7086L2.28123 17.984H3.608V16.984ZM7.986 16.984V17.984H9.30912L8.94804 16.7111L7.986 16.984ZM6.04 7.88337L10.462 22.2934L12.374 21.7066L7.952 7.29663L6.04 7.88337ZM11.418 21H9.394V23H11.418V21ZM10.3562 21.7278L9.41024 18.3838L7.48576 18.9282L8.43176 22.2722L10.3562 21.7278ZM8.448 17.656H3.146V19.656H8.448V17.656ZM2.18376 18.3838L1.23776 21.7278L3.16224 22.2722L4.10824 18.9282L2.18376 18.3838ZM2.2 21H0.286V23H2.2V21ZM1.24241 22.292L5.64241 7.88203L3.72959 7.29797L-0.670408 21.708L1.24241 22.292ZM4.686 8.59H6.996V6.59H4.686V8.59ZM4.84668 9.03055L2.64668 16.7086L4.56932 17.2594L6.76932 9.58145L4.84668 9.03055ZM3.608 17.984H7.986V15.984H3.608V17.984ZM8.94804 16.7111L6.77004 9.0331L4.84596 9.5789L7.02396 17.2569L8.94804 16.7111ZM24.9116 11.044H25.9116V10.2632L25.1541 10.0739L24.9116 11.044ZM24.9116 13.156L24.7154 14.1366L25.9116 14.3758V13.156H24.9116ZM21.6116 14.63L20.7487 14.1246L20.6116 14.3587V14.63H21.6116ZM21.6116 22V23H22.6116V22H21.6116ZM19.7416 22H18.7416V23H19.7416V22ZM19.7416 11.264V10.264H18.7416V11.264H19.7416ZM21.5016 11.264H22.5016V10.264H21.5016V11.264ZM21.5016 12.87H20.5016V16.2067L22.3367 13.42L21.5016 12.87ZM22.8216 11.484L22.2783 10.6444L22.2669 10.6519L22.8216 11.484ZM24.4276 12C24.5076 12 24.5682 12.0029 24.612 12.0069C24.6575 12.011 24.6738 12.0153 24.669 12.0141L25.1541 10.0739C24.9213 10.0157 24.6664 10 24.4276 10V12ZM23.9116 11.044V13.156H25.9116V11.044H23.9116ZM25.1077 12.1754C24.7975 12.1134 24.4388 12.09 24.0536 12.09V14.09C24.3723 14.09 24.5856 14.1106 24.7154 14.1366L25.1077 12.1754ZM24.0536 12.09C22.6095 12.09 21.4955 12.8495 20.7487 14.1246L22.4744 15.1354C22.9303 14.3571 23.4443 14.09 24.0536 14.09V12.09ZM20.6116 14.63V22H22.6116V14.63H20.6116ZM21.6116 21H19.7416V23H21.6116V21ZM20.7416 22V11.264H18.7416V22H20.7416ZM19.7416 12.264H21.5016V10.264H19.7416V12.264ZM20.5016 11.264V12.87H22.5016V11.264H20.5016ZM22.3367 13.42C22.6761 12.9047 23.0268 12.549 23.3763 12.3161L22.2669 10.6519C21.6483 11.0643 21.1191 11.6326 20.6664 12.32L22.3367 13.42ZM23.3648 12.3236C23.7082 12.1014 24.056 12 24.4276 12V10C23.6551 10 22.9323 10.2213 22.2783 10.6444L23.3648 12.3236ZM39.3515 11.286L40.3511 11.3127L40.373 10.4933L39.5738 10.311L39.3515 11.286ZM39.3075 12.936L39.0888 13.9118L40.2747 14.1776L40.3071 12.9627L39.3075 12.936ZM35.5235 13.222L34.8026 12.5289L34.7956 12.5362L34.7887 12.5437L35.5235 13.222ZM35.5455 20.064L34.8246 20.7571L34.8382 20.7712L34.8524 20.7848L35.5455 20.064ZM38.1855 20.548L38.3269 21.5379L38.1855 20.548ZM39.3075 20.328L40.3071 20.3013L40.2744 19.0755L39.0802 19.3542L39.3075 20.328ZM39.3515 21.978L39.5599 22.956L40.3733 22.7827L40.3511 21.9513L39.3515 21.978ZM37.1075 12C37.6743 12 38.3456 12.0823 39.1291 12.261L39.5738 10.311C38.6853 10.1084 37.8607 10 37.1075 10V12ZM38.3518 11.2593L38.3078 12.9093L40.3071 12.9627L40.3511 11.3127L38.3518 11.2593ZM39.5262 11.9602C38.6308 11.7595 37.8204 11.65 37.1075 11.65V13.65C37.6266 13.65 38.2828 13.7312 39.0888 13.9118L39.5262 11.9602ZM37.1075 11.65C36.2325 11.65 35.4103 11.8969 34.8026 12.5289L36.2443 13.9151C36.3699 13.7844 36.6038 13.65 37.1075 13.65V11.65ZM34.7887 12.5437C34.2131 13.1672 33.9955 13.9855 33.9955 14.85H35.9955C35.9955 14.3065 36.1298 14.0395 36.2583 13.9003L34.7887 12.5437ZM33.9955 14.85V18.392H35.9955V14.85H33.9955ZM33.9955 18.392C33.9955 19.2827 34.2193 20.1275 34.8246 20.7571L36.2663 19.3709C36.1383 19.2378 35.9955 18.968 35.9955 18.392H33.9955ZM34.8524 20.7848C35.4634 21.3724 36.2563 21.614 37.1075 21.614V19.614C36.6387 19.614 36.3902 19.489 36.2386 19.3432L34.8524 20.7848ZM37.1075 21.614C37.5515 21.614 37.96 21.5904 38.3269 21.5379L38.044 19.5581C37.795 19.5936 37.4848 19.614 37.1075 19.614V21.614ZM38.3269 21.5379C38.6734 21.4885 39.0778 21.4085 39.5347 21.3018L39.0802 19.3542C38.6572 19.4529 38.3136 19.5195 38.044 19.5581L38.3269 21.5379ZM38.3078 20.3547L38.3518 22.0047L40.3511 21.9513L40.3071 20.3013L38.3078 20.3547ZM39.143 21C38.2873 21.1823 37.6065 21.264 37.0855 21.264V23.264C37.7964 23.264 38.6263 23.155 39.5599 22.956L39.143 21ZM37.0855 21.264C35.9224 21.264 35.2332 20.9711 34.8265 20.5598C34.4177 20.1465 34.1255 19.4433 34.1255 18.26H32.1255C32.1255 19.746 32.4932 21.0448 33.4045 21.9662C34.3177 22.8896 35.6085 23.264 37.0855 23.264V21.264ZM34.1255 18.26V15.004H32.1255V18.26H34.1255ZM34.1255 15.004C34.1255 13.8221 34.4188 13.1196 34.83 12.7062C35.2402 12.2937 35.9357 12 37.1075 12V10C35.6246 10 34.3291 10.3736 33.4119 11.2958C32.4958 12.217 32.1255 13.5166 32.1255 15.004H34.1255ZM50.3877 12.694H49.3877V15.8145L51.2015 13.2752L50.3877 12.694ZM55.3597 11.968L54.5685 12.5794L54.5762 12.5895L54.5842 12.5993L55.3597 11.968ZM56.1297 22V23H57.1297V22H56.1297ZM54.2597 22H53.2597V23H54.2597V22ZM51.5317 13.222L52.1231 14.0284L51.5317 13.222ZM50.3877 14.542L49.5223 14.041L49.3877 14.2734V14.542H50.3877ZM50.3877 22V23H51.3877V22H50.3877ZM48.5177 22H47.5177V23H48.5177V22ZM48.5177 6.974V5.974H47.5177V6.974H48.5177ZM50.3877 6.974H51.3877V5.974H50.3877V6.974ZM51.2015 13.2752C51.8819 12.3227 52.549 12 53.2037 12V10C51.7172 10 50.5069 10.8067 49.574 12.1128L51.2015 13.2752ZM53.2037 12C53.8857 12 54.2893 12.2182 54.5685 12.5794L56.151 11.3566C55.4328 10.4271 54.3991 10 53.2037 10V12ZM54.5842 12.5993C54.9001 12.9874 55.1297 13.6314 55.1297 14.674H57.1297C57.1297 13.37 56.8461 12.21 56.1353 11.3367L54.5842 12.5993ZM55.1297 14.674V22H57.1297V14.674H55.1297ZM56.1297 21H54.2597V23H56.1297V21ZM55.2597 22V14.938H53.2597V22H55.2597ZM55.2597 14.938C55.2597 14.1283 55.1339 13.348 54.7407 12.743C54.299 12.0635 53.6087 11.738 52.8297 11.738V13.738C52.9388 13.738 52.9856 13.7584 52.999 13.7653C53.0089 13.7704 53.0311 13.7826 53.0638 13.833C53.1472 13.9613 53.2597 14.2811 53.2597 14.938H55.2597ZM52.8297 11.738C52.1384 11.738 51.5032 12.0029 50.9404 12.4156L52.1231 14.0284C52.4403 13.7958 52.6704 13.738 52.8297 13.738V11.738ZM50.9404 12.4156C50.3706 12.8334 49.9019 13.3853 49.5223 14.041L51.2532 15.043C51.5189 14.5841 51.8128 14.2559 52.1231 14.0284L50.9404 12.4156ZM49.3877 14.542V22H51.3877V14.542H49.3877ZM50.3877 21H48.5177V23H50.3877V21ZM49.5177 22V6.974H47.5177V22H49.5177ZM48.5177 7.974H50.3877V5.974H48.5177V7.974ZM49.3877 6.974V12.694H51.3877V6.974H49.3877ZM67.5795 11.264H68.5795V10.264H67.5795V11.264ZM67.5795 22V23H68.5795V22H67.5795ZM65.7095 22H64.7095V23H65.7095V22ZM65.7095 11.264V10.264H64.7095V11.264H65.7095ZM67.5355 7.194L66.8847 7.95326L66.8976 7.96428L66.9108 7.97487L67.5355 7.194ZM67.5355 9.328L68.1534 10.1143L68.1602 10.1089L67.5355 9.328ZM65.7315 9.328L65.0807 10.0873L65.1096 10.112L65.1402 10.1344L65.7315 9.328ZM65.7315 7.194L65.1068 6.41313L65.0936 6.42372L65.0807 6.43474L65.7315 7.194ZM66.5795 11.264V22H68.5795V11.264H66.5795ZM67.5795 21H65.7095V23H67.5795V21ZM66.7095 22V11.264H64.7095V22H66.7095ZM65.7095 12.264H67.5795V10.264H65.7095V12.264ZM66.6335 7.93C66.899 7.93 66.9286 7.99088 66.8847 7.95326L68.1863 6.43474C67.7318 6.04512 67.1601 5.93 66.6335 5.93V7.93ZM66.9108 7.97487C66.9072 7.97192 66.8991 7.9647 66.8898 7.95275C66.8805 7.94068 66.8731 7.92798 66.8681 7.91664C66.8577 7.89293 66.8655 7.89445 66.8655 7.942H68.8655C68.8655 7.3653 68.6537 6.80795 68.1602 6.41313L66.9108 7.97487ZM66.8655 7.942V8.58H68.8655V7.942H66.8655ZM66.8655 8.58C66.8655 8.62755 66.8577 8.62907 66.8681 8.60536C66.8731 8.59401 66.8805 8.58132 66.8898 8.56925C66.8991 8.5573 66.9072 8.55008 66.9108 8.54713L68.1602 10.1089C68.6537 9.71405 68.8655 9.1567 68.8655 8.58H66.8655ZM66.9177 8.54168C66.9396 8.52447 66.9414 8.53172 66.8969 8.54366C66.8504 8.55615 66.7665 8.57 66.6335 8.57V10.57C67.1435 10.57 67.7013 10.4695 68.1534 10.1143L66.9177 8.54168ZM66.6335 8.57C66.3825 8.57 66.3151 8.51589 66.3229 8.5216L65.1402 10.1344C65.588 10.4628 66.1219 10.57 66.6335 10.57V8.57ZM66.3823 8.56874C66.3888 8.57434 66.3978 8.58339 66.4067 8.59574C66.4157 8.6081 66.4217 8.61969 66.4252 8.62825C66.4324 8.64562 66.4235 8.63586 66.4235 8.58H64.4235C64.4235 9.13259 64.6107 9.68433 65.0807 10.0873L66.3823 8.56874ZM66.4235 8.58V7.942H64.4235V8.58H66.4235ZM66.4235 7.942C66.4235 7.88614 66.4324 7.87638 66.4252 7.89375C66.4217 7.90231 66.4157 7.9139 66.4067 7.92626C66.3978 7.93861 66.3888 7.94766 66.3823 7.95326L65.0807 6.43474C64.6107 6.83767 64.4235 7.38941 64.4235 7.942H66.4235ZM66.3562 7.97487C66.3452 7.98368 66.3993 7.93 66.6335 7.93V5.93C66.105 5.93 65.5578 6.05232 65.1068 6.41313L66.3562 7.97487ZM84.9949 11.264L85.9502 11.5596L86.3511 10.264H84.9949V11.264ZM81.6729 22V23H82.4103L82.6283 22.2956L81.6729 22ZM79.2309 22L78.2751 22.2938L78.4921 23H79.2309V22ZM75.9309 11.264V10.264H74.5774L74.9751 11.5578L75.9309 11.264ZM77.9109 11.264L78.8758 11.0013L78.675 10.264H77.9109V11.264ZM80.4629 20.636L79.4981 20.8987L80.4629 24.4421L81.4278 20.8987L80.4629 20.636ZM83.0149 11.264V10.264H82.2508L82.0501 11.0013L83.0149 11.264ZM84.0396 10.9684L80.7176 21.7044L82.6283 22.2956L85.9502 11.5596L84.0396 10.9684ZM81.6729 21H79.2309V23H81.6729V21ZM80.1868 21.7062L76.8868 10.9702L74.9751 11.5578L78.2751 22.2938L80.1868 21.7062ZM75.9309 12.264H77.9109V10.264H75.9309V12.264ZM76.9461 11.5267L79.4981 20.8987L81.4278 20.3733L78.8758 11.0013L76.9461 11.5267ZM81.4278 20.8987L83.9798 11.5267L82.0501 11.0013L79.4981 20.3733L81.4278 20.8987ZM83.0149 12.264H84.9949V10.264H83.0149V12.264ZM99.6186 12.012L100.341 11.3208L99.6186 12.012ZM100.587 17.204V18.204H101.587V17.204H100.587ZM94.9326 17.204V16.204H93.9326V17.204H94.9326ZM95.4606 20.13L94.7687 20.852L94.784 20.8667L94.7999 20.8807L95.4606 20.13ZM100.037 20.262L101.036 20.235L101.004 19.0427L99.8356 19.2824L100.037 20.262ZM100.081 21.89L100.26 22.8737L101.103 22.7196L101.08 21.863L100.081 21.89ZM94.0086 21.318L93.3014 22.0252L93.3096 22.0332L94.0086 21.318ZM93.9866 12.012L93.256 11.3291L93.2481 11.3377L93.9866 12.012ZM95.4386 13.112L96.1606 13.8039L96.1676 13.7966L96.1745 13.7891L95.4386 13.112ZM94.9326 15.708H93.9326V16.708H94.9326V15.708ZM98.7166 15.708V16.708H99.7166V15.708H98.7166ZM98.1886 13.112L97.4526 13.7891L97.4598 13.7969L97.4672 13.8045L98.1886 13.112ZM96.8026 12C97.8527 12 98.4941 12.2831 98.8959 12.7032L100.341 11.3208C99.4524 10.3915 98.2164 10 96.8026 10V12ZM98.8959 12.7032C99.3064 13.1323 99.5866 13.8235 99.5866 14.938H101.587C101.587 13.5005 101.221 12.241 100.341 11.3208L98.8959 12.7032ZM99.5866 14.938V17.204H101.587V14.938H99.5866ZM100.587 16.204H94.9326V18.204H100.587V16.204ZM93.9326 17.204V18.502H95.9326V17.204H93.9326ZM93.9326 18.502C93.9326 19.3791 94.1359 20.2456 94.7687 20.852L96.1525 19.408C96.0812 19.3397 95.9326 19.1209 95.9326 18.502H93.9326ZM94.7999 20.8807C95.4305 21.4356 96.2923 21.614 97.1766 21.614V19.614C96.5062 19.614 96.224 19.4697 96.1212 19.3793L94.7999 20.8807ZM97.1766 21.614C98.0323 21.614 99.0583 21.4835 100.238 21.2416L99.8356 19.2824C98.7269 19.5098 97.8462 19.614 97.1766 19.614V21.614ZM99.0369 20.289L99.0809 21.917L101.08 21.863L101.036 20.235L99.0369 20.289ZM99.9008 20.9063C98.5379 21.1554 97.6417 21.264 97.1546 21.264V23.264C97.8408 23.264 98.8952 23.1232 100.26 22.8737L99.9008 20.9063ZM97.1546 21.264C95.8116 21.264 95.0798 20.9667 94.7075 20.6028L93.3096 22.0332C94.228 22.9306 95.5936 23.264 97.1546 23.264V21.264ZM94.7157 20.6109C94.3462 20.2414 94.0626 19.5733 94.0626 18.392H92.0626C92.0626 19.8507 92.4096 21.1332 93.3015 22.0251L94.7157 20.6109ZM94.0626 18.392V14.938H92.0626V18.392H94.0626ZM94.0626 14.938C94.0626 13.8123 94.334 13.1146 94.7251 12.6863L93.2481 11.3377C92.4072 12.2587 92.0626 13.5117 92.0626 14.938H94.0626ZM94.7171 12.6949C95.0994 12.2859 95.7321 12 96.8026 12V10C95.3797 10 94.1351 10.3888 93.2561 11.3291L94.7171 12.6949ZM96.8026 11.562C95.9964 11.562 95.2581 11.8312 94.7026 12.4349L96.1745 13.7891C96.2937 13.6595 96.4647 13.562 96.8026 13.562V11.562ZM94.7166 12.4201C94.1418 13.0199 93.9326 13.8197 93.9326 14.652H95.9326C95.9326 14.135 96.0607 13.9081 96.1606 13.8039L94.7166 12.4201ZM93.9326 14.652V15.708H95.9326V14.652H93.9326ZM94.9326 16.708H98.7166V14.708H94.9326V16.708ZM99.7166 15.708V14.718H97.7166V15.708H99.7166ZM99.7166 14.718C99.7166 13.8565 99.5001 13.0341 98.91 12.4195L97.4672 13.8045C97.5811 13.9232 97.7166 14.1715 97.7166 14.718H99.7166ZM98.9245 12.4349C98.364 11.8257 97.6148 11.562 96.8026 11.562V13.562C97.1637 13.562 97.3385 13.665 97.4526 13.7891L98.9245 12.4349ZM127.976 7.59H128.976V6.59H127.976V7.59ZM127.976 9.284V10.284H128.976V9.284H127.976ZM122.256 9.284V8.284H121.256V9.284H122.256ZM122.256 13.838H121.256V14.838H122.256V13.838ZM127.536 13.838H128.536V12.838H127.536V13.838ZM127.536 15.51V16.51H128.536V15.51H127.536ZM122.256 15.51V14.51H121.256V15.51H122.256ZM122.256 20.306H121.256V21.306H122.256V20.306ZM127.976 20.306H128.976V19.306H127.976V20.306ZM127.976 22V23H128.976V22H127.976ZM120.386 22H119.386V23H120.386V22ZM120.386 7.59V6.59H119.386V7.59H120.386ZM126.976 7.59V9.284H128.976V7.59H126.976ZM127.976 8.284H122.256V10.284H127.976V8.284ZM121.256 9.284V13.838H123.256V9.284H121.256ZM122.256 14.838H127.536V12.838H122.256V14.838ZM126.536 13.838V15.51H128.536V13.838H126.536ZM127.536 14.51H122.256V16.51H127.536V14.51ZM121.256 15.51V20.306H123.256V15.51H121.256ZM122.256 21.306H127.976V19.306H122.256V21.306ZM126.976 20.306V22H128.976V20.306H126.976ZM127.976 21H120.386V23H127.976V21ZM121.386 22V7.59H119.386V22H121.386ZM120.386 8.59H127.976V6.59H120.386V8.59ZM144.923 11.264L145.777 11.7854L146.706 10.264H144.923V11.264ZM141.777 16.412L140.924 15.8905L140.607 16.4099L140.922 16.9305L141.777 16.412ZM145.165 22V23H146.941L146.02 21.4815L145.165 22ZM143.031 22L142.165 22.4991L142.453 23H143.031V22ZM140.611 17.798L141.478 17.2989L140.599 15.7734L139.739 17.3093L140.611 17.798ZM138.257 22V23H138.843L139.13 22.4887L138.257 22ZM136.123 22L135.268 21.482L134.349 23H136.123V22ZM139.467 16.478L140.323 16.996L140.635 16.4808L140.325 15.964L139.467 16.478ZM136.343 11.264V10.264H134.578L135.485 11.778L136.343 11.264ZM138.477 11.264L139.348 10.7716L139.06 10.264H138.477V11.264ZM140.655 15.114L139.785 15.6064L140.651 17.1372L141.524 15.6101L140.655 15.114ZM142.855 11.264V10.264H142.275L141.987 10.7679L142.855 11.264ZM144.07 10.7425L140.924 15.8905L142.631 16.9334L145.777 11.7854L144.07 10.7425ZM140.922 16.9305L144.31 22.5185L146.02 21.4815L142.632 15.8935L140.922 16.9305ZM145.165 21H143.031V23H145.165V21ZM143.898 21.5009L141.478 17.2989L139.745 18.2971L142.165 22.4991L143.898 21.5009ZM139.739 17.3093L137.385 21.5113L139.13 22.4887L141.484 18.2867L139.739 17.3093ZM138.257 21H136.123V23H138.257V21ZM136.979 22.518L140.323 16.996L138.612 15.96L135.268 21.482L136.979 22.518ZM140.325 15.964L137.201 10.75L135.485 11.778L138.609 16.992L140.325 15.964ZM136.343 12.264H138.477V10.264H136.343V12.264ZM137.607 11.7564L139.785 15.6064L141.526 14.6216L139.348 10.7716L137.607 11.7564ZM141.524 15.6101L143.724 11.7601L141.987 10.7679L139.787 14.6179L141.524 15.6101ZM142.855 12.264H144.923V10.264H142.855V12.264ZM155.283 12.694H154.283V15.8145L156.097 13.2752L155.283 12.694ZM160.255 11.968L159.464 12.5794L159.471 12.5895L159.479 12.5993L160.255 11.968ZM161.025 22V23H162.025V22H161.025ZM159.155 22H158.155V23H159.155V22ZM156.427 13.222L157.018 14.0284L156.427 13.222ZM155.283 14.542L154.418 14.041L154.283 14.2734V14.542H155.283ZM155.283 22V23H156.283V22H155.283ZM153.413 22H152.413V23H153.413V22ZM153.413 6.974V5.974H152.413V6.974H153.413ZM155.283 6.974H156.283V5.974H155.283V6.974ZM156.097 13.2752C156.777 12.3227 157.444 12 158.099 12V10C156.612 10 155.402 10.8067 154.469 12.1128L156.097 13.2752ZM158.099 12C158.781 12 159.185 12.2182 159.464 12.5794L161.046 11.3566C160.328 10.4271 159.294 10 158.099 10V12ZM159.479 12.5993C159.795 12.9874 160.025 13.6314 160.025 14.674H162.025C162.025 13.37 161.741 12.21 161.031 11.3367L159.479 12.5993ZM160.025 14.674V22H162.025V14.674H160.025ZM161.025 21H159.155V23H161.025V21ZM160.155 22V14.938H158.155V22H160.155ZM160.155 14.938C160.155 14.1283 160.029 13.348 159.636 12.743C159.194 12.0635 158.504 11.738 157.725 11.738V13.738C157.834 13.738 157.881 13.7584 157.894 13.7653C157.904 13.7704 157.926 13.7826 157.959 13.833C158.042 13.9613 158.155 14.2811 158.155 14.938H160.155ZM157.725 11.738C157.034 11.738 156.399 12.0029 155.836 12.4156L157.018 14.0284C157.336 13.7958 157.566 13.738 157.725 13.738V11.738ZM155.836 12.4156C155.266 12.8334 154.797 13.3853 154.418 14.041L156.148 15.043C156.414 14.5841 156.708 14.2559 157.018 14.0284L155.836 12.4156ZM154.283 14.542V22H156.283V14.542H154.283ZM155.283 21H153.413V23H155.283V21ZM154.413 22V6.974H152.413V22H154.413ZM153.413 7.974H155.283V5.974H153.413V7.974ZM154.283 6.974V12.694H156.283V6.974H154.283ZM172.475 11.264H173.475V10.264H172.475V11.264ZM172.475 22V23H173.475V22H172.475ZM170.605 22H169.605V23H170.605V22ZM170.605 11.264V10.264H169.605V11.264H170.605ZM172.431 7.194L171.78 7.95326L171.793 7.96428L171.806 7.97487L172.431 7.194ZM172.431 9.328L173.049 10.1143L173.056 10.1089L172.431 9.328ZM170.627 9.328L169.976 10.0873L170.005 10.112L170.035 10.1344L170.627 9.328ZM170.627 7.194L170.002 6.41313L169.989 6.42372L169.976 6.43474L170.627 7.194ZM171.475 11.264V22H173.475V11.264H171.475ZM172.475 21H170.605V23H172.475V21ZM171.605 22V11.264H169.605V22H171.605ZM170.605 12.264H172.475V10.264H170.605V12.264ZM171.529 7.93C171.794 7.93 171.824 7.99088 171.78 7.95326L173.082 6.43474C172.627 6.04512 172.055 5.93 171.529 5.93V7.93ZM171.806 7.97487C171.802 7.97192 171.794 7.9647 171.785 7.95275C171.776 7.94068 171.768 7.92798 171.763 7.91664C171.753 7.89293 171.761 7.89445 171.761 7.942H173.761C173.761 7.3653 173.549 6.80795 173.056 6.41313L171.806 7.97487ZM171.761 7.942V8.58H173.761V7.942H171.761ZM171.761 8.58C171.761 8.62755 171.753 8.62907 171.763 8.60536C171.768 8.59401 171.776 8.58132 171.785 8.56925C171.794 8.5573 171.802 8.55008 171.806 8.54713L173.056 10.1089C173.549 9.71405 173.761 9.1567 173.761 8.58H171.761ZM171.813 8.54168C171.835 8.52447 171.837 8.53172 171.792 8.54366C171.746 8.55615 171.662 8.57 171.529 8.57V10.57C172.039 10.57 172.597 10.4695 173.049 10.1143L171.813 8.54168ZM171.529 8.57C171.278 8.57 171.21 8.51589 171.218 8.5216L170.035 10.1344C170.483 10.4628 171.017 10.57 171.529 10.57V8.57ZM171.278 8.56874C171.284 8.57434 171.293 8.58339 171.302 8.59574C171.311 8.6081 171.317 8.61969 171.321 8.62825C171.328 8.64562 171.319 8.63586 171.319 8.58H169.319C169.319 9.13259 169.506 9.68433 169.976 10.0873L171.278 8.56874ZM171.319 8.58V7.942H169.319V8.58H171.319ZM171.319 7.942C171.319 7.88614 171.328 7.87638 171.321 7.89375C171.317 7.90231 171.311 7.9139 171.302 7.92626C171.293 7.93861 171.284 7.94766 171.278 7.95326L169.976 6.43474C169.506 6.83767 169.319 7.38941 169.319 7.942H171.319ZM171.252 7.97487C171.241 7.98368 171.295 7.93 171.529 7.93V5.93C171 5.93 170.453 6.05232 170.002 6.41313L171.252 7.97487ZM183.906 12.694H182.906V15.8564L184.724 13.2689L183.906 12.694ZM185.226 11.44L184.719 10.5781V10.5781L185.226 11.44ZM188.9 11.968L188.109 12.5795L188.116 12.5882L188.9 11.968ZM188.702 21.252L189.433 21.9349L189.44 21.927L188.702 21.252ZM182.938 21.274L183.677 20.6005L182.938 21.274ZM182.036 6.974V5.974H181.036V6.974H182.036ZM183.906 6.974H184.906V5.974H183.906V6.974ZM185.05 13.156L185.642 13.9624V13.9624L185.05 13.156ZM183.906 14.476L183.041 13.975L182.906 14.2074V14.476H183.906ZM184.39 20.13L183.627 20.7759L183.634 20.7843L183.641 20.7926L184.39 20.13ZM184.724 13.2689C185.036 12.826 185.374 12.513 185.733 12.3019L184.719 10.5781C184.081 10.9536 183.539 11.4767 183.088 12.1191L184.724 13.2689ZM185.733 12.3019C186.089 12.0928 186.436 12 186.788 12V10C186.055 10 185.361 10.2005 184.719 10.5781L185.733 12.3019ZM186.788 12C187.429 12 187.823 12.2097 188.109 12.5794L189.692 11.3566C188.98 10.4356 187.967 10 186.788 10V12ZM188.116 12.5882C188.419 12.9718 188.648 13.6375 188.648 14.74H190.648C190.648 13.4078 190.379 12.2255 189.685 11.3478L188.116 12.5882ZM188.648 14.74V18.216H190.648V14.74H188.648ZM188.648 18.216C188.648 19.4072 188.366 20.1378 187.964 20.577L189.44 21.927C190.3 20.9875 190.648 19.6941 190.648 18.216H188.648ZM187.972 20.5691C187.599 20.9674 186.94 21.264 185.776 21.264V23.264C187.252 23.264 188.544 22.8859 189.433 21.9349L187.972 20.5691ZM185.776 21.264C184.639 21.264 184.018 20.974 183.677 20.6005L182.199 21.9475C183.061 22.894 184.332 23.264 185.776 23.264V21.264ZM183.677 20.6005C183.312 20.1993 183.036 19.484 183.036 18.26H181.036C181.036 19.7347 181.362 21.0287 182.199 21.9475L183.677 20.6005ZM183.036 18.26V6.974H181.036V18.26H183.036ZM182.036 7.974H183.906V5.974H182.036V7.974ZM182.906 6.974V12.694H184.906V6.974H182.906ZM186.348 11.672C185.657 11.672 185.022 11.9369 184.459 12.3496L185.642 13.9624C185.959 13.7298 186.189 13.672 186.348 13.672V11.672ZM184.459 12.3496C183.889 12.7674 183.42 13.3193 183.041 13.975L184.772 14.977C185.037 14.5181 185.331 14.1899 185.642 13.9624L184.459 12.3496ZM182.906 14.476V18.48H184.906V14.476H182.906ZM182.906 18.48C182.906 19.3334 183.097 20.1492 183.627 20.7759L185.154 19.4841C185.039 19.3482 184.906 19.0639 184.906 18.48H182.906ZM183.641 20.7926C184.198 21.4221 184.951 21.702 185.776 21.702V19.702C185.428 19.702 185.257 19.6005 185.139 19.4674L183.641 20.7926ZM185.776 21.702C186.632 21.702 187.447 21.4541 188.027 20.7976C188.586 20.1647 188.778 19.3171 188.778 18.436H186.778C186.778 19.0656 186.637 19.351 186.528 19.4734C186.441 19.5722 186.255 19.702 185.776 19.702V21.702ZM188.778 18.436V15.004H186.778V18.436H188.778ZM188.778 15.004C188.778 14.157 188.654 13.3536 188.273 12.7322C187.843 12.031 187.154 11.672 186.348 11.672V13.672C186.448 13.672 186.487 13.6915 186.496 13.6963C186.503 13.7001 186.529 13.7144 186.568 13.7778C186.664 13.9338 186.778 14.2964 186.778 15.004H188.778ZM200.972 11.264H201.972V10.264H200.972V11.264ZM200.972 22V23H201.972V22H200.972ZM199.102 22H198.102V23H199.102V22ZM199.102 11.264V10.264H198.102V11.264H199.102ZM200.928 7.194L200.277 7.95326L200.29 7.96428L200.303 7.97487L200.928 7.194ZM200.928 9.328L201.546 10.1143L201.552 10.1089L200.928 9.328ZM199.124 9.328L198.473 10.0873L198.502 10.112L198.532 10.1344L199.124 9.328ZM199.124 7.194L198.499 6.41313L198.486 6.42372L198.473 6.43474L199.124 7.194ZM199.972 11.264V22H201.972V11.264H199.972ZM200.972 21H199.102V23H200.972V21ZM200.102 22V11.264H198.102V22H200.102ZM199.102 12.264H200.972V10.264H199.102V12.264ZM200.026 7.93C200.291 7.93 200.321 7.99088 200.277 7.95326L201.579 6.43474C201.124 6.04512 200.552 5.93 200.026 5.93V7.93ZM200.303 7.97487C200.299 7.97192 200.291 7.9647 200.282 7.95275C200.273 7.94068 200.265 7.92798 200.26 7.91664C200.25 7.89293 200.258 7.89445 200.258 7.942H202.258C202.258 7.3653 202.046 6.80795 201.552 6.41313L200.303 7.97487ZM200.258 7.942V8.58H202.258V7.942H200.258ZM200.258 8.58C200.258 8.62755 200.25 8.62907 200.26 8.60536C200.265 8.59401 200.273 8.58132 200.282 8.56925C200.291 8.5573 200.299 8.55008 200.303 8.54713L201.552 10.1089C202.046 9.71405 202.258 9.1567 202.258 8.58H200.258ZM200.31 8.54168C200.332 8.52447 200.334 8.53172 200.289 8.54366C200.243 8.55615 200.159 8.57 200.026 8.57V10.57C200.536 10.57 201.094 10.4695 201.546 10.1143L200.31 8.54168ZM200.026 8.57C199.775 8.57 199.707 8.51589 199.715 8.5216L198.532 10.1344C198.98 10.4628 199.514 10.57 200.026 10.57V8.57ZM199.775 8.56874C199.781 8.57434 199.79 8.58339 199.799 8.59574C199.808 8.6081 199.814 8.61969 199.817 8.62825C199.825 8.64562 199.816 8.63586 199.816 8.58H197.816C197.816 9.13259 198.003 9.68433 198.473 10.0873L199.775 8.56874ZM199.816 8.58V7.942H197.816V8.58H199.816ZM199.816 7.942C199.816 7.88614 199.825 7.87638 199.817 7.89375C199.814 7.90231 199.808 7.9139 199.799 7.92626C199.79 7.93861 199.781 7.94766 199.775 7.95326L198.473 6.43474C198.003 6.83767 197.816 7.38941 197.816 7.942H199.816ZM199.748 7.97487C199.737 7.98368 199.792 7.93 200.026 7.93V5.93C199.497 5.93 198.95 6.05232 198.499 6.41313L199.748 7.97487ZM212.843 11.264H211.843V12.264H212.843V11.264ZM215.703 11.264H216.703V10.264H215.703V11.264ZM215.703 12.804V13.804H216.703V12.804H215.703ZM212.843 12.804V11.804H211.843V12.804H212.843ZM213.173 20.306L212.423 20.9676L212.444 20.991L212.466 21.0131L213.173 20.306ZM216.055 20.438L217.055 20.4098L217.02 19.1661L215.813 19.4679L216.055 20.438ZM216.099 22L216.362 22.9648L217.121 22.7579L217.099 21.9718L216.099 22ZM211.765 21.494L211.058 22.2011L211.068 22.2109L211.078 22.2205L211.765 21.494ZM210.973 12.804H211.973V11.804H210.973V12.804ZM209.433 12.804H208.433V13.804H209.433V12.804ZM209.433 11.264V10.264H208.433V11.264H209.433ZM210.973 11.264V12.264H211.858L211.966 11.3862L210.973 11.264ZM211.325 8.404V7.404H210.441L210.333 8.28184L211.325 8.404ZM212.843 8.404H213.843V7.404H212.843V8.404ZM212.843 12.264H215.703V10.264H212.843V12.264ZM214.703 11.264V12.804H216.703V11.264H214.703ZM215.703 11.804H212.843V13.804H215.703V11.804ZM211.843 12.804V19.096H213.843V12.804H211.843ZM211.843 19.096C211.843 19.7443 211.964 20.4468 212.423 20.9676L213.923 19.6444C213.937 19.66 213.915 19.6445 213.89 19.5534C213.865 19.4605 213.843 19.3133 213.843 19.096H211.843ZM212.466 21.0131C212.959 21.5066 213.623 21.658 214.251 21.658V19.658C213.911 19.658 213.856 19.5748 213.88 19.5989L212.466 21.0131ZM214.251 21.658C214.947 21.658 215.63 21.575 216.298 21.4081L215.813 19.4679C215.307 19.5943 214.787 19.658 214.251 19.658V21.658ZM215.056 20.4662L215.1 22.0282L217.099 21.9718L217.055 20.4098L215.056 20.4662ZM215.836 21.0352C215.255 21.1938 214.758 21.264 214.339 21.264V23.264C214.976 23.264 215.653 23.1582 216.362 22.9648L215.836 21.0352ZM214.339 21.264C213.281 21.264 212.728 21.028 212.452 20.7675L211.078 22.2205C211.888 22.9866 213.051 23.264 214.339 23.264V21.264ZM212.472 20.7869C212.215 20.5296 211.973 19.997 211.973 18.942H209.973C209.973 20.2336 210.259 21.4024 211.058 22.2011L212.472 20.7869ZM211.973 18.942V12.804H209.973V18.942H211.973ZM210.973 11.804H209.433V13.804H210.973V11.804ZM210.433 12.804V11.264H208.433V12.804H210.433ZM209.433 12.264H210.973V10.264H209.433V12.264ZM211.966 11.3862L212.318 8.52615L210.333 8.28184L209.981 11.1418L211.966 11.3862ZM211.325 9.404H212.843V7.404H211.325V9.404ZM211.843 8.404V11.264H213.843V8.404H211.843ZM226.547 11.264H227.547V10.264H226.547V11.264ZM226.547 22V23H227.547V22H226.547ZM224.677 22H223.677V23H224.677V22ZM224.677 11.264V10.264H223.677V11.264H224.677ZM226.503 7.194L225.852 7.95326L225.865 7.96428L225.878 7.97487L226.503 7.194ZM226.503 9.328L227.121 10.1143L227.127 10.1089L226.503 9.328ZM224.699 9.328L224.048 10.0873L224.077 10.112L224.107 10.1344L224.699 9.328ZM224.699 7.194L224.074 6.41313L224.061 6.42372L224.048 6.43474L224.699 7.194ZM225.547 11.264V22H227.547V11.264H225.547ZM226.547 21H224.677V23H226.547V21ZM225.677 22V11.264H223.677V22H225.677ZM224.677 12.264H226.547V10.264H224.677V12.264ZM225.601 7.93C225.866 7.93 225.896 7.99088 225.852 7.95326L227.154 6.43474C226.699 6.04512 226.127 5.93 225.601 5.93V7.93ZM225.878 7.97487C225.874 7.97192 225.866 7.9647 225.857 7.95275C225.848 7.94068 225.84 7.92798 225.835 7.91664C225.825 7.89293 225.833 7.89445 225.833 7.942H227.833C227.833 7.3653 227.621 6.80795 227.127 6.41313L225.878 7.97487ZM225.833 7.942V8.58H227.833V7.942H225.833ZM225.833 8.58C225.833 8.62755 225.825 8.62907 225.835 8.60536C225.84 8.59401 225.848 8.58132 225.857 8.56925C225.866 8.5573 225.874 8.55008 225.878 8.54713L227.127 10.1089C227.621 9.71405 227.833 9.1567 227.833 8.58H225.833ZM225.885 8.54168C225.907 8.52447 225.909 8.53172 225.864 8.54366C225.818 8.55615 225.734 8.57 225.601 8.57V10.57C226.111 10.57 226.669 10.4695 227.121 10.1143L225.885 8.54168ZM225.601 8.57C225.35 8.57 225.282 8.51589 225.29 8.5216L224.107 10.1344C224.555 10.4628 225.089 10.57 225.601 10.57V8.57ZM225.35 8.56874C225.356 8.57434 225.365 8.58339 225.374 8.59574C225.383 8.6081 225.389 8.61969 225.392 8.62825C225.4 8.64562 225.391 8.63586 225.391 8.58H223.391C223.391 9.13259 223.578 9.68433 224.048 10.0873L225.35 8.56874ZM225.391 8.58V7.942H223.391V8.58H225.391ZM225.391 7.942C225.391 7.88614 225.4 7.87638 225.392 7.89375C225.389 7.90231 225.383 7.9139 225.374 7.92626C225.365 7.93861 225.356 7.94766 225.35 7.95326L224.048 6.43474C223.578 6.83767 223.391 7.38941 223.391 7.942H225.391ZM225.323 7.97487C225.312 7.98368 225.367 7.93 225.601 7.93V5.93C225.072 5.93 224.525 6.05232 224.074 6.41313L225.323 7.97487ZM242.774 12.056L242.029 12.7232L242.037 12.7314L242.044 12.7394L242.774 12.056ZM242.774 21.23L242.037 20.5543L242.036 20.555L242.774 21.23ZM236.944 21.23L236.199 21.8972L236.207 21.9054L236.214 21.9134L236.944 21.23ZM236.944 12.056L236.207 11.3803L236.206 11.381L236.944 12.056ZM238.396 13.156L239.144 13.8204V13.8204L238.396 13.156ZM238.396 20.108L239.144 19.4436L238.396 20.108ZM241.344 20.108L240.597 19.4436L241.344 20.108ZM241.344 13.156L240.597 13.8204L240.603 13.8274L240.609 13.8343L241.344 13.156ZM239.87 12C241.004 12 241.652 12.3024 242.029 12.7232L243.519 11.3888C242.635 10.4016 241.347 10 239.87 10V12ZM242.044 12.7394C242.463 13.1864 242.742 13.891 242.742 15.004H244.742C244.742 13.565 244.376 12.3043 243.504 11.3726L242.044 12.7394ZM242.742 15.004V18.26H244.742V15.004H242.742ZM242.742 18.26C242.742 19.3715 242.463 20.0894 242.037 20.5543L243.511 21.9057C244.376 20.9626 244.742 19.7005 244.742 18.26H242.742ZM242.036 20.555C241.661 20.9655 241.01 21.264 239.87 21.264V23.264C241.341 23.264 242.626 22.8732 243.512 21.905L242.036 20.555ZM239.87 21.264C238.732 21.264 238.067 20.9662 237.674 20.5466L236.214 21.9134C237.112 22.8725 238.397 23.264 239.87 23.264V21.264ZM237.689 20.5628C237.273 20.0981 236.998 19.377 236.998 18.26H234.998C234.998 19.695 235.354 20.9539 236.199 21.8972L237.689 20.5628ZM236.998 18.26V15.004H234.998V18.26H236.998ZM236.998 15.004C236.998 13.8855 237.273 13.1776 237.682 12.731L236.206 11.381C235.354 12.313 234.998 13.5705 234.998 15.004H236.998ZM237.681 12.7317C238.075 12.3017 238.738 12 239.87 12V10C238.391 10 237.103 10.4023 236.207 11.3803L237.681 12.7317ZM239.87 11.562C239.013 11.562 238.227 11.8414 237.649 12.4916L239.144 13.8204C239.27 13.6786 239.466 13.562 239.87 13.562V11.562ZM237.649 12.4916C237.081 13.1306 236.868 13.966 236.868 14.85H238.868C238.868 14.2674 239.008 13.9734 239.144 13.8204L237.649 12.4916ZM236.868 14.85V18.414H238.868V14.85H236.868ZM236.868 18.414C236.868 19.298 237.081 20.1334 237.649 20.7724L239.144 19.4436C239.008 19.2906 238.868 18.9966 238.868 18.414H236.868ZM237.649 20.7724C238.227 21.4226 239.013 21.702 239.87 21.702V19.702C239.466 19.702 239.27 19.5854 239.144 19.4436L237.649 20.7724ZM239.87 21.702C240.727 21.702 241.514 21.4226 242.092 20.7724L240.597 19.4436C240.471 19.5854 240.275 19.702 239.87 19.702V21.702ZM242.092 20.7724C242.66 20.1334 242.872 19.298 242.872 18.414H240.872C240.872 18.9966 240.733 19.2906 240.597 19.4436L242.092 20.7724ZM242.872 18.414V14.828H240.872V18.414H242.872ZM242.872 14.828C242.872 13.9471 242.661 13.108 242.079 12.4777L240.609 13.8343C240.732 13.9666 240.872 14.2423 240.872 14.828H242.872ZM242.092 12.4916C241.514 11.8414 240.727 11.562 239.87 11.562V13.562C240.275 13.562 240.471 13.6786 240.597 13.8204L242.092 12.4916ZM260.037 11.968L259.246 12.5794L259.254 12.5895L259.262 12.5993L260.037 11.968ZM260.807 22V23H261.807V22H260.807ZM258.937 22H257.937V23H258.937V22ZM256.209 13.222L256.8 14.0284L256.209 13.222ZM255.065 14.542L254.2 14.041L254.065 14.2734V14.542H255.065ZM255.065 22V23H256.065V22H255.065ZM253.195 22H252.195V23H253.195V22ZM253.195 11.264V10.264H252.195V11.264H253.195ZM254.955 11.264H255.955V10.264H254.955V11.264ZM254.955 12.87H253.955V16.2067L255.79 13.42L254.955 12.87ZM256.275 11.484L255.732 10.6444L255.72 10.6519L256.275 11.484ZM257.881 12C258.563 12 258.967 12.2182 259.246 12.5794L260.828 11.3566C260.11 10.4271 259.076 10 257.881 10V12ZM259.262 12.5993C259.577 12.9874 259.807 13.6314 259.807 14.674H261.807C261.807 13.37 261.523 12.21 260.813 11.3367L259.262 12.5993ZM259.807 14.674V22H261.807V14.674H259.807ZM260.807 21H258.937V23H260.807V21ZM259.937 22V14.938H257.937V22H259.937ZM259.937 14.938C259.937 14.1283 259.811 13.348 259.418 12.743C258.976 12.0635 258.286 11.738 257.507 11.738V13.738C257.616 13.738 257.663 13.7584 257.676 13.7653C257.686 13.7704 257.708 13.7826 257.741 13.833C257.825 13.9613 257.937 14.2811 257.937 14.938H259.937ZM257.507 11.738C256.816 11.738 256.181 12.0029 255.618 12.4156L256.8 14.0284C257.118 13.7958 257.348 13.738 257.507 13.738V11.738ZM255.618 12.4156C255.048 12.8334 254.579 13.3853 254.2 14.041L255.93 15.043C256.196 14.5841 256.49 14.2559 256.8 14.0284L255.618 12.4156ZM254.065 14.542V22H256.065V14.542H254.065ZM255.065 21H253.195V23H255.065V21ZM254.195 22V11.264H252.195V22H254.195ZM253.195 12.264H254.955V10.264H253.195V12.264ZM253.955 11.264V12.87H255.955V11.264H253.955ZM255.79 13.42C256.13 12.9047 256.48 12.549 256.83 12.3161L255.72 10.6519C255.102 11.0643 254.573 11.6326 254.12 12.32L255.79 13.42ZM256.818 12.3236C257.162 12.1014 257.509 12 257.881 12V10C257.109 10 256.386 10.2213 255.732 10.6444L256.818 12.3236Z" fill="#A9A69C"/>
<path d="M7.4375 18.6562H3.32812L2.54688 21H0.0546875L4.28906 9.625H6.46094L10.7188 21H8.22656L7.4375 18.6562ZM3.96094 16.7578H6.80469L5.375 12.5L3.96094 16.7578ZM21.1828 14.6641C20.8755 14.6224 20.6047 14.6016 20.3703 14.6016C19.5161 14.6016 18.9563 14.8906 18.6906 15.4688V21H16.4328V12.5469H18.5656L18.6281 13.5547C19.0813 12.7786 19.7089 12.3906 20.5109 12.3906C20.7609 12.3906 20.9953 12.4245 21.2141 12.4922L21.1828 14.6641ZM30.4359 19.3359C30.8526 19.3359 31.1911 19.2214 31.4516 18.9922C31.712 18.763 31.8474 18.4583 31.8578 18.0781H33.975C33.9698 18.651 33.8135 19.1771 33.5063 19.6562C33.199 20.1302 32.7771 20.5 32.2406 20.7656C31.7094 21.026 31.1208 21.1562 30.475 21.1562C29.2667 21.1562 28.3135 20.7734 27.6156 20.0078C26.9177 19.237 26.5688 18.1745 26.5688 16.8203V16.6719C26.5688 15.3698 26.9151 14.3307 27.6078 13.5547C28.3005 12.7786 29.251 12.3906 30.4594 12.3906C31.5167 12.3906 32.363 12.6927 32.9984 13.2969C33.6391 13.8958 33.9646 14.6953 33.975 15.6953H31.8578C31.8474 15.2578 31.712 14.9036 31.4516 14.6328C31.1911 14.3568 30.8474 14.2188 30.4203 14.2188C29.8943 14.2188 29.4958 14.4115 29.225 14.7969C28.9594 15.1771 28.8266 15.7969 28.8266 16.6562V16.8906C28.8266 17.7604 28.9594 18.3854 29.225 18.7656C29.4906 19.1458 29.8943 19.3359 30.4359 19.3359ZM42.2672 13.4688C42.8661 12.75 43.6188 12.3906 44.525 12.3906C46.3583 12.3906 47.288 13.4557 47.3141 15.5859V21H45.0563V15.6484C45.0563 15.1641 44.9521 14.8073 44.7438 14.5781C44.5354 14.3438 44.1891 14.2266 43.7047 14.2266C43.0432 14.2266 42.5641 14.4818 42.2672 14.9922V21H40.0094V9H42.2672V13.4688ZM56.2 21H53.9344V12.5469H56.2V21ZM53.8016 10.3594C53.8016 10.0208 53.9135 9.74219 54.1375 9.52344C54.3667 9.30469 54.6766 9.19531 55.0672 9.19531C55.4526 9.19531 55.7599 9.30469 55.9891 9.52344C56.2182 9.74219 56.3328 10.0208 56.3328 10.3594C56.3328 10.7031 56.2156 10.9844 55.9813 11.2031C55.7521 11.4219 55.4474 11.5312 55.0672 11.5312C54.687 11.5312 54.3797 11.4219 54.1453 11.2031C53.9161 10.9844 53.8016 10.7031 53.8016 10.3594ZM66.0312 18.2422L67.6016 12.5469H69.9609L67.1094 21H64.9531L62.1016 12.5469H64.4609L66.0312 18.2422ZM79.5422 21.1562C78.3026 21.1562 77.2922 20.776 76.5109 20.0156C75.7349 19.2552 75.3469 18.2422 75.3469 16.9766V16.7578C75.3469 15.9089 75.5109 15.151 75.8391 14.4844C76.1672 13.8125 76.6307 13.2969 77.2297 12.9375C77.8339 12.5729 78.5214 12.3906 79.2922 12.3906C80.4484 12.3906 81.3573 12.7552 82.0188 13.4844C82.6854 14.2135 83.0188 15.2474 83.0188 16.5859V17.5078H77.6359C77.7089 18.0599 77.9276 18.5026 78.2922 18.8359C78.662 19.1693 79.1281 19.3359 79.6906 19.3359C80.5604 19.3359 81.2401 19.0208 81.7297 18.3906L82.8391 19.6328C82.5005 20.112 82.0422 20.487 81.4641 20.7578C80.8859 21.0234 80.2453 21.1562 79.5422 21.1562ZM79.2844 14.2188C78.8365 14.2188 78.4719 14.3698 78.1906 14.6719C77.9146 14.974 77.7375 15.4062 77.6594 15.9688H80.8V15.7891C80.7896 15.2891 80.6542 14.9036 80.3938 14.6328C80.1333 14.3568 79.7635 14.2188 79.2844 14.2188ZM104.884 16.0703H100.384V19.1172H105.666V21H98.0406V9.625H105.65V11.5234H100.384V14.2344H104.884V16.0703ZM114.911 15.0703L116.333 12.5469H118.747L116.341 16.6875L118.848 21H116.427L114.919 18.3438L113.419 21H110.989L113.497 16.6875L111.098 12.5469H113.52L114.911 15.0703ZM126.836 13.4688C127.435 12.75 128.188 12.3906 129.094 12.3906C130.927 12.3906 131.857 13.4557 131.883 15.5859V21H129.625V15.6484C129.625 15.1641 129.521 14.8073 129.312 14.5781C129.104 14.3438 128.758 14.2266 128.273 14.2266C127.612 14.2266 127.133 14.4818 126.836 14.9922V21H124.578V9H126.836V13.4688ZM140.769 21H138.503V12.5469H140.769V21ZM138.37 10.3594C138.37 10.0208 138.482 9.74219 138.706 9.52344C138.935 9.30469 139.245 9.19531 139.636 9.19531C140.021 9.19531 140.329 9.30469 140.558 9.52344C140.787 9.74219 140.902 10.0208 140.902 10.3594C140.902 10.7031 140.784 10.9844 140.55 11.2031C140.321 11.4219 140.016 11.5312 139.636 11.5312C139.256 11.5312 138.948 11.4219 138.714 11.2031C138.485 10.9844 138.37 10.7031 138.37 10.3594ZM155.053 16.8516C155.053 18.2057 154.764 19.263 154.186 20.0234C153.608 20.7786 152.801 21.1562 151.764 21.1562C150.847 21.1562 150.116 20.8047 149.569 20.1016L149.467 21H147.436V9H149.694V13.3047C150.215 12.6953 150.899 12.3906 151.748 12.3906C152.78 12.3906 153.587 12.7708 154.17 13.5312C154.759 14.2865 155.053 15.3516 155.053 16.7266V16.8516ZM152.795 16.6875C152.795 15.8333 152.66 15.2109 152.389 14.8203C152.118 14.4245 151.715 14.2266 151.178 14.2266C150.459 14.2266 149.965 14.5208 149.694 15.1094V18.4453C149.97 19.0391 150.47 19.3359 151.194 19.3359C151.923 19.3359 152.402 18.9766 152.631 18.2578C152.741 17.9141 152.795 17.3906 152.795 16.6875ZM163.634 21H161.369V12.5469H163.634V21ZM161.236 10.3594C161.236 10.0208 161.348 9.74219 161.572 9.52344C161.801 9.30469 162.111 9.19531 162.502 9.19531C162.887 9.19531 163.194 9.30469 163.423 9.52344C163.653 9.74219 163.767 10.0208 163.767 10.3594C163.767 10.7031 163.65 10.9844 163.416 11.2031C163.186 11.4219 162.882 11.5312 162.502 11.5312C162.121 11.5312 161.814 11.4219 161.58 11.2031C161.351 10.9844 161.236 10.7031 161.236 10.3594ZM173.005 10.4688V12.5469H174.45V14.2031H173.005V18.4219C173.005 18.7344 173.065 18.9583 173.184 19.0938C173.304 19.2292 173.533 19.2969 173.872 19.2969C174.122 19.2969 174.343 19.2786 174.536 19.2422V20.9531C174.093 21.0885 173.637 21.1562 173.169 21.1562C171.585 21.1562 170.778 20.3568 170.747 18.7578V14.2031H169.512V12.5469H170.747V10.4688H173.005ZM182.891 21H180.625V12.5469H182.891V21ZM180.492 10.3594C180.492 10.0208 180.604 9.74219 180.828 9.52344C181.057 9.30469 181.367 9.19531 181.758 9.19531C182.143 9.19531 182.451 9.30469 182.68 9.52344C182.909 9.74219 183.023 10.0208 183.023 10.3594C183.023 10.7031 182.906 10.9844 182.672 11.2031C182.443 11.4219 182.138 11.5312 181.758 11.5312C181.378 11.5312 181.07 11.4219 180.836 11.2031C180.607 10.9844 180.492 10.7031 180.492 10.3594ZM189.206 16.6953C189.206 15.8568 189.368 15.1094 189.691 14.4531C190.014 13.7969 190.477 13.2891 191.081 12.9297C191.691 12.5703 192.396 12.3906 193.198 12.3906C194.339 12.3906 195.269 12.7396 195.988 13.4375C196.711 14.1354 197.115 15.0833 197.198 16.2812L197.214 16.8594C197.214 18.1562 196.852 19.1979 196.128 19.9844C195.404 20.7656 194.433 21.1562 193.214 21.1562C191.995 21.1562 191.021 20.7656 190.292 19.9844C189.568 19.2031 189.206 18.1406 189.206 16.7969V16.6953ZM191.464 16.8594C191.464 17.6615 191.615 18.276 191.917 18.7031C192.219 19.125 192.652 19.3359 193.214 19.3359C193.761 19.3359 194.188 19.1276 194.495 18.7109C194.803 18.2891 194.956 17.6172 194.956 16.6953C194.956 15.9089 194.803 15.2995 194.495 14.8672C194.188 14.4349 193.756 14.2188 193.198 14.2188C192.646 14.2188 192.219 14.4349 191.917 14.8672C191.615 15.2943 191.464 15.9583 191.464 16.8594ZM205.483 12.5469L205.553 13.5234C206.157 12.7682 206.967 12.3906 207.983 12.3906C208.879 12.3906 209.545 12.6536 209.983 13.1797C210.42 13.7057 210.644 14.4922 210.655 15.5391V21H208.397V15.5938C208.397 15.1146 208.293 14.7682 208.084 14.5547C207.876 14.3359 207.53 14.2266 207.045 14.2266C206.41 14.2266 205.933 14.4974 205.616 15.0391V21H203.358V12.5469H205.483Z" fill="#4B4B4B"/>
<path d="M5.4 36.38H7.14V34.18H5.4V30.06H3.24V34.18H0.96V36.38H3.1C2.6 38.74 1.58 41.5 0.48 43.08C0.82 43.64 1.3 44.56 1.52 45.2C2.16 44.24 2.74 42.9 3.24 41.42V48.72H5.4V40.2C5.82 41.06 6.24 41.98 6.46 42.56L7.62 40.9C7.3 40.38 5.96 38.22 5.4 37.42V36.38ZM12.16 42.68V43.72H10.02V42.68H12.16ZM16.4 43.72H14.2V42.68H16.4V43.72ZM14.2 46.38V45.34H16.4V46.38H14.2ZM10.02 46.38V45.34H12.16V46.38H10.02ZM7.86 48.74H10.02V48.1H16.4V48.72H18.66V40.96H7.86V48.74ZM15.24 38.64H11.3V37.5H15.24V38.64ZM16.92 35.92H9.52V34.98H16.92V35.92ZM17.14 33.14C17.54 32.52 18.02 31.68 18.52 30.84L16.32 30.18C16.06 30.96 15.58 32.06 15.18 32.76L16.28 33.14H14.32V30.08H12.06V33.14H9.94L11.2 32.68C11.02 32 10.5 30.98 10 30.22L8.08 30.9C8.5 31.58 8.9 32.48 9.1 33.14H7.42V36.66H9.24V40.22H17.42V36.66H19.12V33.14H17.14ZM33.96 36.7H38.64C38.3 37.28 37.84 37.8 37.14 38.22C35.86 37.9 34.58 37.62 33.42 37.4L33.96 36.7ZM45.08 44.24V42.28H37.12V40.92H35.26C36.12 40.72 36.86 40.48 37.5 40.2C39.46 40.76 41.26 41.36 42.46 41.88L43.88 40.2C42.76 39.78 41.28 39.32 39.66 38.86C40.34 38.26 40.84 37.54 41.2 36.7H44.72V34.84H35.38C35.62 34.52 35.84 34.2 36.06 33.9L34.24 33.36H42.28V34.46H44.58V31.4H37.18V30.08H34.8V31.4H27.46V34.46H29.66V33.36H33.76C33.44 33.82 33.06 34.32 32.68 34.84H27.32V36.7H31.26C30.7 37.38 30.18 38.02 29.7 38.54L31.96 39.16L32.22 38.86C32.82 38.98 33.46 39.14 34.1 39.28C32.56 39.62 30.54 39.84 27.84 39.98C28.14 40.44 28.52 41.26 28.62 41.82C31.12 41.64 33.14 41.4 34.76 41.04V42.28H26.98V44.24H33.08C31.38 45.32 28.88 46.2 26.48 46.62C26.98 47.08 27.62 47.96 27.94 48.54C30.42 47.94 32.92 46.78 34.76 45.28V48.72H37.12V45.16C39.02 46.7 41.6 47.92 44.1 48.52C44.44 47.92 45.1 47 45.62 46.5C43.2 46.12 40.7 45.28 38.94 44.24H45.08ZM61.14 43H62.9C63.28 43.88 63.76 44.66 64.3 45.34C63.24 45.5 62.16 45.64 61.14 45.78V43ZM62.14 39.64H65.12V41H62.14V39.64ZM62.14 36.34H65.12V37.66H62.14V36.34ZM57.04 32.92H67.62V34.32H57.04V32.92ZM68.28 43C67.7 43.44 66.94 43.94 66.24 44.36C65.82 43.94 65.46 43.5 65.14 43H68.28ZM68.98 43H71.08V41H67.32V39.64H70.2V37.66H67.32V36.34H70.04V30.92H54.64V36.82C54.64 40 54.48 44.5 52.5 47.58C53.1 47.8 54.14 48.42 54.62 48.8C56.72 45.52 57.04 40.32 57.04 36.82V36.34H59.96V37.66H57.44V39.64H59.96V41H56.9V43H58.96V46.06C58.22 46.16 57.52 46.24 56.92 46.3L57.24 48.46C59.32 48.14 62.1 47.76 64.7 47.34L64.62 45.72C65.92 47.18 67.64 48.2 69.92 48.76C70.22 48.14 70.84 47.26 71.32 46.8C69.96 46.54 68.78 46.12 67.8 45.54C68.64 45.1 69.58 44.54 70.4 43.96L68.98 43Z" fill="#4B4B4B"/>
</svg>
