<svg width="263" height="52" viewBox="0 0 263 52" fill="none" xmlns="http://www.w3.org/2000/svg">
<path d="M9.702 8.822L8.9738 9.50736L8.97899 9.51288L8.98426 9.51831L9.702 8.822ZM9.702 20.834L8.98952 20.1323L8.98943 20.1324L9.702 20.834ZM1.65 22.132H0.65V23.0696L1.58562 23.1299L1.65 22.132ZM1.65 7.414L1.6056 6.41499L0.65 6.45746V7.414H1.65ZM3.52 8.954L3.48776 7.95452L2.52 7.98574V8.954H3.52ZM3.52 20.526H2.52V21.4295L3.41883 21.5209L3.52 20.526ZM8.25 19.69L8.94912 20.405L8.9493 20.4048L8.25 19.69ZM8.294 9.944L7.56394 10.6275L7.57136 10.6352L8.294 9.944ZM5.676 8.326C7.22576 8.326 8.2728 8.76255 8.9738 9.50736L10.4302 8.13663C9.25387 6.88678 7.61691 6.326 5.676 6.326V8.326ZM8.98426 9.51831C9.6994 10.2555 10.132 11.3916 10.132 13.09H12.132C12.132 11.063 11.6113 9.35388 10.4197 8.12569L8.98426 9.51831ZM10.132 13.09V16.698H12.132V13.09H10.132ZM10.132 16.698C10.132 18.3109 9.70588 19.4049 8.98952 20.1323L10.4145 21.5357C11.6048 20.3271 12.132 18.6637 12.132 16.698H10.132ZM8.98943 20.1324C8.29837 20.8343 7.21578 21.264 5.566 21.264V23.264C7.55356 23.264 9.22829 22.7404 10.4146 21.5356L8.98943 20.1324ZM5.566 21.264C4.34274 21.264 3.05897 21.2208 1.71438 21.1341L1.58562 23.1299C2.96903 23.2192 4.29593 23.264 5.566 23.264V21.264ZM2.65 22.132V7.414H0.65V22.132H2.65ZM1.6944 8.41301C2.99914 8.35502 4.32633 8.326 5.676 8.326V6.326C4.29767 6.326 2.94086 6.35564 1.6056 6.41499L1.6944 8.41301ZM5.566 7.91C5.09461 7.91 4.39947 7.92511 3.48776 7.95452L3.55224 9.95348C4.4592 9.92422 5.12806 9.91 5.566 9.91V7.91ZM2.52 8.954V20.526H4.52V8.954H2.52ZM3.41883 21.5209C4.29703 21.6102 5.01767 21.658 5.566 21.658V19.658C5.11699 19.658 4.47363 19.6178 3.62117 19.5311L3.41883 21.5209ZM5.566 21.658C6.89476 21.658 8.06224 21.2722 8.94912 20.405L7.55088 18.975C7.11776 19.3985 6.49591 19.658 5.566 19.658V21.658ZM8.9493 20.4048C9.86999 19.5042 10.262 18.2672 10.262 16.852H8.262C8.262 17.9008 7.97935 18.5558 7.55071 18.9752L8.9493 20.4048ZM10.262 16.852V12.958H8.262V16.852H10.262ZM10.262 12.958C10.262 11.4765 9.90406 10.1805 9.01664 9.25278L7.57136 10.6352C7.97461 11.0568 8.262 11.7702 8.262 12.958H10.262ZM9.02402 9.26057C8.14559 8.32225 6.94421 7.91 5.566 7.91V9.91C6.53446 9.91 7.15174 10.1871 7.56398 10.6274L9.02402 9.26057ZM27.2644 12.056L26.5195 12.7232L26.5268 12.7314L26.5343 12.7394L27.2644 12.056ZM27.2644 21.23L26.5272 20.5543L26.5266 20.555L27.2644 21.23ZM21.4344 21.23L20.6895 21.8972L20.6968 21.9054L20.7043 21.9134L21.4344 21.23ZM21.4344 12.056L20.6972 11.3803L20.6966 11.381L21.4344 12.056ZM22.8864 13.156L23.6338 13.8204V13.8204L22.8864 13.156ZM22.8864 20.108L23.6338 19.4436L22.8864 20.108ZM25.8344 20.108L25.087 19.4436L25.8344 20.108ZM25.8344 13.156L25.087 13.8204L25.0932 13.8274L25.0996 13.8343L25.8344 13.156ZM24.3604 12C25.4939 12 26.1425 12.3024 26.5195 12.7232L28.0092 11.3888C27.1249 10.4016 25.8375 10 24.3604 10V12ZM26.5343 12.7394C26.9528 13.1864 27.2324 13.891 27.2324 15.004H29.2324C29.2324 13.565 28.8666 12.3043 27.9944 11.3726L26.5343 12.7394ZM27.2324 15.004V18.26H29.2324V15.004H27.2324ZM27.2324 18.26C27.2324 19.3715 26.9533 20.0894 26.5272 20.5543L28.0015 21.9057C28.866 20.9626 29.2324 19.7005 29.2324 18.26H27.2324ZM26.5266 20.555C26.151 20.9655 25.4999 21.264 24.3604 21.264V23.264C25.8315 23.264 27.1164 22.8732 28.0022 21.905L26.5266 20.555ZM24.3604 21.264C23.2227 21.264 22.5572 20.9662 22.1644 20.5466L20.7043 21.9134C21.6022 22.8725 22.8874 23.264 24.3604 23.264V21.264ZM22.1792 20.5628C21.763 20.0981 21.4884 19.377 21.4884 18.26H19.4884C19.4884 19.695 19.8444 20.9539 20.6895 21.8972L22.1792 20.5628ZM21.4884 18.26V15.004H19.4884V18.26H21.4884ZM21.4884 15.004C21.4884 13.8855 21.7636 13.1776 22.1722 12.731L20.6966 11.381C19.8438 12.313 19.4884 13.5705 19.4884 15.004H21.4884ZM22.1715 12.7317C22.5657 12.3017 23.2286 12 24.3604 12V10C22.8815 10 21.5937 10.4023 20.6972 11.3803L22.1715 12.7317ZM24.3604 11.562C23.5035 11.562 22.7169 11.8414 22.139 12.4916L23.6338 13.8204C23.7598 13.6786 23.9559 13.562 24.3604 13.562V11.562ZM22.139 12.4916C21.571 13.1306 21.3584 13.966 21.3584 14.85H23.3584C23.3584 14.2674 23.4978 13.9734 23.6338 13.8204L22.139 12.4916ZM21.3584 14.85V18.414H23.3584V14.85H21.3584ZM21.3584 18.414C21.3584 19.298 21.571 20.1334 22.139 20.7724L23.6338 19.4436C23.4978 19.2906 23.3584 18.9966 23.3584 18.414H21.3584ZM22.139 20.7724C22.7169 21.4226 23.5035 21.702 24.3604 21.702V19.702C23.9559 19.702 23.7598 19.5854 23.6338 19.4436L22.139 20.7724ZM24.3604 21.702C25.2172 21.702 26.0038 21.4226 26.5818 20.7724L25.087 19.4436C24.9609 19.5854 24.7649 19.702 24.3604 19.702V21.702ZM26.5818 20.7724C27.1498 20.1334 27.3624 19.298 27.3624 18.414H25.3624C25.3624 18.9966 25.223 19.2906 25.087 19.4436L26.5818 20.7724ZM27.3624 18.414V14.828H25.3624V18.414H27.3624ZM27.3624 14.828C27.3624 13.9471 27.151 13.108 26.5692 12.4777L25.0996 13.8343C25.2217 13.9666 25.3624 14.2423 25.3624 14.828H27.3624ZM26.5818 12.4916C26.0038 11.8414 25.2172 11.562 24.3604 11.562V13.562C24.7649 13.562 24.9609 13.6786 25.087 13.8204L26.5818 12.4916ZM50.6213 11.264L51.5955 11.4896L51.8793 10.264H50.6213V11.264ZM48.1353 22V23H48.9302L49.1095 22.2256L48.1353 22ZM45.7813 22L44.8087 22.2326L44.9922 23H45.7813V22ZM43.6033 12.892L44.5759 12.6594L42.6313 12.6572L43.6033 12.892ZM41.4033 22V23H42.1905L42.3754 22.2348L41.4033 22ZM39.0493 22L38.0747 22.2237L38.2528 23H39.0493V22ZM36.5853 11.264V10.264H35.3298L35.6107 11.4877L36.5853 11.264ZM38.5653 11.264L39.5475 11.0761L39.3922 10.264H38.5653V11.264ZM40.3033 20.35L39.3211 20.5379L41.2779 20.5742L40.3033 20.35ZM42.3933 11.264V10.264H41.5972L41.4188 11.0398L42.3933 11.264ZM44.8133 11.264L45.7884 11.0421L45.6113 10.264H44.8133V11.264ZM46.8813 20.35L45.9062 20.5719L47.8631 20.5402L46.8813 20.35ZM48.6413 11.264V10.264H47.8164L47.6596 11.0738L48.6413 11.264ZM49.6471 11.0384L47.1611 21.7744L49.1095 22.2256L51.5955 11.4896L49.6471 11.0384ZM48.1353 21H45.7813V23H48.1353V21ZM46.7539 21.7674L44.5759 12.6594L42.6307 13.1246L44.8087 22.2326L46.7539 21.7674ZM42.6313 12.6572L40.4313 21.7652L42.3754 22.2348L44.5754 13.1268L42.6313 12.6572ZM41.4033 21H39.0493V23H41.4033V21ZM40.024 21.7763L37.56 11.0403L35.6107 11.4877L38.0747 22.2237L40.024 21.7763ZM36.5853 12.264H38.5653V10.264H36.5853V12.264ZM37.5831 11.4519L39.3211 20.5379L41.2855 20.1621L39.5475 11.0761L37.5831 11.4519ZM41.2779 20.5742L43.3679 11.4882L41.4188 11.0398L39.3288 20.1258L41.2779 20.5742ZM42.3933 12.264H44.8133V10.264H42.3933V12.264ZM43.8382 11.4859L45.9062 20.5719L47.8564 20.1281L45.7884 11.0421L43.8382 11.4859ZM47.8631 20.5402L49.6231 11.4542L47.6596 11.0738L45.8996 20.1598L47.8631 20.5402ZM48.6413 12.264H50.6213V10.264H48.6413V12.264ZM66.0375 11.968L65.2462 12.5794L65.2539 12.5895L65.2619 12.5993L66.0375 11.968ZM66.8075 22V23H67.8075V22H66.8075ZM64.9375 22H63.9375V23H64.9375V22ZM62.2095 13.222L62.8008 14.0284L62.2095 13.222ZM61.0655 14.542L60.2 14.041L60.0655 14.2734V14.542H61.0655ZM61.0655 22V23H62.0655V22H61.0655ZM59.1955 22H58.1955V23H59.1955V22ZM59.1955 11.264V10.264H58.1955V11.264H59.1955ZM60.9555 11.264H61.9555V10.264H60.9555V11.264ZM60.9555 12.87H59.9555V16.2067L61.7906 13.42L60.9555 12.87ZM62.2755 11.484L61.7322 10.6444L61.7208 10.6519L62.2755 11.484ZM63.8815 12C64.5634 12 64.9671 12.2182 65.2462 12.5794L66.8288 11.3566C66.1105 10.4271 65.0769 10 63.8815 10V12ZM65.2619 12.5993C65.5778 12.9874 65.8075 13.6314 65.8075 14.674H67.8075C67.8075 13.37 67.5238 12.21 66.813 11.3367L65.2619 12.5993ZM65.8075 14.674V22H67.8075V14.674H65.8075ZM66.8075 21H64.9375V23H66.8075V21ZM65.9375 22V14.938H63.9375V22H65.9375ZM65.9375 14.938C65.9375 14.1283 65.8117 13.348 65.4184 12.743C64.9767 12.0635 64.2864 11.738 63.5075 11.738V13.738C63.6165 13.738 63.6633 13.7584 63.6768 13.7653C63.6867 13.7704 63.7088 13.7826 63.7415 13.833C63.8249 13.9613 63.9375 14.2811 63.9375 14.938H65.9375ZM63.5075 11.738C62.8161 11.738 62.1809 12.0029 61.6181 12.4156L62.8008 14.0284C63.118 13.7958 63.3482 13.738 63.5075 13.738V11.738ZM61.6181 12.4156C61.0484 12.8334 60.5797 13.3853 60.2 14.041L61.9309 15.043C62.1966 14.5841 62.4906 14.2559 62.8008 14.0284L61.6181 12.4156ZM60.0655 14.542V22H62.0655V14.542H60.0655ZM61.0655 21H59.1955V23H61.0655V21ZM60.1955 22V11.264H58.1955V22H60.1955ZM59.1955 12.264H60.9555V10.264H59.1955V12.264ZM59.9555 11.264V12.87H61.9555V11.264H59.9555ZM61.7906 13.42C62.13 12.9047 62.4807 12.549 62.8302 12.3161L61.7208 10.6519C61.1022 11.0643 60.573 11.6326 60.1203 12.32L61.7906 13.42ZM62.8187 12.3236C63.1621 12.1014 63.5099 12 63.8815 12V10C63.1091 10 62.3862 10.2213 61.7322 10.6444L62.8187 12.3236ZM78.3647 6.974H79.3647V5.974H78.3647V6.974ZM78.3647 22V23H79.3647V22H78.3647ZM76.4947 22H75.4947V23H76.4947V22ZM76.4947 6.974V5.974H75.4947V6.974H76.4947ZM77.3647 6.974V22H79.3647V6.974H77.3647ZM78.3647 21H76.4947V23H78.3647V21ZM77.4947 22V6.974H75.4947V22H77.4947ZM76.4947 7.974H78.3647V5.974H76.4947V7.974ZM94.5921 12.056L93.8473 12.7232L93.8546 12.7314L93.8621 12.7394L94.5921 12.056ZM94.5921 21.23L93.8549 20.5543L93.8543 20.555L94.5921 21.23ZM88.7621 21.23L88.0173 21.8972L88.0246 21.9054L88.0321 21.9134L88.7621 21.23ZM88.7621 12.056L88.0249 11.3803L88.0243 11.381L88.7621 12.056ZM90.2141 13.156L90.9615 13.8204V13.8204L90.2141 13.156ZM90.2141 20.108L90.9615 19.4436L90.2141 20.108ZM93.1621 20.108L92.4147 19.4436L93.1621 20.108ZM93.1621 13.156L92.4147 13.8204L92.4209 13.8274L92.4273 13.8343L93.1621 13.156ZM91.6881 12C92.8216 12 93.4702 12.3024 93.8473 12.7232L95.3369 11.3888C94.4526 10.4016 93.1653 10 91.6881 10V12ZM93.8621 12.7394C94.2805 13.1864 94.5601 13.891 94.5601 15.004H96.5601C96.5601 13.565 96.1943 12.3043 95.3221 11.3726L93.8621 12.7394ZM94.5601 15.004V18.26H96.5601V15.004H94.5601ZM94.5601 18.26C94.5601 19.3715 94.2811 20.0894 93.8549 20.5543L95.3292 21.9057C96.1938 20.9626 96.5601 19.7005 96.5601 18.26H94.5601ZM93.8543 20.555C93.4787 20.9655 92.8276 21.264 91.6881 21.264V23.264C93.1593 23.264 94.4441 22.8732 95.3299 21.905L93.8543 20.555ZM91.6881 21.264C90.5504 21.264 89.8849 20.9662 89.4921 20.5466L88.0321 21.9134C88.9299 22.8725 90.2151 23.264 91.6881 23.264V21.264ZM89.5069 20.5628C89.0907 20.0981 88.8161 19.377 88.8161 18.26H86.8161C86.8161 19.695 87.1721 20.9539 88.0173 21.8972L89.5069 20.5628ZM88.8161 18.26V15.004H86.8161V18.26H88.8161ZM88.8161 15.004C88.8161 13.8855 89.0913 13.1776 89.4999 12.731L88.0243 11.381C87.1716 12.313 86.8161 13.5705 86.8161 15.004H88.8161ZM89.4992 12.7317C89.8934 12.3017 90.5563 12 91.6881 12V10C90.2092 10 88.9214 10.4023 88.0249 11.3803L89.4992 12.7317ZM91.6881 11.562C90.8313 11.562 90.0447 11.8414 89.4667 12.4916L90.9615 13.8204C91.0875 13.6786 91.2836 13.562 91.6881 13.562V11.562ZM89.4667 12.4916C88.8987 13.1306 88.6861 13.966 88.6861 14.85H90.6861C90.6861 14.2674 90.8255 13.9734 90.9615 13.8204L89.4667 12.4916ZM88.6861 14.85V18.414H90.6861V14.85H88.6861ZM88.6861 18.414C88.6861 19.298 88.8987 20.1334 89.4667 20.7724L90.9615 19.4436C90.8255 19.2906 90.6861 18.9966 90.6861 18.414H88.6861ZM89.4667 20.7724C90.0447 21.4226 90.8313 21.702 91.6881 21.702V19.702C91.2836 19.702 91.0875 19.5854 90.9615 19.4436L89.4667 20.7724ZM91.6881 21.702C92.5449 21.702 93.3315 21.4226 93.9095 20.7724L92.4147 19.4436C92.2887 19.5854 92.0926 19.702 91.6881 19.702V21.702ZM93.9095 20.7724C94.4775 20.1334 94.6901 19.298 94.6901 18.414H92.6901C92.6901 18.9966 92.5507 19.2906 92.4147 19.4436L93.9095 20.7724ZM94.6901 18.414V14.828H92.6901V18.414H94.6901ZM94.6901 14.828C94.6901 13.9471 94.4787 13.108 93.8969 12.4777L92.4273 13.8343C92.5495 13.9666 92.6901 14.2423 92.6901 14.828H94.6901ZM93.9095 12.4916C93.3315 11.8414 92.5449 11.562 91.6881 11.562V13.562C92.0926 13.562 92.2887 13.6786 92.4147 13.8204L93.9095 12.4916ZM110.977 11.858L110.269 12.5651L110.279 12.5742L110.288 12.583L110.977 11.858ZM111.857 22V23H112.857V22H111.857ZM110.075 22H109.075V23H110.075V22ZM110.075 20.284H111.075V16.8862L109.234 19.7423L110.075 20.284ZM105.147 21.384L104.385 22.0316L104.389 22.0371L104.394 22.0425L105.147 21.384ZM105.301 16.192L105.99 16.9166L105.999 16.9078L105.301 16.192ZM109.987 15.598L109.79 16.5786L110.987 16.8178V15.598H109.987ZM109.547 13.024L108.839 13.7311L108.849 13.7402L108.858 13.749L109.547 13.024ZM105.257 12.936H104.257V14.1232L105.426 13.9215L105.257 12.936ZM105.257 11.33L105.099 10.3425L104.257 10.4769V11.33H105.257ZM106.665 20.13L105.887 20.7592V20.7592L106.665 20.13ZM108.821 20.086L109.455 20.8587L109.458 20.8564L108.821 20.086ZM109.987 18.612L110.86 19.0994L110.987 18.8722V18.612H109.987ZM109.987 16.918H110.987V16.0854L110.168 15.9345L109.987 16.918ZM108.227 12C109.367 12 109.967 12.2626 110.269 12.5651L111.684 11.1509C110.842 10.3094 109.609 10 108.227 10V12ZM110.288 12.583C110.592 12.8722 110.857 13.4423 110.857 14.542H112.857C112.857 13.1777 112.534 11.9585 111.665 11.133L110.288 12.583ZM110.857 14.542V22H112.857V14.542H110.857ZM111.857 21H110.075V23H111.857V21ZM111.075 22V20.284H109.075V22H111.075ZM109.234 19.7423C108.475 20.92 107.782 21.264 107.193 21.264V23.264C108.744 23.264 109.973 22.288 110.915 20.8257L109.234 19.7423ZM107.193 21.264C106.601 21.264 106.204 21.0738 105.899 20.7255L104.394 22.0425C105.116 22.8675 106.083 23.264 107.193 23.264V21.264ZM105.909 20.7364C105.606 20.3808 105.399 19.8364 105.399 18.986H103.399C103.399 20.1596 103.69 21.2139 104.385 22.0316L105.909 20.7364ZM105.399 18.986V18.37H103.399V18.986H105.399ZM105.399 18.37C105.399 17.7454 105.6 17.2874 105.99 16.9166L104.611 15.4674C103.799 16.2406 103.399 17.2346 103.399 18.37H105.399ZM105.999 16.9078C106.376 16.5395 106.913 16.312 107.721 16.312V14.312C106.505 14.312 105.427 14.6711 104.602 15.4762L105.999 16.9078ZM107.721 16.312C108.181 16.312 108.862 16.3928 109.79 16.5786L110.183 14.6174C109.205 14.4218 108.375 14.312 107.721 14.312V16.312ZM110.987 15.598V14.388H108.987V15.598H110.987ZM110.987 14.388C110.987 13.6334 110.815 12.8496 110.235 12.299L108.858 13.749C108.865 13.7558 108.987 13.8813 108.987 14.388H110.987ZM110.254 12.3169C109.709 11.7721 108.956 11.606 108.227 11.606V13.606C108.7 13.606 108.827 13.7185 108.839 13.7311L110.254 12.3169ZM108.227 11.606C107.437 11.606 106.381 11.7275 105.087 11.9505L105.426 13.9215C106.685 13.7045 107.608 13.606 108.227 13.606V11.606ZM106.257 12.936V11.33H104.257V12.936H106.257ZM105.414 12.3175C106.791 12.0979 107.712 12 108.227 12V10C107.539 10 106.48 10.1221 105.099 10.3425L105.414 12.3175ZM108.183 15.764C107.397 15.764 106.636 15.9725 106.067 16.5409L107.482 17.9551C107.559 17.8781 107.736 17.764 108.183 17.764V15.764ZM106.067 16.5409C105.508 17.1006 105.291 17.8394 105.291 18.612H107.291C107.291 18.2113 107.396 18.0408 107.482 17.9551L106.067 16.5409ZM105.291 18.612V18.854H107.291V18.612H105.291ZM105.291 18.854C105.291 19.5417 105.449 20.2173 105.887 20.7592L107.442 19.5008C107.382 19.4267 107.291 19.2516 107.291 18.854H105.291ZM105.887 20.7592C106.318 21.2911 106.914 21.592 107.611 21.592V19.592C107.559 19.592 107.536 19.5825 107.527 19.5779C107.516 19.5728 107.487 19.5561 107.442 19.5008L105.887 20.7592ZM107.611 21.592C108.307 21.592 108.927 21.2926 109.455 20.8587L108.186 19.3133C107.893 19.554 107.707 19.592 107.611 19.592V21.592ZM109.458 20.8564C110.003 20.4053 110.465 19.8066 110.86 19.0994L109.113 18.1246C108.804 18.6788 108.489 19.0627 108.183 19.3156L109.458 20.8564ZM110.987 18.612V16.918H108.987V18.612H110.987ZM110.168 15.9345C109.543 15.8195 108.881 15.764 108.183 15.764V17.764C108.775 17.764 109.315 17.8112 109.805 17.9015L110.168 15.9345ZM128.823 22V23H129.823V22H128.823ZM127.041 22H126.041V23H127.041V22ZM127.041 20.262H128.041V16.9287L126.207 19.7115L127.041 20.262ZM121.937 21.34L121.144 21.9489L121.151 21.9578L121.937 21.34ZM122.003 11.968L121.238 11.3243L121.229 11.3348L122.003 11.968ZM125.655 11.33L125.231 12.2355L125.243 12.241L125.255 12.2462L125.655 11.33ZM126.953 12.1L126.339 12.8894L127.953 14.1446V12.1H126.953ZM126.953 6.974V5.974H125.953V6.974H126.953ZM128.823 6.974H129.823V5.974H128.823V6.974ZM123.499 13.244L122.707 12.6343L122.703 12.6389L123.499 13.244ZM125.765 20.086L126.387 20.8695L126.39 20.8669L125.765 20.086ZM126.953 18.612L127.827 19.0994L127.953 18.8722V18.612H126.953ZM126.953 13.772H127.953V13.3713L127.677 13.0815L126.953 13.772ZM125.853 12.98L125.406 13.8745L125.419 13.8806L125.853 12.98ZM128.823 21H127.041V23H128.823V21ZM128.041 22V20.262H126.041V22H128.041ZM126.207 19.7115C125.428 20.8922 124.693 21.264 124.027 21.264V23.264C125.621 23.264 126.895 22.3011 127.876 20.8125L126.207 19.7115ZM124.027 21.264C123.369 21.264 122.986 21.0563 122.724 20.7222L121.151 21.9578C121.857 22.8557 122.867 23.264 124.027 23.264V21.264ZM122.731 20.7312C122.434 20.3445 122.211 19.6798 122.211 18.59H120.211C120.211 19.9056 120.473 21.0742 121.144 21.9488L122.731 20.7312ZM122.211 18.59V14.674H120.211V18.59H122.211ZM122.211 14.674C122.211 13.6572 122.443 13.0094 122.777 12.6012L121.229 11.3348C120.507 12.2172 120.211 13.3734 120.211 14.674H122.211ZM122.769 12.6116C123.086 12.2343 123.552 12 124.313 12V10C123.081 10 122.006 10.4111 121.238 11.3244L122.769 12.6116ZM124.313 12C124.564 12 124.866 12.0644 125.231 12.2355L126.08 10.4245C125.506 10.1556 124.914 10 124.313 10V12ZM125.255 12.2462C125.65 12.4189 126.01 12.6334 126.339 12.8894L127.567 11.3106C127.104 10.9506 126.6 10.6517 126.056 10.4138L125.255 12.2462ZM127.953 12.1V6.974H125.953V12.1H127.953ZM126.953 7.974H128.823V5.974H126.953V7.974ZM127.823 6.974V22H129.823V6.974H127.823ZM124.731 11.672C123.928 11.672 123.21 11.9805 122.707 12.6343L124.292 13.8537C124.376 13.7448 124.479 13.672 124.731 13.672V11.672ZM122.703 12.6389C122.23 13.261 122.081 14.0878 122.081 14.938H124.081C124.081 14.2628 124.211 13.9603 124.296 13.8491L122.703 12.6389ZM122.081 14.938V18.348H124.081V14.938H122.081ZM122.081 18.348C122.081 19.1665 122.202 19.9491 122.577 20.5565C123.001 21.2432 123.68 21.592 124.467 21.592V19.592C124.373 19.592 124.34 19.5738 124.336 19.5717C124.334 19.5708 124.313 19.5612 124.279 19.5055C124.192 19.3649 124.081 19.0255 124.081 18.348H122.081ZM124.467 21.592C125.182 21.592 125.827 21.3134 126.387 20.8695L125.144 19.3025C124.853 19.5333 124.633 19.592 124.467 19.592V21.592ZM126.39 20.8669C126.955 20.4148 127.429 19.8126 127.827 19.0994L126.08 18.1246C125.774 18.6728 125.456 19.0532 125.141 19.3051L126.39 20.8669ZM127.953 18.612V13.772H125.953V18.612H127.953ZM127.677 13.0815C127.281 12.6671 126.815 12.3338 126.288 12.0794L125.419 13.8806C125.742 14.0368 126.01 14.2316 126.23 14.4625L127.677 13.0815ZM126.301 12.0856C125.799 11.8346 125.27 11.672 124.731 11.672V13.672C124.868 13.672 125.087 13.7147 125.406 13.8744L126.301 12.0856ZM143.796 11.264L144.796 11.2918L144.819 10.4516L143.996 10.2841L143.796 11.264ZM143.752 12.848L143.527 13.8224L144.718 14.0971L144.752 12.8758L143.752 12.848ZM139.88 14.696L139.106 15.3292L139.123 15.3494L139.14 15.3687L139.88 14.696ZM140.65 15.202L140.218 16.1036L140.226 16.1077L140.65 15.202ZM142.718 16.17L143.144 15.2652L143.142 15.2643L142.718 16.17ZM144.588 19.228L145.588 19.2425L145.588 19.2352V19.228H144.588ZM143.664 21.516L144.312 22.2779L144.314 22.2766L143.664 21.516ZM138.032 21.802L137.034 21.7494L136.99 22.5723L137.79 22.7721L138.032 21.802ZM138.12 20.13L138.402 19.1704L137.188 18.8144L137.122 20.0774L138.12 20.13ZM142.322 20.328L142.887 21.1533L142.901 21.1434L142.915 21.1331L142.322 20.328ZM142.52 18.282L141.679 18.8228L141.692 18.8433L141.707 18.8632L142.52 18.282ZM141.838 17.754L142.252 16.8436L142.244 16.8398L141.838 17.754ZM139.704 16.808L139.29 17.7184L139.299 17.7222L139.704 16.808ZM138.274 15.752L137.461 16.3332L137.467 16.3427L137.474 16.352L138.274 15.752ZM137.834 14.014L136.835 13.9846L136.834 13.9993V14.014H137.834ZM138.758 11.77L139.406 12.5319L139.408 12.5306L138.758 11.77ZM141.574 12C142.101 12 142.772 12.0761 143.597 12.2439L143.996 10.2841C143.09 10.0999 142.279 10 141.574 10V12ZM142.797 11.2362L142.753 12.8202L144.752 12.8758L144.796 11.2918L142.797 11.2362ZM143.977 11.8736C143.158 11.6845 142.384 11.584 141.662 11.584V13.584C142.202 13.584 142.822 13.6595 143.527 13.8224L143.977 11.8736ZM141.662 11.584C140.927 11.584 140.203 11.6967 139.636 12.0624C138.993 12.4768 138.682 13.1286 138.682 13.86H140.682C140.682 13.7779 140.698 13.7547 140.694 13.7612C140.689 13.771 140.687 13.7644 140.719 13.7436C140.811 13.684 141.078 13.584 141.662 13.584V11.584ZM138.682 13.86V14.058H140.682V13.86H138.682ZM138.682 14.058C138.682 14.49 138.793 14.946 139.106 15.3292L140.654 14.0628C140.664 14.0745 140.672 14.0865 140.677 14.0975C140.683 14.1083 140.686 14.1161 140.687 14.1191C140.689 14.1246 140.682 14.1076 140.682 14.058H138.682ZM139.14 15.3687C139.419 15.6756 139.818 15.9116 140.218 16.1035L141.083 14.3005C140.928 14.226 140.813 14.1612 140.732 14.1078C140.648 14.0524 140.619 14.0223 140.62 14.0233L139.14 15.3687ZM140.226 16.1077L142.294 17.0757L143.142 15.2643L141.074 14.2963L140.226 16.1077ZM142.292 17.0748C142.808 17.3173 143.124 17.5833 143.312 17.8413C143.491 18.088 143.588 18.376 143.588 18.744H145.588C145.588 17.9827 145.374 17.277 144.93 16.6657C144.494 16.0657 143.876 15.6094 143.144 15.2652L142.292 17.0748ZM143.588 18.744V19.228H145.588V18.744H143.588ZM143.588 19.2135C143.577 20.0242 143.34 20.4783 143.015 20.7554L144.314 22.2766C145.192 21.527 145.571 20.4558 145.588 19.2425L143.588 19.2135ZM143.017 20.7541C142.697 21.026 142.053 21.264 140.87 21.264V23.264C142.239 23.264 143.459 23.0033 144.312 22.2779L143.017 20.7541ZM140.87 21.264C140.336 21.264 139.486 21.1347 138.275 20.8319L137.79 22.7721C139.042 23.0853 140.085 23.264 140.87 23.264V21.264ZM139.031 21.8546L139.119 20.1826L137.122 20.0774L137.034 21.7494L139.031 21.8546ZM137.839 21.0896C138.981 21.4245 139.986 21.614 140.826 21.614V19.614C140.258 19.614 139.46 19.4808 138.402 19.1704L137.839 21.0896ZM140.826 21.614C141.564 21.614 142.337 21.5295 142.887 21.1533L141.758 19.5027C141.774 19.4914 141.727 19.5267 141.552 19.5603C141.384 19.5924 141.146 19.614 140.826 19.614V21.614ZM142.915 21.1331C143.527 20.6828 143.74 20.0014 143.74 19.338H141.74C141.74 19.4663 141.72 19.5239 141.715 19.5375C141.712 19.5435 141.712 19.5413 141.717 19.5352C141.722 19.5289 141.727 19.5246 141.729 19.5229L142.915 21.1331ZM143.74 19.338V19.118H141.74V19.338H143.74ZM143.74 19.118C143.74 18.6376 143.641 18.1309 143.334 17.7008L141.707 18.8632C141.693 18.8438 141.74 18.8944 141.74 19.118H143.74ZM143.361 17.7412C143.089 17.3166 142.675 17.0358 142.252 16.8436L141.424 18.6644C141.647 18.7655 141.688 18.8367 141.679 18.8228L143.361 17.7412ZM142.244 16.8398L140.11 15.8938L139.299 17.7222L141.433 18.6682L142.244 16.8398ZM140.118 15.8976C139.57 15.6486 139.251 15.387 139.074 15.152L137.474 16.352C137.914 16.9383 138.548 17.3807 139.29 17.7184L140.118 15.8976ZM139.088 15.1708C138.925 14.9427 138.834 14.6728 138.834 14.322H136.834C136.834 15.0565 137.037 15.74 137.461 16.3332L139.088 15.1708ZM138.834 14.322V14.014H136.834V14.322H138.834ZM138.834 14.0434C138.857 13.2402 139.095 12.7967 139.406 12.5319L138.111 11.0081C137.249 11.7407 136.87 12.7931 136.835 13.9846L138.834 14.0434ZM139.408 12.5306C139.746 12.2421 140.399 12 141.574 12V10C140.197 10 138.974 10.2713 138.109 11.0094L139.408 12.5306Z" fill="#A9A69C"/>
<path d="M1.01562 21V9.625H4.51562C5.51562 9.625 6.40885 9.85156 7.19531 10.3047C7.98698 10.7526 8.60417 11.3932 9.04688 12.2266C9.48958 13.0547 9.71094 13.9974 9.71094 15.0547V15.5781C9.71094 16.6354 9.49219 17.5755 9.05469 18.3984C8.6224 19.2214 8.01042 19.8594 7.21875 20.3125C6.42708 20.7656 5.53385 20.9948 4.53906 21H1.01562ZM3.35938 11.5234V19.1172H4.49219C5.40885 19.1172 6.10938 18.8177 6.59375 18.2188C7.07812 17.6198 7.32552 16.763 7.33594 15.6484V15.0469C7.33594 13.8906 7.09635 13.0156 6.61719 12.4219C6.13802 11.8229 5.4375 11.5234 4.51562 11.5234H3.35938ZM15.7219 16.6953C15.7219 15.8568 15.8833 15.1094 16.2063 14.4531C16.5292 13.7969 16.9927 13.2891 17.5969 12.9297C18.2063 12.5703 18.912 12.3906 19.7141 12.3906C20.8547 12.3906 21.7844 12.7396 22.5031 13.4375C23.2271 14.1354 23.6307 15.0833 23.7141 16.2812L23.7297 16.8594C23.7297 18.1562 23.3677 19.1979 22.6438 19.9844C21.9198 20.7656 20.9484 21.1562 19.7297 21.1562C18.5109 21.1562 17.537 20.7656 16.8078 19.9844C16.0839 19.2031 15.7219 18.1406 15.7219 16.7969V16.6953ZM17.9797 16.8594C17.9797 17.6615 18.1307 18.276 18.4328 18.7031C18.7349 19.125 19.1672 19.3359 19.7297 19.3359C20.2766 19.3359 20.7036 19.1276 21.0109 18.7109C21.3182 18.2891 21.4719 17.6172 21.4719 16.6953C21.4719 15.9089 21.3182 15.2995 21.0109 14.8672C20.7036 14.4349 20.2714 14.2188 19.7141 14.2188C19.162 14.2188 18.7349 14.4349 18.4328 14.8672C18.1307 15.2943 17.9797 15.9583 17.9797 16.8594ZM37.2719 17.9297L38.3813 12.5469H40.5609L38.4047 21H36.5141L34.9125 15.6797L33.3109 21H31.4281L29.2719 12.5469H31.4516L32.5531 17.9219L34.1 12.5469H35.7328L37.2719 17.9297ZM48.5641 12.5469L48.6344 13.5234C49.2385 12.7682 50.0484 12.3906 51.0641 12.3906C51.9599 12.3906 52.6266 12.6536 53.0641 13.1797C53.5016 13.7057 53.7255 14.4922 53.7359 15.5391V21H51.4781V15.5938C51.4781 15.1146 51.374 14.7682 51.1656 14.5547C50.9573 14.3359 50.6109 14.2266 50.1266 14.2266C49.4911 14.2266 49.0146 14.4974 48.6969 15.0391V21H46.4391V12.5469H48.5641ZM62.6375 21H60.3719V9H62.6375V21ZM68.9531 16.6953C68.9531 15.8568 69.1146 15.1094 69.4375 14.4531C69.7604 13.7969 70.224 13.2891 70.8281 12.9297C71.4375 12.5703 72.1432 12.3906 72.9453 12.3906C74.0859 12.3906 75.0156 12.7396 75.7344 13.4375C76.4583 14.1354 76.862 15.0833 76.9453 16.2812L76.9609 16.8594C76.9609 18.1562 76.599 19.1979 75.875 19.9844C75.151 20.7656 74.1797 21.1562 72.9609 21.1562C71.7422 21.1562 70.7682 20.7656 70.0391 19.9844C69.3151 19.2031 68.9531 18.1406 68.9531 16.7969V16.6953ZM71.2109 16.8594C71.2109 17.6615 71.362 18.276 71.6641 18.7031C71.9661 19.125 72.3984 19.3359 72.9609 19.3359C73.5078 19.3359 73.9349 19.1276 74.2422 18.7109C74.5495 18.2891 74.7031 17.6172 74.7031 16.6953C74.7031 15.9089 74.5495 15.2995 74.2422 14.8672C73.9349 14.4349 73.5026 14.2188 72.9453 14.2188C72.3932 14.2188 71.9661 14.4349 71.6641 14.8672C71.362 15.2943 71.2109 15.9583 71.2109 16.8594ZM88.05 21C87.9458 20.7969 87.8703 20.5443 87.8234 20.2422C87.2766 20.8516 86.5656 21.1562 85.6906 21.1562C84.8625 21.1562 84.175 20.9167 83.6281 20.4375C83.0865 19.9583 82.8156 19.3542 82.8156 18.625C82.8156 17.7292 83.1464 17.0417 83.8078 16.5625C84.4745 16.0833 85.4354 15.8411 86.6906 15.8359H87.7297V15.3516C87.7297 14.9609 87.6281 14.6484 87.425 14.4141C87.2271 14.1797 86.912 14.0625 86.4797 14.0625C86.0995 14.0625 85.8 14.1536 85.5813 14.3359C85.3677 14.5182 85.2609 14.7682 85.2609 15.0859H83.0031C83.0031 14.5964 83.1542 14.1432 83.4563 13.7266C83.7583 13.3099 84.1854 12.9844 84.7375 12.75C85.2896 12.5104 85.9094 12.3906 86.5969 12.3906C87.6385 12.3906 88.4641 12.6536 89.0734 13.1797C89.688 13.7005 89.9953 14.4349 89.9953 15.3828V19.0469C90.0005 19.849 90.1125 20.4557 90.3313 20.8672V21H88.05ZM86.1828 19.4297C86.5161 19.4297 86.8234 19.3568 87.1047 19.2109C87.3859 19.0599 87.5943 18.8594 87.7297 18.6094V17.1562H86.8859C85.7557 17.1562 85.1542 17.5469 85.0813 18.3281L85.0734 18.4609C85.0734 18.7422 85.1724 18.974 85.3703 19.1562C85.5682 19.3385 85.8391 19.4297 86.1828 19.4297ZM96.1781 16.7109C96.1781 15.3932 96.4724 14.3438 97.0609 13.5625C97.6547 12.7812 98.4646 12.3906 99.4906 12.3906C100.314 12.3906 100.993 12.6979 101.53 13.3125V9H103.795V21H101.756L101.647 20.1016C101.084 20.8047 100.36 21.1562 99.475 21.1562C98.4802 21.1562 97.6807 20.7656 97.0766 19.9844C96.4776 19.1979 96.1781 18.1068 96.1781 16.7109ZM98.4359 16.875C98.4359 17.6667 98.574 18.2734 98.85 18.6953C99.126 19.1172 99.5271 19.3281 100.053 19.3281C100.751 19.3281 101.243 19.0339 101.53 18.4453V15.1094C101.248 14.5208 100.761 14.2266 100.069 14.2266C98.9802 14.2266 98.4359 15.1094 98.4359 16.875ZM114.923 18.6641C114.923 18.388 114.785 18.1719 114.509 18.0156C114.239 17.8542 113.801 17.7109 113.197 17.5859C111.186 17.1641 110.181 16.3099 110.181 15.0234C110.181 14.2734 110.491 13.6484 111.111 13.1484C111.736 12.6432 112.551 12.3906 113.556 12.3906C114.629 12.3906 115.486 12.6432 116.127 13.1484C116.772 13.6536 117.095 14.3099 117.095 15.1172H114.838C114.838 14.7943 114.733 14.5286 114.525 14.3203C114.317 14.1068 113.991 14 113.548 14C113.168 14 112.874 14.0859 112.666 14.2578C112.457 14.4297 112.353 14.6484 112.353 14.9141C112.353 15.1641 112.47 15.3672 112.705 15.5234C112.944 15.6745 113.345 15.8073 113.908 15.9219C114.47 16.0312 114.944 16.1562 115.33 16.2969C116.522 16.7344 117.119 17.4922 117.119 18.5703C117.119 19.3411 116.788 19.9661 116.127 20.4453C115.465 20.9193 114.611 21.1562 113.564 21.1562C112.856 21.1562 112.226 21.0312 111.673 20.7812C111.127 20.526 110.697 20.1797 110.384 19.7422C110.072 19.2995 109.916 18.8229 109.916 18.3125H112.056C112.077 18.7135 112.226 19.0208 112.502 19.2344C112.778 19.4479 113.147 19.5547 113.611 19.5547C114.043 19.5547 114.369 19.474 114.588 19.3125C114.811 19.1458 114.923 18.9297 114.923 18.6641Z" fill="#4B4B4B"/>
<path d="M18.92 33.92V31.52H1.1V33.92H8.32V48.68H10.88V39.18C12.9 40.34 15.18 41.8 16.34 42.82L18.1 40.64C16.58 39.4 13.44 37.68 11.28 36.6L10.88 37.06V33.92H18.92ZM44.8 32.88C44.28 32.08 43.16 30.94 42.28 30.14L40.54 31.3C41.4 32.14 42.5 33.38 42.94 34.16L44.8 32.88ZM36.9 45.26H33.24V44.48H36.64V39.56H33.26V38.78H36.92V37.12H33.26V36.24H37.66C37.82 39.16 38.16 41.84 38.72 43.94C38.16 44.6 37.54 45.18 36.9 45.7V45.26ZM29.54 42.58H31.34V43.32H29.54V42.58ZM29.54 40.72H31.34V41.46H29.54V40.72ZM33.06 41.46V40.72H34.9V41.46H33.06ZM33.06 43.32V42.58H34.9V43.32H33.06ZM42.36 37.1C41.9 38.64 41.28 40.08 40.54 41.36C40.28 39.88 40.1 38.14 39.98 36.24H45.08V34.28H39.9C39.86 32.92 39.84 31.52 39.88 30.08H37.48C37.48 31.5 37.5 32.9 37.56 34.28H33.36V33.22H36.56V31.42H33.36V30.08H31.08V31.42H27.86V33.22H31.08V34.28H26.98V36.24H31.12V37.12H27.52V38.78H31.12V39.56H27.88V44.48H31.16V45.26H27.24V46.98H31.16V48.76H33.24V46.98H35.1C35.68 47.46 36.34 48.18 36.68 48.78C37.74 48.08 38.7 47.26 39.58 46.36C40.32 47.86 41.3 48.74 42.58 48.74C44.34 48.74 45.06 47.88 45.38 44.4C44.8 44.18 44 43.68 43.5 43.14C43.4 45.46 43.2 46.42 42.8 46.42C42.2 46.42 41.68 45.66 41.24 44.36C42.6 42.48 43.68 40.26 44.48 37.76L42.36 37.1Z" fill="#4B4B4B"/>
</svg>
