<svg width="86" height="86" viewBox="0 0 86 86" fill="none" xmlns="http://www.w3.org/2000/svg">
<rect x="43" y="0.573242" width="60" height="60" transform="rotate(45 43 0.573242)" fill="#5F5D56"/>
<path d="M45.5002 34.2496C45.7923 34.249 46.0754 34.3507 46.3002 34.5371C46.4268 34.642 46.5314 34.7709 46.6081 34.9163C46.6848 35.0618 46.7321 35.2209 46.7472 35.3846C46.7623 35.5483 46.7449 35.7134 46.6961 35.8704C46.6473 36.0274 46.568 36.1733 46.4627 36.2996L40.8627 42.9996L46.2627 49.7121C46.3666 49.8399 46.4441 49.9871 46.4909 50.145C46.5377 50.3029 46.5528 50.4685 46.5354 50.6323C46.518 50.7961 46.4683 50.9548 46.3894 51.0994C46.3104 51.2439 46.2036 51.3714 46.0752 51.4746C45.9459 51.5884 45.7945 51.6742 45.6304 51.7267C45.4663 51.7792 45.2931 51.7972 45.1218 51.7796C44.9504 51.762 44.7845 51.7091 44.6346 51.6244C44.4846 51.5396 44.3537 51.4248 44.2502 51.2871L38.2127 43.7871C38.0289 43.5634 37.9284 43.2829 37.9284 42.9933C37.9284 42.7038 38.0289 42.4233 38.2127 42.1996L44.4627 34.6996C44.5881 34.5483 44.7474 34.4287 44.9277 34.3505C45.108 34.2724 45.3041 34.2378 45.5002 34.2496Z" fill="white"/>
</svg>
