<svg width="86" height="86" viewBox="0 0 86 86" fill="none" xmlns="http://www.w3.org/2000/svg">
<rect x="43" y="85.4268" width="60" height="60" transform="rotate(-135 43 85.4268)" fill="#5F5D56"/>
<path d="M40.4998 51.7504C40.2077 51.751 39.9246 51.6493 39.6998 51.4629C39.5732 51.358 39.4686 51.2291 39.3919 51.0837C39.3152 50.9382 39.2679 50.7791 39.2528 50.6154C39.2377 50.4517 39.2551 50.2866 39.3039 50.1296C39.3527 49.9726 39.432 49.8267 39.5373 49.7004L45.1373 43.0004L39.7373 36.2879C39.6334 36.1601 39.5559 36.0129 39.5091 35.855C39.4623 35.6971 39.4472 35.5315 39.4646 35.3677C39.482 35.2039 39.5317 35.0452 39.6106 34.9006C39.6896 34.7561 39.7964 34.6286 39.9248 34.5254C40.0541 34.4116 40.2055 34.3258 40.3696 34.2733C40.5337 34.2208 40.7069 34.2028 40.8782 34.2204C41.0496 34.238 41.2155 34.2909 41.3654 34.3756C41.5154 34.4604 41.6463 34.5752 41.7498 34.7129L47.7873 42.2129C47.9711 42.4366 48.0716 42.7171 48.0716 43.0067C48.0716 43.2962 47.9711 43.5767 47.7873 43.8004L41.5373 51.3004C41.4119 51.4517 41.2526 51.5713 41.0723 51.6495C40.892 51.7276 40.6959 51.7622 40.4998 51.7504Z" fill="white"/>
</svg>
