<svg width="278" height="52" viewBox="0 0 278 52" fill="none" xmlns="http://www.w3.org/2000/svg">
<path d="M3.36 7.245H4.36V6.245H3.36V7.245ZM3.36 19.425H2.36V20.425H3.36V19.425ZM8.82 19.425H9.82V18.425H8.82V19.425ZM8.82 21V22H9.82V21H8.82ZM1.575 21H0.575V22H1.575V21ZM1.575 7.245V6.245H0.575V7.245H1.575ZM2.36 7.245V19.425H4.36V7.245H2.36ZM3.36 20.425H8.82V18.425H3.36V20.425ZM7.82 19.425V21H9.82V19.425H7.82ZM8.82 20H1.575V22H8.82V20ZM2.575 21V7.245H0.575V21H2.575ZM1.575 8.245H3.36V6.245H1.575V8.245ZM22.9986 11.319L22.2915 12.0261L22.3006 12.0352L22.3099 12.044L22.9986 11.319ZM23.8386 21V22H24.8386V21H23.8386ZM22.1376 21H21.1376V22H22.1376V21ZM22.1376 19.362H23.1376V15.9642L21.297 18.8203L22.1376 19.362ZM17.4336 20.412L16.6717 21.0596L16.6763 21.0651L16.681 21.0705L17.4336 20.412ZM17.5806 15.456L18.2699 16.1806L18.2789 16.1718L17.5806 15.456ZM22.0536 14.889L21.8575 15.8696L23.0536 16.1088V14.889H22.0536ZM21.6336 12.432L20.9265 13.1391L20.9356 13.1482L20.9449 13.157L21.6336 12.432ZM17.5386 12.348H16.5386V13.5352L17.7085 13.3335L17.5386 12.348ZM17.5386 10.815L17.381 9.82749L16.5386 9.96192V10.815H17.5386ZM18.8826 19.215L18.1054 19.8442L18.1054 19.8442L18.8826 19.215ZM20.9406 19.173L21.5754 19.9457L21.5782 19.9434L20.9406 19.173ZM22.0536 17.766L22.9268 18.2534L23.0536 18.0262V17.766H22.0536ZM22.0536 16.149H23.0536V15.3164L22.2348 15.1655L22.0536 16.149ZM20.3736 11.5C21.4567 11.5 22.015 11.7496 22.2915 12.0261L23.7057 10.6119C22.8902 9.79639 21.6985 9.5 20.3736 9.5V11.5ZM22.3099 12.044C22.5876 12.3078 22.8386 12.8373 22.8386 13.881H24.8386C24.8386 12.5727 24.5296 11.3942 23.6874 10.594L22.3099 12.044ZM22.8386 13.881V21H24.8386V13.881H22.8386ZM23.8386 20H22.1376V22H23.8386V20ZM23.1376 21V19.362H21.1376V21H23.1376ZM21.297 18.8203C20.5768 19.938 19.9276 20.252 19.3866 20.252V22.252C20.8896 22.252 22.0745 21.306 22.9782 19.9037L21.297 18.8203ZM19.3866 20.252C18.8334 20.252 18.4676 20.0751 18.1862 19.7535L16.681 21.0705C17.3796 21.8689 18.3159 22.252 19.3866 22.252V20.252ZM18.1955 19.7644C17.916 19.4355 17.7196 18.9274 17.7196 18.123H15.7196C15.7196 19.2506 15.9992 20.2685 16.6717 21.0596L18.1955 19.7644ZM17.7196 18.123V17.535H15.7196V18.123H17.7196ZM17.7196 17.535C17.7196 16.9504 17.9073 16.5254 18.2698 16.1806L16.8914 14.7314C16.1059 15.4786 15.7196 16.4396 15.7196 17.535H17.7196ZM18.2789 16.1718C18.6291 15.8302 19.1287 15.616 19.8906 15.616V13.616C18.7205 13.616 17.6802 13.9618 16.8823 14.7402L18.2789 16.1718ZM19.8906 15.616C20.3257 15.616 20.972 15.6925 21.8575 15.8696L22.2497 13.9084C21.3152 13.7215 20.5196 13.616 19.8906 13.616V15.616ZM23.0536 14.889V13.734H21.0536V14.889H23.0536ZM23.0536 13.734C23.0536 13.0081 22.8886 12.2449 22.3224 11.707L20.9449 13.157C20.9457 13.1578 20.9512 13.1631 20.9599 13.1775C20.9689 13.1925 20.9826 13.2197 20.9969 13.264C21.0265 13.3559 21.0536 13.5059 21.0536 13.734H23.0536ZM22.3407 11.7249C21.8086 11.1928 21.0759 11.033 20.3736 11.033V13.033C20.5874 13.033 20.7293 13.0582 20.8172 13.0861C20.9005 13.1125 20.9248 13.1374 20.9265 13.1391L22.3407 11.7249ZM20.3736 11.033C19.6158 11.033 18.6045 11.1495 17.3687 11.3625L17.7085 13.3335C18.9087 13.1265 19.7874 13.033 20.3736 13.033V11.033ZM18.5386 12.348V10.815H16.5386V12.348H18.5386ZM17.6962 11.8025C19.01 11.5929 19.8862 11.5 20.3736 11.5V9.5C19.713 9.5 18.6992 9.61715 17.381 9.82749L17.6962 11.8025ZM20.3316 15.002C19.5739 15.002 18.8342 15.2032 18.2805 15.7569L19.6947 17.1711C19.757 17.1088 19.9134 17.002 20.3316 17.002V15.002ZM18.2805 15.7569C17.7355 16.3019 17.5256 17.0201 17.5256 17.766H19.5256C19.5256 17.3919 19.6237 17.2421 19.6947 17.1711L18.2805 15.7569ZM17.5256 17.766V17.997H19.5256V17.766H17.5256ZM17.5256 17.997C17.5256 18.66 17.678 19.3163 18.1054 19.8442L19.6599 18.5858C19.6112 18.5257 19.5256 18.37 19.5256 17.997H17.5256ZM18.1054 19.8442C18.5246 20.3621 19.1064 20.656 19.7856 20.656V18.656C19.7423 18.656 19.728 18.6483 19.7257 18.6472C19.7223 18.6455 19.699 18.6341 19.6599 18.5858L18.1054 19.8442ZM19.7856 20.656C20.4637 20.656 21.0658 20.3643 21.5753 19.9457L20.3059 18.4003C20.0314 18.6257 19.8635 18.656 19.7856 18.656V20.656ZM21.5782 19.9434C22.104 19.5083 22.5481 18.9319 22.9268 18.2534L21.1804 17.2786C20.8871 17.8041 20.5893 18.1657 20.303 18.4026L21.5782 19.9434ZM23.0536 17.766V16.149H21.0536V17.766H23.0536ZM22.2348 15.1655C21.6355 15.0551 21.0002 15.002 20.3316 15.002V17.002C20.895 17.002 21.4078 17.0469 21.8724 17.1325L22.2348 15.1655ZM45.2647 10.752L46.2389 10.9776L46.5227 9.752H45.2647V10.752ZM42.8917 21V22H43.6866L43.8659 21.2256L42.8917 21ZM40.6447 21L39.6721 21.2326L39.8556 22H40.6447V21ZM38.5657 12.306L39.5383 12.0734L37.5936 12.0712L38.5657 12.306ZM36.4657 21V22H37.2529L37.4377 21.2348L36.4657 21ZM34.2187 21L33.244 21.2237L33.4222 22H34.2187V21ZM31.8667 10.752V9.752H30.6112L30.892 10.9757L31.8667 10.752ZM33.7567 10.752L34.7389 10.5641L34.5835 9.752H33.7567V10.752ZM35.4157 19.425L34.4335 19.6129L36.3902 19.6492L35.4157 19.425ZM37.4107 10.752V9.752H36.6146L36.4361 10.5278L37.4107 10.752ZM39.7207 10.752L40.6957 10.5301L40.5187 9.752H39.7207V10.752ZM41.6947 19.425L40.7196 19.6469L42.6764 19.6152L41.6947 19.425ZM43.3747 10.752V9.752H42.5498L42.3929 10.5618L43.3747 10.752ZM44.2905 10.5264L41.9175 20.7744L43.8659 21.2256L46.2389 10.9776L44.2905 10.5264ZM42.8917 20H40.6447V22H42.8917V20ZM41.6173 20.7674L39.5383 12.0734L37.5931 12.5386L39.6721 21.2326L41.6173 20.7674ZM37.5936 12.0712L35.4936 20.7652L37.4377 21.2348L39.5377 12.5408L37.5936 12.0712ZM36.4657 20H34.2187V22H36.4657V20ZM35.1933 20.7763L32.8413 10.5283L30.892 10.9757L33.244 21.2237L35.1933 20.7763ZM31.8667 11.752H33.7567V9.752H31.8667V11.752ZM32.7745 10.9399L34.4335 19.6129L36.3979 19.2371L34.7389 10.5641L32.7745 10.9399ZM36.3902 19.6492L38.3852 10.9762L36.4361 10.5278L34.4411 19.2008L36.3902 19.6492ZM37.4107 11.752H39.7207V9.752H37.4107V11.752ZM38.7456 10.9739L40.7196 19.6469L42.6697 19.2031L40.6957 10.5301L38.7456 10.9739ZM42.6764 19.6152L44.3564 10.9422L42.3929 10.5618L40.7129 19.2348L42.6764 19.6152ZM43.3747 11.752H45.2647V9.752H43.3747V11.752ZM58.5101 10.752L59.5097 10.7798L59.5331 9.93958L58.7094 9.77206L58.5101 10.752ZM58.4681 12.264L58.2432 13.2384L59.4338 13.5131L59.4677 12.2918L58.4681 12.264ZM54.7721 14.028L53.9981 14.6612L54.0146 14.6814L54.0322 14.7007L54.7721 14.028ZM55.5071 14.511L55.0744 15.4126L55.0832 15.4167L55.5071 14.511ZM57.4811 15.435L57.9069 14.5302L57.905 14.5293L57.4811 15.435ZM59.2661 18.354L60.266 18.3685L60.2661 18.3612V18.354H59.2661ZM58.3841 20.538L59.0318 21.2999L59.0334 21.2986L58.3841 20.538ZM53.0081 20.811L52.0095 20.7584L51.9662 21.5813L52.7656 21.7811L53.0081 20.811ZM53.0921 19.215L53.3736 18.2554L52.16 17.8994L52.0935 19.1624L53.0921 19.215ZM57.1031 19.404L57.6678 20.2293L57.6822 20.2194L57.6963 20.2091L57.1031 19.404ZM57.2921 17.451L56.4509 17.9918L56.4642 18.0123L56.4784 18.0322L57.2921 17.451ZM56.6411 16.947L57.0549 16.0366L57.0464 16.0328L56.6411 16.947ZM54.6041 16.044L54.1903 16.9544L54.1988 16.9582L54.6041 16.044ZM53.2391 15.036L52.4254 15.6172L52.4321 15.6267L52.4391 15.636L53.2391 15.036ZM52.8191 13.377L51.8195 13.3476L51.8191 13.3623V13.377H52.8191ZM53.7011 11.235L54.3488 11.9969L54.3504 11.9956L53.7011 11.235ZM56.3891 11.5C56.8883 11.5 57.5247 11.5721 58.3108 11.7319L58.7094 9.77206C57.8435 9.59594 57.0659 9.5 56.3891 9.5V11.5ZM57.5105 10.7242L57.4685 12.2362L59.4677 12.2918L59.5097 10.7798L57.5105 10.7242ZM58.693 11.2896C57.9081 11.1085 57.1663 11.012 56.4731 11.012V13.012C56.9839 13.012 57.5721 13.0835 58.2432 13.2384L58.693 11.2896ZM56.4731 11.012C55.7677 11.012 55.0665 11.1198 54.5139 11.4759C53.8859 11.8806 53.5831 12.5179 53.5831 13.23H55.5831C55.5831 13.1575 55.5965 13.1428 55.5894 13.1565C55.5806 13.1736 55.5726 13.173 55.5973 13.1571C55.6747 13.1072 55.9185 13.012 56.4731 13.012V11.012ZM53.5831 13.23V13.419H55.5831V13.23H53.5831ZM53.5831 13.419C53.5831 13.839 53.6906 14.2853 53.9981 14.6612L55.5461 13.3948C55.5572 13.4084 55.5663 13.4223 55.5732 13.4354C55.5801 13.4484 55.5837 13.4584 55.5854 13.4639C55.5886 13.4742 55.5831 13.4626 55.5831 13.419H53.5831ZM54.0322 14.7007C54.3045 15.0003 54.6911 15.2286 55.0744 15.4125L55.9398 13.6095C55.793 13.539 55.6855 13.4781 55.61 13.4285C55.5316 13.377 55.5078 13.3507 55.512 13.3553L54.0322 14.7007ZM55.0832 15.4167L57.0572 16.3407L57.905 14.5293L55.931 13.6053L55.0832 15.4167ZM57.0553 16.3398C57.5422 16.5689 57.8376 16.8186 58.0108 17.057C58.1759 17.2843 58.2661 17.5496 58.2661 17.892H60.2661C60.2661 17.1564 60.0588 16.4732 59.6289 15.8815C59.2071 15.3009 58.61 14.8611 57.9069 14.5302L57.0553 16.3398ZM58.2661 17.892V18.354H60.2661V17.892H58.2661ZM58.2662 18.3395C58.2551 19.1042 58.0322 19.5236 57.7348 19.7774L59.0334 21.2986C59.8841 20.5724 60.2491 19.5358 60.266 18.3685L58.2662 18.3395ZM57.7365 19.7761C57.4432 20.0254 56.8423 20.252 55.7171 20.252V22.252C57.0279 22.252 58.205 22.0026 59.0318 21.2999L57.7365 19.7761ZM55.7171 20.252C55.2128 20.252 54.406 20.1297 53.2506 19.8409L52.7656 21.7811C53.9622 22.0803 54.9614 22.252 55.7171 22.252V20.252ZM54.0067 20.8636L54.0907 19.2676L52.0935 19.1624L52.0095 20.7584L54.0067 20.8636ZM52.8106 20.1746C53.9024 20.4948 54.8671 20.677 55.6751 20.677V18.677C55.1391 18.677 54.3818 18.5512 53.3736 18.2554L52.8106 20.1746ZM55.6751 20.677C56.38 20.677 57.1307 20.5968 57.6678 20.2293L56.5384 18.5787C56.5613 18.563 56.5234 18.5951 56.3588 18.6265C56.2023 18.6565 55.9788 18.677 55.6751 18.677V20.677ZM57.6963 20.2091C58.2947 19.7681 58.5021 19.1018 58.5021 18.459H56.5021C56.5021 18.577 56.4837 18.6257 56.4811 18.6318C56.4802 18.634 56.4823 18.6284 56.4895 18.6193C56.4967 18.61 56.5045 18.6029 56.5099 18.5989L57.6963 20.2091ZM58.5021 18.459V18.249H56.5021V18.459H58.5021ZM58.5021 18.249C58.5021 17.7846 58.4064 17.2905 58.1058 16.8698L56.4784 18.0322C56.4578 18.0035 56.5021 18.0414 56.5021 18.249H58.5021ZM58.1333 16.9102C57.8663 16.495 57.463 16.2221 57.0549 16.0366L56.2273 17.8574C56.4352 17.9519 56.4659 18.015 56.4509 17.9918L58.1333 16.9102ZM57.0464 16.0328L55.0094 15.1298L54.1988 16.9582L56.2358 17.8612L57.0464 16.0328ZM55.0179 15.1336C54.4993 14.8979 54.2014 14.6524 54.0391 14.436L52.4391 15.636C52.8648 16.2036 53.4769 16.6301 54.1903 16.9544L55.0179 15.1336ZM54.0528 14.4548C53.9033 14.2454 53.8191 13.9971 53.8191 13.671H51.8191C51.8191 14.3809 52.0149 15.0426 52.4254 15.6172L54.0528 14.4548ZM53.8191 13.671V13.377H51.8191V13.671H53.8191ZM53.8187 13.4064C53.841 12.6486 54.064 12.239 54.3488 11.9969L53.0535 10.4731C52.2182 11.183 51.8532 12.2014 51.8195 13.3476L53.8187 13.4064ZM54.3504 11.9956C54.661 11.7304 55.2721 11.5 56.3891 11.5V9.5C55.0701 9.5 53.8892 9.75962 53.0518 10.4744L54.3504 11.9956ZM73.4191 11.319L72.712 12.0261L72.7211 12.0352L72.7304 12.044L73.4191 11.319ZM74.2591 21V22H75.2591V21H74.2591ZM72.5581 21H71.5581V22H72.5581V21ZM72.5581 19.362H73.5581V15.9642L71.7175 18.8203L72.5581 19.362ZM67.8541 20.412L67.0922 21.0596L67.0968 21.0651L67.1015 21.0705L67.8541 20.412ZM68.0011 15.456L68.6904 16.1806L68.6994 16.1718L68.0011 15.456ZM72.4741 14.889L72.278 15.8696L73.4741 16.1088V14.889H72.4741ZM72.0541 12.432L71.347 13.1391L71.3561 13.1482L71.3654 13.157L72.0541 12.432ZM67.9591 12.348H66.9591V13.5352L68.129 13.3335L67.9591 12.348ZM67.9591 10.815L67.8015 9.82749L66.9591 9.96192V10.815H67.9591ZM69.3031 19.215L68.5259 19.8442L68.5259 19.8442L69.3031 19.215ZM71.3611 19.173L71.9959 19.9457L71.9987 19.9434L71.3611 19.173ZM72.4741 17.766L73.3473 18.2534L73.4741 18.0262V17.766H72.4741ZM72.4741 16.149H73.4741V15.3164L72.6553 15.1655L72.4741 16.149ZM70.7941 11.5C71.8772 11.5 72.4355 11.7496 72.712 12.0261L74.1262 10.6119C73.3107 9.79639 72.119 9.5 70.7941 9.5V11.5ZM72.7304 12.044C73.0081 12.3078 73.2591 12.8373 73.2591 13.881H75.2591C75.2591 12.5727 74.9501 11.3942 74.1079 10.594L72.7304 12.044ZM73.2591 13.881V21H75.2591V13.881H73.2591ZM74.2591 20H72.5581V22H74.2591V20ZM73.5581 21V19.362H71.5581V21H73.5581ZM71.7175 18.8203C70.9973 19.938 70.3481 20.252 69.8071 20.252V22.252C71.3101 22.252 72.495 21.306 73.3987 19.9037L71.7175 18.8203ZM69.8071 20.252C69.2539 20.252 68.8881 20.0751 68.6067 19.7535L67.1015 21.0705C67.8001 21.8689 68.7364 22.252 69.8071 22.252V20.252ZM68.6161 19.7644C68.3365 19.4355 68.1401 18.9274 68.1401 18.123H66.1401C66.1401 19.2506 66.4197 20.2685 67.0922 21.0596L68.6161 19.7644ZM68.1401 18.123V17.535H66.1401V18.123H68.1401ZM68.1401 17.535C68.1401 16.9504 68.3278 16.5254 68.6903 16.1806L67.3119 14.7314C66.5264 15.4786 66.1401 16.4396 66.1401 17.535H68.1401ZM68.6994 16.1718C69.0496 15.8302 69.5492 15.616 70.3111 15.616V13.616C69.141 13.616 68.1007 13.9618 67.3028 14.7402L68.6994 16.1718ZM70.3111 15.616C70.7462 15.616 71.3925 15.6925 72.278 15.8696L72.6702 13.9084C71.7357 13.7215 70.9401 13.616 70.3111 13.616V15.616ZM73.4741 14.889V13.734H71.4741V14.889H73.4741ZM73.4741 13.734C73.4741 13.0081 73.3091 12.2449 72.7429 11.707L71.3654 13.157C71.3662 13.1578 71.3717 13.1631 71.3804 13.1775C71.3894 13.1925 71.4031 13.2197 71.4174 13.264C71.447 13.3559 71.4741 13.5059 71.4741 13.734H73.4741ZM72.7612 11.7249C72.2291 11.1928 71.4965 11.033 70.7941 11.033V13.033C71.0079 13.033 71.1498 13.0582 71.2377 13.0861C71.321 13.1125 71.3453 13.1374 71.347 13.1391L72.7612 11.7249ZM70.7941 11.033C70.0363 11.033 69.0251 11.1495 67.7892 11.3625L68.129 13.3335C69.3292 13.1265 70.2079 13.033 70.7941 13.033V11.033ZM68.9591 12.348V10.815H66.9591V12.348H68.9591ZM68.1167 11.8025C69.4305 11.5929 70.3067 11.5 70.7941 11.5V9.5C70.1336 9.5 69.1197 9.61715 67.8015 9.82749L68.1167 11.8025ZM70.7521 15.002C69.9944 15.002 69.2547 15.2032 68.701 15.7569L70.1152 17.1711C70.1775 17.1088 70.3339 17.002 70.7521 17.002V15.002ZM68.701 15.7569C68.156 16.3019 67.9461 17.0201 67.9461 17.766H69.9461C69.9461 17.3919 70.0442 17.2421 70.1152 17.1711L68.701 15.7569ZM67.9461 17.766V17.997H69.9461V17.766H67.9461ZM67.9461 17.997C67.9461 18.66 68.0985 19.3163 68.5259 19.8442L70.0804 18.5858C70.0317 18.5257 69.9461 18.37 69.9461 17.997H67.9461ZM68.5259 19.8442C68.9451 20.3621 69.5269 20.656 70.2061 20.656V18.656C70.1628 18.656 70.1485 18.6483 70.1462 18.6472C70.1428 18.6455 70.1195 18.6341 70.0804 18.5858L68.5259 19.8442ZM70.2061 20.656C70.8842 20.656 71.4863 20.3643 71.9959 19.9457L70.7264 18.4003C70.4519 18.6257 70.284 18.656 70.2061 18.656V20.656ZM71.9987 19.9434C72.5245 19.5083 72.9686 18.9319 73.3473 18.2534L71.6009 17.2786C71.3076 17.8041 71.0098 18.1657 70.7235 18.4026L71.9987 19.9434ZM73.4741 17.766V16.149H71.4741V17.766H73.4741ZM72.6553 15.1655C72.056 15.0551 71.4207 15.002 70.7521 15.002V17.002C71.3155 17.002 71.8283 17.0469 72.293 17.1325L72.6553 15.1655ZM89.9297 11.424L89.1384 12.0354L89.1462 12.0455L89.1541 12.0553L89.9297 11.424ZM90.6647 21V22H91.6647V21H90.6647ZM88.8797 21H87.8797V22H88.8797V21ZM86.2757 12.621L86.8671 13.4274L86.8671 13.4274L86.2757 12.621ZM85.1837 13.881L84.3183 13.38L84.1837 13.6124V13.881H85.1837ZM85.1837 21V22H86.1837V21H85.1837ZM83.3987 21H82.3987V22H83.3987V21ZM83.3987 10.752V9.752H82.3987V10.752H83.3987ZM85.0787 10.752H86.0787V9.752H85.0787V10.752ZM85.0787 12.285H84.0787V15.6217L85.9139 12.835L85.0787 12.285ZM86.3387 10.962L85.7954 10.1224L85.784 10.1299L86.3387 10.962ZM87.8717 11.5C88.511 11.5 88.882 11.7036 89.1384 12.0354L90.721 10.8126C90.0254 9.91243 89.0245 9.5 87.8717 9.5V11.5ZM89.1541 12.0553C89.4467 12.4147 89.6647 13.0177 89.6647 14.007H91.6647C91.6647 12.7563 91.3927 11.6373 90.7053 10.7927L89.1541 12.0553ZM89.6647 14.007V21H91.6647V14.007H89.6647ZM90.6647 20H88.8797V22H90.6647V20ZM89.8797 21V14.259H87.8797V21H89.8797ZM89.8797 14.259C89.8797 13.4826 89.7593 12.7274 89.3769 12.139C88.946 11.4761 88.272 11.159 87.5147 11.159V13.159C87.613 13.159 87.6502 13.1773 87.6556 13.1801C87.6574 13.181 87.6727 13.187 87.7 13.229C87.7726 13.3406 87.8797 13.6354 87.8797 14.259H89.8797ZM87.5147 11.159C86.8427 11.159 86.2272 11.4165 85.6843 11.8146L86.8671 13.4274C87.1642 13.2095 87.3747 13.159 87.5147 13.159V11.159ZM85.6843 11.8146C85.1346 12.2177 84.6832 12.7496 84.3183 13.38L86.0491 14.382C86.3002 13.9484 86.5768 13.6403 86.8671 13.4274L85.6843 11.8146ZM84.1837 13.881V21H86.1837V13.881H84.1837ZM85.1837 20H83.3987V22H85.1837V20ZM84.3987 21V10.752H82.3987V21H84.3987ZM83.3987 11.752H85.0787V9.752H83.3987V11.752ZM84.0787 10.752V12.285H86.0787V10.752H84.0787ZM85.9139 12.835C86.2352 12.347 86.566 12.0124 86.8934 11.7941L85.784 10.1299C85.1875 10.5276 84.6782 11.075 84.2435 11.735L85.9139 12.835ZM86.882 11.8016C87.2027 11.594 87.5261 11.5 87.8717 11.5V9.5C87.1253 9.5 86.4267 9.71395 85.7955 10.1224L86.882 11.8016ZM106.968 21V22H107.968V21H106.968ZM105.267 21H104.267V22H105.267V21ZM105.267 19.341H106.267V16.0077L104.432 18.7905L105.267 19.341ZM100.395 20.37L99.6012 20.9789L99.6083 20.9878L100.395 20.37ZM100.458 11.424L99.6922 10.7803L99.6836 10.7908L100.458 11.424ZM103.944 10.815L103.519 11.7205L103.531 11.726L103.543 11.7312L103.944 10.815ZM105.183 11.55L104.569 12.3394L106.183 13.5946V11.55H105.183ZM105.183 6.657V5.657H104.183V6.657H105.183ZM106.968 6.657H107.968V5.657H106.968V6.657ZM101.886 12.642L101.093 12.0323L101.089 12.0369L101.886 12.642ZM104.049 19.173L104.67 19.9565L104.673 19.9539L104.049 19.173ZM105.183 17.766L106.056 18.2534L106.183 18.0262V17.766H105.183ZM105.183 13.146H106.183V12.7453L105.906 12.4555L105.183 13.146ZM104.133 12.39L103.685 13.2845L103.698 13.2906L104.133 12.39ZM106.968 20H105.267V22H106.968V20ZM106.267 21V19.341H104.267V21H106.267ZM104.432 18.7905C103.693 19.9105 103.004 20.252 102.39 20.252V22.252C103.931 22.252 105.16 21.3195 106.101 19.8915L104.432 18.7905ZM102.39 20.252C101.773 20.252 101.421 20.0583 101.181 19.7522L99.6083 20.9878C100.292 21.8577 101.27 22.252 102.39 22.252V20.252ZM101.188 19.7612C100.913 19.4032 100.702 18.7801 100.702 17.745H98.7016C98.7016 19.0059 98.952 20.1328 99.6013 20.9788L101.188 19.7612ZM100.702 17.745V14.007H98.7016V17.745H100.702ZM100.702 14.007C100.702 13.0429 100.922 12.4361 101.232 12.0572L99.6836 10.7908C98.9856 11.6439 98.7016 12.7591 98.7016 14.007H100.702ZM101.223 12.0676C101.516 11.7196 101.946 11.5 102.663 11.5V9.5C101.475 9.5 100.436 9.89641 99.6922 10.7804L101.223 12.0676ZM102.663 11.5C102.893 11.5 103.176 11.5594 103.519 11.7205L104.368 9.90954C103.816 9.65063 103.244 9.5 102.663 9.5V11.5ZM103.543 11.7312C103.916 11.8946 104.258 12.0974 104.569 12.3394L105.797 10.7606C105.352 10.4146 104.867 10.1274 104.344 9.89884L103.543 11.7312ZM106.183 11.55V6.657H104.183V11.55H106.183ZM105.183 7.657H106.968V5.657H105.183V7.657ZM105.968 6.657V21H107.968V6.657H105.968ZM103.062 11.096C102.282 11.096 101.583 11.3959 101.093 12.0323L102.678 13.2517C102.749 13.1601 102.833 13.096 103.062 13.096V11.096ZM101.089 12.0369C100.629 12.6423 100.487 13.4435 100.487 14.259H102.487C102.487 13.6185 102.61 13.3416 102.682 13.2471L101.089 12.0369ZM100.487 14.259V17.514H102.487V14.259H100.487ZM100.487 17.514C100.487 18.2985 100.602 19.0556 100.967 19.646C101.38 20.3157 102.043 20.656 102.81 20.656V18.656C102.767 18.656 102.74 18.6517 102.725 18.6483C102.717 18.6465 102.713 18.6449 102.71 18.6439C102.707 18.643 102.706 18.6423 102.706 18.6421C102.705 18.6419 102.705 18.6418 102.705 18.6414C102.704 18.6411 102.703 18.6399 102.7 18.6375C102.695 18.6329 102.684 18.6206 102.668 18.595C102.592 18.4714 102.487 18.1575 102.487 17.514H100.487ZM102.81 20.656C103.504 20.656 104.13 20.3851 104.67 19.9565L103.427 18.3895C103.156 18.6049 102.955 18.656 102.81 18.656V20.656ZM104.673 19.9539C105.218 19.5178 105.674 18.9379 106.056 18.2534L104.309 17.2786C104.019 17.7981 103.719 18.1562 103.424 18.3921L104.673 19.9539ZM106.183 17.766V13.146H104.183V17.766H106.183ZM105.906 12.4555C105.524 12.0557 105.075 11.7345 104.567 11.4894L103.698 13.2906C104.002 13.4375 104.253 13.6202 104.459 13.8365L105.906 12.4555ZM104.58 11.4956C104.097 11.2539 103.584 11.096 103.062 11.096V13.096C103.183 13.096 103.385 13.1341 103.685 13.2844L104.58 11.4956ZM131.207 10.542H132.207V9.76122L131.45 9.57186L131.207 10.542ZM131.207 12.558L131.011 13.5386L132.207 13.7778V12.558H131.207ZM128.057 13.965L127.194 13.4596L127.057 13.6937V13.965H128.057ZM128.057 21V22H129.057V21H128.057ZM126.272 21H125.272V22H126.272V21ZM126.272 10.752V9.752H125.272V10.752H126.272ZM127.952 10.752H128.952V9.752H127.952V10.752ZM127.952 12.285H126.952V15.6217L128.788 12.835L127.952 12.285ZM129.212 10.962L128.669 10.1224L128.658 10.1299L129.212 10.962ZM130.745 11.5C130.821 11.5 130.877 11.5027 130.917 11.5064C130.959 11.5102 130.972 11.514 130.965 11.5121L131.45 9.57186C131.222 9.515 130.975 9.5 130.745 9.5V11.5ZM130.207 10.542V12.558H132.207V10.542H130.207ZM131.403 11.5774C131.103 11.5174 130.758 11.495 130.388 11.495V13.495C130.691 13.495 130.891 13.5146 131.011 13.5386L131.403 11.5774ZM130.388 11.495C128.991 11.495 127.914 12.2312 127.194 13.4596L128.92 14.4704C129.349 13.7388 129.826 13.495 130.388 13.495V11.495ZM127.057 13.965V21H129.057V13.965H127.057ZM128.057 20H126.272V22H128.057V20ZM127.272 21V10.752H125.272V21H127.272ZM126.272 11.752H127.952V9.752H126.272V11.752ZM126.952 10.752V12.285H128.952V10.752H126.952ZM128.788 12.835C129.109 12.347 129.44 12.0124 129.767 11.7941L128.658 10.1299C128.061 10.5276 127.552 11.075 127.117 11.735L128.788 12.835ZM129.756 11.8016C130.076 11.594 130.4 11.5 130.745 11.5V9.5C129.999 9.5 129.3 9.71395 128.669 10.1224L129.756 11.8016ZM145.306 11.466L146.029 10.7748L146.029 10.7748L145.306 11.466ZM146.23 16.422V17.422H147.23V16.422H146.23ZM140.833 16.422V15.422H139.833V16.422H140.833ZM141.337 19.215L140.645 19.937L140.66 19.9517L140.676 19.9657L141.337 19.215ZM145.705 19.341L146.705 19.314L146.672 18.1217L145.504 18.3614L145.705 19.341ZM145.747 20.895L145.927 21.8787L146.77 21.7246L146.747 20.868L145.747 20.895ZM139.951 20.349L139.244 21.0562L139.252 21.0642L139.951 20.349ZM139.93 11.466L139.199 10.7831L139.191 10.7917L139.93 11.466ZM141.316 12.516L142.038 13.2079L142.045 13.2006L142.052 13.1931L141.316 12.516ZM140.833 14.994H139.833V15.994H140.833V14.994ZM144.445 14.994V15.994H145.445V14.994H144.445ZM143.941 12.516L143.205 13.1931L143.212 13.2009L143.22 13.2085L143.941 12.516ZM142.618 11.5C143.612 11.5 144.211 11.7678 144.583 12.1572L146.029 10.7748C145.169 9.87621 143.976 9.5 142.618 9.5V11.5ZM144.583 12.1572C144.964 12.5557 145.23 13.2025 145.23 14.259H147.23C147.23 12.8795 146.879 11.6643 146.029 10.7748L144.583 12.1572ZM145.23 14.259V16.422H147.23V14.259H145.23ZM146.23 15.422H140.833V17.422H146.23V15.422ZM139.833 16.422V17.661H141.833V16.422H139.833ZM139.833 17.661C139.833 18.5041 140.028 19.346 140.645 19.937L142.029 18.493C141.974 18.44 141.833 18.2459 141.833 17.661H139.833ZM140.676 19.9657C141.29 20.506 142.126 20.677 142.975 20.677V18.677C142.34 18.677 142.084 18.54 141.998 18.4643L140.676 19.9657ZM142.975 20.677C143.796 20.677 144.779 20.5518 145.906 20.3206L145.504 18.3614C144.447 18.5782 143.61 18.677 142.975 18.677V20.677ZM144.705 19.368L144.747 20.922L146.747 20.868L146.705 19.314L144.705 19.368ZM145.567 19.9113C144.266 20.1491 143.414 20.252 142.954 20.252V22.252C143.613 22.252 144.624 22.1169 145.927 21.8787L145.567 19.9113ZM142.954 20.252C141.677 20.252 140.993 19.969 140.65 19.6338L139.252 21.0642C140.141 21.933 141.459 22.252 142.954 22.252V20.252ZM140.658 19.6419C140.317 19.3011 140.048 18.6773 140.048 17.556H138.048C138.048 18.9547 138.381 20.1929 139.244 21.0561L140.658 19.6419ZM140.048 17.556V14.259H138.048V17.556H140.048ZM140.048 14.259C140.048 13.1913 140.305 12.5379 140.668 12.1403L139.191 10.7917C138.378 11.6821 138.048 12.8907 138.048 14.259H140.048ZM140.66 12.1489C141.014 11.7706 141.604 11.5 142.618 11.5V9.5C141.252 9.5 140.05 9.87343 139.199 10.7831L140.66 12.1489ZM142.618 10.991C141.838 10.991 141.12 11.2518 140.58 11.8389L142.052 13.1931C142.156 13.0802 142.306 12.991 142.618 12.991V10.991ZM140.594 11.8241C140.034 12.4079 139.833 13.1844 139.833 13.986H141.833C141.833 13.4996 141.953 13.2961 142.038 13.2079L140.594 11.8241ZM139.833 13.986V14.994H141.833V13.986H139.833ZM140.833 15.994H144.445V13.994H140.833V15.994ZM145.445 14.994V14.049H143.445V14.994H145.445ZM145.445 14.049C145.445 13.2195 145.236 12.4215 144.662 11.8235L143.22 13.2085C143.317 13.3105 143.445 13.5345 143.445 14.049H145.445ZM144.677 11.8389C144.132 11.2464 143.403 10.991 142.618 10.991V12.991C142.952 12.991 143.106 13.0856 143.205 13.1931L144.677 11.8389ZM159.99 10.773L159.651 11.7136L159.822 11.7752L160.003 11.7729L159.99 10.773ZM163.266 10.731H164.266V9.7181L163.254 9.73108L163.266 10.731ZM163.266 12.306L163.242 13.3057L164.266 13.3307V12.306H163.266ZM161.544 12.264L161.569 11.2643L159.948 11.2248L160.64 12.691L161.544 12.264ZM160.956 16.779L161.656 17.4941L161.664 17.4861L160.956 16.779ZM156.525 17.493L156.815 16.536L156.305 16.3813L155.892 16.719L156.525 17.493ZM156.273 18.984L155.649 19.7649L155.674 19.7849L155.7 19.8032L156.273 18.984ZM157.092 19.173L157.166 18.1757L157.161 18.1754L157.092 19.173ZM160.221 19.404L160.308 18.4077L160.295 18.4067L160.221 19.404ZM161.775 20.139L161.033 20.8093L161.045 20.8218L161.056 20.834L161.775 20.139ZM162.027 23.982L161.181 23.4492L161.181 23.4492L162.027 23.982ZM160.704 24.843L160.413 23.8863L160.407 23.8881L160.704 24.843ZM156.378 24.99L156.218 25.977L156.221 25.9776L156.378 24.99ZM154.656 24.612L153.657 24.5741L153.627 25.3607L154.385 25.5744L154.656 24.612ZM154.719 22.953L155.036 22.0043L153.771 21.5827L153.72 22.9151L154.719 22.953ZM159.717 23.457L159.501 22.4808L159.479 22.4856L159.457 22.4914L159.717 23.457ZM160.452 23.058L159.63 22.4888L159.615 22.5109L159.601 22.5339L160.452 23.058ZM160.368 21.315L159.634 21.9933L159.647 22.008L159.661 22.0221L160.368 21.315ZM159.633 21.021L159.567 22.0188L159.578 22.0196L159.59 22.0201L159.633 21.021ZM156.483 20.811L156.55 19.8132L156.546 19.8129L156.483 20.811ZM154.95 20.244L154.258 20.9654L154.258 20.9654L154.95 20.244ZM154.656 17.556L153.788 17.0599L153.779 17.0758L153.771 17.092L154.656 17.556ZM155.37 16.779L155.959 17.5877L156.854 16.9369L156.116 16.1122L155.37 16.779ZM154.845 15.771L153.872 15.9982L153.876 16.0177L153.881 16.0369L154.845 15.771ZM155.622 11.403L156.313 12.1264L156.321 12.1182L155.622 11.403ZM156.945 12.453L157.636 13.1764L157.637 13.1756L156.945 12.453ZM156.609 15.582L155.661 15.8982L155.672 15.9309L155.685 15.9627L156.609 15.582ZM157.113 16.086L156.733 17.0107L156.756 17.0204L156.781 17.029L157.113 16.086ZM159.633 15.75L160.325 16.4726L160.325 16.4726L159.633 15.75ZM159.864 12.264L160.797 11.903L160.643 11.5051L160.249 11.3409L159.864 12.264ZM159.171 12.075L158.975 13.0556L158.984 13.0573L159.171 12.075ZM158.31 11.5C158.828 11.5 159.271 11.5763 159.651 11.7136L160.33 9.83245C159.702 9.60571 159.025 9.5 158.31 9.5V11.5ZM160.003 11.7729L163.279 11.7309L163.254 9.73108L159.978 9.77308L160.003 11.7729ZM162.266 10.731V12.306H164.266V10.731H162.266ZM163.291 11.3063L161.569 11.2643L161.52 13.2637L163.242 13.3057L163.291 11.3063ZM160.64 12.691C160.817 13.0644 160.901 13.4438 160.901 13.839H162.901C162.901 13.1422 162.748 12.4716 162.449 11.837L160.64 12.691ZM160.901 13.839V14.301H162.901V13.839H160.901ZM160.901 14.301C160.901 15.1001 160.664 15.6574 160.249 16.0719L161.664 17.4861C162.509 16.6406 162.901 15.5459 162.901 14.301H160.901ZM160.257 16.064C159.864 16.4491 159.261 16.703 158.31 16.703V18.703C159.628 18.703 160.789 18.3409 161.656 17.494L160.257 16.064ZM158.31 16.703C157.636 16.703 157.149 16.6369 156.815 16.536L156.235 18.45C156.826 18.6291 157.529 18.703 158.31 18.703V16.703ZM155.892 16.719C155.412 17.1119 155.063 17.6623 155.063 18.354H157.063C157.063 18.3537 157.063 18.3548 157.063 18.3569C157.063 18.359 157.063 18.3616 157.062 18.3642C157.06 18.3702 157.059 18.3725 157.06 18.3701C157.063 18.3648 157.084 18.3278 157.159 18.267L155.892 16.719ZM155.063 18.354V18.48H157.063V18.354H155.063ZM155.063 18.48C155.063 18.9247 155.213 19.4166 155.649 19.7649L156.898 18.2031C156.961 18.2537 157.01 18.3208 157.039 18.3894C157.065 18.4519 157.063 18.4896 157.063 18.48H155.063ZM155.7 19.8032C155.921 19.958 156.167 20.0349 156.358 20.0791C156.563 20.1265 156.789 20.1545 157.024 20.1706L157.161 18.1754C156.99 18.1635 156.876 18.146 156.808 18.1304C156.775 18.1228 156.763 18.1179 156.767 18.1192C156.769 18.12 156.801 18.1323 156.847 18.1648L155.7 19.8032ZM157.019 20.1703L160.148 20.4013L160.295 18.4067L157.166 18.1757L157.019 20.1703ZM160.135 20.4002C160.556 20.4368 160.829 20.5833 161.033 20.8093L162.518 19.4687C161.938 18.8267 161.175 18.4832 160.308 18.4078L160.135 20.4002ZM161.056 20.834C161.263 21.0477 161.384 21.3213 161.384 21.735H163.384C163.384 20.8607 163.1 20.0703 162.494 19.444L161.056 20.834ZM161.384 21.735V22.512H163.384V21.735H161.384ZM161.384 22.512C161.384 22.9891 161.29 23.2772 161.181 23.4492L162.874 24.5148C163.241 23.9308 163.384 23.2389 163.384 22.512H161.384ZM161.181 23.4492C161.123 23.5424 160.94 23.726 160.413 23.8863L160.996 25.7997C161.757 25.568 162.456 25.1776 162.874 24.5148L161.181 23.4492ZM160.407 23.8881C159.922 24.0393 159.131 24.137 157.974 24.137V26.137C159.198 26.137 160.227 26.0387 161.002 25.7979L160.407 23.8881ZM157.974 24.137C157.595 24.137 157.118 24.0951 156.536 24.0024L156.221 25.9776C156.871 26.0809 157.458 26.137 157.974 26.137V24.137ZM156.539 24.003C155.972 23.9106 155.435 23.7925 154.928 23.6496L154.385 25.5744C154.97 25.7395 155.581 25.8734 156.218 25.977L156.539 24.003ZM155.656 24.6499L155.719 22.9909L153.72 22.9151L153.657 24.5741L155.656 24.6499ZM154.403 23.9017C155.761 24.3542 156.98 24.604 158.037 24.604V22.604C157.275 22.604 156.282 22.4198 155.036 22.0043L154.403 23.9017ZM158.037 24.604C158.812 24.604 159.481 24.5563 159.977 24.4226L159.457 22.4914C159.226 22.5537 158.775 22.604 158.037 22.604V24.604ZM159.934 24.4332C160.38 24.3341 160.972 24.1224 161.304 23.5821L159.601 22.5339C159.66 22.4372 159.722 22.4076 159.708 22.4154C159.702 22.4187 159.683 22.428 159.647 22.4405C159.612 22.4528 159.563 22.4668 159.501 22.4808L159.934 24.4332ZM161.275 23.6272C161.569 23.2014 161.641 22.6875 161.641 22.239H159.641C159.641 22.3665 159.63 22.4472 159.62 22.4919C159.61 22.5365 159.605 22.5255 159.63 22.4888L161.275 23.6272ZM161.641 22.239V22.071H159.641V22.239H161.641ZM161.641 22.071C161.641 21.5541 161.49 21.0219 161.076 20.6079L159.661 22.0221C159.654 22.015 159.647 22.0063 159.641 21.9971C159.636 21.9879 159.633 21.9816 159.633 21.9801C159.632 21.9777 159.641 22.0031 159.641 22.071H161.641ZM161.103 20.6367C160.707 20.2074 160.18 20.0438 159.677 20.0219L159.59 22.0201C159.663 22.0232 159.69 22.0344 159.687 22.0335C159.686 22.0328 159.678 22.0295 159.667 22.022C159.656 22.0143 159.644 22.0045 159.634 21.9933L161.103 20.6367ZM159.7 20.0232L156.55 19.8132L156.417 21.8088L159.567 22.0188L159.7 20.0232ZM156.546 19.8129C156.019 19.78 155.766 19.6411 155.643 19.5226L154.258 20.9654C154.835 21.5189 155.604 21.758 156.421 21.8091L156.546 19.8129ZM155.643 19.5226C155.525 19.4095 155.425 19.2346 155.425 18.879H153.425C153.425 19.6714 153.676 20.4065 154.258 20.9654L155.643 19.5226ZM155.425 18.879V18.459H153.425V18.879H155.425ZM155.425 18.459C155.425 18.325 155.457 18.1822 155.542 18.02L153.771 17.092C153.548 17.5178 153.425 17.977 153.425 18.459H155.425ZM155.525 18.0521C155.614 17.8955 155.751 17.7389 155.959 17.5877L154.782 15.9703C154.374 16.2671 154.035 16.6285 153.788 17.0599L155.525 18.0521ZM156.116 16.1122C155.998 15.9801 155.888 15.789 155.809 15.5051L153.881 16.0369C154.027 16.565 154.267 17.0459 154.625 17.4458L156.116 16.1122ZM155.819 15.5438C155.744 15.2211 155.698 14.7911 155.698 14.238H153.698C153.698 14.8889 153.751 15.4809 153.872 15.9982L155.819 15.5438ZM155.698 14.238V13.776H153.698V14.238H155.698ZM155.698 13.776C155.698 13.0056 155.928 12.4939 156.313 12.1264L154.932 10.6796C154.085 11.4881 153.698 12.5584 153.698 13.776H155.698ZM156.321 12.1182C156.691 11.7571 157.298 11.5 158.31 11.5V9.5C156.971 9.5 155.786 9.84489 154.924 10.6878L156.321 12.1182ZM158.31 10.991C157.55 10.991 156.816 11.1933 156.254 11.7304L157.637 13.1756C157.719 13.0967 157.895 12.991 158.31 12.991V10.991ZM156.255 11.7296C155.692 12.2666 155.483 12.9908 155.483 13.734H157.483C157.483 13.3572 157.582 13.2274 157.636 13.1764L156.255 11.7296ZM155.483 13.734V14.427H157.483V13.734H155.483ZM155.483 14.427C155.483 14.9706 155.524 15.4881 155.661 15.8982L157.558 15.2658C157.527 15.1719 157.483 14.9194 157.483 14.427H155.483ZM155.685 15.9627C155.884 16.4473 156.248 16.8111 156.733 17.0107L157.494 15.1613C157.49 15.1594 157.491 15.1595 157.496 15.1629C157.501 15.1664 157.509 15.1719 157.516 15.1794C157.524 15.1869 157.529 15.194 157.533 15.1993C157.536 15.2045 157.536 15.2058 157.534 15.2012L155.685 15.9627ZM156.781 17.029C157.182 17.1707 157.677 17.212 158.184 17.212V15.212C157.74 15.212 157.521 15.1693 157.446 15.143L156.781 17.029ZM158.184 17.212C158.972 17.212 159.748 17.0244 160.325 16.4726L158.942 15.0274C158.875 15.0916 158.685 15.212 158.184 15.212V17.212ZM160.325 16.4726C160.897 15.9255 161.116 15.1911 161.116 14.427H159.116C159.116 14.8109 159.014 14.9585 158.942 15.0274L160.325 16.4726ZM161.116 14.427V13.797H159.116V14.427H161.116ZM161.116 13.797C161.116 13.1167 161.02 12.478 160.797 11.903L158.932 12.625C159.045 12.918 159.116 13.3013 159.116 13.797H161.116ZM160.249 11.3409C159.99 11.233 159.683 11.1545 159.359 11.0927L158.984 13.0573C159.248 13.1075 159.403 13.155 159.48 13.1871L160.249 11.3409ZM159.368 11.0944C159.021 11.0251 158.668 10.991 158.31 10.991V12.991C158.541 12.991 158.762 13.0129 158.975 13.0556L159.368 11.0944ZM178.378 21V22H179.378V21H178.378ZM176.698 21H175.698V22H176.698V21ZM176.698 19.53H177.698V16.2611L175.869 18.9705L176.698 19.53ZM171.952 20.37L171.167 20.9902L171.175 21.0003L171.184 21.0102L171.952 20.37ZM171.238 10.752V9.752H170.238V10.752H171.238ZM173.023 10.752H174.023V9.752H173.023V10.752ZM173.359 19.068L172.517 19.6071L172.524 19.6188L172.532 19.6303L173.359 19.068ZM175.501 19.152L176.087 19.962L176.092 19.9584L175.501 19.152ZM176.593 17.892L177.458 18.393L177.593 18.1606V17.892H176.593ZM176.593 10.752V9.752H175.593V10.752H176.593ZM178.378 10.752H179.378V9.752H178.378V10.752ZM178.378 20H176.698V22H178.378V20ZM177.698 21V19.53H175.698V21H177.698ZM175.869 18.9705C175.55 19.4426 175.223 19.7621 174.901 19.9673L175.975 21.6547C176.576 21.2719 177.089 20.7374 177.527 20.0895L175.869 18.9705ZM174.901 19.9673C174.59 20.1654 174.285 20.252 173.968 20.252V22.252C174.687 22.252 175.362 22.0446 175.975 21.6547L174.901 19.9673ZM173.968 20.252C173.372 20.252 172.997 20.0616 172.72 19.7298L171.184 21.0102C171.887 21.8544 172.856 22.252 173.968 22.252V20.252ZM172.736 19.7498C172.454 19.3931 172.238 18.7748 172.238 17.745H170.238C170.238 19.0112 170.497 20.1429 171.167 20.9902L172.736 19.7498ZM172.238 17.745V10.752H170.238V17.745H172.238ZM171.238 11.752H173.023V9.752H171.238V11.752ZM172.023 10.752V17.43H174.023V10.752H172.023ZM172.023 17.43C172.023 18.2327 172.137 19.0134 172.517 19.6071L174.201 18.5289C174.133 18.4226 174.023 18.1113 174.023 17.43H172.023ZM172.532 19.6303C172.947 20.2402 173.571 20.593 174.325 20.593V18.593C174.295 18.593 174.278 18.5899 174.27 18.5879C174.262 18.586 174.258 18.5842 174.256 18.5831C174.256 18.5827 174.229 18.5694 174.186 18.5057L172.532 19.6303ZM174.325 20.593C174.973 20.593 175.566 20.3396 176.087 19.9619L174.914 18.3421C174.624 18.5524 174.433 18.593 174.325 18.593V20.593ZM176.092 19.9584C176.642 19.5553 177.093 19.0234 177.458 18.393L175.727 17.391C175.476 17.8246 175.2 18.1327 174.909 18.3456L176.092 19.9584ZM177.593 17.892V10.752H175.593V17.892H177.593ZM176.593 11.752H178.378V9.752H176.593V11.752ZM177.378 10.752V21H179.378V10.752H177.378ZM189.413 6.657H190.413V5.657H189.413V6.657ZM189.413 21V22H190.413V21H189.413ZM187.628 21H186.628V22H187.628V21ZM187.628 6.657V5.657H186.628V6.657H187.628ZM188.413 6.657V21H190.413V6.657H188.413ZM189.413 20H187.628V22H189.413V20ZM188.628 21V6.657H186.628V21H188.628ZM187.628 7.657H189.413V5.657H187.628V7.657ZM204.398 11.319L203.691 12.0261L203.7 12.0352L203.71 12.044L204.398 11.319ZM205.238 21V22H206.238V21H205.238ZM203.537 21H202.537V22H203.537V21ZM203.537 19.362H204.537V15.9642L202.697 18.8203L203.537 19.362ZM198.833 20.412L198.071 21.0596L198.076 21.0651L198.081 21.0705L198.833 20.412ZM198.98 15.456L199.67 16.1806L199.679 16.1718L198.98 15.456ZM203.453 14.889L203.257 15.8696L204.453 16.1088V14.889H203.453ZM203.033 12.432L202.326 13.1391L202.335 13.1482L202.345 13.157L203.033 12.432ZM198.938 12.348H197.938V13.5352L199.108 13.3335L198.938 12.348ZM198.938 10.815L198.781 9.82749L197.938 9.96192V10.815H198.938ZM200.282 19.215L199.505 19.8442L199.505 19.8442L200.282 19.215ZM202.34 19.173L202.975 19.9457L202.978 19.9434L202.34 19.173ZM203.453 17.766L204.327 18.2534L204.453 18.0262V17.766H203.453ZM203.453 16.149H204.453V15.3164L203.635 15.1655L203.453 16.149ZM201.773 11.5C202.856 11.5 203.415 11.7496 203.691 12.0261L205.106 10.6119C204.29 9.79639 203.098 9.5 201.773 9.5V11.5ZM203.71 12.044C203.987 12.3078 204.238 12.8373 204.238 13.881H206.238C206.238 12.5727 205.929 11.3942 205.087 10.594L203.71 12.044ZM204.238 13.881V21H206.238V13.881H204.238ZM205.238 20H203.537V22H205.238V20ZM204.537 21V19.362H202.537V21H204.537ZM202.697 18.8203C201.977 19.938 201.327 20.252 200.786 20.252V22.252C202.289 22.252 203.474 21.306 204.378 19.9037L202.697 18.8203ZM200.786 20.252C200.233 20.252 199.867 20.0751 199.586 19.7535L198.081 21.0705C198.779 21.8689 199.716 22.252 200.786 22.252V20.252ZM199.595 19.7644C199.316 19.4355 199.119 18.9274 199.119 18.123H197.119C197.119 19.2506 197.399 20.2685 198.071 21.0596L199.595 19.7644ZM199.119 18.123V17.535H197.119V18.123H199.119ZM199.119 17.535C199.119 16.9504 199.307 16.5254 199.67 16.1806L198.291 14.7314C197.506 15.4786 197.119 16.4396 197.119 17.535H199.119ZM199.679 16.1718C200.029 15.8302 200.529 15.616 201.29 15.616V13.616C200.12 13.616 199.08 13.9618 198.282 14.7402L199.679 16.1718ZM201.29 15.616C201.725 15.616 202.372 15.6925 203.257 15.8696L203.65 13.9084C202.715 13.7215 201.919 13.616 201.29 13.616V15.616ZM204.453 14.889V13.734H202.453V14.889H204.453ZM204.453 13.734C204.453 13.0081 204.288 12.2449 203.722 11.707L202.345 13.157C202.346 13.1578 202.351 13.1631 202.36 13.1775C202.369 13.1925 202.382 13.2197 202.397 13.264C202.426 13.3559 202.453 13.5059 202.453 13.734H204.453ZM203.741 11.7249C203.208 11.1928 202.476 11.033 201.773 11.033V13.033C201.987 13.033 202.129 13.0582 202.217 13.0861C202.3 13.1125 202.325 13.1374 202.326 13.1391L203.741 11.7249ZM201.773 11.033C201.016 11.033 200.004 11.1495 198.769 11.3625L199.108 13.3335C200.308 13.1265 201.187 13.033 201.773 13.033V11.033ZM199.938 12.348V10.815H197.938V12.348H199.938ZM199.096 11.8025C200.41 11.5929 201.286 11.5 201.773 11.5V9.5C201.113 9.5 200.099 9.61715 198.781 9.82749L199.096 11.8025ZM201.731 15.002C200.974 15.002 200.234 15.2032 199.68 15.7569L201.095 17.1711C201.157 17.1088 201.313 17.002 201.731 17.002V15.002ZM199.68 15.7569C199.135 16.3019 198.925 17.0201 198.925 17.766H200.925C200.925 17.3919 201.024 17.2421 201.095 17.1711L199.68 15.7569ZM198.925 17.766V17.997H200.925V17.766H198.925ZM198.925 17.997C198.925 18.66 199.078 19.3163 199.505 19.8442L201.06 18.5858C201.011 18.5257 200.925 18.37 200.925 17.997H198.925ZM199.505 19.8442C199.924 20.3621 200.506 20.656 201.185 20.656V18.656C201.142 18.656 201.128 18.6483 201.126 18.6472C201.122 18.6455 201.099 18.6341 201.06 18.5858L199.505 19.8442ZM201.185 20.656C201.863 20.656 202.466 20.3643 202.975 19.9457L201.706 18.4003C201.431 18.6257 201.263 18.656 201.185 18.656V20.656ZM202.978 19.9434C203.504 19.5083 203.948 18.9319 204.327 18.2534L202.58 17.2786C202.287 17.8041 201.989 18.1657 201.703 18.4026L202.978 19.9434ZM204.453 17.766V16.149H202.453V17.766H204.453ZM203.635 15.1655C203.035 15.0551 202.4 15.002 201.731 15.002V17.002C202.295 17.002 202.808 17.0469 203.272 17.1325L203.635 15.1655ZM216.478 10.752H215.478V11.752H216.478V10.752ZM219.208 10.752H220.208V9.752H219.208V10.752ZM219.208 12.222V13.222H220.208V12.222H219.208ZM216.478 12.222V11.222H215.478V12.222H216.478ZM216.793 19.383L216.043 20.0446L216.064 20.068L216.086 20.0901L216.793 19.383ZM219.544 19.509L220.544 19.4808L220.509 18.2371L219.301 18.5389L219.544 19.509ZM219.586 21L219.849 21.9648L220.608 21.7579L220.586 20.9718L219.586 21ZM215.449 20.517L214.742 21.2241L214.752 21.2339L214.762 21.2435L215.449 20.517ZM214.693 12.222H215.693V11.222H214.693V12.222ZM213.223 12.222H212.223V13.222H213.223V12.222ZM213.223 10.752V9.752H212.223V10.752H213.223ZM214.693 10.752V11.752H215.577L215.686 10.8742L214.693 10.752ZM215.029 8.022V7.022H214.145L214.036 7.89984L215.029 8.022ZM216.478 8.022H217.478V7.022H216.478V8.022ZM216.478 11.752H219.208V9.752H216.478V11.752ZM218.208 10.752V12.222H220.208V10.752H218.208ZM219.208 11.222H216.478V13.222H219.208V11.222ZM215.478 12.222V18.228H217.478V12.222H215.478ZM215.478 18.228C215.478 18.851 215.594 19.5351 216.043 20.0446L217.543 18.7214C217.562 18.7427 217.544 18.7346 217.522 18.6526C217.499 18.5689 217.478 18.4327 217.478 18.228H215.478ZM216.086 20.0901C216.569 20.5729 217.216 20.719 217.822 20.719V18.719C217.504 18.719 217.465 18.6411 217.5 18.6759L216.086 20.0901ZM217.822 20.719C218.49 20.719 219.146 20.6393 219.787 20.4791L219.301 18.5389C218.822 18.6587 218.33 18.719 217.822 18.719V20.719ZM218.544 19.5372L218.586 21.0282L220.586 20.9718L220.544 19.4808L218.544 19.5372ZM219.323 20.0352C218.771 20.1858 218.301 20.252 217.906 20.252V22.252C218.519 22.252 219.169 22.1502 219.849 21.9648L219.323 20.0352ZM217.906 20.252C216.901 20.252 216.387 20.0277 216.136 19.7905L214.762 21.2435C215.547 21.9863 216.671 22.252 217.906 22.252V20.252ZM216.156 19.8099C215.923 19.5766 215.693 19.0827 215.693 18.081H213.693C213.693 19.3193 213.967 20.4494 214.742 21.2241L216.156 19.8099ZM215.693 18.081V12.222H213.693V18.081H215.693ZM214.693 11.222H213.223V13.222H214.693V11.222ZM214.223 12.222V10.752H212.223V12.222H214.223ZM213.223 11.752H214.693V9.752H213.223V11.752ZM215.686 10.8742L216.022 8.14415L214.036 7.89984L213.7 10.6298L215.686 10.8742ZM215.029 9.022H216.478V7.022H215.029V9.022ZM215.478 8.022V10.752H217.478V8.022H215.478ZM229.559 10.752H230.559V9.752H229.559V10.752ZM229.559 21V22H230.559V21H229.559ZM227.774 21H226.774V22H227.774V21ZM227.774 10.752V9.752H226.774V10.752H227.774ZM229.517 6.867L228.866 7.62626L228.879 7.63728L228.892 7.64787L229.517 6.867ZM229.517 8.904L230.135 9.69035L230.141 9.68487L229.517 8.904ZM227.795 8.904L227.144 9.66326L227.173 9.68796L227.203 9.7104L227.795 8.904ZM227.795 6.867L227.17 6.08613L227.157 6.09672L227.144 6.10774L227.795 6.867ZM228.559 10.752V21H230.559V10.752H228.559ZM229.559 20H227.774V22H229.559V20ZM228.774 21V10.752H226.774V21H228.774ZM227.774 11.752H229.559V9.752H227.774V11.752ZM228.656 7.615C228.773 7.615 228.842 7.6284 228.874 7.63774C228.902 7.64617 228.891 7.64806 228.866 7.62626L230.168 6.10774C229.722 5.72612 229.164 5.615 228.656 5.615V7.615ZM228.892 7.64787C228.886 7.64292 228.876 7.63349 228.864 7.61912C228.853 7.60463 228.844 7.58932 228.838 7.57514C228.825 7.54576 228.832 7.54078 228.832 7.581H230.832C230.832 7.01897 230.625 6.47295 230.141 6.08613L228.892 7.64787ZM228.832 7.581V8.19H230.832V7.581H228.832ZM228.832 8.19C228.832 8.23022 228.825 8.22524 228.838 8.19586C228.844 8.18168 228.853 8.16636 228.864 8.15188C228.876 8.13751 228.886 8.12808 228.892 8.12313L230.141 9.68487C230.625 9.29805 230.832 8.75203 230.832 8.19H228.832ZM228.899 8.11768C228.925 8.09681 228.933 8.10131 228.895 8.11141C228.856 8.12206 228.78 8.135 228.656 8.135V10.135C229.148 10.135 229.692 10.0381 230.135 9.69032L228.899 8.11768ZM228.656 8.135C228.422 8.135 228.368 8.08455 228.386 8.0976L227.203 9.7104C227.641 10.0314 228.161 10.135 228.656 10.135V8.135ZM228.446 8.14474C228.454 8.15234 228.465 8.16359 228.476 8.17836C228.487 8.19314 228.494 8.20735 228.499 8.21875C228.508 8.24179 228.501 8.23853 228.501 8.19H226.501C226.501 8.72792 226.683 9.26833 227.144 9.66326L228.446 8.14474ZM228.501 8.19V7.581H226.501V8.19H228.501ZM228.501 7.581C228.501 7.53247 228.508 7.52921 228.499 7.55225C228.494 7.56365 228.487 7.57785 228.476 7.59263C228.465 7.6074 228.454 7.61866 228.446 7.62626L227.144 6.10774C226.683 6.50267 226.501 7.04308 226.501 7.581H228.501ZM228.419 7.64787C228.398 7.66468 228.439 7.615 228.656 7.615V5.615C228.145 5.615 227.611 5.73332 227.17 6.08613L228.419 7.64787ZM245.049 11.508L244.304 12.1752L244.311 12.1834L244.318 12.1914L245.049 11.508ZM245.049 20.265L244.311 19.5893L244.311 19.59L245.049 20.265ZM239.484 20.265L238.739 20.9322L238.746 20.9404L238.753 20.9484L239.484 20.265ZM239.484 11.508L238.746 10.8323L238.746 10.833L239.484 11.508ZM240.87 12.558L241.617 13.2224L241.617 13.2224L240.87 12.558ZM240.87 19.194L241.617 18.5296L241.617 18.5296L240.87 19.194ZM243.684 19.194L242.936 18.5296L242.936 18.5296L243.684 19.194ZM243.684 12.558L242.936 13.2224L242.942 13.2294L242.949 13.2363L243.684 12.558ZM242.277 11.5C243.351 11.5 243.955 11.7864 244.304 12.1752L245.793 10.8408C244.938 9.88563 243.694 9.5 242.277 9.5V11.5ZM244.318 12.1914C244.708 12.6071 244.973 13.267 244.973 14.322H246.973C246.973 12.941 246.621 11.7249 245.779 10.8246L244.318 12.1914ZM244.973 14.322V17.43H246.973V14.322H244.973ZM244.973 17.43C244.973 18.4835 244.708 19.1564 244.311 19.5893L245.786 20.9407C246.621 20.0296 246.973 18.8125 246.973 17.43H244.973ZM244.311 19.59C243.964 19.9692 243.357 20.252 242.277 20.252V22.252C243.688 22.252 244.929 21.8768 245.786 20.94L244.311 19.59ZM242.277 20.252C241.198 20.252 240.577 19.9698 240.214 19.5816L238.753 20.9484C239.622 21.8762 240.863 22.252 242.277 22.252V20.252ZM240.228 19.5978C239.841 19.1651 239.581 18.489 239.581 17.43H237.581C237.581 18.807 237.922 20.0209 238.739 20.9322L240.228 19.5978ZM239.581 17.43V14.322H237.581V17.43H239.581ZM239.581 14.322C239.581 13.2615 239.841 12.5983 240.221 12.183L238.746 10.833C237.922 11.7337 237.581 12.9465 237.581 14.322H239.581ZM240.221 12.1837C240.585 11.7857 241.204 11.5 242.277 11.5V9.5C240.857 9.5 239.614 9.88626 238.746 10.8323L240.221 12.1837ZM242.277 10.991C241.448 10.991 240.684 11.2614 240.122 11.8936L241.617 13.2224C241.727 13.0986 241.901 12.991 242.277 12.991V10.991ZM240.122 11.8936C239.57 12.5146 239.366 13.3243 239.366 14.175H241.366C241.366 13.6257 241.497 13.3574 241.617 13.2224L240.122 11.8936ZM239.366 14.175V17.577H241.366V14.175H239.366ZM239.366 17.577C239.366 18.4277 239.57 19.2374 240.122 19.8584L241.617 18.5296C241.497 18.3946 241.366 18.1263 241.366 17.577H239.366ZM240.122 19.8584C240.684 20.4906 241.448 20.761 242.277 20.761V18.761C241.901 18.761 241.727 18.6534 241.617 18.5296L240.122 19.8584ZM242.277 20.761C243.105 20.761 243.869 20.4906 244.431 19.8584L242.936 18.5296C242.826 18.6534 242.652 18.761 242.277 18.761V20.761ZM244.431 19.8584C244.983 19.2374 245.188 18.4277 245.188 17.577H243.188C243.188 18.1263 243.056 18.3946 242.936 18.5296L244.431 19.8584ZM245.188 17.577V14.154H243.188V17.577H245.188ZM245.188 14.154C245.188 13.3064 244.984 12.4927 244.418 11.8797L242.949 13.2363C243.055 13.3513 243.188 13.6016 243.188 14.154H245.188ZM244.431 11.8936C243.869 11.2614 243.105 10.991 242.277 10.991V12.991C242.652 12.991 242.826 13.0986 242.936 13.2224L244.431 11.8936ZM261.527 11.424L260.736 12.0354L260.743 12.0455L260.751 12.0553L261.527 11.424ZM262.262 21V22H263.262V21H262.262ZM260.477 21H259.477V22H260.477V21ZM257.873 12.621L258.464 13.4274L258.464 13.4274L257.873 12.621ZM256.781 13.881L255.915 13.38L255.781 13.6124V13.881H256.781ZM256.781 21V22H257.781V21H256.781ZM254.996 21H253.996V22H254.996V21ZM254.996 10.752V9.752H253.996V10.752H254.996ZM256.676 10.752H257.676V9.752H256.676V10.752ZM256.676 12.285H255.676V15.6217L257.511 12.835L256.676 12.285ZM257.936 10.962L257.392 10.1224L257.381 10.1299L257.936 10.962ZM259.469 11.5C260.108 11.5 260.479 11.7036 260.736 12.0354L262.318 10.8126C261.623 9.91243 260.622 9.5 259.469 9.5V11.5ZM260.751 12.0553C261.044 12.4147 261.262 13.0177 261.262 14.007H263.262C263.262 12.7563 262.99 11.6373 262.302 10.7927L260.751 12.0553ZM261.262 14.007V21H263.262V14.007H261.262ZM262.262 20H260.477V22H262.262V20ZM261.477 21V14.259H259.477V21H261.477ZM261.477 14.259C261.477 13.4826 261.356 12.7274 260.974 12.139C260.543 11.4761 259.869 11.159 259.112 11.159V13.159C259.21 13.159 259.247 13.1773 259.253 13.1801C259.254 13.181 259.27 13.187 259.297 13.229C259.37 13.3406 259.477 13.6354 259.477 14.259H261.477ZM259.112 11.159C258.44 11.159 257.824 11.4165 257.281 11.8146L258.464 13.4274C258.761 13.2095 258.972 13.159 259.112 13.159V11.159ZM257.281 11.8146C256.732 12.2177 256.28 12.7496 255.915 13.38L257.646 14.382C257.897 13.9484 258.174 13.6403 258.464 13.4274L257.281 11.8146ZM255.781 13.881V21H257.781V13.881H255.781ZM256.781 20H254.996V22H256.781V20ZM255.996 21V10.752H253.996V21H255.996ZM254.996 11.752H256.676V9.752H254.996V11.752ZM255.676 10.752V12.285H257.676V10.752H255.676ZM257.511 12.835C257.832 12.347 258.163 12.0124 258.49 11.7941L257.381 10.1299C256.785 10.5276 256.275 11.075 255.841 11.735L257.511 12.835ZM258.479 11.8016C258.8 11.594 259.123 11.5 259.469 11.5V9.5C258.722 9.5 258.024 9.71395 257.393 10.1224L258.479 11.8016ZM276.57 10.752L277.569 10.7798L277.593 9.93958L276.769 9.77206L276.57 10.752ZM276.528 12.264L276.303 13.2384L277.493 13.5131L277.527 12.2918L276.528 12.264ZM272.832 14.028L272.058 14.6612L272.074 14.6814L272.092 14.7007L272.832 14.028ZM273.567 14.511L273.134 15.4126L273.143 15.4167L273.567 14.511ZM275.541 15.435L275.966 14.5302L275.965 14.5293L275.541 15.435ZM277.326 18.354L278.326 18.3685L278.326 18.3612V18.354H277.326ZM276.444 20.538L277.091 21.2999L277.093 21.2986L276.444 20.538ZM271.068 20.811L270.069 20.7584L270.026 21.5813L270.825 21.7811L271.068 20.811ZM271.152 19.215L271.433 18.2554L270.22 17.8994L270.153 19.1624L271.152 19.215ZM275.163 19.404L275.727 20.2293L275.742 20.2194L275.756 20.2091L275.163 19.404ZM275.352 17.451L274.51 17.9918L274.524 18.0123L274.538 18.0322L275.352 17.451ZM274.701 16.947L275.114 16.0366L275.106 16.0328L274.701 16.947ZM272.664 16.044L272.25 16.9544L272.258 16.9582L272.664 16.044ZM271.299 15.036L270.485 15.6172L270.492 15.6267L270.499 15.636L271.299 15.036ZM270.879 13.377L269.879 13.3476L269.879 13.3623V13.377H270.879ZM271.761 11.235L272.408 11.9969L272.41 11.9956L271.761 11.235ZM274.449 11.5C274.948 11.5 275.584 11.5721 276.37 11.7319L276.769 9.77206C275.903 9.59594 275.125 9.5 274.449 9.5V11.5ZM275.57 10.7242L275.528 12.2362L277.527 12.2918L277.569 10.7798L275.57 10.7242ZM276.753 11.2896C275.968 11.1085 275.226 11.012 274.533 11.012V13.012C275.043 13.012 275.632 13.0835 276.303 13.2384L276.753 11.2896ZM274.533 11.012C273.827 11.012 273.126 11.1198 272.573 11.4759C271.945 11.8806 271.643 12.5179 271.643 13.23H273.643C273.643 13.1575 273.656 13.1428 273.649 13.1565C273.64 13.1736 273.632 13.173 273.657 13.1571C273.734 13.1072 273.978 13.012 274.533 13.012V11.012ZM271.643 13.23V13.419H273.643V13.23H271.643ZM271.643 13.419C271.643 13.839 271.75 14.2853 272.058 14.6612L273.606 13.3948C273.617 13.4084 273.626 13.4223 273.633 13.4354C273.64 13.4484 273.643 13.4584 273.645 13.4639C273.648 13.4742 273.643 13.4626 273.643 13.419H271.643ZM272.092 14.7007C272.364 15.0003 272.751 15.2286 273.134 15.4125L273.999 13.6095C273.853 13.539 273.745 13.4781 273.67 13.4285C273.591 13.377 273.567 13.3507 273.572 13.3553L272.092 14.7007ZM273.143 15.4167L275.117 16.3407L275.965 14.5293L273.991 13.6053L273.143 15.4167ZM275.115 16.3398C275.602 16.5689 275.897 16.8186 276.07 17.057C276.235 17.2843 276.326 17.5496 276.326 17.892H278.326C278.326 17.1564 278.118 16.4732 277.688 15.8815C277.267 15.3009 276.67 14.8611 275.966 14.5302L275.115 16.3398ZM276.326 17.892V18.354H278.326V17.892H276.326ZM276.326 18.3395C276.315 19.1042 276.092 19.5236 275.794 19.7774L277.093 21.2986C277.944 20.5724 278.309 19.5358 278.326 18.3685L276.326 18.3395ZM275.796 19.7761C275.503 20.0254 274.902 20.252 273.777 20.252V22.252C275.087 22.252 276.265 22.0026 277.091 21.2999L275.796 19.7761ZM273.777 20.252C273.272 20.252 272.466 20.1297 271.31 19.8409L270.825 21.7811C272.022 22.0803 273.021 22.252 273.777 22.252V20.252ZM272.066 20.8636L272.15 19.2676L270.153 19.1624L270.069 20.7584L272.066 20.8636ZM270.87 20.1746C271.962 20.4948 272.927 20.677 273.735 20.677V18.677C273.199 18.677 272.441 18.5512 271.433 18.2554L270.87 20.1746ZM273.735 20.677C274.44 20.677 275.19 20.5968 275.727 20.2293L274.598 18.5787C274.621 18.563 274.583 18.5951 274.418 18.6265C274.262 18.6565 274.038 18.677 273.735 18.677V20.677ZM275.756 20.2091C276.354 19.7681 276.562 19.1018 276.562 18.459H274.562C274.562 18.577 274.543 18.6257 274.541 18.6318C274.54 18.634 274.542 18.6284 274.549 18.6193C274.556 18.61 274.564 18.6029 274.569 18.5989L275.756 20.2091ZM276.562 18.459V18.249H274.562V18.459H276.562ZM276.562 18.249C276.562 17.7846 276.466 17.2905 276.165 16.8698L274.538 18.0322C274.517 18.0035 274.562 18.0414 274.562 18.249H276.562ZM276.193 16.9102C275.926 16.495 275.523 16.2221 275.114 16.0366L274.287 17.8574C274.495 17.9519 274.525 18.015 274.51 17.9918L276.193 16.9102ZM275.106 16.0328L273.069 15.1298L272.258 16.9582L274.295 17.8612L275.106 16.0328ZM273.077 15.1336C272.559 14.8979 272.261 14.6524 272.099 14.436L270.499 15.636C270.924 16.2036 271.536 16.6301 272.25 16.9544L273.077 15.1336ZM272.112 14.4548C271.963 14.2454 271.879 13.9971 271.879 13.671H269.879C269.879 14.3809 270.074 15.0426 270.485 15.6172L272.112 14.4548ZM271.879 13.671V13.377H269.879V13.671H271.879ZM271.878 13.4064C271.901 12.6486 272.124 12.239 272.408 11.9969L271.113 10.4731C270.278 11.183 269.913 12.2014 269.879 13.3476L271.878 13.4064ZM272.41 11.9956C272.721 11.7304 273.332 11.5 274.449 11.5V9.5C273.13 9.5 271.949 9.75962 271.111 10.4744L272.41 11.9956Z" fill="#A9A69C"/>
<path d="M3.35938 19.1172H8.33594V21H1.01562V9.625H3.35938V19.1172ZM19.2375 21C19.1333 20.7969 19.0578 20.5443 19.0109 20.2422C18.4641 20.8516 17.7531 21.1562 16.8781 21.1562C16.05 21.1562 15.3625 20.9167 14.8156 20.4375C14.274 19.9583 14.0031 19.3542 14.0031 18.625C14.0031 17.7292 14.3339 17.0417 14.9953 16.5625C15.662 16.0833 16.6229 15.8411 17.8781 15.8359H18.9172V15.3516C18.9172 14.9609 18.8156 14.6484 18.6125 14.4141C18.4146 14.1797 18.0995 14.0625 17.6672 14.0625C17.287 14.0625 16.9875 14.1536 16.7688 14.3359C16.5552 14.5182 16.4484 14.7682 16.4484 15.0859H14.1906C14.1906 14.5964 14.3417 14.1432 14.6438 13.7266C14.9458 13.3099 15.3729 12.9844 15.925 12.75C16.4771 12.5104 17.0969 12.3906 17.7844 12.3906C18.826 12.3906 19.6516 12.6536 20.2609 13.1797C20.8755 13.7005 21.1828 14.4349 21.1828 15.3828V19.0469C21.188 19.849 21.3 20.4557 21.5188 20.8672V21H19.2375ZM17.3703 19.4297C17.7036 19.4297 18.0109 19.3568 18.2922 19.2109C18.5734 19.0599 18.7818 18.8594 18.9172 18.6094V17.1562H18.0734C16.9432 17.1562 16.3417 17.5469 16.2688 18.3281L16.2609 18.4609C16.2609 18.7422 16.3599 18.974 16.5578 19.1562C16.7557 19.3385 17.0266 19.4297 17.3703 19.4297ZM35.0688 17.9297L36.1781 12.5469H38.3578L36.2016 21H34.3109L32.7094 15.6797L31.1078 21H29.225L27.0688 12.5469H29.2484L30.35 17.9219L31.8969 12.5469H33.5297L35.0688 17.9297ZM48.8609 18.6641C48.8609 18.388 48.7229 18.1719 48.4469 18.0156C48.176 17.8542 47.7385 17.7109 47.1344 17.5859C45.124 17.1641 44.1188 16.3099 44.1188 15.0234C44.1188 14.2734 44.4286 13.6484 45.0484 13.1484C45.6734 12.6432 46.4885 12.3906 47.4938 12.3906C48.5667 12.3906 49.4234 12.6432 50.0641 13.1484C50.7099 13.6536 51.0328 14.3099 51.0328 15.1172H48.775C48.775 14.7943 48.6708 14.5286 48.4625 14.3203C48.2542 14.1068 47.9286 14 47.4859 14C47.1057 14 46.8115 14.0859 46.6031 14.2578C46.3948 14.4297 46.2906 14.6484 46.2906 14.9141C46.2906 15.1641 46.4078 15.3672 46.6422 15.5234C46.8818 15.6745 47.2828 15.8073 47.8453 15.9219C48.4078 16.0312 48.8818 16.1562 49.2672 16.2969C50.4599 16.7344 51.0563 17.4922 51.0563 18.5703C51.0563 19.3411 50.7255 19.9661 50.0641 20.4453C49.4026 20.9193 48.5484 21.1562 47.5016 21.1562C46.7932 21.1562 46.163 21.0312 45.6109 20.7812C45.0641 20.526 44.6344 20.1797 44.3219 19.7422C44.0094 19.2995 43.8531 18.8229 43.8531 18.3125H45.9938C46.0146 18.7135 46.163 19.0208 46.4391 19.2344C46.7151 19.4479 47.0849 19.5547 47.5484 19.5547C47.9807 19.5547 48.3063 19.474 48.525 19.3125C48.749 19.1458 48.8609 18.9297 48.8609 18.6641ZM62.2156 21C62.1115 20.7969 62.0359 20.5443 61.9891 20.2422C61.4422 20.8516 60.7313 21.1562 59.8563 21.1562C59.0281 21.1562 58.3406 20.9167 57.7938 20.4375C57.2521 19.9583 56.9813 19.3542 56.9813 18.625C56.9813 17.7292 57.312 17.0417 57.9734 16.5625C58.6401 16.0833 59.601 15.8411 60.8563 15.8359H61.8953V15.3516C61.8953 14.9609 61.7938 14.6484 61.5906 14.4141C61.3927 14.1797 61.0776 14.0625 60.6453 14.0625C60.2651 14.0625 59.9656 14.1536 59.7469 14.3359C59.5333 14.5182 59.4266 14.7682 59.4266 15.0859H57.1688C57.1688 14.5964 57.3198 14.1432 57.6219 13.7266C57.924 13.3099 58.351 12.9844 58.9031 12.75C59.4552 12.5104 60.075 12.3906 60.7625 12.3906C61.8042 12.3906 62.6297 12.6536 63.2391 13.1797C63.8536 13.7005 64.1609 14.4349 64.1609 15.3828V19.0469C64.1661 19.849 64.2781 20.4557 64.4969 20.8672V21H62.2156ZM60.3484 19.4297C60.6818 19.4297 60.9891 19.3568 61.2703 19.2109C61.5516 19.0599 61.7599 18.8594 61.8953 18.6094V17.1562H61.0516C59.9214 17.1562 59.3198 17.5469 59.2469 18.3281L59.2391 18.4609C59.2391 18.7422 59.338 18.974 59.5359 19.1562C59.7339 19.3385 60.0047 19.4297 60.3484 19.4297ZM72.7734 12.5469L72.8438 13.5234C73.4479 12.7682 74.2578 12.3906 75.2734 12.3906C76.1693 12.3906 76.8359 12.6536 77.2734 13.1797C77.7109 13.7057 77.9349 14.4922 77.9453 15.5391V21H75.6875V15.5938C75.6875 15.1146 75.5833 14.7682 75.375 14.5547C75.1667 14.3359 74.8203 14.2266 74.3359 14.2266C73.7005 14.2266 73.224 14.4974 72.9062 15.0391V21H70.6484V12.5469H72.7734ZM84.1125 16.7109C84.1125 15.3932 84.4068 14.3438 84.9953 13.5625C85.5891 12.7812 86.399 12.3906 87.425 12.3906C88.2479 12.3906 88.9276 12.6979 89.4641 13.3125V9H91.7297V21H89.6906L89.5813 20.1016C89.0188 20.8047 88.2948 21.1562 87.4094 21.1562C86.4146 21.1562 85.6151 20.7656 85.0109 19.9844C84.412 19.1979 84.1125 18.1068 84.1125 16.7109ZM86.3703 16.875C86.3703 17.6667 86.5083 18.2734 86.7844 18.6953C87.0604 19.1172 87.4615 19.3281 87.9875 19.3281C88.6854 19.3281 89.1776 19.0339 89.4641 18.4453V15.1094C89.1828 14.5208 88.6958 14.2266 88.0031 14.2266C86.9146 14.2266 86.3703 15.1094 86.3703 16.875ZM111.814 14.6641C111.507 14.6224 111.236 14.6016 111.002 14.6016C110.147 14.6016 109.588 14.8906 109.322 15.4688V21H107.064V12.5469H109.197L109.259 13.5547C109.713 12.7786 110.34 12.3906 111.142 12.3906C111.392 12.3906 111.627 12.4245 111.845 12.4922L111.814 14.6641ZM121.442 21.1562C120.203 21.1562 119.192 20.776 118.411 20.0156C117.635 19.2552 117.247 18.2422 117.247 16.9766V16.7578C117.247 15.9089 117.411 15.151 117.739 14.4844C118.067 13.8125 118.531 13.2969 119.13 12.9375C119.734 12.5729 120.421 12.3906 121.192 12.3906C122.348 12.3906 123.257 12.7552 123.919 13.4844C124.585 14.2135 124.919 15.2474 124.919 16.5859V17.5078H119.536C119.609 18.0599 119.828 18.5026 120.192 18.8359C120.562 19.1693 121.028 19.3359 121.591 19.3359C122.46 19.3359 123.14 19.0208 123.63 18.3906L124.739 19.6328C124.401 20.112 123.942 20.487 123.364 20.7578C122.786 21.0234 122.145 21.1562 121.442 21.1562ZM121.184 14.2188C120.736 14.2188 120.372 14.3698 120.091 14.6719C119.815 14.974 119.638 15.4062 119.559 15.9688H122.7V15.7891C122.69 15.2891 122.554 14.9036 122.294 14.6328C122.033 14.3568 121.664 14.2188 121.184 14.2188ZM130.68 16.7109C130.68 15.4141 130.987 14.3698 131.602 13.5781C132.221 12.7865 133.055 12.3906 134.102 12.3906C135.029 12.3906 135.75 12.7083 136.266 13.3438L136.359 12.5469H138.406V20.7188C138.406 21.4583 138.237 22.1016 137.898 22.6484C137.565 23.1953 137.094 23.612 136.484 23.8984C135.875 24.1849 135.161 24.3281 134.344 24.3281C133.724 24.3281 133.12 24.2031 132.531 23.9531C131.943 23.7083 131.497 23.3906 131.195 23L132.195 21.625C132.758 22.2552 133.44 22.5703 134.242 22.5703C134.841 22.5703 135.307 22.4089 135.641 22.0859C135.974 21.7682 136.141 21.3151 136.141 20.7266V20.2734C135.62 20.862 134.935 21.1562 134.086 21.1562C133.07 21.1562 132.247 20.7604 131.617 19.9688C130.992 19.1719 130.68 18.1172 130.68 16.8047V16.7109ZM132.938 16.875C132.938 17.6406 133.091 18.2422 133.398 18.6797C133.706 19.112 134.128 19.3281 134.664 19.3281C135.352 19.3281 135.844 19.0703 136.141 18.5547V15C135.839 14.4844 135.352 14.2266 134.68 14.2266C134.138 14.2266 133.711 14.4479 133.398 14.8906C133.091 15.3333 132.938 15.9948 132.938 16.875ZM150.011 20.1406C149.454 20.8177 148.683 21.1562 147.698 21.1562C146.792 21.1562 146.099 20.8958 145.62 20.375C145.146 19.8542 144.904 19.0911 144.894 18.0859V12.5469H147.152V18.0078C147.152 18.888 147.553 19.3281 148.355 19.3281C149.12 19.3281 149.646 19.0625 149.933 18.5312V12.5469H152.198V21H150.073L150.011 20.1406ZM161.084 21H158.819V9H161.084V21ZM172.65 21C172.546 20.7969 172.47 20.5443 172.423 20.2422C171.877 20.8516 171.166 21.1562 170.291 21.1562C169.463 21.1562 168.775 20.9167 168.228 20.4375C167.686 19.9583 167.416 19.3542 167.416 18.625C167.416 17.7292 167.746 17.0417 168.408 16.5625C169.074 16.0833 170.035 15.8411 171.291 15.8359H172.33V15.3516C172.33 14.9609 172.228 14.6484 172.025 14.4141C171.827 14.1797 171.512 14.0625 171.08 14.0625C170.699 14.0625 170.4 14.1536 170.181 14.3359C169.968 14.5182 169.861 14.7682 169.861 15.0859H167.603C167.603 14.5964 167.754 14.1432 168.056 13.7266C168.358 13.3099 168.785 12.9844 169.338 12.75C169.89 12.5104 170.509 12.3906 171.197 12.3906C172.239 12.3906 173.064 12.6536 173.673 13.1797C174.288 13.7005 174.595 14.4349 174.595 15.3828V19.0469C174.601 19.849 174.713 20.4557 174.931 20.8672V21H172.65ZM170.783 19.4297C171.116 19.4297 171.423 19.3568 171.705 19.2109C171.986 19.0599 172.194 18.8594 172.33 18.6094V17.1562H171.486C170.356 17.1562 169.754 17.5469 169.681 18.3281L169.673 18.4609C169.673 18.7422 169.772 18.974 169.97 19.1562C170.168 19.3385 170.439 19.4297 170.783 19.4297ZM183.833 10.4688V12.5469H185.278V14.2031H183.833V18.4219C183.833 18.7344 183.893 18.9583 184.012 19.0938C184.132 19.2292 184.361 19.2969 184.7 19.2969C184.95 19.2969 185.171 19.2786 185.364 19.2422V20.9531C184.921 21.0885 184.466 21.1562 183.997 21.1562C182.414 21.1562 181.606 20.3568 181.575 18.7578V14.2031H180.341V12.5469H181.575V10.4688H183.833ZM193.719 21H191.453V12.5469H193.719V21ZM191.32 10.3594C191.32 10.0208 191.432 9.74219 191.656 9.52344C191.885 9.30469 192.195 9.19531 192.586 9.19531C192.971 9.19531 193.279 9.30469 193.508 9.52344C193.737 9.74219 193.852 10.0208 193.852 10.3594C193.852 10.7031 193.734 10.9844 193.5 11.2031C193.271 11.4219 192.966 11.5312 192.586 11.5312C192.206 11.5312 191.898 11.4219 191.664 11.2031C191.435 10.9844 191.32 10.7031 191.32 10.3594ZM200.034 16.6953C200.034 15.8568 200.196 15.1094 200.519 14.4531C200.842 13.7969 201.305 13.2891 201.909 12.9297C202.519 12.5703 203.224 12.3906 204.027 12.3906C205.167 12.3906 206.097 12.7396 206.816 13.4375C207.54 14.1354 207.943 15.0833 208.027 16.2812L208.042 16.8594C208.042 18.1562 207.68 19.1979 206.956 19.9844C206.232 20.7656 205.261 21.1562 204.042 21.1562C202.823 21.1562 201.849 20.7656 201.12 19.9844C200.396 19.2031 200.034 18.1406 200.034 16.7969V16.6953ZM202.292 16.8594C202.292 17.6615 202.443 18.276 202.745 18.7031C203.047 19.125 203.48 19.3359 204.042 19.3359C204.589 19.3359 205.016 19.1276 205.323 18.7109C205.631 18.2891 205.784 17.6172 205.784 16.6953C205.784 15.9089 205.631 15.2995 205.323 14.8672C205.016 14.4349 204.584 14.2188 204.027 14.2188C203.474 14.2188 203.047 14.4349 202.745 14.8672C202.443 15.2943 202.292 15.9583 202.292 16.8594ZM216.311 12.5469L216.381 13.5234C216.985 12.7682 217.795 12.3906 218.811 12.3906C219.707 12.3906 220.373 12.6536 220.811 13.1797C221.248 13.7057 221.472 14.4922 221.483 15.5391V21H219.225V15.5938C219.225 15.1146 219.121 14.7682 218.913 14.5547C218.704 14.3359 218.358 14.2266 217.873 14.2266C217.238 14.2266 216.761 14.4974 216.444 15.0391V21H214.186V12.5469H216.311ZM232.58 18.6641C232.58 18.388 232.442 18.1719 232.166 18.0156C231.895 17.8542 231.457 17.7109 230.853 17.5859C228.843 17.1641 227.838 16.3099 227.838 15.0234C227.838 14.2734 228.147 13.6484 228.767 13.1484C229.392 12.6432 230.207 12.3906 231.213 12.3906C232.285 12.3906 233.142 12.6432 233.783 13.1484C234.429 13.6536 234.752 14.3099 234.752 15.1172H232.494C232.494 14.7943 232.39 14.5286 232.181 14.3203C231.973 14.1068 231.647 14 231.205 14C230.824 14 230.53 14.0859 230.322 14.2578C230.114 14.4297 230.009 14.6484 230.009 14.9141C230.009 15.1641 230.127 15.3672 230.361 15.5234C230.601 15.6745 231.002 15.8073 231.564 15.9219C232.127 16.0312 232.601 16.1562 232.986 16.2969C234.179 16.7344 234.775 17.4922 234.775 18.5703C234.775 19.3411 234.444 19.9661 233.783 20.4453C233.121 20.9193 232.267 21.1562 231.22 21.1562C230.512 21.1562 229.882 21.0312 229.33 20.7812C228.783 20.526 228.353 20.1797 228.041 19.7422C227.728 19.2995 227.572 18.8229 227.572 18.3125H229.713C229.733 18.7135 229.882 19.0208 230.158 19.2344C230.434 19.4479 230.804 19.5547 231.267 19.5547C231.699 19.5547 232.025 19.474 232.244 19.3125C232.468 19.1458 232.58 18.9297 232.58 18.6641Z" fill="#4B4B4B"/>
<path d="M6.9 32.16C6.04 31.48 4.36 30.62 3.08 30.12L1.76 31.9C3.08 32.44 4.72 33.4 5.5 34.1L6.9 32.16ZM5.72 37.38C4.86 36.72 3.14 35.96 1.86 35.52L0.64 37.32C1.94 37.82 3.6 38.7 4.4 39.38L5.72 37.38ZM4.72 40.66C3.6 42.96 2.18 45.44 1.18 46.94L3.24 48.46C4.36 46.54 5.52 44.26 6.5 42.18L4.72 40.66ZM19.58 47.52C18.96 45.84 17.36 43.46 15.88 41.7L13.84 42.78C14.38 43.48 14.94 44.26 15.44 45.06C13.68 45.16 11.9 45.26 10.3 45.34C11.02 43.84 11.82 42 12.46 40.32L12.38 40.3H19.1V38.02H13.82V35.2H18.16V32.92H13.82V30.08H11.34V32.92H7.2V35.2H11.34V38.02H6.2V40.3H9.62C9.14 41.98 8.44 43.96 7.72 45.48L6.22 45.54L6.54 47.94C9.24 47.74 13.02 47.48 16.64 47.16C16.94 47.72 17.16 48.28 17.32 48.74L19.58 47.52ZM43 39.82H28.56V41.96H33.24V48.74H35.76V41.96H40.56V44.88C40.56 45.12 40.46 45.18 40.12 45.18C39.82 45.18 38.58 45.2 37.6 45.16C37.94 45.78 38.32 46.76 38.44 47.46C39.94 47.46 41.06 47.42 41.92 47.08C42.76 46.7 43 46.04 43 44.94V39.82ZM32.62 35.94C33.96 34.76 35.1 33.54 35.92 32.4C36.76 33.52 37.98 34.76 39.34 35.94H32.62ZM34.6 30.06C33.1 32.48 29.86 35.58 26.48 37.34C27.04 37.84 27.7 38.72 28.02 39.26C29.36 38.48 30.66 37.58 31.84 36.6V38.08H40.16V36.62C41.4 37.62 42.72 38.52 43.98 39.24C44.44 38.52 44.98 37.74 45.58 37.12C42.46 35.74 39.18 33.06 37.02 30.06H34.6ZM61.04 44C60.6 43.44 58.68 41.24 57.84 40.38L57.88 39.9H60.78V37.74H57.96V37.44V35.22H60.46V33.12H57.96V30.26H55.74V33.12H53.14V35.22H55.74V37.44V37.74H52.84V39.9H55.66C55.46 42.42 54.76 45.16 52.56 46.78C53.1 47.18 53.84 47.98 54.18 48.48C55.98 47.02 56.94 45 57.44 42.86C58.2 43.86 59 44.98 59.44 45.74L61.04 44ZM63.58 38.96H67.96V40.14H63.58V38.96ZM63.58 35.92H67.96V37.1H63.58V35.92ZM63.58 32.86H67.96V34.04H63.58V32.86ZM68.46 46.28C68.16 46.28 68.12 46.22 68.12 45.68V42.24H70.26V30.76H61.38V42.24H62.66C62.4 44.36 61.78 46 58.86 46.98C59.3 47.38 59.9 48.2 60.14 48.76C63.66 47.42 64.56 45.18 64.9 42.24H65.92V45.72C65.92 47.68 66.3 48.34 68.06 48.34H69.38C70.8 48.34 71.34 47.62 71.54 44.78C70.94 44.62 70.02 44.26 69.58 43.92C69.54 46.02 69.46 46.28 69.14 46.28H68.46ZM90.64 33.24C90.46 33.72 90.22 34.26 90.02 34.72H86.04C85.92 34.28 85.68 33.72 85.38 33.24H90.64ZM96.98 34.72H92.52C92.76 34.3 93.02 33.8 93.3 33.26L93.18 33.24H95.82V31.38H89.2V30.06H86.7V31.38H80.26V33.24H83.36L82.9 33.32C83.12 33.74 83.34 34.26 83.5 34.72H79.02V36.58H96.98V34.72ZM83.38 41.4H92.52V42.32H83.38V41.4ZM83.38 38.96H92.52V39.92H83.38V38.96ZM97.08 44.8H89.2V43.92H94.94V37.4H81.08V43.92H86.7V44.8H78.94V46.68H86.7V48.72H89.2V46.68H97.08V44.8Z" fill="#4B4B4B"/>
</svg>
