<svg width="800" height="200" viewBox="0 0 800 200" fill="none" xmlns="http://www.w3.org/2000/svg">
<rect x="600" width="200" height="200" fill="#2E2E2E"/>
<rect x="400" width="100" height="200" fill="#676666"/>
<rect x="200" width="100" height="200" fill="#878787"/>
<rect x="300" width="100" height="200" fill="#7B7B7B"/>
<rect x="500" width="100" height="200" fill="#504F4F"/>
<rect x="100" width="100" height="200" fill="#9A9A9A"/>
<rect width="100" height="200" fill="#A7A7A7"/>
<path d="M416.384 30.404L415.677 31.1111L415.686 31.1202L415.695 31.129L416.384 30.404ZM417.824 47V48H418.824V47H417.824ZM414.908 47H413.908V48H414.908V47ZM414.908 44.192H415.908V40.7942L414.067 43.6503L414.908 44.192ZM406.844 45.992L406.082 46.6396L406.087 46.6451L406.091 46.6505L406.844 45.992ZM407.096 37.496L407.785 38.2206L407.794 38.2118L407.096 37.496ZM414.764 36.524L414.568 37.5046L415.764 37.7438V36.524H414.764ZM414.044 32.312L413.337 33.0191L413.346 33.0282L413.355 33.037L414.044 32.312ZM407.024 32.168H406.024V33.3552L407.194 33.1535L407.024 32.168ZM407.024 29.54L406.866 28.5525L406.024 28.6869V29.54H407.024ZM409.328 43.94L408.551 44.5692H408.551L409.328 43.94ZM412.856 43.868L413.491 44.6407L413.494 44.6384L412.856 43.868ZM414.764 41.456L415.637 41.9434L415.764 41.7162V41.456H414.764ZM414.764 38.684H415.764V37.8514L414.945 37.7005L414.764 38.684ZM411.884 30C413.827 30 415.01 30.4446 415.677 31.1111L417.091 29.6969C415.886 28.4914 414.069 28 411.884 28V30ZM415.695 31.129C416.373 31.7728 416.824 32.9123 416.824 34.796H418.824C418.824 32.6477 418.315 30.8592 417.073 29.679L415.695 31.129ZM416.824 34.796V47H418.824V34.796H416.824ZM417.824 46H414.908V48H417.824V46ZM415.908 47V44.192H413.908V47H415.908ZM414.067 43.6503C412.767 45.668 411.463 46.432 410.192 46.432V48.432C412.425 48.432 414.265 47.036 415.749 44.7337L414.067 43.6503ZM410.192 46.432C409.059 46.432 408.228 46.0551 407.597 45.3335L406.091 46.6505C407.14 47.8489 408.541 48.432 410.192 48.432V46.432ZM407.606 45.3444C406.986 44.6155 406.62 43.5624 406.62 42.068H404.62C404.62 43.8856 405.07 45.4485 406.082 46.6396L407.606 45.3444ZM406.62 42.068V41.06H404.62V42.068H406.62ZM406.62 41.06C406.62 39.8754 407.013 38.9554 407.785 38.2206L406.407 36.7714C405.211 37.9086 404.62 39.3646 404.62 41.06H406.62ZM407.794 38.2118C408.554 37.4702 409.604 37.056 411.056 37.056V35.056C409.196 35.056 407.606 35.6018 406.398 36.7802L407.794 38.2118ZM411.056 37.056C411.871 37.056 413.032 37.1975 414.568 37.5046L414.96 35.5434C413.376 35.2265 412.065 35.056 411.056 35.056V37.056ZM415.764 36.524V34.544H413.764V36.524H415.764ZM415.764 34.544C415.764 33.3881 415.499 32.3149 414.733 31.587L413.355 33.037C413.549 33.2211 413.764 33.6359 413.764 34.544H415.764ZM414.751 31.6049C414.029 30.8828 412.996 30.628 411.884 30.628V32.628C412.74 32.628 413.147 32.8292 413.337 33.0191L414.751 31.6049ZM411.884 30.628C410.646 30.628 408.96 30.8195 406.854 31.1825L407.194 33.1535C409.264 32.7965 410.818 32.628 411.884 32.628V30.628ZM408.024 32.168V29.54H406.024V32.168H408.024ZM407.182 30.5275C409.435 30.1679 410.987 30 411.884 30V28C410.813 28 409.125 28.1921 406.866 28.5525L407.182 30.5275ZM411.812 37.432C410.634 37.432 409.575 37.7432 408.801 38.5169L410.215 39.9311C410.497 39.6488 410.974 39.432 411.812 39.432V37.432ZM408.801 38.5169C408.036 39.2819 407.716 40.3101 407.716 41.456H409.716C409.716 40.6819 409.924 40.2221 410.215 39.9311L408.801 38.5169ZM407.716 41.456V41.852H409.716V41.456H407.716ZM407.716 41.852C407.716 42.885 407.953 43.8313 408.551 44.5692L410.105 43.3108C409.887 43.0407 409.716 42.595 409.716 41.852H407.716ZM408.551 44.5692C409.14 45.2971 409.937 45.696 410.876 45.696V43.696C410.567 43.696 410.332 43.5909 410.105 43.3108L408.551 44.5692ZM410.876 45.696C411.824 45.696 412.701 45.2893 413.491 44.6407L412.221 43.0953C411.667 43.5507 411.224 43.696 410.876 43.696V45.696ZM413.494 44.6384C414.309 43.9633 415.018 43.0519 415.637 41.9434L413.891 40.9686C413.358 41.9241 412.795 42.6207 412.218 43.0976L413.494 44.6384ZM415.764 41.456V38.684H413.764V41.456H415.764ZM414.945 37.7005C413.966 37.5201 412.921 37.432 411.812 37.432V39.432C412.815 39.432 413.738 39.5119 414.583 39.6675L414.945 37.7005ZM437.092 29.432H436.092V30.432H437.092V29.432ZM441.772 29.432H442.772V28.432H441.772V29.432ZM441.772 31.952V32.952H442.772V31.952H441.772ZM437.092 31.952V30.952H436.092V31.952H437.092ZM437.632 44.228L436.882 44.8896L436.903 44.913L436.925 44.9351L437.632 44.228ZM442.348 44.444L443.347 44.4158L443.312 43.1721L442.105 43.4739L442.348 44.444ZM442.42 47L442.683 47.9648L443.442 47.7579L443.419 46.9718L442.42 47ZM435.328 46.172L434.621 46.8791L434.631 46.8889L434.641 46.8985L435.328 46.172ZM434.032 31.952H435.032V30.952H434.032V31.952ZM431.512 31.952H430.512V32.952H431.512V31.952ZM431.512 29.432V28.432H430.512V29.432H431.512ZM434.032 29.432V30.432H434.916L435.024 29.5542L434.032 29.432ZM434.608 24.752V23.752H433.723L433.615 24.6298L434.608 24.752ZM437.092 24.752H438.092V23.752H437.092V24.752ZM437.092 30.432H441.772V28.432H437.092V30.432ZM440.772 29.432V31.952H442.772V29.432H440.772ZM441.772 30.952H437.092V32.952H441.772V30.952ZM436.092 31.952V42.248H438.092V31.952H436.092ZM436.092 42.248C436.092 43.251 436.282 44.2101 436.882 44.8896L438.382 43.5664C438.261 43.4299 438.092 43.069 438.092 42.248H436.092ZM436.925 44.9351C437.568 45.5779 438.46 45.804 439.396 45.804V43.804C438.748 43.804 438.464 43.6461 438.339 43.5209L436.925 44.9351ZM439.396 45.804C440.484 45.804 441.55 45.6743 442.59 45.4141L442.105 43.4739C441.226 43.6937 440.324 43.804 439.396 43.804V45.804ZM441.348 44.4722L441.42 47.0282L443.419 46.9718L443.347 44.4158L441.348 44.4722ZM442.157 46.0352C441.165 46.3058 440.295 46.432 439.54 46.432V48.432C440.513 48.432 441.563 48.2702 442.683 47.9648L442.157 46.0352ZM439.54 46.432C437.735 46.432 436.636 46.0327 436.015 45.4455L434.641 46.8985C435.796 47.9913 437.505 48.432 439.54 48.432V46.432ZM436.035 45.4649C435.442 44.8716 435.032 43.7977 435.032 41.996H433.032C433.032 44.0343 433.486 45.7444 434.621 46.8791L436.035 45.4649ZM435.032 41.996V31.952H433.032V41.996H435.032ZM434.032 30.952H431.512V32.952H434.032V30.952ZM432.512 31.952V29.432H430.512V31.952H432.512ZM431.512 30.432H434.032V28.432H431.512V30.432ZM435.024 29.5542L435.6 24.8742L433.615 24.6298L433.039 29.3098L435.024 29.5542ZM434.608 25.752H437.092V23.752H434.608V25.752ZM436.092 24.752V29.432H438.092V24.752H436.092ZM459.516 29.432H460.516V28.432H459.516V29.432ZM459.516 47V48H460.516V47H459.516ZM456.456 47H455.456V48H456.456V47ZM456.456 29.432V28.432H455.456V29.432H456.456ZM459.444 22.772L458.793 23.5313L458.806 23.5423L458.819 23.5529L459.444 22.772ZM459.444 26.264L460.062 27.0503L460.069 27.0449L459.444 26.264ZM456.492 26.264L455.841 27.0233L455.87 27.048L455.901 27.0704L456.492 26.264ZM456.492 22.772L455.867 21.9911L455.854 22.0017L455.841 22.0127L456.492 22.772ZM458.516 29.432V47H460.516V29.432H458.516ZM459.516 46H456.456V48H459.516V46ZM457.456 47V29.432H455.456V47H457.456ZM456.456 30.432H459.516V28.432H456.456V30.432ZM457.968 23.34C458.485 23.34 458.706 23.4569 458.793 23.5313L460.095 22.0127C459.509 21.5111 458.747 21.34 457.968 21.34V23.34ZM458.819 23.5529C458.906 23.6221 458.984 23.722 458.984 23.996H460.984C460.984 23.214 460.702 22.4979 460.069 21.9911L458.819 23.5529ZM458.984 23.996V25.04H460.984V23.996H458.984ZM458.984 25.04C458.984 25.314 458.906 25.4139 458.819 25.4831L460.069 27.0449C460.702 26.5381 460.984 25.822 460.984 25.04H458.984ZM458.826 25.4777C458.737 25.5479 458.502 25.66 457.968 25.66V27.66C458.73 27.66 459.479 27.5081 460.062 27.0503L458.826 25.4777ZM457.968 25.66C457.474 25.66 457.216 25.5546 457.083 25.4576L455.901 27.0704C456.488 27.5014 457.214 27.66 457.968 27.66V25.66ZM457.143 25.5047C457.071 25.4437 456.988 25.3381 456.988 25.04H454.988C454.988 25.7979 455.24 26.5083 455.841 27.0233L457.143 25.5047ZM456.988 25.04V23.996H454.988V25.04H456.988ZM456.988 23.996C456.988 23.6979 457.071 23.5923 457.143 23.5313L455.841 22.0127C455.24 22.5277 454.988 23.2381 454.988 23.996H456.988ZM457.117 23.5529C457.246 23.4497 457.491 23.34 457.968 23.34V21.34C457.197 21.34 456.458 21.5183 455.867 21.9911L457.117 23.5529ZM486.07 30.728L485.325 31.3952L485.332 31.4034L485.34 31.4114L486.07 30.728ZM486.07 45.74L485.333 45.0643L485.332 45.065L486.07 45.74ZM476.53 45.74L475.785 46.4072L475.792 46.4154L475.8 46.4234L476.53 45.74ZM476.53 30.728L475.793 30.0523L475.792 30.053L476.53 30.728ZM478.906 32.528L479.653 33.1924L478.906 32.528ZM478.906 43.904L479.653 43.2396L478.906 43.904ZM483.73 43.904L482.982 43.2396L483.73 43.904ZM483.73 32.528L482.982 33.1924L482.989 33.1994L482.995 33.2063L483.73 32.528ZM481.318 30C483.282 30 484.547 30.5264 485.325 31.3952L486.815 30.0608C485.529 28.6256 483.626 28 481.318 28V30ZM485.34 31.4114C486.169 32.2971 486.654 33.627 486.654 35.552H488.654C488.654 33.301 488.083 31.4149 486.8 30.0446L485.34 31.4114ZM486.654 35.552V40.88H488.654V35.552H486.654ZM486.654 40.88C486.654 42.8035 486.17 44.1514 485.333 45.0643L486.807 46.4157C488.082 45.0246 488.654 43.1325 488.654 40.88H486.654ZM485.332 45.065C484.555 45.9142 483.288 46.432 481.318 46.432V48.432C483.62 48.432 485.521 47.8218 486.808 46.415L485.332 45.065ZM481.318 46.432C479.35 46.432 478.063 45.9149 477.26 45.0566L475.8 46.4234C477.108 47.8211 479.014 48.432 481.318 48.432V46.432ZM477.275 45.0728C476.457 44.1601 475.982 42.809 475.982 40.88H473.982C473.982 43.127 474.539 45.0159 475.785 46.4072L477.275 45.0728ZM475.982 40.88V35.552H473.982V40.88H475.982ZM475.982 35.552C475.982 33.6215 476.458 32.2883 477.268 31.403L475.792 30.053C474.538 31.4237 473.982 33.3065 473.982 35.552H475.982ZM477.267 31.4037C478.072 30.5257 479.355 30 481.318 30V28C479.008 28 477.1 28.6263 475.793 30.0523L477.267 31.4037ZM481.318 30.556C480.06 30.556 478.96 30.9614 478.158 31.8636L479.653 33.1924C480.003 32.7986 480.512 32.556 481.318 32.556V30.556ZM478.158 31.8636C477.366 32.7546 477.042 33.9493 477.042 35.3H479.042C479.042 34.2507 479.293 33.5974 479.653 33.1924L478.158 31.8636ZM477.042 35.3V41.132H479.042V35.3H477.042ZM477.042 41.132C477.042 42.4827 477.366 43.6774 478.158 44.5684L479.653 43.2396C479.293 42.8346 479.042 42.1813 479.042 41.132H477.042ZM478.158 44.5684C478.96 45.4706 480.06 45.876 481.318 45.876V43.876C480.512 43.876 480.003 43.6334 479.653 43.2396L478.158 44.5684ZM481.318 45.876C482.576 45.876 483.675 45.4706 484.477 44.5684L482.982 43.2396C482.632 43.6334 482.124 43.876 481.318 43.876V45.876ZM484.477 44.5684C485.269 43.6774 485.594 42.4827 485.594 41.132H483.594C483.594 42.1813 483.342 42.8346 482.982 43.2396L484.477 44.5684ZM485.594 41.132V35.264H483.594V41.132H485.594ZM485.594 35.264C485.594 33.9164 485.27 32.7227 484.465 31.8497L482.995 33.2063C483.341 33.5813 483.594 34.2116 483.594 35.264H485.594ZM484.477 31.8636C483.675 30.9614 482.576 30.556 481.318 30.556V32.556C482.124 32.556 482.632 32.7986 482.982 33.1924L484.477 31.8636Z" fill="#B0B0B0"/>
<path d="M73.5467 23.42H74.5467V22.42H73.5467V23.42ZM73.5467 44.3H72.5467V45.3H73.5467V44.3ZM82.9067 44.3H83.9067V43.3H82.9067V44.3ZM82.9067 47V48H83.9067V47H82.9067ZM70.4867 47H69.4867V48H70.4867V47ZM70.4867 23.42V22.42H69.4867V23.42H70.4867ZM72.5467 23.42V44.3H74.5467V23.42H72.5467ZM73.5467 45.3H82.9067V43.3H73.5467V45.3ZM81.9067 44.3V47H83.9067V44.3H81.9067ZM82.9067 46H70.4867V48H82.9067V46ZM71.4867 47V23.42H69.4867V47H71.4867ZM70.4867 24.42H73.5467V22.42H70.4867V24.42ZM107.213 30.404L106.506 31.1111L106.515 31.1202L106.524 31.129L107.213 30.404ZM108.653 47V48H109.653V47H108.653ZM105.737 47H104.737V48H105.737V47ZM105.737 44.192H106.737V40.7942L104.896 43.6503L105.737 44.192ZM97.6729 45.992L96.911 46.6396L96.9156 46.6451L96.9203 46.6505L97.6729 45.992ZM97.9249 37.496L98.6142 38.2206L98.6232 38.2118L97.9249 37.496ZM105.593 36.524L105.397 37.5046L106.593 37.7438V36.524H105.593ZM104.873 32.312L104.166 33.0191L104.175 33.0282L104.184 33.037L104.873 32.312ZM97.8529 32.168H96.8529V33.3552L98.0228 33.1535L97.8529 32.168ZM97.8529 29.54L97.6953 28.5525L96.8529 28.6869V29.54H97.8529ZM100.157 43.94L99.3797 44.5692L100.157 43.94ZM103.685 43.868L104.32 44.6407L104.322 44.6384L103.685 43.868ZM105.593 41.456L106.466 41.9434L106.593 41.7162V41.456H105.593ZM105.593 38.684H106.593V37.8514L105.774 37.7005L105.593 38.684ZM102.713 30C104.656 30 105.839 30.4446 106.506 31.1111L107.92 29.6969C106.715 28.4914 104.898 28 102.713 28V30ZM106.524 31.129C107.202 31.7728 107.653 32.9123 107.653 34.796H109.653C109.653 32.6477 109.144 30.8592 107.902 29.679L106.524 31.129ZM107.653 34.796V47H109.653V34.796H107.653ZM108.653 46H105.737V48H108.653V46ZM106.737 47V44.192H104.737V47H106.737ZM104.896 43.6503C103.596 45.668 102.292 46.432 101.021 46.432V48.432C103.254 48.432 105.094 47.036 106.577 44.7337L104.896 43.6503ZM101.021 46.432C99.8876 46.432 99.0569 46.0551 98.4255 45.3335L96.9203 46.6505C97.9689 47.8489 99.3702 48.432 101.021 48.432V46.432ZM98.4348 45.3444C97.8153 44.6155 97.4489 43.5624 97.4489 42.068H95.4489C95.4489 43.8856 95.8985 45.4485 96.911 46.6396L98.4348 45.3444ZM97.4489 42.068V41.06H95.4489V42.068H97.4489ZM97.4489 41.06C97.4489 39.8754 97.8416 38.9554 98.6141 38.2206L97.2357 36.7714C96.0402 37.9086 95.4489 39.3646 95.4489 41.06H97.4489ZM98.6232 38.2118C99.3834 37.4702 100.433 37.056 101.885 37.056V35.056C100.025 35.056 98.4344 35.6018 97.2266 36.7802L98.6232 38.2118ZM101.885 37.056C102.7 37.056 103.861 37.1975 105.397 37.5046L105.789 35.5434C104.205 35.2265 102.894 35.056 101.885 35.056V37.056ZM106.593 36.524V34.544H104.593V36.524H106.593ZM106.593 34.544C106.593 33.3881 106.328 32.3149 105.562 31.587L104.184 33.037C104.378 33.2211 104.593 33.6359 104.593 34.544H106.593ZM105.58 31.6049C104.858 30.8828 103.825 30.628 102.713 30.628V32.628C103.569 32.628 103.976 32.8292 104.166 33.0191L105.58 31.6049ZM102.713 30.628C101.475 30.628 99.7888 30.8195 97.683 31.1825L98.0228 33.1535C100.093 32.7965 101.647 32.628 102.713 32.628V30.628ZM98.8529 32.168V29.54H96.8529V32.168H98.8529ZM98.0105 30.5275C100.264 30.1679 101.815 30 102.713 30V28C101.642 28 99.9535 28.1921 97.6953 28.5525L98.0105 30.5275ZM102.641 37.432C101.463 37.432 100.403 37.7432 99.6298 38.5169L101.044 39.9311C101.326 39.6488 101.803 39.432 102.641 39.432V37.432ZM99.6298 38.5169C98.8648 39.2819 98.5449 40.3101 98.5449 41.456H100.545C100.545 40.6819 100.753 40.2221 101.044 39.9311L99.6298 38.5169ZM98.5449 41.456V41.852H100.545V41.456H98.5449ZM98.5449 41.852C98.5449 42.885 98.7823 43.8313 99.3797 44.5692L100.934 43.3108C100.715 43.0407 100.545 42.595 100.545 41.852H98.5449ZM99.3797 44.5692C99.9689 45.2971 100.766 45.696 101.705 45.696V43.696C101.396 43.696 101.161 43.5909 100.934 43.3108L99.3797 44.5692ZM101.705 45.696C102.653 45.696 103.53 45.2893 104.32 44.6407L103.05 43.0953C102.496 43.5507 102.053 43.696 101.705 43.696V45.696ZM104.322 44.6384C105.138 43.9633 105.847 43.0519 106.466 41.9434L104.72 40.9686C104.186 41.9241 103.624 42.6207 103.047 43.0976L104.322 44.6384ZM106.593 41.456V38.684H104.593V41.456H106.593ZM105.774 37.7005C104.795 37.5201 103.749 37.432 102.641 37.432V39.432C103.644 39.432 104.567 39.5119 105.412 39.6675L105.774 37.7005ZM145.383 29.432L146.358 29.6576L146.641 28.432H145.383V29.432ZM141.315 47V48H142.11L142.29 47.2256L141.315 47ZM137.463 47L136.491 47.2326L136.674 48H137.463V47ZM133.899 32.096L134.872 31.8634L132.927 31.8612L133.899 32.096ZM130.299 47V48H131.087L131.271 47.2348L130.299 47ZM126.447 47L125.473 47.2237L125.651 48H126.447V47ZM122.415 29.432V28.432H121.16L121.441 29.6557L122.415 29.432ZM125.655 29.432L126.637 29.2441L126.482 28.432H125.655V29.432ZM128.499 44.3L127.517 44.4879L129.474 44.5242L128.499 44.3ZM131.919 29.432V28.432H131.123L130.945 29.2078L131.919 29.432ZM135.879 29.432L136.854 29.2101L136.677 28.432H135.879V29.432ZM139.263 44.3L138.288 44.5219L140.245 44.4902L139.263 44.3ZM142.143 29.432V28.432H141.318L141.162 29.2418L142.143 29.432ZM144.409 29.2064L140.341 46.7744L142.29 47.2256L146.358 29.6576L144.409 29.2064ZM141.315 46H137.463V48H141.315V46ZM138.436 46.7674L134.872 31.8634L132.927 32.3286L136.491 47.2326L138.436 46.7674ZM132.927 31.8612L129.327 46.7652L131.271 47.2348L134.871 32.3308L132.927 31.8612ZM130.299 46H126.447V48H130.299V46ZM127.422 46.7763L123.39 29.2083L121.441 29.6557L125.473 47.2237L127.422 46.7763ZM122.415 30.432H125.655V28.432H122.415V30.432ZM124.673 29.6199L127.517 44.4879L129.481 44.1121L126.637 29.2441L124.673 29.6199ZM129.474 44.5242L132.894 29.6562L130.945 29.2078L127.525 44.0758L129.474 44.5242ZM131.919 30.432H135.879V28.432H131.919V30.432ZM134.904 29.6539L138.288 44.5219L140.238 44.0781L136.854 29.2101L134.904 29.6539ZM140.245 44.4902L143.125 29.6222L141.162 29.2418L138.282 44.1098L140.245 44.4902ZM142.143 30.432H145.383V28.432H142.143V30.432ZM168.09 29.432L169.089 29.4598L169.113 28.6196L168.289 28.4521L168.09 29.432ZM168.018 32.024L167.793 32.9984L168.983 33.2731L169.017 32.0518L168.018 32.024ZM161.682 35.048L160.908 35.6812L160.924 35.7014L160.942 35.7207L161.682 35.048ZM162.942 35.876L162.509 36.7776L162.518 36.7817L162.942 35.876ZM166.326 37.46L166.752 36.5552L166.75 36.5543L166.326 37.46ZM169.386 42.464L170.386 42.4785L170.386 42.4712V42.464H169.386ZM167.874 46.208L168.521 46.9699L168.523 46.9686L167.874 46.208ZM158.658 46.676L157.659 46.6234L157.616 47.4463L158.415 47.6461L158.658 46.676ZM158.802 43.94L159.083 42.9804L157.87 42.6244L157.803 43.8874L158.802 43.94ZM165.678 44.264L166.242 45.0893L166.257 45.0794L166.271 45.0691L165.678 44.264ZM166.002 40.916L165.161 41.4568L165.174 41.4773L165.188 41.4972L166.002 40.916ZM164.886 40.052L165.3 39.1416L165.291 39.1378L164.886 40.052ZM161.394 38.504L160.98 39.4144L160.988 39.4182L161.394 38.504ZM159.054 36.776L158.24 37.3572L158.247 37.3667L158.254 37.376L159.054 36.776ZM158.334 33.932L157.334 33.9026L157.334 33.9173V33.932H158.334ZM159.846 30.26L160.493 31.0219L160.495 31.0206L159.846 30.26ZM164.454 30C165.373 30 166.514 30.1321 167.89 30.4119L168.289 28.4521C166.833 28.1559 165.551 28 164.454 28V30ZM167.09 29.4042L167.018 31.9962L169.017 32.0518L169.089 29.4598L167.09 29.4042ZM168.243 31.0496C166.938 30.7485 165.721 30.592 164.598 30.592V32.592C165.539 32.592 166.602 32.7235 167.793 32.9984L168.243 31.0496ZM164.598 30.592C163.442 30.592 162.404 30.7723 161.626 31.2734C160.773 31.8231 160.358 32.6779 160.358 33.68H162.358C162.358 33.2901 162.482 33.1009 162.709 32.9546C163.012 32.7597 163.593 32.592 164.598 32.592V30.592ZM160.358 33.68V34.004H162.358V33.68H160.358ZM160.358 34.004C160.358 34.604 160.51 35.1953 160.908 35.6812L162.456 34.4148C162.421 34.3727 162.358 34.268 162.358 34.004H160.358ZM160.942 35.7207C161.314 36.1303 161.876 36.4736 162.509 36.7775L163.374 34.9745C162.808 34.7024 162.529 34.4937 162.422 34.3753L160.942 35.7207ZM162.518 36.7817L165.902 38.3657L166.75 36.5543L163.366 34.9703L162.518 36.7817ZM165.9 38.3648C166.812 38.7939 167.426 39.2898 167.812 39.8208C168.189 40.3405 168.386 40.9446 168.386 41.672H170.386C170.386 40.5514 170.072 39.5295 169.43 38.6452C168.796 37.7722 167.88 37.0861 166.752 36.5552L165.9 38.3648ZM168.386 41.672V42.464H170.386V41.672H168.386ZM168.386 42.4495C168.365 43.9042 167.932 44.8436 167.224 45.4474L168.523 46.9686C169.784 45.8924 170.359 44.3358 170.386 42.4785L168.386 42.4495ZM167.226 45.4461C166.533 46.0354 165.297 46.432 163.302 46.432V48.432C165.483 48.432 167.295 48.0126 168.521 46.9699L167.226 45.4461ZM163.302 46.432C162.347 46.432 160.896 46.2047 158.9 45.7059L158.415 47.6461C160.452 48.1553 162.096 48.432 163.302 48.432V46.432ZM159.656 46.7286L159.8 43.9926L157.803 43.8874L157.659 46.6234L159.656 46.7286ZM158.52 44.8996C160.362 45.4398 161.942 45.732 163.23 45.732V43.732C162.214 43.732 160.841 43.4962 159.083 42.9804L158.52 44.8996ZM163.23 45.732C164.425 45.732 165.515 45.5868 166.242 45.0893L165.113 43.4387C164.928 43.5652 164.387 43.732 163.23 43.732V45.732ZM166.271 45.0691C167.059 44.4881 167.362 43.5968 167.362 42.644H165.362C165.362 43.1792 165.208 43.3679 165.085 43.4589L166.271 45.0691ZM167.362 42.644V42.284H165.362V42.644H167.362ZM167.362 42.284C167.362 41.5796 167.216 40.8955 166.815 40.3348L165.188 41.4972C165.267 41.6085 165.362 41.8364 165.362 42.284H167.362ZM166.843 40.3752C166.486 39.82 165.928 39.4271 165.3 39.1416L164.472 40.9624C164.9 41.1569 165.086 41.34 165.161 41.4568L166.843 40.3752ZM165.291 39.1378L161.799 37.5898L160.988 39.4182L164.48 40.9662L165.291 39.1378ZM161.808 37.5936C160.849 37.1579 160.226 36.6724 159.854 36.176L158.254 37.376C158.889 38.2236 159.827 38.8901 160.98 39.4144L161.808 37.5936ZM159.867 36.1948C159.518 35.7054 159.334 35.1321 159.334 34.436H157.334C157.334 35.5159 157.63 36.5026 158.24 37.3572L159.867 36.1948ZM159.334 34.436V33.932H157.334V34.436H159.334ZM159.333 33.9614C159.376 32.5236 159.809 31.604 160.493 31.0219L159.198 29.4981C157.963 30.548 157.388 32.0764 157.334 33.9026L159.333 33.9614ZM160.495 31.0206C161.216 30.4054 162.467 30 164.454 30V28C162.265 28 160.444 28.4346 159.196 29.4994L160.495 31.0206ZM193.648 30.404L192.941 31.1111L192.95 31.1202L192.959 31.129L193.648 30.404ZM195.088 47V48H196.088V47H195.088ZM192.172 47H191.172V48H192.172V47ZM192.172 44.192H193.172V40.7942L191.331 43.6503L192.172 44.192ZM184.108 45.992L183.346 46.6396L183.351 46.6451L183.355 46.6505L184.108 45.992ZM184.36 37.496L185.049 38.2206L185.058 38.2118L184.36 37.496ZM192.028 36.524L191.832 37.5046L193.028 37.7438V36.524H192.028ZM191.308 32.312L190.601 33.0191L190.61 33.0282L190.619 33.037L191.308 32.312ZM184.288 32.168H183.288V33.3552L184.458 33.1535L184.288 32.168ZM184.288 29.54L184.13 28.5525L183.288 28.6869V29.54H184.288ZM186.592 43.94L185.815 44.5692L186.592 43.94ZM190.12 43.868L190.755 44.6407L190.758 44.6384L190.12 43.868ZM192.028 41.456L192.901 41.9434L193.028 41.7162V41.456H192.028ZM192.028 38.684H193.028V37.8514L192.209 37.7005L192.028 38.684ZM189.148 30C191.091 30 192.274 30.4446 192.941 31.1111L194.355 29.6969C193.15 28.4914 191.333 28 189.148 28V30ZM192.959 31.129C193.637 31.7728 194.088 32.9123 194.088 34.796H196.088C196.088 32.6477 195.579 30.8592 194.337 29.679L192.959 31.129ZM194.088 34.796V47H196.088V34.796H194.088ZM195.088 46H192.172V48H195.088V46ZM193.172 47V44.192H191.172V47H193.172ZM191.331 43.6503C190.031 45.668 188.727 46.432 187.456 46.432V48.432C189.689 48.432 191.529 47.036 193.013 44.7337L191.331 43.6503ZM187.456 46.432C186.323 46.432 185.492 46.0551 184.861 45.3335L183.355 46.6505C184.404 47.8489 185.805 48.432 187.456 48.432V46.432ZM184.87 45.3444C184.25 44.6155 183.884 43.5624 183.884 42.068H181.884C181.884 43.8856 182.334 45.4485 183.346 46.6396L184.87 45.3444ZM183.884 42.068V41.06H181.884V42.068H183.884ZM183.884 41.06C183.884 39.8754 184.277 38.9554 185.049 38.2206L183.671 36.7714C182.475 37.9086 181.884 39.3646 181.884 41.06H183.884ZM185.058 38.2118C185.819 37.4702 186.868 37.056 188.32 37.056V35.056C186.46 35.056 184.87 35.6018 183.662 36.7802L185.058 38.2118ZM188.32 37.056C189.135 37.056 190.296 37.1975 191.832 37.5046L192.224 35.5434C190.64 35.2265 189.329 35.056 188.32 35.056V37.056ZM193.028 36.524V34.544H191.028V36.524H193.028ZM193.028 34.544C193.028 33.3881 192.763 32.3149 191.997 31.587L190.619 33.037C190.813 33.2211 191.028 33.6359 191.028 34.544H193.028ZM192.015 31.6049C191.293 30.8828 190.26 30.628 189.148 30.628V32.628C190.004 32.628 190.411 32.8292 190.601 33.0191L192.015 31.6049ZM189.148 30.628C187.91 30.628 186.224 30.8195 184.118 31.1825L184.458 33.1535C186.528 32.7965 188.082 32.628 189.148 32.628V30.628ZM185.288 32.168V29.54H183.288V32.168H185.288ZM184.446 30.5275C186.699 30.1679 188.251 30 189.148 30V28C188.077 28 186.389 28.1921 184.13 28.5525L184.446 30.5275ZM189.076 37.432C187.898 37.432 186.839 37.7432 186.065 38.5169L187.479 39.9311C187.761 39.6488 188.238 39.432 189.076 39.432V37.432ZM186.065 38.5169C185.3 39.2819 184.98 40.3101 184.98 41.456H186.98C186.98 40.6819 187.188 40.2221 187.479 39.9311L186.065 38.5169ZM184.98 41.456V41.852H186.98V41.456H184.98ZM184.98 41.852C184.98 42.885 185.217 43.8313 185.815 44.5692L187.369 43.3108C187.151 43.0407 186.98 42.595 186.98 41.852H184.98ZM185.815 44.5692C186.404 45.2971 187.201 45.696 188.14 45.696V43.696C187.831 43.696 187.596 43.5909 187.369 43.3108L185.815 44.5692ZM188.14 45.696C189.088 45.696 189.965 45.2893 190.755 44.6407L189.485 43.0953C188.931 43.5507 188.488 43.696 188.14 43.696V45.696ZM190.758 44.6384C191.573 43.9633 192.283 43.0519 192.901 41.9434L191.155 40.9686C190.622 41.9241 190.059 42.6207 189.482 43.0976L190.758 44.6384ZM193.028 41.456V38.684H191.028V41.456H193.028ZM192.209 37.7005C191.23 37.5201 190.185 37.432 189.076 37.432V39.432C190.079 39.432 191.002 39.5119 191.847 39.6675L192.209 37.7005ZM221.952 30.584L221.161 31.1954L221.168 31.2055L221.176 31.2153L221.952 30.584ZM223.212 47V48H224.212V47H223.212ZM220.152 47H219.152V48H220.152V47ZM215.688 32.636L216.279 33.4424L215.688 32.636ZM213.816 34.796L212.951 34.295L212.816 34.5274V34.796H213.816ZM213.816 47V48H214.816V47H213.816ZM210.756 47H209.756V48H210.756V47ZM210.756 29.432V28.432H209.756V29.432H210.756ZM213.636 29.432H214.636V28.432H213.636V29.432ZM213.636 32.06H212.636V35.3967L214.471 32.61L213.636 32.06ZM215.796 29.792L215.253 28.9524L215.241 28.9599L215.796 29.792ZM218.424 30C219.703 30 220.564 30.4236 221.161 31.1954L222.743 29.9726C221.708 28.6324 220.217 28 218.424 28V30ZM221.176 31.2153C221.819 32.0047 222.212 33.2227 222.212 35.012H224.212C224.212 32.9613 223.765 31.2273 222.727 29.9527L221.176 31.2153ZM222.212 35.012V47H224.212V35.012H222.212ZM223.212 46H220.152V48H223.212V46ZM221.152 47V35.444H219.152V47H221.152ZM221.152 35.444C221.152 34.1676 220.95 33.0374 220.405 32.199C219.812 31.2861 218.894 30.844 217.812 30.844V32.844C218.29 32.844 218.542 33.0019 218.728 33.289C218.964 33.6506 219.152 34.3204 219.152 35.444H221.152ZM217.812 30.844C216.85 30.844 215.939 31.2115 215.097 31.8296L216.279 33.4424C216.876 33.0045 217.382 32.844 217.812 32.844V30.844ZM215.097 31.8296C214.247 32.4527 213.535 33.2846 212.951 34.295L214.681 35.297C215.152 34.4834 215.689 33.8753 216.279 33.4424L215.097 31.8296ZM212.816 34.796V47H214.816V34.796H212.816ZM213.816 46H210.756V48H213.816V46ZM211.756 47V29.432H209.756V47H211.756ZM210.756 30.432H213.636V28.432H210.756V30.432ZM212.636 29.432V32.06H214.636V29.432H212.636ZM214.471 32.61C215.062 31.712 215.693 31.0624 216.351 30.6241L215.241 28.9599C214.315 29.5776 213.505 30.44 212.801 31.51L214.471 32.61ZM216.339 30.6316C217 30.204 217.688 30 218.424 30V28C217.288 28 216.224 28.324 215.253 28.9524L216.339 30.6316ZM251.16 47V48H252.16V47H251.16ZM248.244 47H247.244V48H248.244V47ZM248.244 44.156H249.244V40.8227L247.409 43.6055L248.244 44.156ZM239.892 45.92L239.098 46.5289L239.105 46.5378L239.892 45.92ZM240 30.584L239.234 29.9403L239.226 29.9508L240 30.584ZM245.976 29.54L245.551 30.4455L245.563 30.451L245.575 30.4562L245.976 29.54ZM248.1 30.8L247.486 31.5894L249.1 32.8446V30.8H248.1ZM248.1 22.412V21.412H247.1V22.412H248.1ZM251.16 22.412H252.16V21.412H251.16V22.412ZM242.448 32.672L241.655 32.0623L241.652 32.0669L242.448 32.672ZM246.156 43.868L246.777 44.6515L246.78 44.6489L246.156 43.868ZM248.1 41.456L248.973 41.9434L249.1 41.7162V41.456H248.1ZM248.1 33.536H249.1V33.1353L248.823 32.8455L248.1 33.536ZM246.3 32.24L245.852 33.1345L245.865 33.1406L246.3 32.24ZM251.16 46H248.244V48H251.16V46ZM249.244 47V44.156H247.244V47H249.244ZM247.409 43.6055C246.07 45.6355 244.696 46.432 243.312 46.432V48.432C245.624 48.432 247.537 47.0445 249.079 44.7065L247.409 43.6055ZM243.312 46.432C242.075 46.432 241.249 46.0283 240.678 45.3022L239.105 46.5378C240.119 47.8277 241.572 48.432 243.312 48.432V46.432ZM240.685 45.3112C240.08 44.5232 239.704 43.2751 239.704 41.42H237.704C237.704 43.5009 238.119 45.2528 239.098 46.5288L240.685 45.3112ZM239.704 41.42V35.012H237.704V41.42H239.704ZM239.704 35.012C239.704 33.2579 240.104 32.0361 240.774 31.2172L239.226 29.9508C238.168 31.2439 237.704 32.9741 237.704 35.012H239.704ZM240.765 31.2276C241.428 30.4396 242.383 30 243.78 30V28C241.912 28 240.348 28.6164 239.234 29.9404L240.765 31.2276ZM243.78 30C244.301 30 244.888 30.1344 245.551 30.4455L246.4 28.6345C245.528 28.2256 244.651 28 243.78 28V30ZM245.575 30.4562C246.269 30.7596 246.905 31.1374 247.486 31.5894L248.714 30.0106C247.999 29.4546 247.219 28.9924 246.377 28.6238L245.575 30.4562ZM249.1 30.8V22.412H247.1V30.8H249.1ZM248.1 23.412H251.16V21.412H248.1V23.412ZM250.16 22.412V47H252.16V22.412H250.16ZM244.464 30.736C243.324 30.736 242.345 31.1659 241.655 32.0623L243.24 33.2817C243.511 32.9301 243.875 32.736 244.464 32.736V30.736ZM241.652 32.0669C241.001 32.9223 240.764 34.1085 240.764 35.444H242.764C242.764 34.2835 242.982 33.6216 243.244 33.2771L241.652 32.0669ZM240.764 35.444V41.024H242.764V35.444H240.764ZM240.764 41.024C240.764 42.3185 240.958 43.4581 241.48 44.3035C242.051 45.2282 242.951 45.696 244.032 45.696V43.696C243.601 43.696 243.366 43.5518 243.182 43.2525C242.948 42.8739 242.764 42.1775 242.764 41.024H240.764ZM244.032 45.696C245.026 45.696 245.947 45.3101 246.777 44.6515L245.534 43.0845C244.973 43.5299 244.477 43.696 244.032 43.696V45.696ZM246.78 44.6489C247.626 43.9728 248.351 43.0579 248.973 41.9434L247.227 40.9686C246.697 41.9181 246.126 42.6112 245.531 43.0871L246.78 44.6489ZM249.1 41.456V33.536H247.1V41.456H249.1ZM248.823 32.8455C248.232 32.2257 247.532 31.7245 246.734 31.3394L245.865 33.1406C246.459 33.4275 246.96 33.7902 247.376 34.2265L248.823 32.8455ZM246.747 31.3456C245.984 30.9639 245.217 30.736 244.464 30.736V32.736C244.815 32.736 245.272 32.8441 245.853 33.1344L246.747 31.3456ZM292.714 29.072H293.714V28.2912L292.956 28.1019L292.714 29.072ZM292.714 32.528L292.517 33.5086L293.714 33.7478V32.528H292.714ZM287.314 34.94L286.451 34.4346L286.314 34.6687V34.94H287.314ZM287.314 47V48H288.314V47H287.314ZM284.254 47H283.254V48H284.254V47ZM284.254 29.432V28.432H283.254V29.432H284.254ZM287.134 29.432H288.134V28.432H287.134V29.432ZM287.134 32.06H286.134V35.3967L287.969 32.61L287.134 32.06ZM289.294 29.792L288.75 28.9524L288.739 28.9599L289.294 29.792ZM291.922 30C292.224 30 292.394 30.023 292.471 30.0421L292.956 28.1019C292.649 28.025 292.291 28 291.922 28V30ZM291.714 29.072V32.528H293.714V29.072H291.714ZM292.91 31.5474C292.46 31.4574 291.919 31.42 291.31 31.42V33.42C291.852 33.42 292.248 33.4546 292.517 33.5086L292.91 31.5474ZM291.31 31.42C289.212 31.42 287.58 32.5062 286.451 34.4346L288.176 35.4454C289.015 34.0138 290.047 33.42 291.31 33.42V31.42ZM286.314 34.94V47H288.314V34.94H286.314ZM287.314 46H284.254V48H287.314V46ZM285.254 47V29.432H283.254V47H285.254ZM284.254 30.432H287.134V28.432H284.254V30.432ZM286.134 29.432V32.06H288.134V29.432H286.134ZM287.969 32.61C288.56 31.712 289.191 31.0624 289.848 30.6241L288.739 28.9599C287.812 29.5776 287.003 30.44 286.298 31.51L287.969 32.61ZM289.837 30.6316C290.498 30.204 291.186 30 291.922 30V28C290.785 28 289.722 28.324 288.75 28.9524L289.837 30.6316ZM316.883 30.656L317.605 29.9648L316.883 30.656ZM318.467 39.152V40.152H319.467V39.152H318.467ZM309.215 39.152V38.152H308.215V39.152H309.215ZM310.079 43.94L309.387 44.662L309.402 44.6767L309.418 44.6907L310.079 43.94ZM317.567 44.156L318.566 44.129L318.534 42.9367L317.366 43.1764L317.567 44.156ZM317.639 46.82L317.818 47.8037L318.661 47.6496L318.638 46.793L317.639 46.82ZM307.703 45.884L306.995 46.5912L307.004 46.5992L307.703 45.884ZM307.667 30.656L306.936 29.9731L306.928 29.9817L307.667 30.656ZM310.043 32.456L310.765 33.1479L310.772 33.1406L310.778 33.1331L310.043 32.456ZM309.215 36.704H308.215V37.704H309.215V36.704ZM315.407 36.704V37.704H316.407V36.704H315.407ZM314.543 32.456L313.807 33.1331L313.814 33.1409L313.821 33.1485L314.543 32.456ZM312.275 30C314.109 30 315.347 30.4978 316.16 31.3472L317.605 29.9648C316.306 28.6062 314.472 28 312.275 28V30ZM316.16 31.3472C316.981 32.2057 317.467 33.5175 317.467 35.444H319.467C319.467 33.1945 318.896 31.3143 317.605 29.9648L316.16 31.3472ZM317.467 35.444V39.152H319.467V35.444H317.467ZM318.467 38.152H309.215V40.152H318.467V38.152ZM308.215 39.152V41.276H310.215V39.152H308.215ZM308.215 41.276C308.215 42.6291 308.53 43.841 309.387 44.662L310.77 43.218C310.475 42.935 310.215 42.3709 310.215 41.276H308.215ZM309.418 44.6907C310.282 45.451 311.508 45.732 312.887 45.732V43.732C311.721 43.732 311.075 43.485 310.739 43.1893L309.418 44.6907ZM312.887 45.732C314.228 45.732 315.86 45.5268 317.767 45.1356L317.366 43.1764C315.529 43.5532 314.041 43.732 312.887 43.732V45.732ZM316.567 44.183L316.639 46.847L318.638 46.793L318.566 44.129L316.567 44.183ZM317.459 45.8363C315.228 46.2441 313.711 46.432 312.851 46.432V48.432C313.91 48.432 315.585 48.2119 317.818 47.8037L317.459 45.8363ZM312.851 46.432C310.584 46.432 309.184 45.934 308.401 45.1688L307.004 46.5992C308.333 47.898 310.366 48.432 312.851 48.432V46.432ZM308.41 45.1769C307.639 44.4061 307.155 43.1173 307.155 41.096H305.155C305.155 43.3947 305.702 45.2979 306.995 46.5911L308.41 45.1769ZM307.155 41.096V35.444H305.155V41.096H307.155ZM307.155 35.444C307.155 33.5063 307.622 32.1879 308.405 31.3303L306.928 29.9817C305.695 31.3321 305.155 33.2057 305.155 35.444H307.155ZM308.397 31.3389C309.181 30.5006 310.411 30 312.275 30V28C310.058 28 308.216 28.6034 306.936 29.9731L308.397 31.3389ZM312.275 30.556C311.104 30.556 310.077 30.9418 309.307 31.7789L310.778 33.1331C311.112 32.7702 311.573 32.556 312.275 32.556V30.556ZM309.321 31.7641C308.531 32.5879 308.215 33.7144 308.215 34.976H310.215C310.215 34.0296 310.45 33.4761 310.765 33.1479L309.321 31.7641ZM308.215 34.976V36.704H310.215V34.976H308.215ZM309.215 37.704H315.407V35.704H309.215V37.704ZM316.407 36.704V35.084H314.407V36.704H316.407ZM316.407 35.084C316.407 33.7745 316.078 32.6115 315.264 31.7635L313.821 33.1485C314.159 33.5005 314.407 34.0895 314.407 35.084H316.407ZM315.278 31.7789C314.503 30.9364 313.46 30.556 312.275 30.556V32.556C313.009 32.556 313.478 32.7756 313.807 33.1331L315.278 31.7789ZM342.056 29.468L341.716 30.4086L341.887 30.4702L342.069 30.4679L342.056 29.468ZM347.672 29.396H348.672V28.3831L347.659 28.3961L347.672 29.396ZM347.672 32.096L347.648 33.0957L348.672 33.1207V32.096H347.672ZM344.72 32.024L344.744 31.0243L343.123 30.9848L343.816 32.451L344.72 32.024ZM343.712 39.764L344.411 40.4791L344.419 40.4711L343.712 39.764ZM336.116 40.988L336.406 40.031L335.896 39.8763L335.483 40.214L336.116 40.988ZM335.684 43.544L335.059 44.3249L335.084 44.3449L335.111 44.3632L335.684 43.544ZM337.088 43.868L337.162 42.8707L337.157 42.8704L337.088 43.868ZM342.452 44.264L342.539 43.2677L342.526 43.2667L342.452 44.264ZM345.116 45.524L344.374 46.1943L344.385 46.2069L344.397 46.219L345.116 45.524ZM345.548 52.112L344.702 51.5792L345.548 52.112ZM343.28 53.588L342.989 52.6313L342.983 52.6331L343.28 53.588ZM335.864 53.84L335.703 54.827L335.707 54.8276L335.864 53.84ZM332.912 53.192L331.913 53.1541L331.883 53.9407L332.641 54.1544L332.912 53.192ZM333.02 50.348L333.336 49.3993L332.071 48.9777L332.021 50.3101L333.02 50.348ZM341.588 51.212L341.371 50.2358L341.35 50.2406L341.328 50.2464L341.588 51.212ZM342.848 50.528L342.026 49.9588L342.011 49.9809L341.996 50.0039L342.848 50.528ZM342.704 47.54L341.969 48.2183L341.983 48.233L341.997 48.2471L342.704 47.54ZM341.444 47.036L341.378 48.0338L341.389 48.0346L341.401 48.0351L341.444 47.036ZM336.044 46.676L336.111 45.6782L336.106 45.6779L336.044 46.676ZM333.416 45.704L332.724 46.4254L333.416 45.704ZM332.912 41.096L332.044 40.5999L332.035 40.6158L332.026 40.632L332.912 41.096ZM334.136 39.764L334.724 40.5727L335.619 39.9219L334.881 39.0972L334.136 39.764ZM333.236 38.036L332.262 38.2632L332.267 38.2827L332.272 38.3019L333.236 38.036ZM334.568 30.548L335.259 31.2714L335.267 31.2632L334.568 30.548ZM336.836 32.348L337.527 33.0714L337.527 33.0706L336.836 32.348ZM336.26 37.712L335.311 38.0282L335.322 38.0609L335.335 38.0927L336.26 37.712ZM337.124 38.576L336.743 39.5007L336.767 39.5104L336.791 39.519L337.124 38.576ZM341.444 38L342.135 38.7226V38.7226L341.444 38ZM341.84 32.024L342.773 31.663L342.619 31.2651L342.225 31.1009L341.84 32.024ZM340.652 31.7L340.456 32.6806L340.465 32.6823L340.652 31.7ZM339.176 30C340.133 30 340.976 30.1413 341.716 30.4086L342.396 28.5274C341.408 28.1707 340.331 28 339.176 28V30ZM342.069 30.4679L347.685 30.3959L347.659 28.3961L342.043 28.4681L342.069 30.4679ZM346.672 29.396V32.096H348.672V29.396H346.672ZM347.696 31.0963L344.744 31.0243L344.696 33.0237L347.648 33.0957L347.696 31.0963ZM343.816 32.451C344.162 33.1844 344.332 33.9388 344.332 34.724H346.332C346.332 33.6372 346.094 32.5916 345.624 31.597L343.816 32.451ZM344.332 34.724V35.516H346.332V34.724H344.332ZM344.332 35.516C344.332 37.0451 343.869 38.1924 343.005 39.0569L344.419 40.4711C345.715 39.1756 346.332 37.4909 346.332 35.516H344.332ZM343.013 39.049C342.169 39.8741 340.937 40.348 339.176 40.348V42.348C341.303 42.348 343.095 41.7659 344.411 40.479L343.013 39.049ZM339.176 40.348C337.982 40.348 337.069 40.2319 336.406 40.031L335.826 41.945C336.747 42.2241 337.874 42.348 339.176 42.348V40.348ZM335.483 40.214C334.783 40.7869 334.324 41.5423 334.324 42.464H336.324C336.324 42.2817 336.393 42.0531 336.749 41.762L335.483 40.214ZM334.324 42.464V42.68H336.324V42.464H334.324ZM334.324 42.68C334.324 43.2847 334.524 43.8966 335.059 44.3249L336.309 42.7631C336.313 42.7665 336.32 42.7729 336.327 42.782C336.333 42.791 336.337 42.7978 336.337 42.7994C336.338 42.8019 336.324 42.7696 336.324 42.68H334.324ZM335.111 44.3632C335.382 44.553 335.701 44.6586 335.99 44.7254C336.293 44.7952 336.64 44.8395 337.019 44.8656L337.157 42.8704C336.84 42.8485 336.605 42.8148 336.44 42.7766C336.261 42.7354 336.226 42.703 336.258 42.7248L335.111 44.3632ZM337.014 44.8653L342.378 45.2613L342.526 43.2667L337.162 42.8707L337.014 44.8653ZM342.365 45.2602C343.246 45.3368 343.89 45.6583 344.374 46.1943L345.858 44.8537C344.998 43.9017 343.866 43.3832 342.539 43.2678L342.365 45.2602ZM344.397 46.219C344.894 46.7327 345.16 47.3863 345.16 48.26H347.16C347.16 46.9257 346.731 45.7553 345.835 44.829L344.397 46.219ZM345.16 48.26V49.592H347.16V48.26H345.16ZM345.16 49.592C345.16 50.4991 344.98 51.1372 344.702 51.5792L346.394 52.6448C346.932 51.7908 347.16 50.7489 347.16 49.592H345.16ZM344.702 51.5792C344.473 51.9424 343.976 52.331 342.989 52.6313L343.571 54.5447C344.793 54.173 345.807 53.5776 346.394 52.6448L344.702 51.5792ZM342.983 52.6331C342.047 52.9243 340.606 53.092 338.6 53.092V55.092C340.674 55.092 342.353 54.9237 343.577 54.5429L342.983 52.6331ZM338.6 53.092C337.901 53.092 337.044 53.0151 336.021 52.8524L335.707 54.8276C336.796 55.0009 337.764 55.092 338.6 55.092V53.092ZM336.025 52.853C335.027 52.6906 334.081 52.4825 333.184 52.2295L332.641 54.1544C333.616 54.4295 334.637 54.6534 335.703 54.827L336.025 52.853ZM333.911 53.2299L334.019 50.3859L332.021 50.3101L331.913 53.1541L333.911 53.2299ZM332.704 51.2967C334.991 52.0592 337.001 52.464 338.708 52.464V50.464C337.295 50.464 335.513 50.1248 333.336 49.3993L332.704 51.2967ZM338.708 52.464C340.022 52.464 341.091 52.3813 341.848 52.1776L341.328 50.2464C340.837 50.3787 339.986 50.464 338.708 50.464V52.464ZM341.805 52.1882C342.521 52.0291 343.287 51.7224 343.7 51.0521L341.996 50.0039C342.016 49.9722 342.014 49.9989 341.912 50.0541C341.809 50.1103 341.637 50.1768 341.371 50.2358L341.805 52.1882ZM343.67 51.0972C344.055 50.5414 344.172 49.8325 344.172 49.124H342.172C342.172 49.6635 342.073 49.8906 342.026 49.9588L343.67 51.0972ZM344.172 49.124V48.836H342.172V49.124H344.172ZM344.172 48.836C344.172 48.0891 343.955 47.3769 343.411 46.8329L341.997 48.2471C342.077 48.3271 342.172 48.4789 342.172 48.836H344.172ZM343.439 46.8617C342.923 46.3024 342.221 46.0688 341.488 46.0369L341.401 48.0351C341.772 48.0512 341.91 48.1536 341.969 48.2183L343.439 46.8617ZM341.511 46.0382L336.111 45.6782L335.978 47.6738L341.378 48.0338L341.511 46.0382ZM336.106 45.6779C335.1 45.615 334.482 45.3411 334.109 44.9826L332.724 46.4254C333.55 47.2189 334.685 47.593 335.982 47.6741L336.106 45.6779ZM334.109 44.9826C333.741 44.6295 333.516 44.1296 333.516 43.364H331.516C331.516 44.5664 331.891 45.6265 332.724 46.4254L334.109 44.9826ZM333.516 43.364V42.644H331.516V43.364H333.516ZM333.516 42.644C333.516 42.29 333.603 41.9322 333.798 41.56L332.026 40.632C331.693 41.2678 331.516 41.942 331.516 42.644H333.516ZM333.78 41.5921C333.99 41.2255 334.296 40.8839 334.724 40.5727L333.548 38.9553C332.92 39.4121 332.41 39.9585 332.044 40.5999L333.78 41.5921ZM334.881 39.0972C334.593 38.7751 334.358 38.344 334.2 37.7701L332.272 38.3019C332.498 39.12 332.863 39.8409 333.391 40.4308L334.881 39.0972ZM334.21 37.8088C334.065 37.1861 333.984 36.3911 333.984 35.408H331.984C331.984 36.4889 332.072 37.4459 332.262 38.2632L334.21 37.8088ZM333.984 35.408V34.616H331.984V35.408H333.984ZM333.984 34.616C333.984 33.1356 334.434 32.0589 335.259 31.2714L333.878 29.8246C332.591 31.0531 331.984 32.6884 331.984 34.616H333.984ZM335.267 31.2632C336.077 30.4721 337.324 30 339.176 30V28C336.996 28 335.172 28.5599 333.869 29.8328L335.267 31.2632ZM339.176 30.556C337.995 30.556 336.936 30.8683 336.145 31.6254L337.527 33.0706C337.84 32.7717 338.341 32.556 339.176 32.556V30.556ZM336.146 31.6246C335.363 32.3716 335.044 33.4008 335.044 34.544H337.044C337.044 33.7672 337.253 33.3324 337.527 33.0714L336.146 31.6246ZM335.044 34.544V35.732H337.044V34.544H335.044ZM335.044 35.732C335.044 36.6456 335.115 37.4381 335.311 38.0282L337.209 37.3958C337.117 37.1219 337.044 36.5944 337.044 35.732H335.044ZM335.335 38.0927C335.605 38.7473 336.089 39.2311 336.743 39.5007L337.505 37.6513C337.343 37.5849 337.251 37.4927 337.185 37.3312L335.335 38.0927ZM336.791 39.519C337.363 39.7207 338.113 39.792 338.96 39.792V37.792C338.176 37.792 337.701 37.7193 337.457 37.633L336.791 39.519ZM338.96 39.792C340.207 39.792 341.328 39.4944 342.135 38.7226L340.753 37.2774C340.456 37.5616 339.921 37.792 338.96 37.792V39.792ZM342.135 38.7226C342.937 37.9555 343.272 36.9061 343.272 35.732H341.272C341.272 36.5259 341.055 36.9885 340.753 37.2774L342.135 38.7226ZM343.272 35.732V34.652H341.272V35.732H343.272ZM343.272 34.652C343.272 33.5517 343.115 32.548 342.773 31.663L340.908 32.385C341.141 32.988 341.272 33.7363 341.272 34.652H343.272ZM342.225 31.1009C341.846 30.943 341.374 30.8195 340.839 30.7177L340.465 32.6823C340.939 32.7725 341.259 32.865 341.455 32.9471L342.225 31.1009ZM340.848 30.7194C340.302 30.6101 339.744 30.556 339.176 30.556V32.556C339.616 32.556 340.042 32.5979 340.456 32.6806L340.848 30.7194ZM373.577 47V48H374.577V47H373.577ZM370.697 47H369.697V48H370.697V47ZM370.697 44.48H371.697V41.2111L369.868 43.9205L370.697 44.48ZM362.561 45.92L361.777 46.5402L361.785 46.5503L361.793 46.5602L362.561 45.92ZM361.337 29.432V28.432H360.337V29.432H361.337ZM364.397 29.432H365.397V28.432H364.397V29.432ZM364.973 43.688L364.131 44.2271L364.138 44.2388L364.146 44.2503L364.973 43.688ZM368.645 43.832L369.232 44.642L369.237 44.6384L368.645 43.832ZM370.517 41.672L371.383 42.173L371.517 41.9406V41.672H370.517ZM370.517 29.432V28.432H369.517V29.432H370.517ZM373.577 29.432H374.577V28.432H373.577V29.432ZM373.577 46H370.697V48H373.577V46ZM371.697 47V44.48H369.697V47H371.697ZM369.868 43.9205C369.28 44.7926 368.653 45.4171 368 45.8323L369.074 47.5197C370.006 46.9269 370.819 46.0874 371.526 45.0395L369.868 43.9205ZM368 45.8323C367.359 46.2404 366.704 46.432 366.017 46.432V48.432C367.106 48.432 368.131 48.1196 369.074 47.5197L368 45.8323ZM366.017 46.432C364.811 46.432 363.956 46.0316 363.329 45.2798L361.793 46.5602C362.846 47.8244 364.295 48.432 366.017 48.432V46.432ZM363.346 45.2998C362.724 44.5131 362.337 43.2698 362.337 41.42H360.337C360.337 43.5062 360.767 45.2629 361.777 46.5402L363.346 45.2998ZM362.337 41.42V29.432H360.337V41.42H362.337ZM361.337 30.432H364.397V28.432H361.337V30.432ZM363.397 29.432V40.88H365.397V29.432H363.397ZM363.397 40.88C363.397 42.2127 363.591 43.3834 364.131 44.2271L365.815 43.1489C365.587 42.7926 365.397 42.0913 365.397 40.88H363.397ZM364.146 44.2503C364.731 45.1102 365.586 45.588 366.629 45.588V43.588C366.281 43.588 366.031 43.4658 365.8 43.1257L364.146 44.2503ZM366.629 45.588C367.547 45.588 368.42 45.2296 369.232 44.6419L368.059 43.0221C367.478 43.4424 367.007 43.588 366.629 43.588V45.588ZM369.237 44.6384C370.086 44.0153 370.798 43.1834 371.383 42.173L369.652 41.171C369.181 41.9846 368.644 42.5927 368.054 43.0256L369.237 44.6384ZM371.517 41.672V29.432H369.517V41.672H371.517ZM370.517 30.432H373.577V28.432H370.517V30.432ZM372.577 29.432V47H374.577V29.432H372.577ZM392.494 22.412H393.494V21.412H392.494V22.412ZM392.494 47V48H393.494V47H392.494ZM389.434 47H388.434V48H389.434V47ZM389.434 22.412V21.412H388.434V22.412H389.434ZM391.494 22.412V47H393.494V22.412H391.494ZM392.494 46H389.434V48H392.494V46ZM390.434 47V22.412H388.434V47H390.434ZM389.434 23.412H392.494V21.412H389.434V23.412Z" fill="#B0B0B0"/>
<path d="M53.0391 44.1758H60.5039V47H49.5234V29.9375H53.0391V44.1758ZM76.8563 47C76.7 46.6953 76.5867 46.3164 76.5164 45.8633C75.6961 46.7773 74.6297 47.2344 73.3172 47.2344C72.075 47.2344 71.0438 46.875 70.2234 46.1562C69.4109 45.4375 69.0047 44.5312 69.0047 43.4375C69.0047 42.0938 69.5008 41.0625 70.493 40.3438C71.493 39.625 72.9344 39.2617 74.8172 39.2539H76.3758V38.5273C76.3758 37.9414 76.2234 37.4727 75.9188 37.1211C75.6219 36.7695 75.1492 36.5938 74.5008 36.5938C73.9305 36.5938 73.4813 36.7305 73.1531 37.0039C72.8328 37.2773 72.6727 37.6523 72.6727 38.1289H69.2859C69.2859 37.3945 69.5125 36.7148 69.9656 36.0898C70.4188 35.4648 71.0594 34.9766 71.8875 34.625C72.7156 34.2656 73.6453 34.0859 74.6766 34.0859C76.2391 34.0859 77.4773 34.4805 78.3914 35.2695C79.3133 36.0508 79.7742 37.1523 79.7742 38.5742V44.0703C79.782 45.2734 79.95 46.1836 80.2781 46.8008V47H76.8563ZM74.0555 44.6445C74.5555 44.6445 75.0164 44.5352 75.4383 44.3164C75.8602 44.0898 76.1727 43.7891 76.3758 43.4141V41.2344H75.1102C73.4148 41.2344 72.5125 41.8203 72.4031 42.9922L72.3914 43.1914C72.3914 43.6133 72.5398 43.9609 72.8367 44.2344C73.1336 44.5078 73.5398 44.6445 74.0555 44.6445ZM100.603 42.3945L102.267 34.3203H105.537L102.302 47H99.4664L97.0641 39.0195L94.6617 47H91.8375L88.6031 34.3203H91.8727L93.525 42.3828L95.8453 34.3203H98.2945L100.603 42.3945ZM121.291 43.4961C121.291 43.082 121.084 42.7578 120.67 42.5234C120.264 42.2812 119.608 42.0664 118.702 41.8789C115.686 41.2461 114.178 39.9648 114.178 38.0352C114.178 36.9102 114.643 35.9727 115.573 35.2227C116.51 34.4648 117.733 34.0859 119.241 34.0859C120.85 34.0859 122.135 34.4648 123.096 35.2227C124.065 35.9805 124.549 36.9648 124.549 38.1758H121.162C121.162 37.6914 121.006 37.293 120.694 36.9805C120.381 36.6602 119.893 36.5 119.229 36.5C118.659 36.5 118.217 36.6289 117.905 36.8867C117.592 37.1445 117.436 37.4727 117.436 37.8711C117.436 38.2461 117.612 38.5508 117.963 38.7852C118.323 39.0117 118.924 39.2109 119.768 39.3828C120.612 39.5469 121.323 39.7344 121.901 39.9453C123.69 40.6016 124.584 41.7383 124.584 43.3555C124.584 44.5117 124.088 45.4492 123.096 46.168C122.104 46.8789 120.823 47.2344 119.252 47.2344C118.19 47.2344 117.245 47.0469 116.416 46.6719C115.596 46.2891 114.952 45.7695 114.483 45.1133C114.014 44.4492 113.78 43.7344 113.78 42.9688H116.991C117.022 43.5703 117.245 44.0312 117.659 44.3516C118.073 44.6719 118.627 44.832 119.323 44.832C119.971 44.832 120.459 44.7109 120.787 44.4688C121.123 44.2188 121.291 43.8945 121.291 43.4961ZM141.323 47C141.167 46.6953 141.054 46.3164 140.984 45.8633C140.163 46.7773 139.097 47.2344 137.784 47.2344C136.542 47.2344 135.511 46.875 134.691 46.1562C133.878 45.4375 133.472 44.5312 133.472 43.4375C133.472 42.0938 133.968 41.0625 134.96 40.3438C135.96 39.625 137.402 39.2617 139.284 39.2539H140.843V38.5273C140.843 37.9414 140.691 37.4727 140.386 37.1211C140.089 36.7695 139.616 36.5938 138.968 36.5938C138.398 36.5938 137.948 36.7305 137.62 37.0039C137.3 37.2773 137.14 37.6523 137.14 38.1289H133.753C133.753 37.3945 133.98 36.7148 134.433 36.0898C134.886 35.4648 135.527 34.9766 136.355 34.625C137.183 34.2656 138.113 34.0859 139.144 34.0859C140.706 34.0859 141.945 34.4805 142.859 35.2695C143.78 36.0508 144.241 37.1523 144.241 38.5742V44.0703C144.249 45.2734 144.417 46.1836 144.745 46.8008V47H141.323ZM138.523 44.6445C139.023 44.6445 139.484 44.5352 139.905 44.3164C140.327 44.0898 140.64 43.7891 140.843 43.4141V41.2344H139.577C137.882 41.2344 136.98 41.8203 136.87 42.9922L136.859 43.1914C136.859 43.6133 137.007 43.9609 137.304 44.2344C137.601 44.5078 138.007 44.6445 138.523 44.6445ZM157.16 34.3203L157.266 35.7852C158.172 34.6523 159.387 34.0859 160.91 34.0859C162.254 34.0859 163.254 34.4805 163.91 35.2695C164.566 36.0586 164.902 37.2383 164.918 38.8086V47H161.531V38.8906C161.531 38.1719 161.375 37.6523 161.062 37.332C160.75 37.0039 160.23 36.8398 159.504 36.8398C158.551 36.8398 157.836 37.2461 157.359 38.0586V47H153.973V34.3203H157.16ZM174.169 40.5664C174.169 38.5898 174.61 37.0156 175.493 35.8438C176.384 34.6719 177.598 34.0859 179.137 34.0859C180.372 34.0859 181.391 34.5469 182.196 35.4688V29H185.595V47H182.536L182.372 45.6523C181.528 46.707 180.442 47.2344 179.114 47.2344C177.622 47.2344 176.423 46.6484 175.516 45.4766C174.618 44.2969 174.169 42.6602 174.169 40.5664ZM177.555 40.8125C177.555 42 177.762 42.9102 178.177 43.543C178.591 44.1758 179.192 44.4922 179.981 44.4922C181.028 44.4922 181.766 44.0508 182.196 43.168V38.1641C181.774 37.2812 181.044 36.8398 180.005 36.8398C178.372 36.8398 177.555 38.1641 177.555 40.8125ZM215.721 37.4961C215.26 37.4336 214.854 37.4023 214.502 37.4023C213.221 37.4023 212.381 37.8359 211.983 38.7031V47H208.596V34.3203H211.795L211.889 35.832C212.569 34.668 213.51 34.0859 214.713 34.0859C215.088 34.0859 215.44 34.1367 215.768 34.2383L215.721 37.4961ZM230.163 47.2344C228.304 47.2344 226.788 46.6641 225.616 45.5234C224.452 44.3828 223.87 42.8633 223.87 40.9648V40.6367C223.87 39.3633 224.116 38.2266 224.609 37.2266C225.101 36.2188 225.796 35.4453 226.695 34.9062C227.601 34.3594 228.632 34.0859 229.788 34.0859C231.523 34.0859 232.886 34.6328 233.878 35.7266C234.878 36.8203 235.378 38.3711 235.378 40.3789V41.7617H227.304C227.413 42.5898 227.741 43.2539 228.288 43.7539C228.843 44.2539 229.542 44.5039 230.386 44.5039C231.691 44.5039 232.71 44.0312 233.445 43.0859L235.109 44.9492C234.601 45.668 233.913 46.2305 233.046 46.6367C232.179 47.0352 231.218 47.2344 230.163 47.2344ZM229.777 36.8281C229.105 36.8281 228.558 37.0547 228.136 37.5078C227.722 37.9609 227.456 38.6094 227.339 39.4531H232.05V39.1836C232.034 38.4336 231.831 37.8555 231.441 37.4492C231.05 37.0352 230.495 36.8281 229.777 36.8281ZM244.02 40.5664C244.02 38.6211 244.48 37.0547 245.402 35.8672C246.332 34.6797 247.582 34.0859 249.152 34.0859C250.543 34.0859 251.625 34.5625 252.398 35.5156L252.539 34.3203H255.609V46.5781C255.609 47.6875 255.355 48.6523 254.848 49.4727C254.348 50.293 253.641 50.918 252.727 51.3477C251.812 51.7773 250.742 51.9922 249.516 51.9922C248.586 51.9922 247.68 51.8047 246.797 51.4297C245.914 51.0625 245.246 50.5859 244.793 50L246.293 47.9375C247.137 48.8828 248.16 49.3555 249.363 49.3555C250.262 49.3555 250.961 49.1133 251.461 48.6289C251.961 48.1523 252.211 47.4727 252.211 46.5898V45.9102C251.43 46.793 250.402 47.2344 249.129 47.2344C247.605 47.2344 246.371 46.6406 245.426 45.4531C244.488 44.2578 244.02 42.6758 244.02 40.707V40.5664ZM247.406 40.8125C247.406 41.9609 247.637 42.8633 248.098 43.5195C248.559 44.168 249.191 44.4922 249.996 44.4922C251.027 44.4922 251.766 44.1055 252.211 43.332V38C251.758 37.2266 251.027 36.8398 250.02 36.8398C249.207 36.8398 248.566 37.1719 248.098 37.8359C247.637 38.5 247.406 39.4922 247.406 40.8125ZM273.016 45.7109C272.18 46.7266 271.024 47.2344 269.548 47.2344C268.188 47.2344 267.149 46.8438 266.43 46.0625C265.72 45.2812 265.356 44.1367 265.341 42.6289V34.3203H268.727V42.5117C268.727 43.832 269.329 44.4922 270.532 44.4922C271.68 44.4922 272.47 44.0938 272.899 43.2969V34.3203H276.298V47H273.11L273.016 45.7109ZM289.627 47H286.228V29H289.627V47ZM306.975 47C306.819 46.6953 306.705 46.3164 306.635 45.8633C305.815 46.7773 304.748 47.2344 303.436 47.2344C302.194 47.2344 301.162 46.875 300.342 46.1562C299.53 45.4375 299.123 44.5312 299.123 43.4375C299.123 42.0938 299.62 41.0625 300.612 40.3438C301.612 39.625 303.053 39.2617 304.936 39.2539H306.495V38.5273C306.495 37.9414 306.342 37.4727 306.037 37.1211C305.741 36.7695 305.268 36.5938 304.62 36.5938C304.049 36.5938 303.6 36.7305 303.272 37.0039C302.952 37.2773 302.791 37.6523 302.791 38.1289H299.405C299.405 37.3945 299.631 36.7148 300.084 36.0898C300.537 35.4648 301.178 34.9766 302.006 34.625C302.834 34.2656 303.764 34.0859 304.795 34.0859C306.358 34.0859 307.596 34.4805 308.51 35.2695C309.432 36.0508 309.893 37.1523 309.893 38.5742V44.0703C309.901 45.2734 310.069 46.1836 310.397 46.8008V47H306.975ZM304.174 44.6445C304.674 44.6445 305.135 44.5352 305.557 44.3164C305.979 44.0898 306.291 43.7891 306.495 43.4141V41.2344H305.229C303.534 41.2344 302.631 41.8203 302.522 42.9922L302.51 43.1914C302.51 43.6133 302.659 43.9609 302.955 44.2344C303.252 44.5078 303.659 44.6445 304.174 44.6445ZM323.749 31.2031V34.3203H325.917V36.8047H323.749V43.1328C323.749 43.6016 323.839 43.9375 324.019 44.1406C324.198 44.3438 324.542 44.4453 325.05 44.4453C325.425 44.4453 325.757 44.418 326.046 44.3633V46.9297C325.382 47.1328 324.698 47.2344 323.995 47.2344C321.62 47.2344 320.409 46.0352 320.362 43.6367V36.8047H318.511V34.3203H320.362V31.2031H323.749ZM338.578 47H335.18V34.3203H338.578V47ZM334.98 31.0391C334.98 30.5312 335.148 30.1133 335.484 29.7852C335.828 29.457 336.293 29.293 336.879 29.293C337.457 29.293 337.918 29.457 338.262 29.7852C338.605 30.1133 338.777 30.5312 338.777 31.0391C338.777 31.5547 338.602 31.9766 338.25 32.3047C337.906 32.6328 337.449 32.7969 336.879 32.7969C336.309 32.7969 335.848 32.6328 335.496 32.3047C335.152 31.9766 334.98 31.5547 334.98 31.0391ZM348.052 40.543C348.052 39.2852 348.294 38.1641 348.778 37.1797C349.263 36.1953 349.958 35.4336 350.864 34.8945C351.778 34.3555 352.837 34.0859 354.04 34.0859C355.751 34.0859 357.145 34.6094 358.223 35.6562C359.309 36.7031 359.915 38.125 360.04 39.9219L360.063 40.7891C360.063 42.7344 359.52 44.2969 358.434 45.4766C357.348 46.6484 355.891 47.2344 354.063 47.2344C352.235 47.2344 350.774 46.6484 349.68 45.4766C348.595 44.3047 348.052 42.7109 348.052 40.6953V40.543ZM351.438 40.7891C351.438 41.9922 351.665 42.9141 352.118 43.5547C352.571 44.1875 353.22 44.5039 354.063 44.5039C354.884 44.5039 355.524 44.1914 355.985 43.5664C356.446 42.9336 356.677 41.9258 356.677 40.543C356.677 39.3633 356.446 38.4492 355.985 37.8008C355.524 37.1523 354.876 36.8281 354.04 36.8281C353.212 36.8281 352.571 37.1523 352.118 37.8008C351.665 38.4414 351.438 39.4375 351.438 40.7891ZM372.466 34.3203L372.572 35.7852C373.478 34.6523 374.693 34.0859 376.216 34.0859C377.56 34.0859 378.56 34.4805 379.216 35.2695C379.873 36.0586 380.209 37.2383 380.224 38.8086V47H376.837V38.8906C376.837 38.1719 376.681 37.6523 376.369 37.332C376.056 37.0039 375.537 36.8398 374.81 36.8398C373.857 36.8398 373.142 37.2461 372.666 38.0586V47H369.279V34.3203H372.466ZM396.87 43.4961C396.87 43.082 396.663 42.7578 396.248 42.5234C395.842 42.2812 395.186 42.0664 394.28 41.8789C391.264 41.2461 389.756 39.9648 389.756 38.0352C389.756 36.9102 390.221 35.9727 391.151 35.2227C392.088 34.4648 393.311 34.0859 394.819 34.0859C396.428 34.0859 397.713 34.4648 398.674 35.2227C399.643 35.9805 400.127 36.9648 400.127 38.1758H396.741C396.741 37.6914 396.584 37.293 396.272 36.9805C395.959 36.6602 395.471 36.5 394.807 36.5C394.237 36.5 393.795 36.6289 393.483 36.8867C393.17 37.1445 393.014 37.4727 393.014 37.8711C393.014 38.2461 393.19 38.5508 393.541 38.7852C393.901 39.0117 394.502 39.2109 395.346 39.3828C396.19 39.5469 396.901 39.7344 397.479 39.9453C399.268 40.6016 400.163 41.7383 400.163 43.3555C400.163 44.5117 399.666 45.4492 398.674 46.168C397.682 46.8789 396.401 47.2344 394.83 47.2344C393.768 47.2344 392.823 47.0469 391.995 46.6719C391.174 46.2891 390.53 45.7695 390.061 45.1133C389.592 44.4492 389.358 43.7344 389.358 42.9688H392.569C392.6 43.5703 392.823 44.0312 393.237 44.3516C393.651 44.6719 394.205 44.832 394.901 44.832C395.549 44.832 396.038 44.7109 396.366 44.4688C396.702 44.2188 396.87 43.8945 396.87 43.4961Z" fill="white"/>
<path d="M56.625 128.45C55.55 127.6 53.45 126.525 51.85 125.9L50.2 128.125C51.85 128.8 53.9 130 54.875 130.875L56.625 128.45ZM55.15 134.975C54.075 134.15 51.925 133.2 50.325 132.65L48.8 134.9C50.425 135.525 52.5 136.625 53.5 137.475L55.15 134.975ZM53.9 139.075C52.5 141.95 50.725 145.05 49.475 146.925L52.05 148.825C53.45 146.425 54.9 143.575 56.125 140.975L53.9 139.075ZM72.475 147.65C71.7 145.55 69.7 142.575 67.85 140.375L65.3 141.725C65.975 142.6 66.675 143.575 67.3 144.575C65.1 144.7 62.875 144.825 60.875 144.925C61.775 143.05 62.775 140.75 63.575 138.65L63.475 138.625H71.875V135.775H65.275V132.25H70.7V129.4H65.275V125.85H62.175V129.4H57V132.25H62.175V135.775H55.75V138.625H60.025C59.425 140.725 58.55 143.2 57.65 145.1L55.775 145.175L56.175 148.175C59.55 147.925 64.275 147.6 68.8 147.2C69.175 147.9 69.45 148.6 69.65 149.175L72.475 147.65ZM101.75 138.025H83.7V140.7H89.55V149.175H92.7V140.7H98.7V144.35C98.7 144.65 98.575 144.725 98.15 144.725C97.775 144.725 96.225 144.75 95 144.7C95.425 145.475 95.9 146.7 96.05 147.575C97.925 147.575 99.325 147.525 100.4 147.1C101.45 146.625 101.75 145.8 101.75 144.425V138.025ZM88.775 133.175C90.45 131.7 91.875 130.175 92.9 128.75C93.95 130.15 95.475 131.7 97.175 133.175H88.775ZM91.25 125.825C89.375 128.85 85.325 132.725 81.1 134.925C81.8 135.55 82.625 136.65 83.025 137.325C84.7 136.35 86.325 135.225 87.8 134V135.85H98.2V134.025C99.75 135.275 101.4 136.4 102.975 137.3C103.55 136.4 104.225 135.425 104.975 134.65C101.075 132.925 96.975 129.575 94.275 125.825H91.25ZM124.3 143.25C123.75 142.55 121.35 139.8 120.3 138.725L120.35 138.125H123.975V135.425H120.45V135.05V132.275H123.575V129.65H120.45V126.075H117.675V129.65H114.425V132.275H117.675V135.05V135.425H114.05V138.125H117.575C117.325 141.275 116.45 144.7 113.7 146.725C114.375 147.225 115.3 148.225 115.725 148.85C117.975 147.025 119.175 144.5 119.8 141.825C120.75 143.075 121.75 144.475 122.3 145.425L124.3 143.25ZM127.475 136.95H132.95V138.425H127.475V136.95ZM127.475 133.15H132.95V134.625H127.475V133.15ZM127.475 129.325H132.95V130.8H127.475V129.325ZM133.575 146.1C133.2 146.1 133.15 146.025 133.15 145.35V141.05H135.825V126.7H124.725V141.05H126.325C126 143.7 125.225 145.75 121.575 146.975C122.125 147.475 122.875 148.5 123.175 149.2C127.575 147.525 128.7 144.725 129.125 141.05H130.4V145.4C130.4 147.85 130.875 148.675 133.075 148.675H134.725C136.5 148.675 137.175 147.775 137.425 144.225C136.675 144.025 135.525 143.575 134.975 143.15C134.925 145.775 134.825 146.1 134.425 146.1H133.575ZM161.3 129.8C161.075 130.4 160.775 131.075 160.525 131.65H155.55C155.4 131.1 155.1 130.4 154.725 129.8H161.3ZM169.225 131.65H163.65C163.95 131.125 164.275 130.5 164.625 129.825L164.475 129.8H167.775V127.475H159.5V125.825H156.375V127.475H148.325V129.8H152.2L151.625 129.9C151.9 130.425 152.175 131.075 152.375 131.65H146.775V133.975H169.225V131.65ZM152.225 140H163.65V141.15H152.225V140ZM152.225 136.95H163.65V138.15H152.225V136.95ZM169.35 144.25H159.5V143.15H166.675V135H149.35V143.15H156.375V144.25H146.675V146.6H156.375V149.15H159.5V146.6H169.35V144.25Z" fill="#4B4B4B"/>
<rect x="51" y="109" width="41" height="2" transform="rotate(-90 51 109)" fill="#757167"/>
</svg>
