<svg width="28" height="28" viewBox="0 0 28 28" fill="none" xmlns="http://www.w3.org/2000/svg">
<path d="M9.64798 17.126C9.50485 17.1051 9.35944 17.1051 9.21631 17.126V18.491C9.33247 18.5063 9.45014 18.5063 9.56631 18.491C10.1263 18.491 10.4646 18.211 10.4646 17.7327C10.4646 17.2544 10.173 17.126 9.64798 17.126Z" fill="#882828"/>
<path d="M13.7084 17.1382C13.5535 17.118 13.3966 17.118 13.2417 17.1382V20.1832C13.3619 20.1964 13.4832 20.1964 13.6034 20.1832C13.809 20.2001 14.0158 20.1728 14.21 20.1032C14.4042 20.0336 14.5812 19.9233 14.7293 19.7797C14.8774 19.6361 14.993 19.4624 15.0684 19.2704C15.1439 19.0784 15.1774 18.8725 15.1667 18.6665C15.196 18.4651 15.1791 18.2596 15.1172 18.0657C15.0553 17.8718 14.9502 17.6945 14.8097 17.5472C14.6691 17.4 14.497 17.2866 14.3062 17.2158C14.1154 17.1449 13.9109 17.1183 13.7084 17.1382Z" fill="#882828"/>
<path d="M16.3332 2.33301H6.99984C6.381 2.33301 5.78751 2.57884 5.34992 3.01643C4.91234 3.45401 4.6665 4.0475 4.6665 4.66634V23.333C4.6665 23.9518 4.91234 24.5453 5.34992 24.9829C5.78751 25.4205 6.381 25.6663 6.99984 25.6663H20.9998C21.6187 25.6663 22.2122 25.4205 22.6497 24.9829C23.0873 24.5453 23.3332 23.9518 23.3332 23.333V9.33301L16.3332 2.33301ZM15.1665 4.66634L20.9998 10.4997H15.1665V4.66634Z" fill="#882828"/>
<path d="M7.44326 19.0513C7.40168 18.7975 7.41579 18.5378 7.48459 18.29C7.5534 18.0422 7.67527 17.8124 7.84174 17.6164C8.00822 17.4205 8.21532 17.2631 8.44869 17.1551C8.68206 17.0471 8.93612 16.9912 9.19325 16.9912C9.45039 16.9912 9.70445 17.0471 9.93782 17.1551C10.1712 17.2631 10.3783 17.4205 10.5448 17.6164C10.7112 17.8124 10.8331 18.0422 10.9019 18.29C10.9707 18.5378 10.9848 18.7975 10.9433 19.0513C10.9783 19.3044 10.9586 19.5621 10.8855 19.807C10.8124 20.0518 10.6876 20.2782 10.5195 20.4706C10.3513 20.6631 10.1438 20.8172 9.91102 20.9225C9.6782 21.0279 9.42547 21.082 9.16992 21.0813C8.16659 21.0813 7.44326 20.3229 7.44326 19.0513ZM10.0333 19.0513C10.0333 18.3163 9.71825 17.8846 9.20492 17.8846C8.69159 17.8846 8.38825 18.3279 8.38825 19.0513C8.38825 19.7746 8.70325 20.2763 9.20492 20.2763C9.70659 20.2763 10.0333 19.8329 10.0333 19.0513Z" fill="white"/>
<path d="M12.5767 17.1492H13.7433C14.0043 17.1119 14.2704 17.1349 14.5211 17.2164C14.7718 17.2979 15.0006 17.4357 15.1898 17.6193C15.379 17.8028 15.5236 18.0273 15.6127 18.2755C15.7017 18.5236 15.7327 18.7888 15.7033 19.0508C15.7357 19.3155 15.7072 19.584 15.62 19.836C15.5328 20.0879 15.3891 20.3166 15.2 20.5046C15.0109 20.6925 14.7814 20.8348 14.5289 20.9205C14.2765 21.0062 14.0078 21.0331 13.7433 20.9992H12.5767V17.1492ZM13.6383 20.2525C14.2567 20.2525 14.7 19.9725 14.7 19.0858C14.7 18.1992 14.2567 17.9192 13.6383 17.9192H13.51V20.2525H13.6383Z" fill="white"/>
<path d="M17.2549 17.1494H19.7165V17.9194H18.1765V18.7594H19.4949V19.5294H18.1765V20.9994H17.2549V17.1494Z" fill="white"/>
</svg>
