<svg width="117" height="117" viewBox="0 0 117 117" fill="none" xmlns="http://www.w3.org/2000/svg">
<path d="M38.1265 16.0996C37.4024 16.0996 36.7081 16.3872 36.1961 16.8992C35.6841 17.4112 35.3965 18.1056 35.3965 18.8296V99.5596C35.3965 100.284 35.6841 100.978 36.1961 101.49C36.7081 102.002 37.4024 102.29 38.1265 102.29H94.6765C95.4005 102.29 96.0949 102.002 96.6069 101.49C97.1189 100.978 97.4065 100.284 97.4065 99.5596V38.3296L77.3566 16.0996H38.1265Z" fill="white"/>
<path d="M80.0396 38.2983L97.3517 38.3763L77.4032 16.0566L77.3174 35.5566C77.3159 35.9155 77.3851 36.2711 77.5211 36.6032C77.6571 36.9352 77.8573 37.2372 78.1101 37.4919C78.3629 37.7465 78.6635 37.9488 78.9946 38.0872C79.3257 38.2256 79.6808 38.2973 80.0396 38.2983Z" fill="#AD9D72"/>
<path d="M66.3977 87.2504C77.598 87.2504 86.6777 78.1708 86.6777 66.9704C86.6777 55.7701 77.598 46.6904 66.3977 46.6904C55.1973 46.6904 46.1177 55.7701 46.1177 66.9704C46.1177 78.1708 55.1973 87.2504 66.3977 87.2504Z" fill="#AD9D72"/>
</svg>
