<svg width="335" height="602" viewBox="0 0 335 602" fill="none" xmlns="http://www.w3.org/2000/svg">
<path d="M108.649 129H335L226.351 250H0L108.649 129Z" fill="#C4C4C4" fill-opacity="0.7"/>
<path d="M108.649 226H335L226.351 347H0L108.649 226Z" fill="#C4C4C4" fill-opacity="0.7"/>
<path d="M108.649 323H335L226.351 444H0L108.649 323Z" fill="#C4C4C4" fill-opacity="0.7"/>
<path d="M108.649 420H335L226.351 541H0L108.649 420Z" fill="#C4C4C4" fill-opacity="0.7"/>
<path d="M227 585H107V601.248H227V585Z" fill="#A7A5A1"/>
<path d="M189.078 0H144.921V49.6632H117.323L167 95.9265L216.677 49.6632H189.078V0Z" fill="#A7A5A1"/>
<path d="M186.336 158.224L185.651 157.496L185.645 157.501L185.64 157.506L186.336 158.224ZM151.392 158.224L152.094 157.512L152.094 157.511L151.392 158.224ZM147.616 134.8V133.8H146.678L146.618 134.736L147.616 134.8ZM190.432 134.8L191.431 134.756L191.389 133.8H190.432V134.8ZM185.952 140.24L186.951 140.208L186.92 139.24H185.952V140.24ZM152.288 140.24V139.24H151.385L151.293 140.139L152.288 140.24ZM154.72 154L154.005 154.699L154.005 154.699L154.72 154ZM183.072 154.128L182.389 153.398L182.381 153.405L183.072 154.128ZM189.688 146.512C189.688 151.394 188.299 155.003 185.651 157.496L187.021 158.952C190.175 155.984 191.688 151.785 191.688 146.512H189.688ZM185.64 157.506C183.027 160.041 179.174 161.384 173.92 161.384V163.384C179.503 163.384 183.928 161.953 187.032 158.942L185.64 157.506ZM173.92 161.384H163.424V163.384H173.92V161.384ZM163.424 161.384C158.395 161.384 154.669 160.048 152.094 157.512L150.69 158.936C153.747 161.947 158.042 163.384 163.424 163.384V161.384ZM152.094 157.511C149.572 155.028 148.232 151.314 148.232 146.192H146.232C146.232 151.652 147.666 155.958 150.69 158.937L152.094 157.511ZM148.232 146.192C148.232 142.589 148.359 138.813 148.614 134.864L146.618 134.736C146.361 138.723 146.232 142.542 146.232 146.192H148.232ZM147.616 135.8H190.432V133.8H147.616V135.8ZM189.433 134.844C189.603 138.669 189.688 142.558 189.688 146.512H191.688C191.688 142.53 191.602 138.611 191.431 134.756L189.433 134.844ZM187.08 146.192C187.08 144.853 187.037 142.855 186.951 140.208L184.953 140.272C185.038 142.915 185.08 144.886 185.08 146.192H187.08ZM185.952 139.24H152.288V141.24H185.952V139.24ZM151.293 140.139C151.036 142.669 150.904 144.692 150.904 146.192H152.904C152.904 144.791 153.028 142.846 153.283 140.341L151.293 140.139ZM150.904 146.192C150.904 149.677 151.906 152.552 154.005 154.699L155.435 153.301C153.78 151.608 152.904 149.278 152.904 146.192H150.904ZM154.005 154.699C156.166 156.908 159.209 157.944 162.976 157.944V155.944C159.575 155.944 157.114 155.017 155.435 153.301L154.005 154.699ZM162.976 157.944H174.304V155.944H162.976V157.944ZM174.304 157.944C178.334 157.944 181.547 156.97 183.763 154.851L182.381 153.405C180.671 155.041 178.04 155.944 174.304 155.944V157.944ZM183.755 154.858C186.01 152.748 187.08 149.81 187.08 146.192H185.08C185.08 149.4 184.145 151.754 182.389 153.398L183.755 154.858ZM176.928 209.314L176.261 208.57L176.253 208.577L176.245 208.584L176.928 209.314ZM150.24 209.314L150.916 208.577L150.915 208.577L150.24 209.314ZM150.24 192.354L149.573 191.61L149.565 191.617L149.557 191.624L150.24 192.354ZM176.928 192.354L177.604 191.617L177.603 191.617L176.928 192.354ZM173.728 196.578L173.064 197.326L173.728 196.578ZM153.504 196.578L154.168 197.326L153.504 196.578ZM153.504 205.155L154.168 204.407L153.504 205.155ZM173.728 205.155L173.064 204.407L173.057 204.413L173.05 204.42L173.728 205.155ZM179 200.867C179 204.492 178.026 206.989 176.261 208.57L177.595 210.059C179.926 207.971 181 204.836 181 200.867H179ZM176.245 208.584C174.482 210.235 171.901 211.131 168.352 211.131V213.131C172.227 213.131 175.364 212.149 177.611 210.045L176.245 208.584ZM168.352 211.131H158.88V213.131H168.352V211.131ZM158.88 211.131C155.333 211.131 152.725 210.235 150.916 208.577L149.564 210.052C151.851 212.148 155.003 213.131 158.88 213.131V211.131ZM150.915 208.577C149.188 206.997 148.232 204.498 148.232 200.867H146.232C146.232 204.83 147.281 207.963 149.565 210.052L150.915 208.577ZM148.232 200.867C148.232 197.237 149.188 194.709 150.923 193.085L149.557 191.624C147.282 193.754 146.232 196.902 146.232 200.867H148.232ZM150.907 193.099C152.716 191.479 155.327 190.603 158.88 190.603V188.603C155.009 188.603 151.86 189.561 149.573 191.61L150.907 193.099ZM158.88 190.603H168.352V188.603H158.88V190.603ZM168.352 190.603C171.907 190.603 174.49 191.48 176.253 193.092L177.603 191.617C175.355 189.56 172.222 188.603 168.352 188.603V190.603ZM176.252 193.092C178.026 194.718 179 197.243 179 200.867H181C181 196.896 179.926 193.746 177.604 191.617L176.252 193.092ZM176.456 200.867C176.456 198.806 175.799 197.081 174.392 195.831L173.064 197.326C173.961 198.124 174.456 199.258 174.456 200.867H176.456ZM174.392 195.831C172.997 194.591 171.084 194.043 168.8 194.043V196.043C170.783 196.043 172.155 196.518 173.064 197.326L174.392 195.831ZM168.8 194.043H158.432V196.043H168.8V194.043ZM158.432 194.043C156.148 194.043 154.235 194.591 152.84 195.831L154.168 197.326C155.077 196.518 156.449 196.043 158.432 196.043V194.043ZM152.84 195.831C151.433 197.081 150.776 198.806 150.776 200.867H152.776C152.776 199.258 153.271 198.124 154.168 197.326L152.84 195.831ZM150.776 200.867C150.776 202.927 151.433 204.652 152.84 205.902L154.168 204.407C153.271 203.609 152.776 202.475 152.776 200.867H150.776ZM152.84 205.902C154.235 207.142 156.148 207.691 158.432 207.691V205.691C156.449 205.691 155.077 205.215 154.168 204.407L152.84 205.902ZM158.432 207.691H168.864V205.691H158.432V207.691ZM168.864 207.691C171.145 207.691 173.048 207.143 174.406 205.889L173.05 204.42C172.189 205.214 170.85 205.691 168.864 205.691V207.691ZM174.392 205.902C175.799 204.652 176.456 202.927 176.456 200.867H174.456C174.456 202.475 173.961 203.609 173.064 204.407L174.392 205.902ZM179.232 277.262L179.006 278.236L180.232 278.52V277.262H179.232ZM148 270.03H147V270.825L147.774 271.004L148 270.03ZM148 263.182L147.767 262.209L147 262.393V263.182H148ZM174.496 256.846L174.729 257.819L174.731 255.874L174.496 256.846ZM148 250.446H147V251.233L147.765 251.418L148 250.446ZM148 243.598L147.776 242.623L147 242.802V243.598H148ZM179.232 236.43H180.232V235.174L179.008 235.455L179.232 236.43ZM179.232 242.19L179.42 243.172L180.232 243.017V242.19H179.232ZM152.8 247.246L152.612 246.264L152.576 248.221L152.8 247.246ZM179.232 253.326H180.232V252.53L179.456 252.351L179.232 253.326ZM179.232 260.366L179.454 261.341L180.232 261.164V260.366H179.232ZM152.8 266.382L152.578 265.407L152.61 267.364L152.8 266.382ZM179.232 271.502H180.232V270.677L179.422 270.52L179.232 271.502ZM179.458 276.288L148.226 269.056L147.774 271.004L179.006 278.236L179.458 276.288ZM149 270.03V263.182H147V270.03H149ZM148.233 264.155L174.729 257.819L174.263 255.873L147.767 262.209L148.233 264.155ZM174.731 255.874L148.235 249.474L147.765 251.418L174.261 257.818L174.731 255.874ZM149 250.446V243.598H147V250.446H149ZM148.224 244.573L179.456 237.405L179.008 235.455L147.776 242.623L148.224 244.573ZM178.232 236.43V242.19H180.232V236.43H178.232ZM179.044 241.208L152.612 246.264L152.988 248.228L179.42 243.172L179.044 241.208ZM152.576 248.221L179.008 254.301L179.456 252.351L153.024 246.271L152.576 248.221ZM178.232 253.326V260.366H180.232V253.326H178.232ZM179.01 259.391L152.578 265.407L153.022 267.357L179.454 261.341L179.01 259.391ZM152.61 267.364L179.042 272.484L179.422 270.52L152.99 265.4L152.61 267.364ZM178.232 271.502V277.262H180.232V271.502H178.232ZM177.184 322.109L176.573 321.318L176.563 321.325L176.553 321.333L177.184 322.109ZM148 324.349H147V325.349H148V324.349ZM148 318.909V317.909H147V318.909H148ZM173.536 310.973L172.73 311.564L173.536 310.973ZM169.696 307.645L170.197 306.78L169.965 306.645H169.696V307.645ZM148 307.645H147V308.645H148V307.645ZM148 302.205V301.205H147V302.205H148ZM179.232 302.205H180.232V301.205H179.232V302.205ZM179.232 307.325V308.325H180.232V307.325H179.232ZM174.56 307.325V306.325H171.223L174.01 308.16L174.56 307.325ZM178.592 311.165L179.432 310.622L179.424 310.61L178.592 311.165ZM179 315.837C179 318.311 178.166 320.087 176.573 321.318L177.795 322.9C179.957 321.23 181 318.824 181 315.837H179ZM176.553 321.333C174.961 322.629 172.595 323.349 169.312 323.349V325.349C172.856 325.349 175.738 324.575 177.815 322.885L176.553 321.333ZM169.312 323.349H148V325.349H169.312V323.349ZM149 324.349V318.909H147V324.349H149ZM148 319.909H168.544V317.909H148V319.909ZM168.544 319.909C170.754 319.909 172.584 319.556 173.889 318.707C175.269 317.811 175.944 316.438 175.944 314.749H173.944C173.944 315.833 173.553 316.541 172.799 317.031C171.971 317.569 170.601 317.909 168.544 317.909V319.909ZM175.944 314.749C175.944 313.246 175.371 311.784 174.342 310.382L172.73 311.564C173.578 312.722 173.944 313.778 173.944 314.749H175.944ZM174.342 310.382C173.309 308.972 171.917 307.775 170.197 306.78L169.195 308.51C170.718 309.392 171.886 310.414 172.73 311.564L174.342 310.382ZM169.696 306.645H148V308.645H169.696V306.645ZM149 307.645V302.205H147V307.645H149ZM148 303.205H179.232V301.205H148V303.205ZM178.232 302.205V307.325H180.232V302.205H178.232ZM179.232 306.325H174.56V308.325H179.232V306.325ZM174.01 308.16C175.673 309.256 176.911 310.446 177.76 311.72L179.424 310.61C178.396 309.068 176.945 307.699 175.11 306.49L174.01 308.16ZM177.752 311.708C178.591 313.004 179 314.373 179 315.837H181C181 313.973 180.471 312.228 179.432 310.622L177.752 311.708ZM191.712 357.97V358.97H192.712V357.97H191.712ZM148 357.97H147V358.97H148V357.97ZM148 352.53V351.53H147V352.53H148ZM191.712 352.53H192.712V351.53H191.712V352.53ZM191.712 356.97H148V358.97H191.712V356.97ZM149 357.97V352.53H147V357.97H149ZM148 353.53H191.712V351.53H148V353.53ZM190.712 352.53V357.97H192.712V352.53H190.712ZM176.928 405.177L176.261 404.432L176.253 404.439L176.245 404.447L176.928 405.177ZM150.24 405.177L150.916 404.44L150.915 404.439L150.24 405.177ZM150.24 388.217L149.573 387.472L149.565 387.479L149.557 387.487L150.24 388.217ZM176.928 388.217L177.604 387.48L177.603 387.479L176.928 388.217ZM173.728 392.441L173.064 393.188L173.728 392.441ZM153.504 392.441L154.168 393.188L153.504 392.441ZM153.504 401.017L154.168 400.27L153.504 401.017ZM173.728 401.017L173.064 400.27L173.057 400.276L173.05 400.282L173.728 401.017ZM179 396.729C179 400.354 178.026 402.851 176.261 404.432L177.595 405.922C179.926 403.834 181 400.698 181 396.729H179ZM176.245 404.447C174.482 406.097 171.901 406.993 168.352 406.993V408.993C172.227 408.993 175.364 408.011 177.611 405.907L176.245 404.447ZM168.352 406.993H158.88V408.993H168.352V406.993ZM158.88 406.993C155.333 406.993 152.725 406.098 150.916 404.44L149.564 405.914C151.851 408.011 155.003 408.993 158.88 408.993V406.993ZM150.915 404.439C149.188 402.86 148.232 400.361 148.232 396.729H146.232C146.232 400.692 147.281 403.825 149.565 405.915L150.915 404.439ZM148.232 396.729C148.232 393.099 149.188 390.572 150.923 388.947L149.557 387.487C147.282 389.617 146.232 392.764 146.232 396.729H148.232ZM150.907 388.962C152.716 387.342 155.327 386.465 158.88 386.465V384.465C155.009 384.465 151.86 385.423 149.573 387.472L150.907 388.962ZM158.88 386.465H168.352V384.465H158.88V386.465ZM168.352 386.465C171.907 386.465 174.49 387.342 176.253 388.955L177.603 387.479C175.355 385.422 172.222 384.465 168.352 384.465V386.465ZM176.252 388.954C178.026 390.58 179 393.105 179 396.729H181C181 392.758 179.926 389.608 177.604 387.48L176.252 388.954ZM176.456 396.729C176.456 394.668 175.799 392.944 174.392 391.694L173.064 393.188C173.961 393.986 174.456 395.121 174.456 396.729H176.456ZM174.392 391.694C172.997 390.454 171.084 389.905 168.8 389.905V391.905C170.783 391.905 172.155 392.38 173.064 393.188L174.392 391.694ZM168.8 389.905H158.432V391.905H168.8V389.905ZM158.432 389.905C156.148 389.905 154.235 390.454 152.84 391.694L154.168 393.188C155.077 392.38 156.449 391.905 158.432 391.905V389.905ZM152.84 391.694C151.433 392.944 150.776 394.668 150.776 396.729H152.776C152.776 395.121 153.271 393.986 154.168 393.188L152.84 391.694ZM150.776 396.729C150.776 398.79 151.433 400.514 152.84 401.764L154.168 400.27C153.271 399.472 152.776 398.337 152.776 396.729H150.776ZM152.84 401.764C154.235 403.004 156.148 403.553 158.432 403.553V401.553C156.449 401.553 155.077 401.078 154.168 400.27L152.84 401.764ZM158.432 403.553H168.864V401.553H158.432V403.553ZM168.864 403.553C171.145 403.553 173.048 403.006 174.406 401.752L173.05 400.282C172.189 401.076 170.85 401.553 168.864 401.553V403.553ZM174.392 401.764C175.799 400.514 176.456 398.79 176.456 396.729H174.456C174.456 398.337 173.961 399.472 173.064 400.27L174.392 401.764ZM177.504 452.841L176.797 452.134L176.788 452.143L176.779 452.152L177.504 452.841ZM148 455.401H147V456.401H148V455.401ZM148 450.217V449.217H147V450.217H148ZM152.992 450.217V451.217H156.39L153.534 449.376L152.992 450.217ZM149.792 435.881L149.144 435.119L149.139 435.124L149.133 435.128L149.792 435.881ZM164.896 436.329L164.171 437.018L164.18 437.027L164.896 436.329ZM166.624 449.961L165.643 449.765L165.404 450.961H166.624V449.961ZM174.112 448.681L173.405 447.974L173.396 447.983L173.387 447.992L174.112 448.681ZM174.368 436.201V435.201H173.181L173.383 436.371L174.368 436.201ZM179.04 436.201L180.028 436.043L179.893 435.201H179.04V436.201ZM153.44 440.297L152.811 439.52L153.44 440.297ZM153.568 446.569L152.795 447.204L152.798 447.207L153.568 446.569ZM157.856 449.961L157.369 450.834L157.596 450.961H157.856V449.961ZM162.784 449.961V450.961H163.617L163.767 450.142L162.784 449.961ZM179 444.841C179 448.389 178.191 450.739 176.797 452.134L178.211 453.548C180.145 451.615 181 448.631 181 444.841H179ZM176.779 452.152C175.426 453.577 173.148 454.401 169.696 454.401V456.401C173.412 456.401 176.34 455.519 178.229 453.53L176.779 452.152ZM169.696 454.401H148V456.401H169.696V454.401ZM149 455.401V450.217H147V455.401H149ZM148 451.217H152.992V449.217H148V451.217ZM153.534 449.376C149.836 446.993 148.232 444.467 148.232 441.833H146.232C146.232 445.429 148.468 448.491 152.45 451.058L153.534 449.376ZM148.232 441.833C148.232 439.617 148.982 437.918 150.451 436.634L149.133 435.128C147.188 436.83 146.232 439.1 146.232 441.833H148.232ZM150.44 436.643C151.915 435.389 153.986 434.705 156.768 434.705V432.705C153.662 432.705 151.082 433.472 149.144 435.119L150.44 436.643ZM156.768 434.705H158.56V432.705H156.768V434.705ZM158.56 434.705C160.865 434.705 162.709 435.48 164.171 437.018L165.621 435.64C163.755 433.679 161.375 432.705 158.56 432.705V434.705ZM164.18 437.027C165.668 438.553 166.456 440.629 166.456 443.369H168.456C168.456 440.221 167.537 437.604 165.612 435.631L164.18 437.027ZM166.456 443.369C166.456 444.893 166.193 447.016 165.643 449.765L167.605 450.157C168.164 447.359 168.456 445.087 168.456 443.369H166.456ZM166.624 450.961H170.144V448.961H166.624V450.961ZM170.144 450.961C172.103 450.961 173.754 450.509 174.837 449.37L173.387 447.992C172.848 448.559 171.855 448.961 170.144 448.961V450.961ZM174.819 449.388C175.896 448.311 176.328 446.719 176.328 444.841H174.328C174.328 446.462 173.949 447.429 173.405 447.974L174.819 449.388ZM176.328 444.841C176.328 442.707 175.997 439.761 175.353 436.031L173.383 436.371C174.019 440.065 174.328 442.879 174.328 444.841H176.328ZM174.368 437.201H179.04V435.201H174.368V437.201ZM178.052 436.359C178.692 440.367 179 443.178 179 444.841H181C181 443.005 180.668 440.056 180.028 436.043L178.052 436.359ZM164.232 444.713C164.232 442.751 163.715 441.094 162.531 439.91L161.117 441.324C161.81 442.017 162.232 443.091 162.232 444.713H164.232ZM162.531 439.91C161.355 438.734 159.749 438.209 157.856 438.209V440.209C159.377 440.209 160.415 440.622 161.117 441.324L162.531 439.91ZM157.856 438.209H157.152V440.209H157.856V438.209ZM157.152 438.209C155.428 438.209 153.941 438.605 152.811 439.52L154.069 441.074C154.731 440.538 155.718 440.209 157.152 440.209V438.209ZM152.811 439.52C151.691 440.426 151.096 441.625 151.096 443.049H153.096C153.096 442.255 153.397 441.618 154.069 441.074L152.811 439.52ZM151.096 443.049C151.096 444.501 151.717 445.892 152.795 447.204L154.341 445.934C153.456 444.857 153.096 443.901 153.096 443.049H151.096ZM152.798 447.207C153.921 448.564 155.457 449.768 157.369 450.834L158.343 449.088C156.585 448.107 155.263 447.049 154.338 445.931L152.798 447.207ZM157.856 450.961H162.784V448.961H157.856V450.961ZM163.767 450.142C164.079 448.454 164.232 446.643 164.232 444.713H162.232C162.232 446.538 162.087 448.226 161.801 449.78L163.767 450.142ZM148 504.759H147V505.759H148V504.759ZM148 499.575V498.575H147V499.575H148ZM153.056 499.575V500.575H156.389L153.606 498.74L153.056 499.575ZM149.92 484.727L149.311 483.934L149.302 483.941L149.92 484.727ZM177.184 484.919L177.828 484.154L177.817 484.145L177.184 484.919ZM179.04 495.543L178.135 495.119L178.129 495.13L178.124 495.142L179.04 495.543ZM176.8 499.319L176.011 498.705L174.755 500.319H176.8V499.319ZM191.712 499.319H192.712V498.319H191.712V499.319ZM191.712 504.759V505.759H192.712V504.759H191.712ZM173.472 489.271L174.082 488.478L174.077 488.475L173.472 489.271ZM153.568 495.863L152.784 496.484L152.787 496.488L153.568 495.863ZM157.856 499.319L157.369 500.192L157.596 500.319H157.856V499.319ZM171.936 499.319V500.319H172.337L172.626 500.042L171.936 499.319ZM174.24 496.119L173.345 495.672L173.339 495.684L174.24 496.119ZM149 504.759V499.575H147V504.759H149ZM148 500.575H153.056V498.575H148V500.575ZM153.606 498.74C149.878 496.282 148.232 493.628 148.232 490.807H146.232C146.232 494.556 148.469 497.748 152.506 500.41L153.606 498.74ZM148.232 490.807C148.232 488.413 149.028 486.7 150.538 485.513L149.302 483.941C147.228 485.57 146.232 487.91 146.232 490.807H148.232ZM150.529 485.52C152.119 484.3 154.534 483.615 157.92 483.615V481.615C154.308 481.615 151.39 482.338 149.311 483.934L150.529 485.52ZM157.92 483.615H169.312V481.615H157.92V483.615ZM169.312 483.615C172.541 483.615 174.911 484.351 176.551 485.693L177.817 484.145C175.703 482.415 172.825 481.615 169.312 481.615V483.615ZM176.54 485.684C178.15 487.038 179 488.973 179 491.639H181C181 488.502 179.973 485.958 177.828 484.154L176.54 485.684ZM179 491.639C179 492.701 178.726 493.858 178.135 495.119L179.945 495.967C180.634 494.498 181 493.052 181 491.639H179ZM178.124 495.142C177.559 496.433 176.855 497.62 176.011 498.705L177.589 499.933C178.537 498.714 179.326 497.384 179.956 495.944L178.124 495.142ZM176.8 500.319H191.712V498.319H176.8V500.319ZM190.712 499.319V504.759H192.712V499.319H190.712ZM191.712 503.759H148V505.759H191.712V503.759ZM176.136 492.855C176.136 491.043 175.463 489.541 174.082 488.478L172.862 490.064C173.699 490.707 174.136 491.595 174.136 492.855H176.136ZM174.077 488.475C172.755 487.47 170.85 487.055 168.544 487.055V489.055C170.675 489.055 172.056 489.451 172.867 490.067L174.077 488.475ZM168.544 487.055H158.624V489.055H168.544V487.055ZM158.624 487.055C156.378 487.055 154.524 487.396 153.203 488.212C151.802 489.077 151.096 490.418 151.096 492.087H153.096C153.096 491.068 153.478 490.393 154.253 489.914C155.108 489.386 156.518 489.055 158.624 489.055V487.055ZM151.096 492.087C151.096 493.641 151.697 495.113 152.785 496.484L154.351 495.242C153.477 494.139 153.096 493.093 153.096 492.087H151.096ZM152.787 496.488C153.911 497.893 155.451 499.122 157.369 500.192L158.343 498.446C156.591 497.468 155.273 496.393 154.349 495.238L152.787 496.488ZM157.856 500.319H171.936V498.319H157.856V500.319ZM172.626 500.042C173.657 499.059 174.494 497.893 175.141 496.554L173.339 495.684C172.791 496.82 172.092 497.787 171.246 498.596L172.626 500.042ZM175.134 496.566C175.777 495.28 176.136 494.037 176.136 492.855H174.136C174.136 493.635 173.897 494.568 173.346 495.672L175.134 496.566ZM179.232 548.316L179.204 549.316L180.044 549.339L180.212 548.516L179.232 548.316ZM174.624 548.189L173.65 547.964L173.375 549.154L174.596 549.188L174.624 548.189ZM169.248 536.924L168.615 536.151L168.595 536.167L168.575 536.185L169.248 536.924ZM167.776 539.165L166.874 538.732L166.87 538.741L167.776 539.165ZM164.96 545.181L165.865 545.606L165.866 545.604L164.96 545.181ZM156.064 550.621L156.05 551.62L156.057 551.621H156.064V550.621ZM149.408 547.932L148.646 548.58L148.647 548.582L149.408 547.932ZM148.576 531.548L148.629 530.55L147.806 530.507L147.606 531.306L148.576 531.548ZM153.44 531.805L154.4 532.086L154.756 530.872L153.493 530.806L153.44 531.805ZM152.864 544.029L152.039 544.593L152.049 544.608L152.059 544.622L152.864 544.029ZM158.816 544.604L158.275 543.763L158.255 543.777L158.235 543.791L158.816 544.604ZM160.352 542.621L161.262 543.034L161.266 543.026L160.352 542.621ZM163.104 536.413L162.194 535.999L162.19 536.007L163.104 536.413ZM166.176 532.253L165.595 531.439L165.585 531.446L165.576 531.453L166.176 532.253ZM171.232 530.973L171.261 529.973L171.247 529.973H171.232V530.973ZM177.76 533.66L176.998 534.308L176.999 534.31L177.76 533.66ZM179 541.853C179 543.556 178.756 545.64 178.252 548.117L180.212 548.516C180.732 545.959 181 543.733 181 541.853H179ZM179.26 547.317L174.652 547.189L174.596 549.188L179.204 549.316L179.26 547.317ZM175.598 548.413C176.124 546.138 176.392 544.034 176.392 542.109H174.392C174.392 543.852 174.148 545.802 173.65 547.964L175.598 548.413ZM176.392 542.109C176.392 540.113 176.076 538.444 175.305 537.247C174.484 535.974 173.223 535.349 171.68 535.349V537.349C172.611 537.349 173.206 537.683 173.623 538.33C174.089 539.053 174.392 540.264 174.392 542.109H176.392ZM171.68 535.349H171.104V537.349H171.68V535.349ZM171.104 535.349C170.168 535.349 169.306 535.585 168.615 536.151L169.881 537.698C170.129 537.496 170.504 537.349 171.104 537.349V535.349ZM168.575 536.185C167.96 536.744 167.402 537.632 166.874 538.732L168.678 539.597C169.174 538.564 169.597 537.959 169.921 537.664L168.575 536.185ZM166.87 538.741L164.054 544.757L165.866 545.604L168.682 539.588L166.87 538.741ZM164.055 544.755C163.253 546.46 162.297 547.669 161.22 548.451C160.154 549.226 158.918 549.621 157.472 549.621V551.621C159.311 551.621 160.966 551.109 162.396 550.07C163.815 549.039 164.961 547.528 165.865 545.606L164.055 544.755ZM157.472 549.621H156.064V551.621H157.472V549.621ZM156.078 549.621C153.336 549.581 151.426 548.756 150.169 547.283L148.647 548.582C150.377 550.608 152.904 551.575 156.05 551.62L156.078 549.621ZM150.17 547.285C148.946 545.845 148.232 543.424 148.232 539.805H146.232C146.232 543.609 146.969 546.607 148.646 548.58L150.17 547.285ZM148.232 539.805C148.232 538.01 148.655 535.354 149.546 531.791L147.606 531.306C146.705 534.911 146.232 537.759 146.232 539.805H148.232ZM148.523 532.547L153.387 532.803L153.493 530.806L148.629 530.55L148.523 532.547ZM152.48 531.523C151.53 534.765 151.032 537.493 151.032 539.677H153.032C153.032 537.764 153.473 535.244 154.4 532.086L152.48 531.523ZM151.032 539.677C151.032 541.786 151.299 543.511 152.039 544.593L153.689 543.464C153.32 542.924 153.032 541.748 153.032 539.677H151.032ZM152.059 544.622C152.901 545.765 154.213 546.245 155.744 546.245V544.245C154.63 544.245 154.021 543.914 153.669 543.435L152.059 544.622ZM155.744 546.245H156.384V544.245H155.744V546.245ZM156.384 546.245C157.536 546.245 158.575 546.005 159.397 545.418L158.235 543.791C157.862 544.057 157.28 544.245 156.384 544.245V546.245ZM159.357 545.446C160.173 544.921 160.79 544.073 161.262 543.034L159.442 542.207C159.06 543.045 158.653 543.52 158.275 543.763L159.357 545.446ZM161.266 543.026L164.018 536.818L162.19 536.007L159.438 542.215L161.266 543.026ZM164.014 536.826C164.823 535.046 165.757 533.817 166.776 533.053L165.576 531.453C164.206 532.48 163.091 534.024 162.194 535.999L164.014 536.826ZM166.757 533.066C167.769 532.343 168.949 531.973 170.336 531.973V529.973C168.565 529.973 166.972 530.455 165.595 531.439L166.757 533.066ZM170.336 531.973H171.232V529.973H170.336V531.973ZM171.203 531.972C173.91 532.052 175.781 532.877 176.998 534.308L178.522 533.013C176.837 531.031 174.357 530.064 171.261 529.973L171.203 531.972ZM176.999 534.31C178.268 535.796 179 538.242 179 541.853H181C181 538.039 180.239 535.024 178.521 533.011L176.999 534.31Z" fill="#A9A69C"/>
<path d="M147 131.904H168.328V138.467C168.328 140.342 167.903 142.017 167.054 143.491C166.214 144.976 165.013 146.133 163.45 146.963C161.897 147.793 160.13 148.208 158.147 148.208H157.166C155.184 148.208 153.421 147.798 151.878 146.978C150.335 146.167 149.139 145.02 148.289 143.535C147.439 142.051 147.01 140.376 147 138.511V131.904ZM164.769 136.299H150.53V138.423C150.53 140.142 151.092 141.455 152.215 142.363C153.338 143.271 154.944 143.735 157.034 143.755H158.162C160.33 143.755 161.971 143.306 163.084 142.407C164.207 141.509 164.769 140.195 164.769 138.467V136.299ZM155.071 159.479C156.644 159.479 158.045 159.781 159.275 160.387C160.506 160.992 161.458 161.861 162.132 162.994C162.806 164.137 163.143 165.46 163.143 166.964C163.143 169.103 162.488 170.846 161.18 172.193C159.871 173.551 158.094 174.308 155.848 174.464L154.764 174.493C152.332 174.493 150.379 173.814 148.904 172.457C147.439 171.1 146.707 169.278 146.707 166.993C146.707 164.708 147.439 162.882 148.904 161.515C150.369 160.157 152.361 159.479 154.881 159.479H155.071ZM154.764 163.712C153.26 163.712 152.107 163.995 151.307 164.562C150.516 165.128 150.12 165.938 150.12 166.993C150.12 168.019 150.511 168.819 151.292 169.396C152.083 169.972 153.343 170.26 155.071 170.26C156.546 170.26 157.688 169.972 158.499 169.396C159.31 168.819 159.715 168.009 159.715 166.964C159.715 165.929 159.31 165.128 158.499 164.562C157.698 163.995 156.453 163.712 154.764 163.712ZM152.757 199.885L162.85 201.965V206.052L147 202.009V198.464L156.976 195.461L147 192.458V188.928L162.85 184.885V188.972L152.771 191.037L162.85 193.938V196.999L152.757 199.885ZM162.85 221.058L161.019 221.189C162.435 222.322 163.143 223.841 163.143 225.745C163.143 227.425 162.649 228.675 161.663 229.495C160.677 230.315 159.202 230.735 157.239 230.755H147V226.521H157.137C158.035 226.521 158.685 226.326 159.085 225.936C159.495 225.545 159.7 224.896 159.7 223.987C159.7 222.796 159.192 221.902 158.177 221.307H147V217.073H162.85V221.058ZM147 247.445V243.197H169.5V247.445H147ZM155.071 259.287C156.644 259.287 158.045 259.59 159.275 260.195C160.506 260.801 161.458 261.67 162.132 262.803C162.806 263.945 163.143 265.269 163.143 266.772C163.143 268.911 162.488 270.654 161.18 272.002C159.871 273.359 158.094 274.116 155.848 274.272L154.764 274.302C152.332 274.302 150.379 273.623 148.904 272.266C147.439 270.908 146.707 269.087 146.707 266.802C146.707 264.517 147.439 262.69 148.904 261.323C150.369 259.966 152.361 259.287 154.881 259.287H155.071ZM154.764 263.521C153.26 263.521 152.107 263.804 151.307 264.37C150.516 264.937 150.12 265.747 150.12 266.802C150.12 267.827 150.511 268.628 151.292 269.204C152.083 269.78 153.343 270.068 155.071 270.068C156.546 270.068 157.688 269.78 158.499 269.204C159.31 268.628 159.715 267.817 159.715 266.772C159.715 265.737 159.31 264.937 158.499 264.37C157.698 263.804 156.453 263.521 154.764 263.521ZM155.042 285.25C157.513 285.25 159.48 285.802 160.945 286.905C162.41 288.019 163.143 289.537 163.143 291.461C163.143 293.004 162.566 294.278 161.414 295.284H169.5V299.532H147V295.709L148.685 295.504C147.366 294.449 146.707 293.092 146.707 291.432C146.707 289.566 147.439 288.067 148.904 286.935C150.379 285.812 152.425 285.25 155.042 285.25ZM154.734 289.483C153.25 289.483 152.112 289.742 151.321 290.26C150.53 290.777 150.135 291.529 150.135 292.516C150.135 293.824 150.687 294.747 151.79 295.284H158.045C159.148 294.757 159.7 293.844 159.7 292.545C159.7 290.504 158.045 289.483 154.734 289.483ZM151.38 320.397C151.897 320.397 152.303 320.139 152.596 319.621C152.898 319.113 153.167 318.293 153.401 317.16C154.192 313.391 155.794 311.506 158.206 311.506C159.612 311.506 160.784 312.087 161.722 313.249C162.669 314.421 163.143 315.949 163.143 317.834C163.143 319.846 162.669 321.452 161.722 322.653C160.774 323.864 159.544 324.47 158.03 324.47V320.236C158.636 320.236 159.134 320.041 159.524 319.65C159.925 319.26 160.125 318.649 160.125 317.819C160.125 317.106 159.964 316.555 159.642 316.164C159.319 315.773 158.909 315.578 158.411 315.578C157.942 315.578 157.562 315.798 157.269 316.237C156.985 316.687 156.736 317.438 156.521 318.493C156.316 319.548 156.082 320.437 155.818 321.159C154.998 323.396 153.577 324.514 151.556 324.514C150.11 324.514 148.938 323.894 148.04 322.653C147.151 321.413 146.707 319.812 146.707 317.849C146.707 316.521 146.941 315.339 147.41 314.304C147.889 313.278 148.538 312.473 149.358 311.887C150.188 311.301 151.082 311.008 152.039 311.008V315.021C151.287 315.061 150.711 315.339 150.311 315.856C149.91 316.374 149.71 317.067 149.71 317.937C149.71 318.747 149.861 319.357 150.164 319.768C150.477 320.188 150.882 320.397 151.38 320.397Z" fill="#4B4B4B"/>
</svg>
