<svg width="117" height="117" viewBox="0 0 117 117" fill="none" xmlns="http://www.w3.org/2000/svg">
<path d="M84.1622 14.8203H26.4422C23.8575 14.8203 21.7622 16.9156 21.7622 19.5003V97.5003C21.7622 100.085 23.8575 102.18 26.4422 102.18H84.1622C86.7469 102.18 88.8422 100.085 88.8422 97.5003V19.5003C88.8422 16.9156 86.7469 14.8203 84.1622 14.8203Z" fill="white"/>
<path d="M53.7422 63.1801L65.4422 75.6601L91.1822 49.9201L79.0922 37.8301L53.7422 63.1801Z" fill="#AD9D72"/>
<path d="M79.0923 37.4401C79.0923 37.4401 86.1123 28.4701 93.1323 36.6601C93.1323 36.6601 98.9823 43.2901 91.1823 49.5301L79.0923 37.4401Z" fill="#4B4B4B"/>
<path d="M52.962 63.96L44.772 84.63L64.662 76.44L52.962 63.96Z" fill="#AD9D72"/>
<path d="M81.822 25.3506H29.562V28.4706H81.822V25.3506Z" fill="#AD9D72"/>
<path d="M81.822 41.3398H29.562V44.4598H81.822V41.3398Z" fill="#AD9D72"/>
</svg>
