<svg width="117" height="117" viewBox="0 0 117 117" fill="none" xmlns="http://www.w3.org/2000/svg">
<path d="M23.5128 72.0918L21.0247 75.6603C20.8609 75.8987 20.7371 76.1621 20.6581 76.4403L18.2713 84.4665C18.1131 84.999 18.1264 85.5679 18.3093 86.0924C18.4922 86.617 18.8354 87.0708 19.2904 87.3895C19.7455 87.7082 20.2892 87.8758 20.8447 87.8684C21.4002 87.8611 21.9393 87.6792 22.3858 87.3486L29.082 82.38C27.4245 81.2095 26.0596 79.6721 25.0936 77.8876C24.1276 76.1031 23.5867 74.1196 23.5128 72.0918Z" fill="#AD9D72"/>
<path d="M100.62 47.7129H92.6719V87.4383C92.672 87.8898 92.7875 88.3337 93.0075 88.728C93.2274 89.1222 93.5445 89.4537 93.9287 89.6909C94.3128 89.9281 94.7512 90.0631 95.2022 90.0832C95.6532 90.1033 96.1019 90.0077 96.5056 89.8056L102.18 85.5858C102.513 85.34 102.783 85.0197 102.969 84.6506C103.155 84.2814 103.252 83.8738 103.253 83.4603V50.361C103.253 49.6614 102.976 48.9902 102.482 48.494C101.989 47.9978 101.32 47.717 100.62 47.7129Z" fill="#AD9D72"/>
<path d="M65.7343 16.4114C65.4496 16.2113 65.1281 16.0694 64.7883 15.9938C64.4485 15.9182 64.0972 15.9104 63.7544 15.9709C63.4116 16.0314 63.0842 16.159 62.7908 16.3464C62.4975 16.5337 62.244 16.7772 62.0449 17.0627L57.4858 23.5679L66.1633 29.6402L70.7224 23.135C70.9221 22.85 71.0636 22.5285 71.1389 22.1888C71.2142 21.8492 71.2218 21.498 71.1613 21.1553C71.1008 20.8127 70.9734 20.4854 70.7864 20.192C70.5993 19.8986 70.3563 19.645 70.0711 19.4456L65.7343 16.4114Z" fill="#AD9D72"/>
<path d="M32.6782 58.999C33.9741 58.5591 35.3308 58.3248 36.6991 58.3048H46.0942L63.1255 33.9844L54.448 27.9082L32.6782 58.999Z" fill="#AD9D72"/>
<path d="M31.8396 36.6913C30.3823 37.322 29.1484 38.3765 28.2984 39.7177L13.7007 62.7004C12.8321 64.4523 12.6415 66.4634 13.1655 68.3473C13.6896 70.2312 14.8914 71.855 16.5399 72.9067C16.5984 72.8092 16.6218 72.6961 16.6842 72.6025L45.1542 31.9411C44.0588 31.8515 42.9564 31.9773 41.9094 32.3116L31.8396 36.6913Z" fill="#AD9D72"/>
<path d="M34.0508 84.5244V86.1156C34.0341 86.6477 34.1245 87.1777 34.3166 87.6742C34.5087 88.1707 34.7986 88.6236 35.1691 89.0058C35.5396 89.3881 35.9832 89.6921 36.4734 89.8997C36.9636 90.1072 37.4906 90.2142 38.0229 90.2142C38.5553 90.2142 39.0822 90.1072 39.5725 89.8997C40.0627 89.6921 40.5062 89.3881 40.8767 89.0058C41.2472 88.6236 41.5371 88.1707 41.7292 87.6742C41.9213 87.1777 42.0118 86.6477 41.9951 86.1156V84.7935H36.6989C35.8094 84.7933 34.9222 84.7031 34.0508 84.5244Z" fill="#AD9D72"/>
<path d="M47.2954 84.7939V86.116C47.2954 87.1694 47.7136 88.1796 48.458 88.9248C49.2025 89.67 50.2123 90.0891 51.2656 90.0901C52.1866 90.082 53.0754 89.7501 53.7763 89.1526C54.4772 88.5551 54.9455 87.73 55.0993 86.8219C54.2335 86.467 53.3599 86.1433 52.5214 85.7299L50.6845 84.7939H47.2954Z" fill="#AD9D72"/>
<path d="M87.3602 47.7125H82.5164L65.684 39.5654L52.7243 58.0748C55.966 57.5882 58.9699 56.0862 61.3043 53.7848C61.8073 53.3179 62.4717 53.0642 63.1578 53.077C63.844 53.0897 64.4985 53.368 64.9837 53.8533C65.469 54.3385 65.7473 54.993 65.76 55.6792C65.7728 56.3654 65.5191 57.0298 65.0522 57.5327C61.1542 61.406 55.8872 63.5877 50.3921 63.605H36.6992C34.5922 63.605 32.5716 64.442 31.0817 65.9319C29.5919 67.4217 28.7549 69.4424 28.7549 71.5493C28.7549 73.6563 29.5919 75.677 31.0817 77.1668C32.5716 78.6566 34.5922 79.4936 36.6992 79.4936H51.956C53.2274 79.9928 60.302 84.7937 71.1323 84.7937C76.7451 84.7701 82.2845 83.5161 87.3602 81.1199V47.7125Z" fill="#AD9D72"/>
</svg>
