<svg width="764" height="69" viewBox="0 0 764 69" fill="none" xmlns="http://www.w3.org/2000/svg">
<path d="M20.352 12.08L21.308 11.7866L21.0912 11.08H20.352V12.08ZM33.216 54V55H34.5689L34.172 53.7066L33.216 54ZM27.328 54L26.3658 54.2722L26.5717 55H27.328V54ZM24.576 44.272L25.5382 43.9998L25.3323 43.272H24.576V44.272ZM9.152 44.272V43.272H8.39565L8.18976 43.9998L9.152 44.272ZM6.4 54V55H7.15635L7.36224 54.2722L6.4 54ZM0.832 54L-0.124408 53.708L-0.518922 55H0.832V54ZM13.632 12.08V11.08H12.8918L12.6756 11.788L13.632 12.08ZM16.896 17.072L17.858 16.7991L16.9008 13.4247L15.9347 16.7966L16.896 17.072ZM10.496 39.408L9.53468 39.1325L9.16923 40.408H10.496V39.408ZM23.232 39.408V40.408H24.5551L24.194 39.1351L23.232 39.408ZM19.396 12.3734L32.26 54.2934L34.172 53.7066L21.308 11.7866L19.396 12.3734ZM33.216 53H27.328V55H33.216V53ZM28.2902 53.7278L25.5382 43.9998L23.6138 44.5442L26.3658 54.2722L28.2902 53.7278ZM24.576 43.272H9.152V45.272H24.576V43.272ZM8.18976 43.9998L5.43776 53.7278L7.36224 54.2722L10.1142 44.5442L8.18976 43.9998ZM6.4 53H0.832V55H6.4V53ZM1.78841 54.292L14.5884 12.372L12.6756 11.788L-0.124408 53.708L1.78841 54.292ZM13.632 13.08H20.352V11.08H13.632V13.08ZM15.9347 16.7966L9.53468 39.1325L11.4573 39.6834L17.8573 17.3474L15.9347 16.7966ZM10.496 40.408H23.232V38.408H10.496V40.408ZM24.194 39.1351L17.858 16.7991L15.934 17.3449L22.27 39.6809L24.194 39.1351ZM72.47 22.128H73.47V21.3472L72.7125 21.1579L72.47 22.128ZM72.47 28.272L72.2739 29.2526L73.47 29.4918V28.272H72.47ZM62.87 32.56L62.0071 32.0546L61.87 32.2887V32.56H62.87ZM62.87 54V55H63.87V54H62.87ZM57.43 54H56.43V55H57.43V54ZM57.43 22.768V21.768H56.43V22.768H57.43ZM62.55 22.768H63.55V21.768H62.55V22.768ZM62.55 27.44H61.55V30.7767L63.3852 27.99L62.55 27.44ZM66.39 23.408L65.8467 22.5683L65.8353 22.5759L66.39 23.408ZM71.062 23C71.6259 23 72.0016 23.0417 72.2275 23.0981L72.7125 21.1579C72.2558 21.0437 71.6928 21 71.062 21V23ZM71.47 22.128V28.272H73.47V22.128H71.47ZM72.6661 27.2914C71.9359 27.1454 71.0312 27.08 69.974 27.08V29.08C70.9648 29.08 71.7241 29.1426 72.2739 29.2526L72.6661 27.2914ZM69.974 27.08C66.5699 27.08 63.9019 28.8195 62.0071 32.0546L63.7329 33.0654C65.3367 30.3271 67.4048 29.08 69.974 29.08V27.08ZM61.87 32.56V54H63.87V32.56H61.87ZM62.87 53H57.43V55H62.87V53ZM58.43 54V22.768H56.43V54H58.43ZM57.43 23.768H62.55V21.768H57.43V23.768ZM61.55 22.768V27.44H63.55V22.768H61.55ZM63.3852 27.99C64.4805 26.3267 65.6712 25.089 66.9447 24.24L65.8353 22.5759C64.2928 23.6043 62.9235 25.0546 61.7148 26.89L63.3852 27.99ZM66.9333 24.2476C68.2286 23.4094 69.5984 23 71.062 23V21C69.1976 21 67.4527 21.5293 65.8467 22.5684L66.9333 24.2476ZM114.477 22.832L115.477 22.8587L115.498 22.0393L114.699 21.857L114.477 22.832ZM114.349 27.632L114.13 28.6078L115.316 28.8736L115.349 27.6587L114.349 27.632ZM103.341 28.464L102.62 27.7709L102.613 27.7782L102.606 27.7857L103.341 28.464ZM103.405 48.368L102.684 49.0611L102.698 49.0752L102.712 49.0888L103.405 48.368ZM111.085 49.776L111.226 50.7659L111.085 49.776ZM114.349 49.136L115.349 49.1093L115.316 47.8835L114.122 48.1622L114.349 49.136ZM114.477 53.936L114.685 54.914L115.499 54.7407L115.477 53.9093L114.477 53.936ZM107.949 23C109.776 23 111.875 23.2643 114.255 23.807L114.699 21.857C112.215 21.2904 109.962 21 107.949 21V23ZM113.477 22.8053L113.349 27.6053L115.349 27.6587L115.477 22.8587L113.477 22.8053ZM114.568 26.6562C112.048 26.0915 109.838 25.8 107.949 25.8V27.8C109.644 27.8 111.7 28.0632 114.13 28.6078L114.568 26.6562ZM107.949 25.8C105.758 25.8 103.928 26.4109 102.62 27.7709L104.062 29.1571C104.887 28.2984 106.129 27.8 107.949 27.8V25.8ZM102.606 27.7857C101.359 29.1372 100.805 30.9915 100.805 33.2H102.805C102.805 31.3125 103.275 30.0095 104.076 29.1423L102.606 27.7857ZM100.805 33.2V43.504H102.805V33.2H100.805ZM100.805 43.504C100.805 45.7947 101.379 47.7035 102.684 49.0611L104.126 47.6749C103.298 46.8138 102.805 45.48 102.805 43.504H100.805ZM102.712 49.0888C104.051 50.3764 105.838 50.968 107.949 50.968V48.968C106.22 48.968 104.978 48.493 104.098 47.6472L102.712 49.0888ZM107.949 50.968C109.177 50.968 110.272 50.9024 111.226 50.7659L110.944 48.786C110.106 48.9056 109.11 48.968 107.949 48.968V50.968ZM111.226 50.7659C112.161 50.6325 113.279 50.4125 114.576 50.1098L114.122 48.1622C112.859 48.4569 111.801 48.6635 110.944 48.786L111.226 50.7659ZM113.349 49.1627L113.477 53.9627L115.477 53.9093L115.349 49.1093L113.349 49.1627ZM114.269 52.958C111.705 53.5043 109.582 53.768 107.885 53.768V55.768C109.772 55.768 112.044 55.477 114.685 54.914L114.269 52.958ZM107.885 53.768C104.202 53.768 101.623 52.8381 99.956 51.1528C98.2873 49.4655 97.365 46.8513 97.365 43.12H95.365C95.365 47.154 96.3627 50.3638 98.534 52.5592C100.707 54.7566 103.888 55.768 107.885 55.768V53.768ZM97.365 43.12V33.648H95.365V43.12H97.365ZM97.365 33.648C97.365 29.9181 98.2919 27.3046 99.9701 25.6172C101.647 23.9307 104.243 23 107.949 23V21C103.932 21 100.736 22.0106 98.5519 24.2068C96.3688 26.402 95.365 29.6126 95.365 33.648H97.365ZM146.583 26.928H145.583V30.0485L147.396 27.5092L146.583 26.928ZM161.047 24.816L160.255 25.4274L160.263 25.4375L160.271 25.4473L161.047 24.816ZM163.286 54V55H164.286V54H163.286ZM157.847 54H156.847V55H157.847V54ZM149.911 28.464L150.502 29.2704L149.911 28.464ZM146.583 32.304L145.717 31.803L145.583 32.0354V32.304H146.583ZM146.583 54V55H147.583V54H146.583ZM141.143 54H140.143V55H141.143V54ZM141.143 10.288V9.288H140.143V10.288H141.143ZM146.583 10.288H147.583V9.288H146.583V10.288ZM147.396 27.5092C149.617 24.4007 152.076 23 154.775 23V21C151.244 21 148.242 22.8847 145.769 26.3468L147.396 27.5092ZM154.775 23C157.248 23 159.024 23.8342 160.255 25.4274L161.838 24.2045C160.168 22.0431 157.762 21 154.775 21V23ZM160.271 25.4473C161.567 27.0394 162.286 29.4054 162.286 32.688H164.286C164.286 29.144 163.513 26.262 161.822 24.1847L160.271 25.4473ZM162.286 32.688V54H164.286V32.688H162.286ZM163.286 53H157.847V55H163.286V53ZM158.847 54V33.456H156.847V54H158.847ZM158.847 33.456C158.847 31.2463 158.493 29.416 157.645 28.111C156.748 26.7315 155.375 26.056 153.687 26.056V28.056C154.771 28.056 155.478 28.4472 155.968 29.201C156.506 30.0293 156.847 31.3991 156.847 33.456H158.847ZM153.687 26.056C152.183 26.056 150.722 26.6289 149.319 27.6576L150.502 29.2704C151.659 28.4218 152.715 28.056 153.687 28.056V26.056ZM149.319 27.6576C147.909 28.6914 146.713 30.0833 145.717 31.803L147.448 32.805C148.33 31.2821 149.352 30.1139 150.502 29.2704L149.319 27.6576ZM145.583 32.304V54H147.583V32.304H145.583ZM146.583 53H141.143V55H146.583V53ZM142.143 54V10.288H140.143V54H142.143ZM141.143 11.288H146.583V9.288H141.143V11.288ZM145.583 10.288V26.928H147.583V10.288H145.583ZM196.595 22.768H197.595V21.768H196.595V22.768ZM196.595 54V55H197.595V54H196.595ZM191.155 54H190.155V55H191.155V54ZM191.155 22.768V21.768H190.155V22.768H191.155ZM196.467 10.928L195.816 11.6873L195.829 11.6983L195.842 11.7089L196.467 10.928ZM196.467 17.136L197.085 17.9223L197.092 17.9169L196.467 17.136ZM191.219 17.136L190.568 17.8953L190.597 17.92L190.628 17.9424L191.219 17.136ZM191.219 10.928L190.594 10.1471L190.581 10.1577L190.568 10.1687L191.219 10.928ZM195.595 22.768V54H197.595V22.768H195.595ZM196.595 53H191.155V55H196.595V53ZM192.155 54V22.768H190.155V54H192.155ZM191.155 23.768H196.595V21.768H191.155V23.768ZM193.843 11.16C194.864 11.16 195.468 11.3889 195.816 11.6873L197.118 10.1687C196.271 9.44312 195.126 9.16 193.843 9.16V11.16ZM195.842 11.7089C196.209 12.0021 196.427 12.4194 196.427 13.104H198.427C198.427 11.9113 198.005 10.8779 197.092 10.1471L195.842 11.7089ZM196.427 13.104V14.96H198.427V13.104H196.427ZM196.427 14.96C196.427 15.6446 196.209 16.0619 195.842 16.3551L197.092 17.9169C198.005 17.1861 198.427 16.1527 198.427 14.96H196.427ZM195.849 16.3497C195.499 16.6252 194.881 16.84 193.843 16.84V18.84C195.109 18.84 196.241 18.5855 197.085 17.9223L195.849 16.3497ZM193.843 16.84C192.864 16.84 192.223 16.6319 191.81 16.3296L190.628 17.9424C191.495 18.5788 192.603 18.84 193.843 18.84V16.84ZM191.87 16.3767C191.537 16.0917 191.323 15.6687 191.323 14.96H189.323C189.323 16.1286 189.706 17.1563 190.568 17.8953L191.87 16.3767ZM191.323 14.96V13.104H189.323V14.96H191.323ZM191.323 13.104C191.323 12.3953 191.537 11.9723 191.87 11.6873L190.568 10.1687C189.706 10.9077 189.323 11.9354 189.323 13.104H191.323ZM191.844 11.7089C192.253 11.3817 192.881 11.16 193.843 11.16V9.16C192.587 9.16 191.465 9.45032 190.594 10.1471L191.844 11.7089ZM247.258 22.768L248.213 23.0636L248.614 21.768H247.258V22.768ZM237.594 54V55H238.331L238.549 54.2956L237.594 54ZM230.49 54L229.534 54.2938L229.751 55H230.49V54ZM220.89 22.768V21.768H219.536L219.934 23.0618L220.89 22.768ZM226.65 22.768L227.615 22.5053L227.414 21.768H226.65V22.768ZM234.074 50.032L233.109 50.2947L234.074 53.8381L235.039 50.2947L234.074 50.032ZM241.498 22.768V21.768H240.734L240.533 22.5053L241.498 22.768ZM246.303 22.4724L236.639 53.7044L238.549 54.2956L248.213 23.0636L246.303 22.4724ZM237.594 53H230.49V55H237.594V53ZM231.446 53.7062L221.846 22.4742L219.934 23.0618L229.534 54.2938L231.446 53.7062ZM220.89 23.768H226.65V21.768H220.89V23.768ZM225.685 23.0307L233.109 50.2947L235.039 49.7693L227.615 22.5053L225.685 23.0307ZM235.039 50.2947L242.463 23.0307L240.533 22.5053L233.109 49.7693L235.039 50.2947ZM241.498 23.768H247.258V21.768H241.498V23.768ZM289.799 24.944L290.522 24.2528L289.799 24.944ZM292.616 40.048V41.048H293.616V40.048H292.616ZM276.168 40.048V39.048H275.168V40.048H276.168ZM277.704 48.56L277.012 49.282L277.027 49.2967L277.043 49.3107L277.704 48.56ZM291.016 48.944L292.015 48.917L291.983 47.7247L290.815 47.9644L291.016 48.944ZM291.144 53.68L291.323 54.6637L292.166 54.5096L292.143 53.653L291.144 53.68ZM273.48 52.016L272.772 52.7232L272.781 52.7312L273.48 52.016ZM273.416 24.944L272.685 24.2611L272.677 24.2697L273.416 24.944ZM277.64 28.144L278.362 28.8359L278.369 28.8286L278.375 28.8211L277.64 28.144ZM276.168 35.696H275.168V36.696H276.168V35.696ZM287.176 35.696V36.696H288.176V35.696H287.176ZM285.64 28.144L284.904 28.8211L284.911 28.8289L284.918 28.8365L285.64 28.144ZM281.608 23C285.01 23 287.443 23.9271 289.077 25.6352L290.522 24.2528C288.401 22.0355 285.373 21 281.608 21V23ZM289.077 25.6352C290.719 27.3523 291.616 29.9055 291.616 33.456H293.616C293.616 29.5825 292.634 26.461 290.522 24.2528L289.077 25.6352ZM291.616 33.456V40.048H293.616V33.456H291.616ZM292.616 39.048H276.168V41.048H292.616V39.048ZM275.168 40.048V43.824H277.168V40.048H275.168ZM275.168 43.824C275.168 46.1291 275.707 48.0316 277.012 49.282L278.395 47.838C277.652 47.1257 277.168 45.8709 277.168 43.824H275.168ZM277.043 49.3107C278.373 50.4816 280.327 50.968 282.696 50.968V48.968C280.541 48.968 279.167 48.5157 278.364 47.8093L277.043 49.3107ZM282.696 50.968C285.007 50.968 287.853 50.6135 291.216 49.9236L290.815 47.9644C287.522 48.6398 284.821 48.968 282.696 48.968V50.968ZM290.016 48.971L290.144 53.707L292.143 53.653L292.015 48.917L290.016 48.971ZM290.964 52.6963C286.997 53.4214 284.239 53.768 282.632 53.768V55.768C284.438 55.768 287.354 55.3892 291.323 54.6637L290.964 52.6963ZM282.632 53.768C278.517 53.768 275.783 52.8687 274.178 51.3008L272.781 52.7312C274.931 54.8326 278.299 55.768 282.632 55.768V53.768ZM274.187 51.3089C272.613 49.7354 271.728 47.2053 271.728 43.504H269.728C269.728 47.4827 270.677 50.6272 272.772 52.7231L274.187 51.3089ZM271.728 43.504V33.456H269.728V43.504H271.728ZM271.728 33.456C271.728 29.8943 272.587 27.3346 274.154 25.6183L272.677 24.2697C270.66 26.4787 269.728 29.5937 269.728 33.456H271.728ZM274.146 25.6269C275.732 23.9299 278.157 23 281.608 23V21C277.805 21 274.768 22.0328 272.685 24.2611L274.146 25.6269ZM281.608 25.544C279.709 25.544 278.103 26.1632 276.904 27.4669L278.375 28.8211C279.139 27.9915 280.178 27.544 281.608 27.544V25.544ZM276.918 27.4521C275.699 28.7239 275.168 30.5037 275.168 32.624H277.168C277.168 30.819 277.618 29.6121 278.362 28.8359L276.918 27.4521ZM275.168 32.624V35.696H277.168V32.624H275.168ZM276.168 36.696H287.176V34.696H276.168V36.696ZM288.176 35.696V32.816H286.176V35.696H288.176ZM288.176 32.816C288.176 30.6105 287.623 28.7661 286.361 27.4515L284.918 28.8365C285.704 29.6552 286.176 30.9255 286.176 32.816H288.176ZM286.375 27.4669C285.171 26.1577 283.54 25.544 281.608 25.544V27.544C283.089 27.544 284.145 27.997 284.904 28.8211L286.375 27.4669ZM372.293 12.08H373.293V11.08H372.293V12.08ZM372.293 17.008V18.008H373.293V17.008H372.293ZM355.652 17.008V16.008H354.652V17.008H355.652ZM355.652 30.256H354.652V31.256H355.652V30.256ZM371.013 30.256H372.013V29.256H371.013V30.256ZM371.013 35.12V36.12H372.013V35.12H371.013ZM355.652 35.12V34.12H354.652V35.12H355.652ZM355.652 49.072H354.652V50.072H355.652V49.072ZM372.293 49.072H373.293V48.072H372.293V49.072ZM372.293 54V55H373.293V54H372.293ZM350.212 54H349.212V55H350.212V54ZM350.212 12.08V11.08H349.212V12.08H350.212ZM371.293 12.08V17.008H373.293V12.08H371.293ZM372.293 16.008H355.652V18.008H372.293V16.008ZM354.652 17.008V30.256H356.652V17.008H354.652ZM355.652 31.256H371.013V29.256H355.652V31.256ZM370.013 30.256V35.12H372.013V30.256H370.013ZM371.013 34.12H355.652V36.12H371.013V34.12ZM354.652 35.12V49.072H356.652V35.12H354.652ZM355.652 50.072H372.293V48.072H355.652V50.072ZM371.293 49.072V54H373.293V49.072H371.293ZM372.293 53H350.212V55H372.293V53ZM351.212 54V12.08H349.212V54H351.212ZM350.212 13.08H372.293V11.08H350.212V13.08ZM421.595 22.768L422.448 23.2894L423.378 21.768H421.595V22.768ZM412.443 37.744L411.59 37.2225L411.272 37.7419L411.588 38.2625L412.443 37.744ZM422.299 54V55H424.075L423.154 53.4815L422.299 54ZM416.091 54L415.224 54.4991L415.513 55H416.091V54ZM409.051 41.776L409.918 41.2769L409.039 39.7514L408.179 41.2873L409.051 41.776ZM402.203 54V55H402.789L403.075 54.4887L402.203 54ZM395.995 54L395.14 53.482L394.22 55H395.995V54ZM405.723 37.936L406.578 38.454L406.89 37.9387L406.581 37.422L405.723 37.936ZM396.635 22.768V21.768H394.87L395.777 23.282L396.635 22.768ZM402.843 22.768L403.713 22.2756L403.426 21.768H402.843V22.768ZM409.179 33.968L408.309 34.4604L409.175 35.9912L410.047 34.4641L409.179 33.968ZM415.579 22.768V21.768H414.999L414.711 22.2719L415.579 22.768ZM420.742 22.2465L411.59 37.2225L413.296 38.2654L422.448 23.2894L420.742 22.2465ZM411.588 38.2625L421.444 54.5185L423.154 53.4815L413.298 37.2255L411.588 38.2625ZM422.299 53H416.091V55H422.299V53ZM416.958 53.5009L409.918 41.2769L408.184 42.2751L415.224 54.4991L416.958 53.5009ZM408.179 41.2873L401.331 53.5113L403.075 54.4887L409.923 42.2647L408.179 41.2873ZM402.203 53H395.995V55H402.203V53ZM396.85 54.518L406.578 38.454L404.868 37.418L395.14 53.482L396.85 54.518ZM406.581 37.422L397.493 22.254L395.777 23.282L404.865 38.45L406.581 37.422ZM396.635 23.768H402.843V21.768H396.635V23.768ZM401.973 23.2604L408.309 34.4604L410.049 33.4756L403.713 22.2756L401.973 23.2604ZM410.047 34.4641L416.447 23.2641L414.711 22.2719L408.311 33.4719L410.047 34.4641ZM415.579 23.768H421.595V21.768H415.579V23.768ZM451.733 26.928H450.733V30.0485L452.546 27.5092L451.733 26.928ZM466.197 24.816L465.405 25.4274L465.413 25.4375L465.421 25.4473L466.197 24.816ZM468.436 54V55H469.436V54H468.436ZM462.996 54H461.996V55H462.996V54ZM455.06 28.464L455.652 29.2704L455.06 28.464ZM451.733 32.304L450.867 31.803L450.733 32.0354V32.304H451.733ZM451.733 54V55H452.733V54H451.733ZM446.293 54H445.293V55H446.293V54ZM446.293 10.288V9.288H445.293V10.288H446.293ZM451.733 10.288H452.733V9.288H451.733V10.288ZM452.546 27.5092C454.767 24.4007 457.226 23 459.924 23V21C456.394 21 453.392 22.8847 450.919 26.3468L452.546 27.5092ZM459.924 23C462.398 23 464.174 23.8342 465.405 25.4274L466.988 24.2045C465.318 22.0431 462.912 21 459.924 21V23ZM465.421 25.4473C466.717 27.0394 467.436 29.4054 467.436 32.688H469.436C469.436 29.144 468.663 26.262 466.972 24.1847L465.421 25.4473ZM467.436 32.688V54H469.436V32.688H467.436ZM468.436 53H462.996V55H468.436V53ZM463.996 54V33.456H461.996V54H463.996ZM463.996 33.456C463.996 31.2463 463.643 29.416 462.795 28.111C461.898 26.7315 460.525 26.056 458.836 26.056V28.056C459.921 28.056 460.628 28.4472 461.118 29.201C461.656 30.0293 461.996 31.3991 461.996 33.456H463.996ZM458.836 26.056C457.333 26.056 455.872 26.6289 454.469 27.6576L455.652 29.2704C456.809 28.4218 457.865 28.056 458.836 28.056V26.056ZM454.469 27.6576C453.059 28.6914 451.863 30.0833 450.867 31.803L452.598 32.805C453.48 31.2821 454.502 30.1139 455.652 29.2704L454.469 27.6576ZM450.733 32.304V54H452.733V32.304H450.733ZM451.733 53H446.293V55H451.733V53ZM447.293 54V10.288H445.293V54H447.293ZM446.293 11.288H451.733V9.288H446.293V11.288ZM450.733 10.288V26.928H452.733V10.288H450.733ZM501.745 22.768H502.745V21.768H501.745V22.768ZM501.745 54V55H502.745V54H501.745ZM496.305 54H495.305V55H496.305V54ZM496.305 22.768V21.768H495.305V22.768H496.305ZM501.617 10.928L500.966 11.6873L500.979 11.6983L500.992 11.7089L501.617 10.928ZM501.617 17.136L502.235 17.9223L502.242 17.9169L501.617 17.136ZM496.369 17.136L495.718 17.8953L495.747 17.92L495.778 17.9424L496.369 17.136ZM496.369 10.928L495.744 10.1471L495.731 10.1577L495.718 10.1687L496.369 10.928ZM500.745 22.768V54H502.745V22.768H500.745ZM501.745 53H496.305V55H501.745V53ZM497.305 54V22.768H495.305V54H497.305ZM496.305 23.768H501.745V21.768H496.305V23.768ZM498.993 11.16C500.014 11.16 500.618 11.3889 500.966 11.6873L502.268 10.1687C501.421 9.44312 500.276 9.16 498.993 9.16V11.16ZM500.992 11.7089C501.359 12.0021 501.577 12.4194 501.577 13.104H503.577C503.577 11.9113 503.155 10.8779 502.242 10.1471L500.992 11.7089ZM501.577 13.104V14.96H503.577V13.104H501.577ZM501.577 14.96C501.577 15.6446 501.359 16.0619 500.992 16.3551L502.242 17.9169C503.155 17.1861 503.577 16.1527 503.577 14.96H501.577ZM500.999 16.3497C500.649 16.6252 500.031 16.84 498.993 16.84V18.84C500.259 18.84 501.391 18.5855 502.235 17.9223L500.999 16.3497ZM498.993 16.84C498.014 16.84 497.373 16.6319 496.96 16.3296L495.778 17.9424C496.645 18.5788 497.753 18.84 498.993 18.84V16.84ZM497.02 16.3767C496.687 16.0917 496.473 15.6687 496.473 14.96H494.473C494.473 16.1286 494.856 17.1563 495.718 17.8953L497.02 16.3767ZM496.473 14.96V13.104H494.473V14.96H496.473ZM496.473 13.104C496.473 12.3953 496.687 11.9723 497.02 11.6873L495.718 10.1687C494.856 10.9077 494.473 11.9354 494.473 13.104H496.473ZM496.994 11.7089C497.403 11.3817 498.031 11.16 498.993 11.16V9.16C497.737 9.16 496.615 9.45032 495.744 10.1471L496.994 11.7089ZM535 26.928H534V30.0904L535.818 27.5029L535 26.928ZM538.84 23.28L538.333 22.4181L538.84 23.28ZM549.528 24.816L548.737 25.4275L548.744 25.4362L549.528 24.816ZM548.952 51.824L549.683 52.5069L549.69 52.499L548.952 51.824ZM532.184 51.888L532.923 51.2145L532.184 51.888ZM529.56 10.288V9.288H528.56V10.288H529.56ZM535 10.288H536V9.288H535V10.288ZM538.328 28.272L538.919 29.0784V29.0784L538.328 28.272ZM535 32.112L534.135 31.611L534 31.8434V32.112H535ZM536.408 48.56L535.645 49.2059L535.652 49.2143L535.659 49.2226L536.408 48.56ZM535.818 27.5029C536.857 26.024 538.036 24.913 539.347 24.1419L538.333 22.4181C536.743 23.3536 535.361 24.6747 534.182 26.3531L535.818 27.5029ZM539.347 24.1419C540.655 23.3728 541.995 23 543.384 23V21C541.615 21 539.927 21.4805 538.333 22.4181L539.347 24.1419ZM543.384 23C545.76 23 547.499 23.8257 548.737 25.4274L550.319 24.2045C548.656 22.0516 546.298 21 543.384 21V23ZM548.744 25.4362C549.999 27.0238 550.704 29.4535 550.704 32.88H552.704C552.704 29.2238 551.958 26.2775 550.312 24.1958L548.744 25.4362ZM550.704 32.88V42.992H552.704V32.88H550.704ZM550.704 42.992C550.704 46.7312 549.82 49.3938 548.214 51.149L549.69 52.499C551.753 50.2435 552.704 47.0181 552.704 42.992H550.704ZM548.221 51.1411C546.645 52.8274 544.124 53.768 540.44 53.768V55.768C544.436 55.768 547.59 54.7459 549.683 52.5069L548.221 51.1411ZM540.44 53.768C536.839 53.768 534.411 52.848 532.923 51.2145L531.445 52.5615C533.455 54.768 536.532 55.768 540.44 55.768V53.768ZM532.923 51.2145C531.41 49.5533 530.56 46.92 530.56 43.12H528.56C528.56 47.1707 529.46 50.3827 531.445 52.5615L532.923 51.2145ZM530.56 43.12V10.288H528.56V43.12H530.56ZM529.56 11.288H535V9.288H529.56V11.288ZM534 10.288V26.928H536V10.288H534ZM542.104 25.864C540.601 25.864 539.139 26.4369 537.737 27.4656L538.919 29.0784C540.077 28.2298 541.133 27.864 542.104 27.864V25.864ZM537.737 27.4656C536.327 28.4994 535.13 29.8913 534.135 31.611L535.865 32.613C536.747 31.0901 537.769 29.9219 538.919 29.0784L537.737 27.4656ZM534 32.112V43.76H536V32.112H534ZM534 43.76C534 45.9854 534.498 47.8512 535.645 49.2059L537.171 47.9141C536.44 47.0502 536 45.7159 536 43.76H534ZM535.659 49.2226C536.86 50.5801 538.495 51.224 540.44 51.224V49.224C538.972 49.224 537.919 48.7585 537.157 47.8974L535.659 49.2226ZM540.44 51.224C542.57 51.224 544.34 50.6156 545.557 49.2381C546.754 47.8842 547.264 45.9551 547.264 43.632H545.264C545.264 45.7036 544.804 47.0705 544.059 47.9139C543.334 48.7337 542.193 49.224 540.44 49.224V51.224ZM547.264 43.632V33.648H545.264V43.632H547.264ZM547.264 33.648C547.264 31.317 546.913 29.4006 546.077 28.0372C545.192 26.594 543.819 25.864 542.104 25.864V27.864C543.162 27.864 543.87 28.2646 544.372 29.0827C544.922 29.9808 545.264 31.4564 545.264 33.648H547.264ZM584.645 22.768H585.645V21.768H584.645V22.768ZM584.645 54V55H585.645V54H584.645ZM579.205 54H578.205V55H579.205V54ZM579.205 22.768V21.768H578.205V22.768H579.205ZM584.517 10.928L583.866 11.6873L583.879 11.6983L583.892 11.7089L584.517 10.928ZM584.517 17.136L585.135 17.9223L585.142 17.9169L584.517 17.136ZM579.269 17.136L578.618 17.8953L578.647 17.92L578.678 17.9424L579.269 17.136ZM579.269 10.928L578.644 10.1471L578.631 10.1577L578.618 10.1687L579.269 10.928ZM583.645 22.768V54H585.645V22.768H583.645ZM584.645 53H579.205V55H584.645V53ZM580.205 54V22.768H578.205V54H580.205ZM579.205 23.768H584.645V21.768H579.205V23.768ZM581.893 11.16C582.914 11.16 583.518 11.3889 583.866 11.6873L585.168 10.1687C584.321 9.44312 583.176 9.16 581.893 9.16V11.16ZM583.892 11.7089C584.259 12.0021 584.477 12.4194 584.477 13.104H586.477C586.477 11.9113 586.055 10.8779 585.142 10.1471L583.892 11.7089ZM584.477 13.104V14.96H586.477V13.104H584.477ZM584.477 14.96C584.477 15.6446 584.259 16.0619 583.892 16.3551L585.142 17.9169C586.055 17.1861 586.477 16.1527 586.477 14.96H584.477ZM583.899 16.3497C583.549 16.6252 582.931 16.84 581.893 16.84V18.84C583.159 18.84 584.291 18.5855 585.135 17.9223L583.899 16.3497ZM581.893 16.84C580.914 16.84 580.273 16.6319 579.86 16.3296L578.678 17.9424C579.545 18.5788 580.653 18.84 581.893 18.84V16.84ZM579.92 16.3767C579.587 16.0917 579.373 15.6687 579.373 14.96H577.373C577.373 16.1286 577.756 17.1563 578.618 17.8953L579.92 16.3767ZM579.373 14.96V13.104H577.373V14.96H579.373ZM579.373 13.104C579.373 12.3953 579.587 11.9723 579.92 11.6873L578.618 10.1687C577.756 10.9077 577.373 11.9354 577.373 13.104H579.373ZM579.894 11.7089C580.303 11.3817 580.931 11.16 581.893 11.16V9.16C580.637 9.16 579.515 9.45032 578.644 10.1471L579.894 11.7089ZM619.18 22.768H618.18V23.768H619.18V22.768ZM627.5 22.768H628.5V21.768H627.5V22.768ZM627.5 27.248V28.248H628.5V27.248H627.5ZM619.18 27.248V26.248H618.18V27.248H619.18ZM620.14 49.072L619.39 49.7336L619.411 49.757L619.433 49.7791L620.14 49.072ZM628.524 49.456L629.524 49.4278L629.489 48.1841L628.281 48.4859L628.524 49.456ZM628.652 54L628.915 54.9648L629.674 54.7579L629.652 53.9718L628.652 54ZM616.044 52.528L615.337 53.2351L615.347 53.2449L615.357 53.2545L616.044 52.528ZM613.74 27.248H614.74V26.248H613.74V27.248ZM609.26 27.248H608.26V28.248H609.26V27.248ZM609.26 22.768V21.768H608.26V22.768H609.26ZM613.74 22.768V23.768H614.624L614.732 22.8902L613.74 22.768ZM614.764 14.448V13.448H613.88L613.771 14.3258L614.764 14.448ZM619.18 14.448H620.18V13.448H619.18V14.448ZM619.18 23.768H627.5V21.768H619.18V23.768ZM626.5 22.768V27.248H628.5V22.768H626.5ZM627.5 26.248H619.18V28.248H627.5V26.248ZM618.18 27.248V45.552H620.18V27.248H618.18ZM618.18 45.552C618.18 47.2643 618.511 48.7368 619.39 49.7336L620.89 48.4104C620.489 47.9566 620.18 47.0823 620.18 45.552H618.18ZM619.433 49.7791C620.374 50.7206 621.724 51.096 623.276 51.096V49.096C622.012 49.096 621.271 48.7888 620.847 48.3649L619.433 49.7791ZM623.276 51.096C625.148 51.096 626.979 50.873 628.767 50.4261L628.281 48.4859C626.656 48.8923 624.988 49.096 623.276 49.096V51.096ZM627.524 49.4842L627.652 54.0282L629.652 53.9718L629.524 49.4278L627.524 49.4842ZM628.389 53.0352C626.576 53.5298 624.959 53.768 623.532 53.768V55.768C625.177 55.768 626.974 55.4942 628.915 54.9648L628.389 53.0352ZM623.532 53.768C620.234 53.768 618.043 53.042 616.731 51.8015L615.357 53.2545C617.203 55.0006 620.003 55.768 623.532 55.768V53.768ZM616.751 51.8209C615.486 50.5556 614.74 48.399 614.74 45.104H612.74C612.74 48.6356 613.53 51.4284 615.337 53.2351L616.751 51.8209ZM614.74 45.104V27.248H612.74V45.104H614.74ZM613.74 26.248H609.26V28.248H613.74V26.248ZM610.26 27.248V22.768H608.26V27.248H610.26ZM609.26 23.768H613.74V21.768H609.26V23.768ZM614.732 22.8902L615.756 14.5702L613.771 14.3258L612.747 22.6458L614.732 22.8902ZM614.764 15.448H619.18V13.448H614.764V15.448ZM618.18 14.448V22.768H620.18V14.448H618.18ZM659.045 22.768H660.045V21.768H659.045V22.768ZM659.045 54V55H660.045V54H659.045ZM653.605 54H652.605V55H653.605V54ZM653.605 22.768V21.768H652.605V22.768H653.605ZM658.917 10.928L658.266 11.6873L658.279 11.6983L658.292 11.7089L658.917 10.928ZM658.917 17.136L659.535 17.9223L659.542 17.9169L658.917 17.136ZM653.669 17.136L653.018 17.8953L653.047 17.92L653.078 17.9424L653.669 17.136ZM653.669 10.928L653.044 10.1471L653.031 10.1577L653.018 10.1687L653.669 10.928ZM658.045 22.768V54H660.045V22.768H658.045ZM659.045 53H653.605V55H659.045V53ZM654.605 54V22.768H652.605V54H654.605ZM653.605 23.768H659.045V21.768H653.605V23.768ZM656.293 11.16C657.314 11.16 657.918 11.3889 658.266 11.6873L659.568 10.1687C658.721 9.44312 657.576 9.16 656.293 9.16V11.16ZM658.292 11.7089C658.659 12.0021 658.877 12.4194 658.877 13.104H660.877C660.877 11.9113 660.455 10.8779 659.542 10.1471L658.292 11.7089ZM658.877 13.104V14.96H660.877V13.104H658.877ZM658.877 14.96C658.877 15.6446 658.659 16.0619 658.292 16.3551L659.542 17.9169C660.455 17.1861 660.877 16.1527 660.877 14.96H658.877ZM658.299 16.3497C657.949 16.6252 657.331 16.84 656.293 16.84V18.84C657.559 18.84 658.691 18.5855 659.535 17.9223L658.299 16.3497ZM656.293 16.84C655.314 16.84 654.673 16.6319 654.26 16.3296L653.078 17.9424C653.945 18.5788 655.053 18.84 656.293 18.84V16.84ZM654.32 16.3767C653.987 16.0917 653.773 15.6687 653.773 14.96H651.773C651.773 16.1286 652.156 17.1563 653.018 17.8953L654.32 16.3767ZM653.773 14.96V13.104H651.773V14.96H653.773ZM653.773 13.104C653.773 12.3953 653.987 11.9723 654.32 11.6873L653.018 10.1687C652.156 10.9077 651.773 11.9354 651.773 13.104H653.773ZM654.294 11.7089C654.703 11.3817 655.331 11.16 656.293 11.16V9.16C655.036 9.16 653.915 9.45032 653.044 10.1471L654.294 11.7089ZM706.252 25.072L705.507 25.7392L705.515 25.7474L705.522 25.7554L706.252 25.072ZM706.252 51.76L705.515 51.0843L705.514 51.085L706.252 51.76ZM689.292 51.76L688.547 52.4272L688.555 52.4354L688.562 52.4434L689.292 51.76ZM689.292 25.072L688.555 24.3963L688.554 24.397L689.292 25.072ZM693.516 28.272L694.263 28.9364L693.516 28.272ZM693.516 48.496L694.263 47.8316L693.516 48.496ZM702.092 48.496L701.345 47.8316L702.092 48.496ZM702.092 28.272L701.345 28.9364L701.351 28.9434L701.357 28.9503L702.092 28.272ZM697.804 23C701.43 23 703.926 23.9744 705.507 25.7392L706.997 24.4048C704.909 22.0736 701.773 21 697.804 21V23ZM705.522 25.7554C707.172 27.5184 708.068 30.099 708.068 33.648H710.068C710.068 29.773 709.086 26.6363 706.982 24.3886L705.522 25.7554ZM708.068 33.648V43.12H710.068V33.648H708.068ZM708.068 43.12C708.068 46.6675 707.173 49.2754 705.515 51.0843L706.989 52.4357C709.086 50.1486 710.068 46.9965 710.068 43.12H708.068ZM705.514 51.085C703.935 52.8115 701.435 53.768 697.804 53.768V55.768C701.767 55.768 704.9 54.7192 706.99 52.435L705.514 51.085ZM697.804 53.768C694.174 53.768 691.647 52.8122 690.022 51.0766L688.562 52.4434C690.692 54.7185 693.839 55.768 697.804 55.768V53.768ZM690.037 51.0928C688.417 49.2841 687.54 46.673 687.54 43.12H685.54C685.54 46.991 686.498 50.1399 688.547 52.4272L690.037 51.0928ZM687.54 43.12V33.648H685.54V43.12H687.54ZM687.54 33.648C687.54 30.0935 688.417 27.5096 690.03 25.747L688.554 24.397C686.497 26.645 685.54 29.7785 685.54 33.648H687.54ZM690.029 25.7477C691.655 23.9737 694.18 23 697.804 23V21C693.833 21 690.683 22.0743 688.555 24.3963L690.029 25.7477ZM697.804 25.544C695.743 25.544 694.019 26.2014 692.769 27.6076L694.263 28.9364C695.061 28.0386 696.195 27.544 697.804 27.544V25.544ZM692.769 27.6076C691.529 29.0026 690.98 30.916 690.98 33.2H692.98C692.98 31.2174 693.455 29.8454 694.263 28.9364L692.769 27.6076ZM690.98 33.2V43.568H692.98V33.2H690.98ZM690.98 43.568C690.98 45.852 691.529 47.7654 692.769 49.1604L694.263 47.8316C693.455 46.9226 692.98 45.5506 692.98 43.568H690.98ZM692.769 49.1604C694.019 50.5666 695.743 51.224 697.804 51.224V49.224C696.195 49.224 695.061 48.7294 694.263 47.8316L692.769 49.1604ZM697.804 51.224C699.865 51.224 701.589 50.5666 702.839 49.1604L701.345 47.8316C700.547 48.7294 699.412 49.224 697.804 49.224V51.224ZM702.839 49.1604C704.079 47.7654 704.628 45.852 704.628 43.568H702.628C702.628 45.5506 702.153 46.9226 701.345 47.8316L702.839 49.1604ZM704.628 43.568V33.136H702.628V43.568H704.628ZM704.628 33.136C704.628 30.8551 704.081 28.952 702.827 27.5937L701.357 28.9503C702.151 29.8106 702.628 31.1503 702.628 33.136H704.628ZM702.839 27.6076C701.589 26.2014 699.865 25.544 697.804 25.544V27.544C699.412 27.544 700.547 28.0386 701.345 28.9364L702.839 27.6076ZM756.471 24.816L755.68 25.4274L755.688 25.4375L755.696 25.4473L756.471 24.816ZM758.712 54V55H759.712V54H758.712ZM753.272 54H752.272V55H753.272V54ZM745.336 28.464L745.927 29.2704L745.336 28.464ZM742.008 32.304L741.142 31.803L741.008 32.0354V32.304H742.008ZM742.008 54V55H743.008V54H742.008ZM736.568 54H735.568V55H736.568V54ZM736.568 22.768V21.768H735.568V22.768H736.568ZM741.688 22.768H742.688V21.768H741.688V22.768ZM741.688 27.44H740.688V30.7767L742.523 27.99L741.688 27.44ZM745.528 23.408L744.984 22.5683L744.973 22.5759L745.528 23.408ZM750.2 23C752.673 23 754.449 23.8342 755.68 25.4274L757.263 24.2045C755.593 22.0431 753.187 21 750.2 21V23ZM755.696 25.4473C756.992 27.0394 757.712 29.4054 757.712 32.688H759.712C759.712 29.144 758.938 26.262 757.247 24.1847L755.696 25.4473ZM757.712 32.688V54H759.712V32.688H757.712ZM758.712 53H753.272V55H758.712V53ZM754.272 54V33.456H752.272V54H754.272ZM754.272 33.456C754.272 31.2463 753.918 29.416 753.07 28.111C752.173 26.7315 750.8 26.056 749.112 26.056V28.056C750.196 28.056 750.903 28.4472 751.393 29.201C751.931 30.0293 752.272 31.3991 752.272 33.456H754.272ZM749.112 26.056C747.608 26.056 746.147 26.6289 744.744 27.6576L745.927 29.2704C747.084 28.4218 748.14 28.056 749.112 28.056V26.056ZM744.744 27.6576C743.334 28.6914 742.138 30.0833 741.142 31.803L742.873 32.805C743.755 31.2821 744.777 30.1139 745.927 29.2704L744.744 27.6576ZM741.008 32.304V54H743.008V32.304H741.008ZM742.008 53H736.568V55H742.008V53ZM737.568 54V22.768H735.568V54H737.568ZM736.568 23.768H741.688V21.768H736.568V23.768ZM740.688 22.768V27.44H742.688V22.768H740.688ZM742.523 27.99C743.618 26.3267 744.809 25.089 746.082 24.24L744.973 22.5759C743.43 23.6043 742.061 25.0546 740.852 26.89L742.523 27.99ZM746.071 24.2476C747.366 23.4094 748.736 23 750.2 23V21C748.335 21 746.59 21.5293 744.984 22.5684L746.071 24.2476Z" fill="#A9A69C"/>
<path d="M13.9453 50.6055H6.24023L4.77539 55H0.102539L8.04199 33.6719H12.1143L20.0977 55H15.4248L13.9453 50.6055ZM7.42676 47.0459H12.7588L10.0781 39.0625L7.42676 47.0459ZM39.7178 43.1201C39.1416 43.042 38.6338 43.0029 38.1943 43.0029C36.5928 43.0029 35.543 43.5449 35.0449 44.6289V55H30.8115V39.1504H34.8105L34.9277 41.04C35.7773 39.585 36.9541 38.8574 38.458 38.8574C38.9268 38.8574 39.3662 38.9209 39.7764 39.0479L39.7178 43.1201ZM57.0674 51.8799C57.8486 51.8799 58.4834 51.665 58.9717 51.2354C59.46 50.8057 59.7139 50.2344 59.7334 49.5215H63.7031C63.6934 50.5957 63.4004 51.582 62.8242 52.4805C62.248 53.3691 61.457 54.0625 60.4512 54.5605C59.4551 55.0488 58.3516 55.293 57.1406 55.293C54.875 55.293 53.0879 54.5752 51.7793 53.1396C50.4707 51.6943 49.8164 49.7021 49.8164 47.1631V46.8848C49.8164 44.4434 50.4658 42.4951 51.7646 41.04C53.0635 39.585 54.8457 38.8574 57.1113 38.8574C59.0938 38.8574 60.6807 39.4238 61.8721 40.5566C63.0732 41.6797 63.6836 43.1787 63.7031 45.0537H59.7334C59.7139 44.2334 59.46 43.5693 58.9717 43.0615C58.4834 42.5439 57.8389 42.2852 57.0381 42.2852C56.0518 42.2852 55.3047 42.6465 54.7969 43.3691C54.2988 44.082 54.0498 45.2441 54.0498 46.8555V47.2949C54.0498 48.9258 54.2988 50.0977 54.7969 50.8105C55.2949 51.5234 56.0518 51.8799 57.0674 51.8799ZM79.251 40.8789C80.374 39.5312 81.7852 38.8574 83.4844 38.8574C86.9219 38.8574 88.665 40.8545 88.7139 44.8486V55H84.4805V44.9658C84.4805 44.0576 84.2852 43.3887 83.8945 42.959C83.5039 42.5195 82.8545 42.2998 81.9463 42.2998C80.7061 42.2998 79.8076 42.7783 79.251 43.7354V55H75.0176V32.5H79.251V40.8789ZM105.375 55H101.127V39.1504H105.375V55ZM100.878 35.0488C100.878 34.4141 101.088 33.8916 101.508 33.4814C101.938 33.0713 102.519 32.8662 103.251 32.8662C103.974 32.8662 104.55 33.0713 104.979 33.4814C105.409 33.8916 105.624 34.4141 105.624 35.0488C105.624 35.6934 105.404 36.2207 104.965 36.6309C104.535 37.041 103.964 37.2461 103.251 37.2461C102.538 37.2461 101.962 37.041 101.522 36.6309C101.093 36.2207 100.878 35.6934 100.878 35.0488ZM123.809 49.8291L126.753 39.1504H131.177L125.83 55H121.787L116.44 39.1504H120.864L123.809 49.8291ZM149.142 55.293C146.817 55.293 144.923 54.5801 143.458 53.1543C142.003 51.7285 141.275 49.8291 141.275 47.4561V47.0459C141.275 45.4541 141.583 44.0332 142.198 42.7832C142.813 41.5234 143.683 40.5566 144.806 39.8828C145.938 39.1992 147.228 38.8574 148.673 38.8574C150.841 38.8574 152.545 39.541 153.785 40.9082C155.035 42.2754 155.66 44.2139 155.66 46.7236V48.4521H145.567C145.704 49.4873 146.114 50.3174 146.798 50.9424C147.491 51.5674 148.365 51.8799 149.42 51.8799C151.051 51.8799 152.325 51.2891 153.243 50.1074L155.323 52.4365C154.688 53.335 153.829 54.0381 152.745 54.5459C151.661 55.0439 150.46 55.293 149.142 55.293ZM148.658 42.2852C147.818 42.2852 147.135 42.5684 146.607 43.1348C146.09 43.7012 145.758 44.5117 145.611 45.5664H151.5V45.2295C151.48 44.292 151.227 43.5693 150.738 43.0615C150.25 42.5439 149.557 42.2852 148.658 42.2852ZM196.658 45.7568H188.221V51.4697H198.123V55H183.826V33.6719H198.094V37.2314H188.221V42.3145H196.658V45.7568ZM215.458 43.8818L218.124 39.1504H222.65L218.139 46.9141L222.841 55H218.3L215.473 50.0195L212.66 55H208.104L212.807 46.9141L208.31 39.1504H212.851L215.458 43.8818ZM237.817 40.8789C238.94 39.5312 240.352 38.8574 242.051 38.8574C245.488 38.8574 247.231 40.8545 247.28 44.8486V55H243.047V44.9658C243.047 44.0576 242.852 43.3887 242.461 42.959C242.07 42.5195 241.421 42.2998 240.513 42.2998C239.272 42.2998 238.374 42.7783 237.817 43.7354V55H233.584V32.5H237.817V40.8789ZM263.941 55H259.693V39.1504H263.941V55ZM259.444 35.0488C259.444 34.4141 259.654 33.8916 260.074 33.4814C260.504 33.0713 261.085 32.8662 261.817 32.8662C262.54 32.8662 263.116 33.0713 263.546 33.4814C263.976 33.8916 264.19 34.4141 264.19 35.0488C264.19 35.6934 263.971 36.2207 263.531 36.6309C263.102 37.041 262.53 37.2461 261.817 37.2461C261.104 37.2461 260.528 37.041 260.089 36.6309C259.659 36.2207 259.444 35.6934 259.444 35.0488ZM290.725 47.2217C290.725 49.7607 290.183 51.7432 289.099 53.1689C288.015 54.585 286.501 55.293 284.558 55.293C282.839 55.293 281.467 54.6338 280.441 53.3154L280.251 55H276.442V32.5H280.676V40.5713C281.652 39.4287 282.937 38.8574 284.528 38.8574C286.462 38.8574 287.976 39.5703 289.069 40.9961C290.173 42.4121 290.725 44.4092 290.725 46.9873V47.2217ZM286.491 46.9141C286.491 45.3125 286.237 44.1455 285.729 43.4131C285.222 42.6709 284.465 42.2998 283.459 42.2998C282.111 42.2998 281.184 42.8516 280.676 43.9551V50.21C281.193 51.3232 282.131 51.8799 283.488 51.8799C284.855 51.8799 285.754 51.2061 286.184 49.8584C286.389 49.2139 286.491 48.2324 286.491 46.9141ZM306.814 55H302.566V39.1504H306.814V55ZM302.317 35.0488C302.317 34.4141 302.527 33.8916 302.947 33.4814C303.377 33.0713 303.958 32.8662 304.69 32.8662C305.413 32.8662 305.989 33.0713 306.419 33.4814C306.849 33.8916 307.063 34.4141 307.063 35.0488C307.063 35.6934 306.844 36.2207 306.404 36.6309C305.975 37.041 305.403 37.2461 304.69 37.2461C303.978 37.2461 303.401 37.041 302.962 36.6309C302.532 36.2207 302.317 35.6934 302.317 35.0488ZM324.384 35.2539V39.1504H327.094V42.2559H324.384V50.166C324.384 50.752 324.496 51.1719 324.721 51.4258C324.945 51.6797 325.375 51.8066 326.01 51.8066C326.479 51.8066 326.894 51.7725 327.255 51.7041V54.9121C326.425 55.166 325.57 55.293 324.691 55.293C321.723 55.293 320.209 53.7939 320.15 50.7959V42.2559H317.836V39.1504H320.15V35.2539H324.384ZM342.92 55H338.672V39.1504H342.92V55ZM338.423 35.0488C338.423 34.4141 338.633 33.8916 339.053 33.4814C339.482 33.0713 340.063 32.8662 340.796 32.8662C341.519 32.8662 342.095 33.0713 342.524 33.4814C342.954 33.8916 343.169 34.4141 343.169 35.0488C343.169 35.6934 342.949 36.2207 342.51 36.6309C342.08 37.041 341.509 37.2461 340.796 37.2461C340.083 37.2461 339.507 37.041 339.067 36.6309C338.638 36.2207 338.423 35.6934 338.423 35.0488ZM354.762 46.9287C354.762 45.3564 355.064 43.9551 355.67 42.7246C356.275 41.4941 357.145 40.542 358.277 39.8682C359.42 39.1943 360.743 38.8574 362.247 38.8574C364.386 38.8574 366.129 39.5117 367.477 40.8203C368.834 42.1289 369.591 43.9062 369.747 46.1523L369.776 47.2363C369.776 49.668 369.098 51.6211 367.74 53.0957C366.383 54.5605 364.562 55.293 362.276 55.293C359.991 55.293 358.165 54.5605 356.798 53.0957C355.44 51.6309 354.762 49.6387 354.762 47.1191V46.9287ZM358.995 47.2363C358.995 48.7402 359.278 49.8926 359.845 50.6934C360.411 51.4844 361.222 51.8799 362.276 51.8799C363.302 51.8799 364.103 51.4893 364.679 50.708C365.255 49.917 365.543 48.6572 365.543 46.9287C365.543 45.4541 365.255 44.3115 364.679 43.501C364.103 42.6904 363.292 42.2852 362.247 42.2852C361.212 42.2852 360.411 42.6904 359.845 43.501C359.278 44.3018 358.995 45.5469 358.995 47.2363ZM385.28 39.1504L385.412 40.9814C386.545 39.5654 388.063 38.8574 389.968 38.8574C391.647 38.8574 392.897 39.3506 393.718 40.3369C394.538 41.3232 394.958 42.7979 394.978 44.7607V55H390.744V44.8633C390.744 43.9648 390.549 43.3154 390.158 42.915C389.768 42.5049 389.118 42.2998 388.21 42.2998C387.019 42.2998 386.125 42.8076 385.529 43.8232V55H381.296V39.1504H385.28Z" fill="#4B4B4B"/>
</svg>
