<svg width="25" height="24" viewBox="0 0 25 24" fill="none" xmlns="http://www.w3.org/2000/svg">
<path d="M14.5002 5.00006C14.7338 4.9996 14.9603 5.08098 15.1402 5.23006C15.2415 5.31401 15.3252 5.41711 15.3865 5.53346C15.4479 5.6498 15.4857 5.77711 15.4977 5.90809C15.5098 6.03906 15.4959 6.17114 15.4569 6.29674C15.4178 6.42234 15.3544 6.53901 15.2702 6.64006L10.7902 12.0001L15.1102 17.3701C15.1933 17.4723 15.2553 17.59 15.2927 17.7164C15.3302 17.8427 15.3422 17.9752 15.3283 18.1062C15.3144 18.2373 15.2747 18.3643 15.2115 18.4799C15.1483 18.5955 15.0629 18.6975 14.9602 18.7801C14.8567 18.8711 14.7356 18.9398 14.6043 18.9818C14.473 19.0237 14.3345 19.0381 14.1974 19.0241C14.0603 19.01 13.9276 18.9677 13.8076 18.8999C13.6877 18.8321 13.583 18.7402 13.5002 18.6301L8.67019 12.6301C8.52311 12.4511 8.44271 12.2267 8.44271 11.9951C8.44271 11.7634 8.52311 11.539 8.67019 11.3601L13.6702 5.36006C13.7705 5.23904 13.8979 5.14338 14.0422 5.08083C14.1864 5.01828 14.3433 4.99061 14.5002 5.00006Z" fill="#272727"/>
</svg>
